G04*
G04 #@! TF.GenerationSoftware,Altium Limited,Altium Designer,25.1.2 (22)*
G04*
G04 Layer_Physical_Order=2*
G04 Layer_Color=32768*
%FSLAX44Y44*%
%MOMM*%
G71*
G04*
G04 #@! TF.SameCoordinates,E71A8306-440F-4DE3-8FE2-6B8E257990A7*
G04*
G04*
G04 #@! TF.FilePolarity,Negative*
G04*
G01*
G75*
%ADD67C,1.0160*%
%ADD68C,2.8160*%
%ADD69C,2.0160*%
%ADD70C,2.0560*%
%ADD71C,1.3970*%
D67*
X1270000Y-0D02*
Y1587500D01*
X-0D02*
X1270000D01*
X-0Y-0D02*
Y1587500D01*
Y-0D02*
X1270000D01*
D68*
X1181100Y821776D02*
D03*
Y625943D02*
D03*
Y1017610D02*
D03*
Y1213444D02*
D03*
Y1409278D02*
D03*
D69*
X224000Y109450D02*
D03*
X237850Y81050D02*
D03*
X251700Y109450D02*
D03*
X265550Y81050D02*
D03*
X279400Y109450D02*
D03*
X293250Y81050D02*
D03*
X307100Y109450D02*
D03*
X320950Y81050D02*
D03*
X334800Y109450D02*
D03*
X1046000D02*
D03*
X1032150Y81050D02*
D03*
X1018300Y109450D02*
D03*
X1004450Y81050D02*
D03*
X990600Y109450D02*
D03*
X976750Y81050D02*
D03*
X962900Y109450D02*
D03*
X949050Y81050D02*
D03*
X935200Y109450D02*
D03*
X579600D02*
D03*
X593450Y81050D02*
D03*
X607300Y109450D02*
D03*
X621150Y81050D02*
D03*
X635000Y109450D02*
D03*
X648850Y81050D02*
D03*
X662700Y109450D02*
D03*
X676550Y81050D02*
D03*
X690400Y109450D02*
D03*
D70*
X952460Y370909D02*
D03*
X927060D02*
D03*
X952460Y396309D02*
D03*
X927060D02*
D03*
X952460Y421709D02*
D03*
X927060D02*
D03*
X952460Y447109D02*
D03*
Y472509D02*
D03*
X927060D02*
D03*
X952460Y497909D02*
D03*
X927060D02*
D03*
X952460Y523309D02*
D03*
X927060D02*
D03*
X952460Y548709D02*
D03*
X927060D02*
D03*
Y574109D02*
D03*
X952460Y599509D02*
D03*
X927060D02*
D03*
X952460Y624909D02*
D03*
X927060D02*
D03*
X952460Y650309D02*
D03*
X927060D02*
D03*
X952460Y675709D02*
D03*
X927060D02*
D03*
X952460Y701109D02*
D03*
X927060D02*
D03*
X952460Y726509D02*
D03*
X927060D02*
D03*
X952460Y751909D02*
D03*
Y777309D02*
D03*
X927060D02*
D03*
X952460Y802709D02*
D03*
X927060D02*
D03*
X952460Y828109D02*
D03*
X927060D02*
D03*
X952460Y853509D02*
D03*
X927060D02*
D03*
X952460Y878909D02*
D03*
X927060D02*
D03*
X952460Y904309D02*
D03*
X927060D02*
D03*
X952460Y929709D02*
D03*
X927060D02*
D03*
X952460Y955109D02*
D03*
X927060D02*
D03*
X952460Y980509D02*
D03*
X927060D02*
D03*
Y1005909D02*
D03*
X952460Y1031309D02*
D03*
X927060D02*
D03*
X952460Y1056709D02*
D03*
X927060D02*
D03*
X952460Y1082109D02*
D03*
X927060D02*
D03*
X952460Y1107509D02*
D03*
X927060D02*
D03*
X952460Y1132909D02*
D03*
Y1158309D02*
D03*
X927060D02*
D03*
X952460Y1183709D02*
D03*
X927060D02*
D03*
X952460Y1209109D02*
D03*
X927060D02*
D03*
X952460Y1234509D02*
D03*
X927060D02*
D03*
X342860Y371159D02*
D03*
X317460D02*
D03*
X342860Y396559D02*
D03*
X317460D02*
D03*
X342860Y421959D02*
D03*
X317460D02*
D03*
X342860Y447359D02*
D03*
X317460D02*
D03*
X342860Y472759D02*
D03*
X317460D02*
D03*
Y498159D02*
D03*
X342860Y523559D02*
D03*
X317460D02*
D03*
X342860Y548959D02*
D03*
X317460D02*
D03*
X342860Y574359D02*
D03*
X317460D02*
D03*
X342860Y599759D02*
D03*
X317460D02*
D03*
X342860Y625159D02*
D03*
Y650559D02*
D03*
X317460D02*
D03*
X342860Y675959D02*
D03*
X317460D02*
D03*
X342860Y701359D02*
D03*
X317460D02*
D03*
X342860Y726759D02*
D03*
X317460D02*
D03*
X342860Y752159D02*
D03*
X317460D02*
D03*
X342860Y777559D02*
D03*
X317460D02*
D03*
X342860Y802959D02*
D03*
X317460D02*
D03*
X342860Y828359D02*
D03*
X317460D02*
D03*
X342860Y853759D02*
D03*
X317460D02*
D03*
X342860Y879159D02*
D03*
X317460D02*
D03*
X342860Y904559D02*
D03*
X317460D02*
D03*
X342860Y929959D02*
D03*
X317460D02*
D03*
X342860Y955359D02*
D03*
X317460D02*
D03*
Y980759D02*
D03*
X342860Y1031559D02*
D03*
X317460D02*
D03*
X342860Y1056959D02*
D03*
X317460D02*
D03*
X342860Y1082359D02*
D03*
X317460D02*
D03*
X342860Y1107759D02*
D03*
X317460D02*
D03*
X342860Y1133159D02*
D03*
X317460D02*
D03*
Y1158559D02*
D03*
X342860Y1183959D02*
D03*
X317460D02*
D03*
X342860Y1209359D02*
D03*
X317460D02*
D03*
X342860Y1234759D02*
D03*
X317460D02*
D03*
D71*
X792480Y1261110D02*
D03*
X806450Y1163320D02*
D03*
X285750Y1122680D02*
D03*
X283210Y471170D02*
D03*
X458470Y561340D02*
D03*
X807720Y194310D02*
D03*
X754380Y251460D02*
D03*
X572770Y190500D02*
D03*
X529590Y246380D02*
D03*
X309266Y188407D02*
D03*
X835660Y427990D02*
D03*
X746760Y491490D02*
D03*
X763270Y579120D02*
D03*
X820420Y890270D02*
D03*
X132080Y453390D02*
D03*
X24130Y471170D02*
D03*
X124460Y177800D02*
D03*
X30480Y143510D02*
D03*
X1233170Y184150D02*
D03*
X1150620Y450850D02*
D03*
X913130Y35560D02*
D03*
X1094740Y33020D02*
D03*
X717550Y34290D02*
D03*
X553720Y33020D02*
D03*
X342881Y34274D02*
D03*
X163830Y34290D02*
D03*
X109220Y703580D02*
D03*
X39370Y668020D02*
D03*
X937580Y1392580D02*
D03*
X825500Y1535430D02*
D03*
X581660Y1412240D02*
D03*
X394044Y1527520D02*
D03*
X325120Y1342390D02*
D03*
X607060Y1266190D02*
D03*
X623570Y1076960D02*
D03*
X388620Y797560D02*
D03*
X471170Y754380D02*
D03*
X660400Y791210D02*
D03*
X311150Y273050D02*
D03*
X1206500Y354330D02*
D03*
X1167130Y167640D02*
D03*
X699770Y1173480D02*
D03*
X536954Y398300D02*
D03*
X535940Y566420D02*
D03*
X1126490Y1379220D02*
D03*
X1008380Y1019810D02*
D03*
X1074588Y1477726D02*
D03*
Y1198326D02*
D03*
Y1058626D02*
D03*
Y779226D02*
D03*
Y639526D02*
D03*
Y499826D02*
D03*
Y360126D02*
D03*
Y220426D02*
D03*
X519601Y571403D02*
D03*
X539330Y609600D02*
D03*
X538140Y523461D02*
D03*
Y483065D02*
D03*
X509710Y483364D02*
D03*
X59282Y910141D02*
D03*
X64770Y1007110D02*
D03*
Y987110D02*
D03*
X113030Y132715D02*
D03*
X612512Y339146D02*
D03*
X447961Y131911D02*
D03*
X537312Y439263D02*
D03*
X520371Y401394D02*
D03*
X699513Y1214231D02*
D03*
X671556Y1175741D02*
D03*
X96436Y1084920D02*
D03*
X75936Y1084921D02*
D03*
X520700Y1214120D02*
D03*
X521153Y1174297D02*
D03*
X492760Y1173480D02*
D03*
X76200Y1276350D02*
D03*
X96699Y1276349D02*
D03*
X804230Y132080D02*
D03*
X92531Y133351D02*
D03*
X824400Y131910D02*
D03*
X819150Y311150D02*
D03*
X806450D02*
D03*
X669410Y265464D02*
D03*
X468630Y132080D02*
D03*
X434892Y383310D02*
D03*
X65255Y1385177D02*
D03*
Y1365177D02*
D03*
Y1169343D02*
D03*
Y1189343D02*
D03*
X112332Y910141D02*
D03*
X1145540Y1074420D02*
D03*
X419100Y264905D02*
D03*
X663061Y375209D02*
D03*
X412750Y374650D02*
D03*
X459740Y383270D02*
D03*
X709930D02*
D03*
X641890Y415290D02*
D03*
X198713Y1052702D02*
D03*
Y1193412D02*
D03*
X197247Y1474833D02*
D03*
X198713Y1334122D02*
D03*
X196759Y911992D02*
D03*
X195781Y771281D02*
D03*
X195292Y630571D02*
D03*
X194804Y489861D02*
D03*
X195292Y349151D02*
D03*
X195781Y208440D02*
D03*
X1143000Y1287780D02*
D03*
Y1266190D02*
D03*
X1144000Y501650D02*
D03*
X1144002Y692912D02*
D03*
X892209Y287800D02*
D03*
X915069Y289293D02*
D03*
X732790Y361921D02*
D03*
X485140Y361950D02*
D03*
X870099Y273780D02*
D03*
M02*
