G04*
G04 #@! TF.GenerationSoftware,Altium Limited,Altium Designer,25.1.2 (22)*
G04*
G04 Layer_Physical_Order=1*
G04 Layer_Color=255*
%FSLAX44Y44*%
%MOMM*%
G71*
G04*
G04 #@! TF.SameCoordinates,E71A8306-440F-4DE3-8FE2-6B8E257990A7*
G04*
G04*
G04 #@! TF.FilePolarity,Positive*
G04*
G01*
G75*
%ADD13C,0.1270*%
%ADD14C,0.1778*%
%ADD17R,4.2418X2.0574*%
%ADD18R,2.2606X1.2446*%
%ADD19R,3.8100X1.9050*%
%ADD20R,1.5500X1.2700*%
%ADD21R,0.8000X1.2500*%
G04:AMPARAMS|DCode=22|XSize=1.97mm|YSize=0.6mm|CornerRadius=0.075mm|HoleSize=0mm|Usage=FLASHONLY|Rotation=270.000|XOffset=0mm|YOffset=0mm|HoleType=Round|Shape=RoundedRectangle|*
%AMROUNDEDRECTD22*
21,1,1.9700,0.4500,0,0,270.0*
21,1,1.8200,0.6000,0,0,270.0*
1,1,0.1500,-0.2250,-0.9100*
1,1,0.1500,-0.2250,0.9100*
1,1,0.1500,0.2250,0.9100*
1,1,0.1500,0.2250,-0.9100*
%
%ADD22ROUNDEDRECTD22*%
%ADD23R,0.9500X1.4000*%
%ADD24R,1.4000X0.9500*%
%ADD25R,1.7582X1.3055*%
%ADD26R,1.2500X0.8000*%
%ADD27R,1.4500X1.2000*%
%ADD28R,1.0922X1.1938*%
%ADD29R,1.2700X1.5500*%
%ADD30R,1.1000X1.3000*%
%ADD31R,0.9017X1.3970*%
%ADD52R,1.3208X0.5588*%
%ADD53C,0.3810*%
%ADD54C,0.7620*%
%ADD55C,1.2700*%
%ADD56C,0.5080*%
%ADD57C,0.6350*%
%ADD58C,2.7000*%
%ADD59C,1.5080*%
%ADD60R,1.5080X1.5080*%
%ADD61C,4.0660*%
%ADD62C,6.0000*%
%ADD63C,1.3900*%
%ADD64R,1.3900X1.3900*%
%ADD65C,0.7620*%
%ADD66C,6.3500*%
D13*
X293250Y81050D02*
X295539Y83339D01*
X301779D02*
X320040Y101600D01*
Y125730D01*
X295539Y83339D02*
X301779D01*
X307100Y111623D02*
X312166Y116689D01*
Y128991D02*
X357419Y174244D01*
X320040Y125730D02*
X360680Y166370D01*
X312166Y116689D02*
Y128991D01*
X307100Y109450D02*
Y111623D01*
X398780Y282271D02*
X406449Y289940D01*
X398780Y264518D02*
Y282271D01*
Y264518D02*
X408359Y254939D01*
X431510Y289940D02*
X439420Y282030D01*
X429600Y254939D02*
X439420Y264759D01*
Y282030D01*
X659250Y208331D02*
X666496Y201086D01*
X662700Y113187D02*
X665480Y107950D01*
X662700Y113187D02*
X666496Y116983D01*
X652550Y81050D02*
X674370Y102870D01*
X679570Y208331D02*
Y256215D01*
X674370Y203131D02*
X679570Y208331D01*
X666496Y116983D02*
Y201086D01*
X674370Y102870D02*
Y203131D01*
X659250Y208331D02*
Y208839D01*
X648850Y81050D02*
X652550D01*
X679570Y256215D02*
X688996Y265641D01*
X659115Y208975D02*
Y256110D01*
X688996Y265641D02*
Y283324D01*
X679570Y290499D02*
X681821D01*
X688996Y283324D01*
X659115Y208975D02*
X659250Y208839D01*
X649826Y265399D02*
X659115Y256110D01*
X649826Y265399D02*
Y283324D01*
X657001Y290499D01*
X659250D01*
X675640Y293864D02*
X679005Y290499D01*
X675640Y293864D02*
Y309310D01*
X679005Y290499D02*
X679570D01*
X662940Y293864D02*
Y309310D01*
X659575Y290499D02*
X662940Y293864D01*
X406449Y289940D02*
X410949D01*
X429600Y208112D02*
Y254939D01*
X405852Y166370D02*
X423037Y183556D01*
X360680Y166370D02*
X405852D01*
X423037Y183556D02*
Y201567D01*
X402590Y174244D02*
X415163Y186817D01*
X357419Y174244D02*
X402590D01*
X415163Y186817D02*
Y201549D01*
X408940Y207772D02*
X415163Y201549D01*
X423799Y202311D02*
X429260Y207772D01*
X423781Y202311D02*
X423799D01*
X423037Y201567D02*
X423781Y202311D01*
X429260Y207772D02*
Y208280D01*
X408940Y207772D02*
Y208280D01*
X408359Y208353D02*
Y254939D01*
X414924Y298911D02*
Y306457D01*
X412630Y308751D02*
X414924Y306457D01*
X410949Y289940D02*
X415042Y294034D01*
Y298792D01*
X414924Y298911D02*
X415042Y298792D01*
X429260Y289940D02*
X431510D01*
X422916Y298792D02*
X423036Y298911D01*
X422916Y294034D02*
Y298792D01*
Y294034D02*
X427010Y289940D01*
X429260D01*
X423036Y306457D02*
X425330Y308751D01*
X423036Y298911D02*
Y306457D01*
D14*
X528320Y300990D02*
Y313690D01*
X533400Y318770D02*
X554917D01*
X528320Y313690D02*
X533400Y318770D01*
X528320Y300990D02*
X548640Y280670D01*
X622300D01*
X577142Y296037D02*
X612086D01*
X617649Y301600D01*
X617830D01*
X554917Y318770D02*
X573967Y337820D01*
X576580D01*
X552805Y379321D02*
X556104D01*
X940009Y318971D02*
X1058320Y200660D01*
X1109067D01*
X1043940Y340360D02*
X1103683D01*
X991870Y392430D02*
X1043940Y340360D01*
X966056Y510954D02*
X998220Y478790D01*
X948276Y510954D02*
X966056D01*
X998220Y478790D02*
X1105094D01*
X939800Y519430D02*
X948276Y510954D01*
X939800Y519430D02*
Y764569D01*
X985000Y694913D02*
X1060153Y619760D01*
X1106112D01*
X1021109Y759460D02*
X1110008D01*
X955069Y825500D02*
X1021109Y759460D01*
X1008409Y899160D02*
X1104292D01*
X952460Y955109D02*
X1008409Y899160D01*
X1066459Y1043940D02*
X1071539Y1038860D01*
X939829Y1043940D02*
X1066459D01*
X927060Y1056709D02*
X939829Y1043940D01*
X1071539Y1038860D02*
X1104770D01*
X985000Y1157720D02*
X1005840Y1178560D01*
X1103849D01*
X990600Y1301750D02*
X1007110Y1318260D01*
X1103666D01*
X896261Y1457960D02*
X1102974D01*
X342860Y904559D02*
X896261Y1457960D01*
X632460Y391160D02*
X650240Y373380D01*
X632460Y584309D02*
X927060Y878909D01*
X632460Y391160D02*
Y584309D01*
X650240Y358710D02*
Y373380D01*
X688340Y358710D02*
Y373380D01*
X703961Y389001D01*
X688340Y343942D02*
Y358710D01*
X703961Y389001D02*
Y609981D01*
X939800Y821690D02*
Y1018569D01*
X933450Y815340D02*
X939800Y821690D01*
X927060Y1031309D02*
X939800Y1018569D01*
X909320Y815340D02*
X933450D01*
X703961Y609981D02*
X909320Y815340D01*
X43334Y1007110D02*
X64770D01*
X42408Y987110D02*
X64770D01*
X844550Y227330D02*
X902970Y168910D01*
X975360D01*
X844550Y227330D02*
Y291480D01*
X990600Y109450D02*
Y129540D01*
X904240Y147320D02*
X972820D01*
X990600Y129540D01*
X647700Y341630D02*
X650240Y344170D01*
Y350916D01*
X638810Y341630D02*
X647700D01*
X629920Y332740D02*
X638810Y341630D01*
X629920Y313690D02*
Y332740D01*
X617830Y301600D02*
X629920Y313690D01*
X687298Y342900D02*
X688340Y343942D01*
X687070Y342900D02*
X687298D01*
X675640Y331470D02*
X687070Y342900D01*
X648970Y331470D02*
X675640D01*
X638810Y321310D02*
X648970Y331470D01*
X638810Y297180D02*
Y321310D01*
X622300Y280670D02*
X638810Y297180D01*
X113030Y118450D02*
X113370Y118110D01*
X819150Y291480D02*
Y311150D01*
X806450Y291480D02*
Y311150D01*
X831850Y219710D02*
Y291480D01*
Y219710D02*
X904240Y147320D01*
X1018300Y109450D02*
Y125970D01*
X975360Y168910D02*
X1018300Y125970D01*
X663586Y265464D02*
X669410D01*
X675236D02*
X678645Y268874D01*
X669410Y253649D02*
Y265464D01*
X675236D01*
X669410D02*
Y323368D01*
X678645Y268874D02*
Y273574D01*
X660176Y268874D02*
Y273574D01*
Y268874D02*
X663586Y265464D01*
X659250Y274499D02*
X660176Y273574D01*
X678645Y273574D02*
X679570Y274499D01*
X651630Y324409D02*
X668369D01*
X669410Y323368D01*
X468630Y117180D02*
X468970Y116840D01*
X412980Y445540D02*
X441164D01*
X358641Y499879D02*
X412980Y445540D01*
X358641Y499879D02*
Y528063D01*
X441164Y445540D02*
X448310Y438394D01*
X438030Y371092D02*
X448310Y381372D01*
Y438394D01*
X350764Y535940D02*
X358616Y528088D01*
X438030Y358151D02*
Y371092D01*
X330479Y535940D02*
X350764D01*
X337820Y485140D02*
X353060D01*
X330200Y492760D02*
Y510819D01*
Y492760D02*
X337820Y485140D01*
X353060D02*
X400050Y438150D01*
Y367030D02*
Y438150D01*
X317460Y548959D02*
X330479Y535940D01*
X317460Y523559D02*
X330200Y510819D01*
X399930Y366909D02*
X400050Y367030D01*
X399930Y358151D02*
Y366909D01*
X331111Y842010D02*
X342860Y853759D01*
X294640Y842010D02*
X331111D01*
X285750Y850900D02*
X294640Y842010D01*
X172720Y850900D02*
X285750D01*
X99496Y777676D02*
X172720Y850900D01*
X65255Y777676D02*
X99496D01*
X365760Y688340D02*
X456113Y778692D01*
Y843380D01*
X278130Y688340D02*
X365760D01*
X171632Y581842D02*
X278130Y688340D01*
X456113Y843380D02*
X720241Y1107509D01*
X927060D01*
X65255Y581842D02*
X171632D01*
X42111Y1385177D02*
X65255D01*
X42111Y1365177D02*
X65255D01*
X42111Y1169343D02*
X65255D01*
X42111Y1189343D02*
X65255D01*
X42111Y797676D02*
X65255D01*
X42111Y777676D02*
X65255D01*
X42111Y601842D02*
X65255D01*
X42111Y581842D02*
X65255D01*
X963930Y789940D02*
X985000Y768870D01*
X928399Y801370D02*
X939829Y789940D01*
X963930D01*
X985000Y694913D02*
Y768870D01*
X927100Y801370D02*
X928399D01*
X927060Y801410D02*
X927100Y801370D01*
X927060Y801410D02*
Y802709D01*
X928399Y775970D02*
X939800Y764569D01*
X925830Y775970D02*
X928399D01*
X925830D02*
X927060Y777200D01*
Y777309D01*
X991870Y392430D02*
Y433099D01*
X952460Y472509D02*
X991870Y433099D01*
X940009Y318971D02*
Y484961D01*
X927060Y497909D02*
X940009Y484961D01*
X955040Y825500D02*
X955069D01*
X952460Y828080D02*
X955040Y825500D01*
X952460Y828080D02*
Y828109D01*
X985000Y1105115D02*
Y1157720D01*
X974625Y1094740D02*
X985000Y1105115D01*
X939691Y1094740D02*
X974625D01*
X927060Y1082109D02*
X939691Y1094740D01*
X990600Y1221849D02*
Y1301750D01*
X952460Y1183709D02*
X990600Y1221849D01*
X447800Y116670D02*
X447970Y116840D01*
X95932Y910141D02*
X96432D01*
X535601Y590132D02*
X535970Y590500D01*
X536596Y420151D02*
X536609Y420163D01*
X95436Y1099820D02*
X96436D01*
X508581Y1154631D02*
X508802Y1154853D01*
X508580Y1194922D02*
X508820Y1195163D01*
X526160Y504325D02*
X526196Y504361D01*
X526160Y463303D02*
X526821Y463965D01*
X537410Y1155553D02*
X538110Y1154853D01*
X538140D01*
X536710D02*
X537410Y1155553D01*
X595905Y357200D02*
X596686Y357981D01*
X595999Y315481D02*
X596520Y314960D01*
X688220Y308751D02*
Y328810D01*
X166864Y509861D02*
X168124Y511121D01*
X193544D01*
X669290Y223520D02*
Y235860D01*
X419100Y222250D02*
Y234590D01*
Y253090D02*
Y263780D01*
X167841Y228440D02*
X195781D01*
X167353Y369151D02*
X195292D01*
X167353Y650571D02*
X195292D01*
X169307Y1494833D02*
X197247D01*
X170773Y1354122D02*
X198713D01*
X170773Y1213412D02*
X198713D01*
X170773Y1072702D02*
X198713D01*
X168819Y931992D02*
X196759D01*
X167841Y791281D02*
X195781D01*
X170773Y1052702D02*
X198713D01*
X170773Y1193412D02*
X198713D01*
X173387Y208440D02*
X195781D01*
X169307Y1474833D02*
X197247D01*
X170773Y1334122D02*
X198713D01*
X168819Y911992D02*
X196759D01*
X167841Y771281D02*
X195781D01*
X167353Y630571D02*
X195292D01*
X166864Y489861D02*
X194804D01*
X167353Y349151D02*
X195292D01*
X167841Y208440D02*
X173387D01*
X175641Y206186D01*
X650360Y323139D02*
X651630Y324409D01*
X650360Y309431D02*
Y323139D01*
X650240Y309310D02*
X650360Y309431D01*
X709930Y334600D02*
Y345600D01*
Y322420D02*
Y334600D01*
X694010D02*
X709930D01*
X688220Y328810D02*
X694010Y334600D01*
X413275Y264905D02*
X419100D01*
X409865Y268315D02*
Y273015D01*
X408940Y273940D02*
X409865Y273015D01*
Y268315D02*
X413275Y264905D01*
X408940Y273940D02*
X411190D01*
X419100Y264905D02*
X424925D01*
X428335Y268314D02*
Y273015D01*
X429260Y273940D01*
X424925Y264905D02*
X428335Y268314D01*
X427010Y273940D02*
X429260D01*
X438030Y308751D02*
Y328810D01*
X443820Y334600D01*
X459740D01*
Y322420D02*
Y334600D01*
Y345600D01*
X419100Y264905D02*
Y322808D01*
X418058Y323850D02*
X419100Y322808D01*
X399930Y308751D02*
X400050Y308871D01*
Y322580D01*
X401320Y323850D01*
X418058D01*
D17*
X1044991Y1421726D02*
D03*
Y1533726D02*
D03*
Y1002626D02*
D03*
Y1114626D02*
D03*
Y862926D02*
D03*
Y974926D02*
D03*
Y443826D02*
D03*
Y555826D02*
D03*
Y723226D02*
D03*
Y835226D02*
D03*
Y583526D02*
D03*
Y695526D02*
D03*
Y1282026D02*
D03*
Y1394026D02*
D03*
Y1142326D02*
D03*
Y1254326D02*
D03*
Y164426D02*
D03*
Y276426D02*
D03*
Y304126D02*
D03*
Y416126D02*
D03*
D18*
X1100791Y1497726D02*
D03*
Y1477726D02*
D03*
Y1457726D02*
D03*
Y1078626D02*
D03*
Y1058626D02*
D03*
Y1038626D02*
D03*
Y938926D02*
D03*
Y918926D02*
D03*
Y898926D02*
D03*
Y519826D02*
D03*
Y499826D02*
D03*
Y479826D02*
D03*
Y799226D02*
D03*
Y779226D02*
D03*
Y759226D02*
D03*
Y659526D02*
D03*
Y639526D02*
D03*
Y619526D02*
D03*
Y1358026D02*
D03*
Y1338026D02*
D03*
Y1318026D02*
D03*
Y1218326D02*
D03*
Y1198326D02*
D03*
Y1178326D02*
D03*
Y240426D02*
D03*
Y220426D02*
D03*
Y200426D02*
D03*
Y380126D02*
D03*
Y360126D02*
D03*
Y340126D02*
D03*
X42111Y1006763D02*
D03*
Y986763D02*
D03*
X167841Y791281D02*
D03*
Y771281D02*
D03*
X167353Y630571D02*
D03*
Y650571D02*
D03*
X170773Y1354122D02*
D03*
Y1334122D02*
D03*
Y1213412D02*
D03*
Y1193412D02*
D03*
X42111Y1175970D02*
D03*
Y1195970D02*
D03*
X169307Y1474833D02*
D03*
Y1494833D02*
D03*
X166864Y489861D02*
D03*
Y509861D02*
D03*
X168819Y911992D02*
D03*
Y931992D02*
D03*
X167353Y369151D02*
D03*
Y349151D02*
D03*
X170773Y1072702D02*
D03*
Y1052702D02*
D03*
X42111Y777676D02*
D03*
Y797676D02*
D03*
Y601842D02*
D03*
Y581842D02*
D03*
X167841Y208440D02*
D03*
Y228440D02*
D03*
X42111Y1385177D02*
D03*
Y1365177D02*
D03*
D19*
X97911Y1047563D02*
D03*
Y945963D02*
D03*
X223641Y832081D02*
D03*
Y730481D02*
D03*
X223153Y589771D02*
D03*
Y691371D02*
D03*
X226573Y1394922D02*
D03*
Y1293322D02*
D03*
Y1254212D02*
D03*
Y1152612D02*
D03*
X97911Y1135170D02*
D03*
Y1236770D02*
D03*
X225107Y1434033D02*
D03*
Y1535633D02*
D03*
X222664Y449061D02*
D03*
Y550661D02*
D03*
X224619Y871192D02*
D03*
Y972792D02*
D03*
X223153Y409950D02*
D03*
Y308351D02*
D03*
X226573Y1113502D02*
D03*
Y1011902D02*
D03*
X97911Y736876D02*
D03*
Y838476D02*
D03*
Y642642D02*
D03*
Y541042D02*
D03*
X223641Y167640D02*
D03*
Y269240D02*
D03*
X97911Y1425977D02*
D03*
Y1324377D02*
D03*
D20*
X892209Y255940D02*
D03*
Y273940D02*
D03*
X434892Y397170D02*
D03*
Y415170D02*
D03*
D21*
X596686Y357981D02*
D03*
X612686D02*
D03*
X612520Y314960D02*
D03*
X596520D02*
D03*
X492580Y1194922D02*
D03*
X508580D02*
D03*
X492581Y1154631D02*
D03*
X508581D02*
D03*
X526160Y504325D02*
D03*
X510160D02*
D03*
X510160Y463303D02*
D03*
X526160D02*
D03*
X671252Y1194922D02*
D03*
X687252D02*
D03*
X671252Y1158092D02*
D03*
X687252D02*
D03*
X519601Y590132D02*
D03*
X535601D02*
D03*
X519434Y548709D02*
D03*
X535434D02*
D03*
X536320Y378460D02*
D03*
X520320D02*
D03*
X520596Y420151D02*
D03*
X536596D02*
D03*
X1160402Y692912D02*
D03*
X1176402D02*
D03*
X1160400Y501650D02*
D03*
X1176400D02*
D03*
D22*
X869950Y291480D02*
D03*
X857250D02*
D03*
X844550D02*
D03*
X831850D02*
D03*
X819150D02*
D03*
X806450D02*
D03*
X793750D02*
D03*
X781050D02*
D03*
Y340980D02*
D03*
X793750D02*
D03*
X806450D02*
D03*
X819150D02*
D03*
X831850D02*
D03*
X844550D02*
D03*
X857250D02*
D03*
X869950D02*
D03*
X438030Y358151D02*
D03*
X425330D02*
D03*
X412630D02*
D03*
X399930D02*
D03*
Y308751D02*
D03*
X412630D02*
D03*
X425330D02*
D03*
X438030D02*
D03*
X688340Y358710D02*
D03*
X675640D02*
D03*
X662940D02*
D03*
X650240D02*
D03*
Y309310D02*
D03*
X662940D02*
D03*
X675640D02*
D03*
X688340D02*
D03*
D23*
X777029Y372840D02*
D03*
X795529D02*
D03*
X834899D02*
D03*
X816399D02*
D03*
X875539D02*
D03*
X857039D02*
D03*
X662580Y389890D02*
D03*
X681080D02*
D03*
D24*
X890419Y306440D02*
D03*
Y324940D02*
D03*
X870099Y260170D02*
D03*
Y241670D02*
D03*
X412750Y388260D02*
D03*
Y406760D02*
D03*
X419100Y234590D02*
D03*
Y253090D02*
D03*
X669290Y254360D02*
D03*
Y235860D02*
D03*
D25*
X915069Y277433D02*
D03*
Y249906D02*
D03*
X485140Y318976D02*
D03*
Y346504D02*
D03*
X732790Y344474D02*
D03*
Y316947D02*
D03*
D26*
X429260Y289940D02*
D03*
Y273940D02*
D03*
X408940Y273940D02*
D03*
Y289940D02*
D03*
X659250Y290499D02*
D03*
Y274499D02*
D03*
X679570Y290499D02*
D03*
Y274499D02*
D03*
D27*
X459740Y345600D02*
D03*
Y365600D02*
D03*
Y302420D02*
D03*
Y322420D02*
D03*
X709930Y345600D02*
D03*
Y365600D02*
D03*
Y302420D02*
D03*
Y322420D02*
D03*
D28*
X376682Y208280D02*
D03*
X408940D02*
D03*
X461518D02*
D03*
X429260D02*
D03*
X659250Y208839D02*
D03*
X626992D02*
D03*
X711829D02*
D03*
X679570D02*
D03*
D29*
X680830Y415290D02*
D03*
X662830D02*
D03*
D30*
X92370Y118110D02*
D03*
X113370D02*
D03*
X75432Y910141D02*
D03*
X96432D02*
D03*
X75436Y1099820D02*
D03*
X96436D02*
D03*
X75860Y1291590D02*
D03*
X96860D02*
D03*
X803570Y116840D02*
D03*
X824570D02*
D03*
X447970D02*
D03*
X468970D02*
D03*
X1217002Y692912D02*
D03*
X1196002D02*
D03*
X1217000Y501650D02*
D03*
X1196000D02*
D03*
D31*
X1161986Y1287780D02*
D03*
X1179893D02*
D03*
X1161986Y1266190D02*
D03*
X1179893D02*
D03*
X1164527Y1074420D02*
D03*
X1182433D02*
D03*
D52*
X577433Y599440D02*
D03*
X559508Y589915D02*
D03*
Y608965D02*
D03*
X577433Y514350D02*
D03*
X559508Y504825D02*
D03*
Y523875D02*
D03*
X577433Y473202D02*
D03*
X559508Y463677D02*
D03*
Y482727D02*
D03*
X577433Y429895D02*
D03*
X559508Y420370D02*
D03*
Y439420D02*
D03*
X577433Y388747D02*
D03*
X559508Y379222D02*
D03*
Y398272D02*
D03*
X559217Y346710D02*
D03*
X577142Y356235D02*
D03*
Y337185D02*
D03*
X559217Y305562D02*
D03*
X577142Y315087D02*
D03*
Y296037D02*
D03*
X554572Y1164082D02*
D03*
X536648Y1154557D02*
D03*
Y1173607D02*
D03*
X554572Y1205230D02*
D03*
X536648Y1195705D02*
D03*
Y1214755D02*
D03*
X737452Y1164082D02*
D03*
X719528Y1154557D02*
D03*
Y1173607D02*
D03*
X737452Y1205230D02*
D03*
X719528Y1195705D02*
D03*
Y1214755D02*
D03*
X577433Y558292D02*
D03*
X559508Y548767D02*
D03*
Y567817D02*
D03*
D53*
X687252Y1156525D02*
Y1158092D01*
X689347Y1154430D02*
X718857D01*
X687252Y1156525D02*
X689347Y1154430D01*
X741199Y1164336D02*
X755396D01*
X740946Y1164590D02*
X741199Y1164336D01*
X755396D02*
X755650Y1164590D01*
X699770Y1173480D02*
X720429D01*
X739970Y1205230D02*
X755650D01*
X539750Y305562D02*
X559217D01*
X539750Y346710D02*
X559217D01*
X577556Y314960D02*
X596801D01*
X612686Y339146D02*
Y357981D01*
X536320Y378460D02*
X537181Y379321D01*
X552805D01*
X520596Y401394D02*
Y420151D01*
X536954Y398300D02*
X555743D01*
X578451Y388620D02*
X594360D01*
X535434Y548709D02*
X558499D01*
X595249Y557911D02*
X595630Y557530D01*
X577199Y558800D02*
X578088Y557911D01*
X595249D01*
X535940Y566420D02*
X536638Y567118D01*
X558425D02*
X560012Y568706D01*
X536638Y567118D02*
X558425D01*
X1217510Y693420D02*
X1235710D01*
X1217002Y692912D02*
X1217510Y693420D01*
X1074588Y1497726D02*
X1089488D01*
X1074588Y1477726D02*
X1089488D01*
X1074588Y1358026D02*
X1089488D01*
X1074588Y1218326D02*
X1089488D01*
X1074588Y1198326D02*
X1089488D01*
X1074588Y1078626D02*
X1089488D01*
X1074588Y1058626D02*
X1089488D01*
X1074588Y938926D02*
X1089488D01*
X1074588Y799226D02*
X1089488D01*
X1074588Y779226D02*
X1089488D01*
X1074588Y659526D02*
X1089488D01*
X1074588Y639526D02*
X1089488D01*
X1074588Y519826D02*
X1089488D01*
X1074588Y499826D02*
X1089488D01*
X1074588Y380126D02*
X1089488D01*
X1074588Y360126D02*
X1089488D01*
X1074588Y240426D02*
X1089488D01*
X1074588Y220426D02*
X1089488D01*
X519601Y571403D02*
Y590132D01*
X539401Y609671D02*
X558309D01*
X510160Y463304D02*
Y504325D01*
X538211Y523532D02*
X557119D01*
X538211Y483136D02*
X557119D01*
X59282Y910141D02*
X75182D01*
X520596Y383088D02*
Y401394D01*
X113030Y118450D02*
Y132715D01*
X612686Y320179D02*
Y339146D01*
X537383Y439335D02*
X556291D01*
X699585Y1214302D02*
X718492D01*
X671252Y1158092D02*
Y1192422D01*
X687252Y1194922D02*
X687532Y1195202D01*
X718492D01*
X96436Y1084920D02*
Y1099820D01*
X75936Y1084921D02*
Y1099821D01*
X539679Y1214191D02*
X539750Y1214120D01*
X520771Y1214191D02*
X539679D01*
X520700Y1214120D02*
X520771Y1214191D01*
X537795Y1174297D02*
X538140Y1173952D01*
X521153Y1174297D02*
X537795D01*
X492580Y1194922D02*
X492670Y1194833D01*
X492670Y1173390D02*
X492760Y1173480D01*
X492670Y1154720D02*
Y1173390D01*
X492581Y1154631D02*
X492670Y1154720D01*
X492670Y1173570D02*
X492760Y1173480D01*
X492670Y1173570D02*
Y1194833D01*
X76200Y1276350D02*
Y1291250D01*
X96699Y1276349D02*
Y1291249D01*
X804230Y117180D02*
Y132080D01*
X447961Y117011D02*
Y131911D01*
X92531Y118451D02*
Y133351D01*
X824400Y117010D02*
Y131910D01*
X857250Y286960D02*
Y309880D01*
X681080Y377175D02*
Y389890D01*
X676735Y372830D02*
X681080Y377175D01*
X676735Y359805D02*
Y372830D01*
X675640Y358710D02*
X676735Y359805D01*
X677320Y274499D02*
X679570D01*
X659250Y274499D02*
X661500D01*
X468630Y117180D02*
Y132080D01*
X577510Y473515D02*
X578190D01*
X593910D02*
X594360Y473965D01*
X434892Y415170D02*
Y429030D01*
Y383310D02*
Y397170D01*
X412750Y406760D02*
Y417830D01*
X96432Y910141D02*
X112332D01*
X536609Y420163D02*
X556362D01*
X519596Y420151D02*
X520596D01*
X578700Y600050D02*
X579380D01*
X595100D01*
X519601Y552675D02*
Y571403D01*
X535970Y590500D02*
X558380D01*
X577362Y429713D02*
X593082D01*
X593532Y430163D01*
X576682Y429713D02*
X577362D01*
X508802Y1154853D02*
X536710D01*
X593910Y513911D02*
X594360Y514361D01*
X577510Y513911D02*
X578190D01*
X593910D01*
X510160Y463303D02*
X510160Y463304D01*
X526196Y504361D02*
X557190D01*
X526821Y463965D02*
X557190D01*
X578190Y473515D02*
X593910D01*
X559140Y1164402D02*
X574860D01*
X558460D02*
X559140D01*
X574860D02*
X575310Y1164853D01*
X576920Y357200D02*
X595905D01*
X559140Y1204712D02*
X574860D01*
X575310Y1205163D01*
X558460Y1204712D02*
X559140D01*
X508820Y1195163D02*
X538140D01*
X662701Y389179D02*
Y391429D01*
X485140Y344504D02*
Y346504D01*
Y361950D01*
X732790Y301277D02*
Y316947D01*
Y318947D01*
X889645Y306706D02*
X907316D01*
X760133Y372573D02*
X777803D01*
X711055Y209106D02*
X728725D01*
X680830Y415290D02*
X695230D01*
X677560D02*
X680830D01*
X610731Y208573D02*
X628401D01*
X460744Y208547D02*
X478414D01*
X359786Y208013D02*
X377456D01*
X814347Y370788D02*
X816759Y368376D01*
X459740Y284750D02*
Y302420D01*
X709930Y284750D02*
Y302420D01*
X425349Y336054D02*
Y353725D01*
X410500Y388260D02*
X412750D01*
X683925Y394970D02*
X693420D01*
X459740Y365600D02*
Y383270D01*
X709930Y365600D02*
Y383270D01*
X641890Y415290D02*
X659560D01*
X1217000Y501650D02*
X1233400D01*
X1144000D02*
X1160400D01*
X1144002Y692912D02*
X1160402D01*
X915069Y231950D02*
Y248350D01*
X732790Y344474D02*
Y361921D01*
X663000Y375149D02*
X663061Y375209D01*
X662940Y358710D02*
X663000Y358770D01*
Y375149D01*
X662701Y389179D02*
X663061Y388819D01*
Y375209D02*
Y388819D01*
X485140Y301306D02*
Y318976D01*
X412750Y374650D02*
Y388260D01*
X412390Y388620D02*
X412750Y388260D01*
X412690Y358211D02*
Y374590D01*
X412630Y358151D02*
X412690Y358211D01*
Y374590D02*
X412750Y374650D01*
X870099Y229330D02*
Y241670D01*
X872694Y369995D02*
X875539Y372840D01*
X872694Y361465D02*
Y369995D01*
X869950Y358720D02*
X872694Y361465D01*
X854807Y358870D02*
X857039Y361101D01*
Y372840D01*
X848509Y358870D02*
X854807D01*
X834899Y360500D02*
Y372840D01*
X844550Y354910D02*
X848509Y358870D01*
X857250Y340980D02*
X857466Y340764D01*
X869950Y340980D02*
Y358720D01*
X844550Y340980D02*
Y354910D01*
X831850Y340980D02*
Y357450D01*
X834899Y360500D01*
X857466Y328323D02*
X860849Y324940D01*
X890419D01*
X857466Y328323D02*
Y340764D01*
X819150Y340980D02*
Y357749D01*
X806599Y341129D02*
Y359520D01*
X814347Y370788D02*
X816399Y372840D01*
X816759Y360140D02*
Y368376D01*
Y360140D02*
X819150Y357749D01*
X806450Y340980D02*
X806599Y341129D01*
X795529Y370590D02*
X806599Y359520D01*
X795529Y370590D02*
Y372840D01*
X892959Y238220D02*
Y254620D01*
D54*
X1126490Y1349620D02*
Y1379220D01*
Y1349620D02*
X1126509Y1349601D01*
Y1343288D02*
Y1349601D01*
X1121246Y1338026D02*
X1126509Y1343288D01*
X1100791Y1338026D02*
X1121246D01*
X1008380Y943610D02*
Y1019810D01*
Y943610D02*
X1033064Y918926D01*
X1103076D01*
X1103630Y919480D01*
X1100791Y918926D02*
X1103076D01*
D55*
X1205411Y1017610D02*
X1212850Y1025050D01*
Y1066981D01*
X1181100Y1017610D02*
X1205411D01*
Y1074420D02*
X1212850Y1066981D01*
X1184275Y1074420D02*
X1205411D01*
X1211400Y1295220D02*
Y1378979D01*
X1181100Y1409278D02*
X1211400Y1378979D01*
X1203960Y1287780D02*
X1211400Y1295220D01*
X1181735Y1287780D02*
X1203960D01*
X1202870Y1213444D02*
X1210310Y1220884D01*
X1202870Y1266190D02*
X1210310Y1258751D01*
X1181100Y1213444D02*
X1202870D01*
X1210310Y1220884D02*
Y1258751D01*
X1181735Y1266190D02*
X1202870D01*
X1145540Y1074420D02*
X1162685D01*
X1143000Y1287780D02*
X1160145D01*
X1143000Y1266190D02*
X1160145D01*
D56*
X915069Y277433D02*
Y289293D01*
Y275683D02*
Y277433D01*
X892209Y274190D02*
Y287800D01*
X870025Y273854D02*
X870099Y273780D01*
Y260170D02*
Y273780D01*
X887879Y271890D02*
Y273650D01*
X869950Y291480D02*
X870025Y291405D01*
Y273854D02*
Y291405D01*
X887749Y273780D02*
X887879Y273650D01*
D57*
X1176400Y501650D02*
X1196000D01*
X1176402Y692912D02*
X1196002D01*
D58*
X1181100Y771776D02*
D03*
Y821776D02*
D03*
Y575943D02*
D03*
Y625943D02*
D03*
Y967610D02*
D03*
Y1017610D02*
D03*
Y1163444D02*
D03*
Y1213444D02*
D03*
Y1359278D02*
D03*
Y1409278D02*
D03*
D59*
X224000Y109450D02*
D03*
X237850Y81050D02*
D03*
X251700Y109450D02*
D03*
X265550Y81050D02*
D03*
X279400Y109450D02*
D03*
X293250Y81050D02*
D03*
X307100Y109450D02*
D03*
X320950Y81050D02*
D03*
X1032150D02*
D03*
X1018300Y109450D02*
D03*
X1004450Y81050D02*
D03*
X990600Y109450D02*
D03*
X976750Y81050D02*
D03*
X962900Y109450D02*
D03*
X949050Y81050D02*
D03*
X935200Y109450D02*
D03*
X579600D02*
D03*
X593450Y81050D02*
D03*
X607300Y109450D02*
D03*
X621150Y81050D02*
D03*
X635000Y109450D02*
D03*
X648850Y81050D02*
D03*
X662700Y109450D02*
D03*
X676550Y81050D02*
D03*
D60*
X334800Y109450D02*
D03*
X1046000D02*
D03*
X690400D02*
D03*
D61*
X154450Y95250D02*
D03*
X404350D02*
D03*
X1115550D02*
D03*
X865650D02*
D03*
X510050D02*
D03*
X759950D02*
D03*
D62*
X876260Y1260159D02*
D03*
X393660Y1272859D02*
D03*
X863560Y510859D02*
D03*
X406360D02*
D03*
D63*
X952460Y370909D02*
D03*
X927060D02*
D03*
X952460Y396309D02*
D03*
X927060D02*
D03*
X952460Y421709D02*
D03*
X927060D02*
D03*
X952460Y447109D02*
D03*
X927060D02*
D03*
X952460Y472509D02*
D03*
X927060D02*
D03*
X952460Y497909D02*
D03*
X927060D02*
D03*
X952460Y523309D02*
D03*
X927060D02*
D03*
X952460Y548709D02*
D03*
X927060D02*
D03*
X952460Y574109D02*
D03*
X927060D02*
D03*
X952460Y599509D02*
D03*
X927060D02*
D03*
X952460Y624909D02*
D03*
X927060D02*
D03*
X952460Y650309D02*
D03*
X927060D02*
D03*
X952460Y675709D02*
D03*
X927060D02*
D03*
X952460Y701109D02*
D03*
X927060D02*
D03*
X952460Y726509D02*
D03*
X927060D02*
D03*
X952460Y751909D02*
D03*
X927060D02*
D03*
X952460Y777309D02*
D03*
X927060D02*
D03*
X952460Y802709D02*
D03*
X927060D02*
D03*
X952460Y828109D02*
D03*
X927060D02*
D03*
X952460Y853509D02*
D03*
X927060D02*
D03*
X952460Y878909D02*
D03*
X927060D02*
D03*
X952460Y904309D02*
D03*
X927060D02*
D03*
X952460Y929709D02*
D03*
X927060D02*
D03*
X952460Y955109D02*
D03*
X927060D02*
D03*
X952460Y980509D02*
D03*
X927060D02*
D03*
X952460Y1005909D02*
D03*
X927060D02*
D03*
X952460Y1031309D02*
D03*
X927060D02*
D03*
X952460Y1056709D02*
D03*
X927060D02*
D03*
X952460Y1082109D02*
D03*
X927060D02*
D03*
X952460Y1107509D02*
D03*
X927060D02*
D03*
X952460Y1132909D02*
D03*
X927060D02*
D03*
X952460Y1158309D02*
D03*
X927060D02*
D03*
X952460Y1183709D02*
D03*
X927060D02*
D03*
X952460Y1209109D02*
D03*
X927060D02*
D03*
X952460Y1234509D02*
D03*
X342860Y371159D02*
D03*
X317460D02*
D03*
X342860Y396559D02*
D03*
X317460D02*
D03*
X342860Y421959D02*
D03*
X317460D02*
D03*
X342860Y447359D02*
D03*
X317460D02*
D03*
X342860Y472759D02*
D03*
X317460D02*
D03*
X342860Y498159D02*
D03*
X317460D02*
D03*
X342860Y523559D02*
D03*
X317460D02*
D03*
X342860Y548959D02*
D03*
X317460D02*
D03*
X342860Y574359D02*
D03*
X317460D02*
D03*
X342860Y599759D02*
D03*
X317460D02*
D03*
X342860Y625159D02*
D03*
X317460D02*
D03*
X342860Y650559D02*
D03*
X317460D02*
D03*
X342860Y675959D02*
D03*
X317460D02*
D03*
X342860Y701359D02*
D03*
X317460D02*
D03*
X342860Y726759D02*
D03*
X317460D02*
D03*
X342860Y752159D02*
D03*
X317460D02*
D03*
X342860Y777559D02*
D03*
X317460D02*
D03*
X342860Y802959D02*
D03*
X317460D02*
D03*
X342860Y828359D02*
D03*
X317460D02*
D03*
X342860Y853759D02*
D03*
X317460D02*
D03*
X342860Y879159D02*
D03*
X317460D02*
D03*
X342860Y904559D02*
D03*
X317460D02*
D03*
X342860Y929959D02*
D03*
X317460D02*
D03*
X342860Y955359D02*
D03*
X317460D02*
D03*
X342860Y980759D02*
D03*
X317460D02*
D03*
X342860Y1006159D02*
D03*
X317460D02*
D03*
X342860Y1031559D02*
D03*
X317460D02*
D03*
X342860Y1056959D02*
D03*
X317460D02*
D03*
X342860Y1082359D02*
D03*
X317460D02*
D03*
X342860Y1107759D02*
D03*
X317460D02*
D03*
X342860Y1133159D02*
D03*
X317460D02*
D03*
X342860Y1158559D02*
D03*
X317460D02*
D03*
X342860Y1183959D02*
D03*
X317460D02*
D03*
X342860Y1209359D02*
D03*
X317460D02*
D03*
X342860Y1234759D02*
D03*
D64*
X927060Y1234509D02*
D03*
X317460Y1234759D02*
D03*
D65*
X792480Y1261110D02*
D03*
X806450Y1163320D02*
D03*
X285750Y1122680D02*
D03*
X283210Y471170D02*
D03*
X458470Y561340D02*
D03*
X807720Y194310D02*
D03*
X754380Y251460D02*
D03*
X572770Y190500D02*
D03*
X529590Y246380D02*
D03*
X309266Y188407D02*
D03*
X835660Y427990D02*
D03*
X746760Y491490D02*
D03*
X763270Y579120D02*
D03*
X820420Y890270D02*
D03*
X132080Y453390D02*
D03*
X24130Y471170D02*
D03*
X124460Y177800D02*
D03*
X30480Y143510D02*
D03*
X1233170Y184150D02*
D03*
X1150620Y450850D02*
D03*
X913130Y35560D02*
D03*
X1094740Y33020D02*
D03*
X717550Y34290D02*
D03*
X553720Y33020D02*
D03*
X342881Y34274D02*
D03*
X163830Y34290D02*
D03*
X109220Y703580D02*
D03*
X39370Y668020D02*
D03*
X937580Y1392580D02*
D03*
X825500Y1535430D02*
D03*
X581660Y1412240D02*
D03*
X394044Y1527520D02*
D03*
X325120Y1342390D02*
D03*
X607060Y1266190D02*
D03*
X623570Y1076960D02*
D03*
X388620Y797560D02*
D03*
X471170Y754380D02*
D03*
X660400Y791210D02*
D03*
X311150Y273050D02*
D03*
X1206500Y354330D02*
D03*
X1167130Y167640D02*
D03*
X755650Y1164590D02*
D03*
X699770Y1173480D02*
D03*
X755650Y1205230D02*
D03*
X539750Y305562D02*
D03*
Y346710D02*
D03*
X536954Y398300D02*
D03*
X594360Y388620D02*
D03*
X595630Y557530D02*
D03*
X535940Y566420D02*
D03*
X1126490Y1379220D02*
D03*
X1008380Y1019810D02*
D03*
X1235710Y693420D02*
D03*
X1074588Y1497726D02*
D03*
Y1477726D02*
D03*
Y1358026D02*
D03*
Y1218326D02*
D03*
Y1198326D02*
D03*
Y1078626D02*
D03*
Y1058626D02*
D03*
Y938926D02*
D03*
Y799226D02*
D03*
Y779226D02*
D03*
Y659526D02*
D03*
Y639526D02*
D03*
Y519826D02*
D03*
Y499826D02*
D03*
Y380126D02*
D03*
Y360126D02*
D03*
Y240426D02*
D03*
Y220426D02*
D03*
X519601Y571403D02*
D03*
X539330Y609600D02*
D03*
X538140Y523461D02*
D03*
Y483065D02*
D03*
X509710Y483364D02*
D03*
X59282Y910141D02*
D03*
X64770Y1007110D02*
D03*
Y987110D02*
D03*
X113030Y132715D02*
D03*
X612512Y339146D02*
D03*
X447961Y131911D02*
D03*
X537312Y439263D02*
D03*
X520371Y401394D02*
D03*
X699513Y1214231D02*
D03*
X671556Y1175741D02*
D03*
X96436Y1084920D02*
D03*
X75936Y1084921D02*
D03*
X520700Y1214120D02*
D03*
X521153Y1174297D02*
D03*
X492760Y1173480D02*
D03*
X76200Y1276350D02*
D03*
X96699Y1276349D02*
D03*
X804230Y132080D02*
D03*
X92531Y133351D02*
D03*
X824400Y131910D02*
D03*
X819150Y311150D02*
D03*
X806450D02*
D03*
X760133Y372573D02*
D03*
X857250Y309880D02*
D03*
X669410Y265464D02*
D03*
X468630Y132080D02*
D03*
X434892Y429030D02*
D03*
Y383310D02*
D03*
X412750Y417830D02*
D03*
X65255Y1385177D02*
D03*
Y1365177D02*
D03*
Y1169343D02*
D03*
Y1189343D02*
D03*
Y797676D02*
D03*
Y601842D02*
D03*
X593082Y429713D02*
D03*
X595100Y600050D02*
D03*
X112332Y910141D02*
D03*
X574860Y1204712D02*
D03*
Y1164402D02*
D03*
X593910Y513911D02*
D03*
Y473515D02*
D03*
X1145540Y1074420D02*
D03*
X193544Y511121D02*
D03*
X728725Y209106D02*
D03*
X669290Y223520D02*
D03*
X359786Y208013D02*
D03*
X610731Y208573D02*
D03*
X478414Y208547D02*
D03*
X419100Y222250D02*
D03*
Y264905D02*
D03*
X459740Y284750D02*
D03*
X709930D02*
D03*
X425349Y336054D02*
D03*
X663061Y375209D02*
D03*
X412750Y374650D02*
D03*
X459740Y383270D02*
D03*
X693420Y394970D02*
D03*
X709930Y383270D02*
D03*
X641890Y415290D02*
D03*
X695230D02*
D03*
X195781Y228440D02*
D03*
X195292Y369151D02*
D03*
Y650571D02*
D03*
X197247Y1494833D02*
D03*
X198713Y1354122D02*
D03*
Y1213412D02*
D03*
Y1072702D02*
D03*
X196759Y931992D02*
D03*
X195781Y791281D02*
D03*
X198713Y1052702D02*
D03*
Y1193412D02*
D03*
X197247Y1474833D02*
D03*
X198713Y1334122D02*
D03*
X196759Y911992D02*
D03*
X195781Y771281D02*
D03*
X195292Y630571D02*
D03*
X194804Y489861D02*
D03*
X195292Y349151D02*
D03*
X195781Y208440D02*
D03*
X1143000Y1287780D02*
D03*
Y1266190D02*
D03*
X1233400Y501650D02*
D03*
X1144000D02*
D03*
X1144002Y692912D02*
D03*
X907316Y306706D02*
D03*
X915069Y231950D02*
D03*
X892209Y287800D02*
D03*
X915069Y289293D02*
D03*
X732790Y361921D02*
D03*
Y301277D02*
D03*
X485140Y301306D02*
D03*
Y361950D02*
D03*
X870099Y229330D02*
D03*
X892959Y238220D02*
D03*
X870099Y273780D02*
D03*
D66*
X63500Y1524000D02*
D03*
X1206500D02*
D03*
X63500Y63500D02*
D03*
X1206500D02*
D03*
M02*
