G04*
G04 #@! TF.GenerationSoftware,Altium Limited,Altium Designer,25.1.2 (22)*
G04*
G04 Layer_Physical_Order=6*
G04 Layer_Color=16711680*
%FSLAX44Y44*%
%MOMM*%
G71*
G04*
G04 #@! TF.SameCoordinates,E71A8306-440F-4DE3-8FE2-6B8E257990A7*
G04*
G04*
G04 #@! TF.FilePolarity,Positive*
G04*
G01*
G75*
%ADD14C,0.1778*%
%ADD58C,2.7000*%
%ADD59C,1.5080*%
%ADD60R,1.5080X1.5080*%
%ADD61C,4.0660*%
%ADD63C,1.3900*%
%ADD64R,1.3900X1.3900*%
%ADD65C,0.7620*%
%ADD66C,6.3500*%
D14*
X536092Y566572D02*
Y575391D01*
X535940Y566420D02*
X536092Y566572D01*
X526601Y584882D02*
X536092Y575391D01*
X361950Y562610D02*
X396240Y596900D01*
X338778Y562610D02*
X361950D01*
X526630Y596900D02*
X539330Y609600D01*
X396240Y596900D02*
X526630D01*
X329679Y553512D02*
X338778Y562610D01*
X329679Y510019D02*
Y553512D01*
X317819Y498159D02*
X329679Y510019D01*
X317460Y498159D02*
X317819D01*
X415972Y584882D02*
X526601D01*
X354649Y523559D02*
X415972Y584882D01*
X342860Y523559D02*
X354649D01*
X524537Y548709D02*
X927060D01*
X435568Y459740D02*
X524537Y548709D01*
X195292Y349151D02*
X305882Y459740D01*
X435568D01*
X574912Y626110D02*
X582532Y618490D01*
X509270Y626110D02*
X574912D01*
X501650Y618490D02*
X509270Y626110D01*
X370653Y618490D02*
X501650D01*
X582532D02*
X862388D01*
X364303Y612140D02*
X370653Y618490D01*
X308610Y612140D02*
X364303D01*
X194804Y498334D02*
X308610Y612140D01*
X862388Y618490D02*
X919538Y561340D01*
X515620Y1112520D02*
X919480Y708660D01*
X515620Y1112520D02*
Y1165860D01*
X459740Y1221740D02*
X515620Y1165860D01*
X246752Y1221740D02*
X459740D01*
X198713Y1269779D02*
X246752Y1221740D01*
X320947Y1474833D02*
X903845Y891935D01*
X197247Y1474833D02*
X320947D01*
X903845Y751547D02*
Y891935D01*
X919509Y708660D02*
X927060Y701109D01*
X919480Y708660D02*
X919509D01*
X932193Y740397D02*
X939800Y732790D01*
Y688369D02*
X952460Y675709D01*
X939800Y688369D02*
Y732790D01*
X914995Y740397D02*
X932193D01*
X903845Y751547D02*
X914995Y740397D01*
X198713Y1269779D02*
Y1334122D01*
X731520Y842010D02*
X897821Y675709D01*
X308182Y842010D02*
X731520D01*
X897821Y675709D02*
X927060D01*
X685800Y920750D02*
X918210Y688340D01*
X534670Y920750D02*
X685800D01*
X836959Y715010D02*
X927060Y624909D01*
X297180Y715010D02*
X836959D01*
X196759Y815431D02*
X297180Y715010D01*
X196759Y815431D02*
Y911992D01*
X918210Y688340D02*
X933450D01*
X939722Y682068D01*
Y663047D02*
Y682068D01*
Y663047D02*
X952460Y650309D01*
X413069Y1042351D02*
X534670Y920750D01*
X267335Y1042351D02*
X413069D01*
X198713Y1110973D02*
X267335Y1042351D01*
X198713Y1110973D02*
Y1193412D01*
X939829Y561340D02*
X952460Y548709D01*
X919538Y561340D02*
X939829D01*
X194804Y489861D02*
Y498334D01*
X195292Y630571D02*
X202262Y637540D01*
X863629D02*
X927060Y574109D01*
X202262Y637540D02*
X863629D01*
X198713Y951478D02*
X308182Y842010D01*
X198713Y951478D02*
Y1052702D01*
X195781Y734710D02*
X266281Y664210D01*
X862359D01*
X927060Y599509D01*
X195781Y734710D02*
Y771281D01*
X940009Y198329D02*
Y408760D01*
X927060Y421709D02*
X940009Y408760D01*
X246563Y157658D02*
X899338D01*
X940009Y198329D01*
X195781Y208440D02*
X246563Y157658D01*
D58*
X1181100Y771776D02*
D03*
Y821776D02*
D03*
Y575943D02*
D03*
Y625943D02*
D03*
Y967610D02*
D03*
Y1017610D02*
D03*
Y1163444D02*
D03*
Y1213444D02*
D03*
Y1359278D02*
D03*
Y1409278D02*
D03*
D59*
X224000Y109450D02*
D03*
X237850Y81050D02*
D03*
X251700Y109450D02*
D03*
X265550Y81050D02*
D03*
X279400Y109450D02*
D03*
X293250Y81050D02*
D03*
X307100Y109450D02*
D03*
X320950Y81050D02*
D03*
X1032150D02*
D03*
X1018300Y109450D02*
D03*
X1004450Y81050D02*
D03*
X990600Y109450D02*
D03*
X976750Y81050D02*
D03*
X962900Y109450D02*
D03*
X949050Y81050D02*
D03*
X935200Y109450D02*
D03*
X579600D02*
D03*
X593450Y81050D02*
D03*
X607300Y109450D02*
D03*
X621150Y81050D02*
D03*
X635000Y109450D02*
D03*
X648850Y81050D02*
D03*
X662700Y109450D02*
D03*
X676550Y81050D02*
D03*
D60*
X334800Y109450D02*
D03*
X1046000D02*
D03*
X690400D02*
D03*
D61*
X154450Y95250D02*
D03*
X404350D02*
D03*
X1115550D02*
D03*
X865650D02*
D03*
X510050D02*
D03*
X759950D02*
D03*
D63*
X952460Y370909D02*
D03*
X927060D02*
D03*
X952460Y396309D02*
D03*
X927060D02*
D03*
X952460Y421709D02*
D03*
X927060D02*
D03*
X952460Y447109D02*
D03*
X927060D02*
D03*
X952460Y472509D02*
D03*
X927060D02*
D03*
X952460Y497909D02*
D03*
X927060D02*
D03*
X952460Y523309D02*
D03*
X927060D02*
D03*
X952460Y548709D02*
D03*
X927060D02*
D03*
X952460Y574109D02*
D03*
X927060D02*
D03*
X952460Y599509D02*
D03*
X927060D02*
D03*
X952460Y624909D02*
D03*
X927060D02*
D03*
X952460Y650309D02*
D03*
X927060D02*
D03*
X952460Y675709D02*
D03*
X927060D02*
D03*
X952460Y701109D02*
D03*
X927060D02*
D03*
X952460Y726509D02*
D03*
X927060D02*
D03*
X952460Y751909D02*
D03*
X927060D02*
D03*
X952460Y777309D02*
D03*
X927060D02*
D03*
X952460Y802709D02*
D03*
X927060D02*
D03*
X952460Y828109D02*
D03*
X927060D02*
D03*
X952460Y853509D02*
D03*
X927060D02*
D03*
X952460Y878909D02*
D03*
X927060D02*
D03*
X952460Y904309D02*
D03*
X927060D02*
D03*
X952460Y929709D02*
D03*
X927060D02*
D03*
X952460Y955109D02*
D03*
X927060D02*
D03*
X952460Y980509D02*
D03*
X927060D02*
D03*
X952460Y1005909D02*
D03*
X927060D02*
D03*
X952460Y1031309D02*
D03*
X927060D02*
D03*
X952460Y1056709D02*
D03*
X927060D02*
D03*
X952460Y1082109D02*
D03*
X927060D02*
D03*
X952460Y1107509D02*
D03*
X927060D02*
D03*
X952460Y1132909D02*
D03*
X927060D02*
D03*
X952460Y1158309D02*
D03*
X927060D02*
D03*
X952460Y1183709D02*
D03*
X927060D02*
D03*
X952460Y1209109D02*
D03*
X927060D02*
D03*
X952460Y1234509D02*
D03*
X342860Y371159D02*
D03*
X317460D02*
D03*
X342860Y396559D02*
D03*
X317460D02*
D03*
X342860Y421959D02*
D03*
X317460D02*
D03*
X342860Y447359D02*
D03*
X317460D02*
D03*
X342860Y472759D02*
D03*
X317460D02*
D03*
X342860Y498159D02*
D03*
X317460D02*
D03*
X342860Y523559D02*
D03*
X317460D02*
D03*
X342860Y548959D02*
D03*
X317460D02*
D03*
X342860Y574359D02*
D03*
X317460D02*
D03*
X342860Y599759D02*
D03*
X317460D02*
D03*
X342860Y625159D02*
D03*
X317460D02*
D03*
X342860Y650559D02*
D03*
X317460D02*
D03*
X342860Y675959D02*
D03*
X317460D02*
D03*
X342860Y701359D02*
D03*
X317460D02*
D03*
X342860Y726759D02*
D03*
X317460D02*
D03*
X342860Y752159D02*
D03*
X317460D02*
D03*
X342860Y777559D02*
D03*
X317460D02*
D03*
X342860Y802959D02*
D03*
X317460D02*
D03*
X342860Y828359D02*
D03*
X317460D02*
D03*
X342860Y853759D02*
D03*
X317460D02*
D03*
X342860Y879159D02*
D03*
X317460D02*
D03*
X342860Y904559D02*
D03*
X317460D02*
D03*
X342860Y929959D02*
D03*
X317460D02*
D03*
X342860Y955359D02*
D03*
X317460D02*
D03*
X342860Y980759D02*
D03*
X317460D02*
D03*
X342860Y1006159D02*
D03*
X317460D02*
D03*
X342860Y1031559D02*
D03*
X317460D02*
D03*
X342860Y1056959D02*
D03*
X317460D02*
D03*
X342860Y1082359D02*
D03*
X317460D02*
D03*
X342860Y1107759D02*
D03*
X317460D02*
D03*
X342860Y1133159D02*
D03*
X317460D02*
D03*
X342860Y1158559D02*
D03*
X317460D02*
D03*
X342860Y1183959D02*
D03*
X317460D02*
D03*
X342860Y1209359D02*
D03*
X317460D02*
D03*
X342860Y1234759D02*
D03*
D64*
X927060Y1234509D02*
D03*
X317460Y1234759D02*
D03*
D65*
X792480Y1261110D02*
D03*
X806450Y1163320D02*
D03*
X285750Y1122680D02*
D03*
X283210Y471170D02*
D03*
X458470Y561340D02*
D03*
X807720Y194310D02*
D03*
X754380Y251460D02*
D03*
X572770Y190500D02*
D03*
X529590Y246380D02*
D03*
X309266Y188407D02*
D03*
X835660Y427990D02*
D03*
X746760Y491490D02*
D03*
X763270Y579120D02*
D03*
X820420Y890270D02*
D03*
X132080Y453390D02*
D03*
X24130Y471170D02*
D03*
X124460Y177800D02*
D03*
X30480Y143510D02*
D03*
X1233170Y184150D02*
D03*
X1150620Y450850D02*
D03*
X913130Y35560D02*
D03*
X1094740Y33020D02*
D03*
X717550Y34290D02*
D03*
X553720Y33020D02*
D03*
X342881Y34274D02*
D03*
X163830Y34290D02*
D03*
X109220Y703580D02*
D03*
X39370Y668020D02*
D03*
X937580Y1392580D02*
D03*
X825500Y1535430D02*
D03*
X581660Y1412240D02*
D03*
X394044Y1527520D02*
D03*
X325120Y1342390D02*
D03*
X607060Y1266190D02*
D03*
X623570Y1076960D02*
D03*
X388620Y797560D02*
D03*
X471170Y754380D02*
D03*
X660400Y791210D02*
D03*
X311150Y273050D02*
D03*
X1206500Y354330D02*
D03*
X1167130Y167640D02*
D03*
X755650Y1164590D02*
D03*
X699770Y1173480D02*
D03*
X755650Y1205230D02*
D03*
X539750Y305562D02*
D03*
Y346710D02*
D03*
X536954Y398300D02*
D03*
X594360Y388620D02*
D03*
X595630Y557530D02*
D03*
X535940Y566420D02*
D03*
X1126490Y1379220D02*
D03*
X1008380Y1019810D02*
D03*
X1235710Y693420D02*
D03*
X1074588Y1497726D02*
D03*
Y1477726D02*
D03*
Y1358026D02*
D03*
Y1218326D02*
D03*
Y1198326D02*
D03*
Y1078626D02*
D03*
Y1058626D02*
D03*
Y938926D02*
D03*
Y799226D02*
D03*
Y779226D02*
D03*
Y659526D02*
D03*
Y639526D02*
D03*
Y519826D02*
D03*
Y499826D02*
D03*
Y380126D02*
D03*
Y360126D02*
D03*
Y240426D02*
D03*
Y220426D02*
D03*
X519601Y571403D02*
D03*
X539330Y609600D02*
D03*
X538140Y523461D02*
D03*
Y483065D02*
D03*
X509710Y483364D02*
D03*
X59282Y910141D02*
D03*
X64770Y1007110D02*
D03*
Y987110D02*
D03*
X113030Y132715D02*
D03*
X612512Y339146D02*
D03*
X447961Y131911D02*
D03*
X537312Y439263D02*
D03*
X520371Y401394D02*
D03*
X699513Y1214231D02*
D03*
X671556Y1175741D02*
D03*
X96436Y1084920D02*
D03*
X75936Y1084921D02*
D03*
X520700Y1214120D02*
D03*
X521153Y1174297D02*
D03*
X492760Y1173480D02*
D03*
X76200Y1276350D02*
D03*
X96699Y1276349D02*
D03*
X804230Y132080D02*
D03*
X92531Y133351D02*
D03*
X824400Y131910D02*
D03*
X819150Y311150D02*
D03*
X806450D02*
D03*
X760133Y372573D02*
D03*
X857250Y309880D02*
D03*
X669410Y265464D02*
D03*
X468630Y132080D02*
D03*
X434892Y429030D02*
D03*
Y383310D02*
D03*
X412750Y417830D02*
D03*
X65255Y1385177D02*
D03*
Y1365177D02*
D03*
Y1169343D02*
D03*
Y1189343D02*
D03*
Y797676D02*
D03*
Y601842D02*
D03*
X593082Y429713D02*
D03*
X595100Y600050D02*
D03*
X112332Y910141D02*
D03*
X574860Y1204712D02*
D03*
Y1164402D02*
D03*
X593910Y513911D02*
D03*
Y473515D02*
D03*
X1145540Y1074420D02*
D03*
X193544Y511121D02*
D03*
X728725Y209106D02*
D03*
X669290Y223520D02*
D03*
X359786Y208013D02*
D03*
X610731Y208573D02*
D03*
X478414Y208547D02*
D03*
X419100Y222250D02*
D03*
Y264905D02*
D03*
X459740Y284750D02*
D03*
X709930D02*
D03*
X425349Y336054D02*
D03*
X663061Y375209D02*
D03*
X412750Y374650D02*
D03*
X459740Y383270D02*
D03*
X693420Y394970D02*
D03*
X709930Y383270D02*
D03*
X641890Y415290D02*
D03*
X695230D02*
D03*
X195781Y228440D02*
D03*
X195292Y369151D02*
D03*
Y650571D02*
D03*
X197247Y1494833D02*
D03*
X198713Y1354122D02*
D03*
Y1213412D02*
D03*
Y1072702D02*
D03*
X196759Y931992D02*
D03*
X195781Y791281D02*
D03*
X198713Y1052702D02*
D03*
Y1193412D02*
D03*
X197247Y1474833D02*
D03*
X198713Y1334122D02*
D03*
X196759Y911992D02*
D03*
X195781Y771281D02*
D03*
X195292Y630571D02*
D03*
X194804Y489861D02*
D03*
X195292Y349151D02*
D03*
X195781Y208440D02*
D03*
X1143000Y1287780D02*
D03*
Y1266190D02*
D03*
X1233400Y501650D02*
D03*
X1144000D02*
D03*
X1144002Y692912D02*
D03*
X907316Y306706D02*
D03*
X915069Y231950D02*
D03*
X892209Y287800D02*
D03*
X915069Y289293D02*
D03*
X732790Y361921D02*
D03*
Y301277D02*
D03*
X485140Y301306D02*
D03*
Y361950D02*
D03*
X870099Y229330D02*
D03*
X892959Y238220D02*
D03*
X870099Y273780D02*
D03*
D66*
X63500Y1524000D02*
D03*
X1206500D02*
D03*
X63500Y63500D02*
D03*
X1206500D02*
D03*
M02*
