G04*
G04 #@! TF.GenerationSoftware,Altium Limited,Altium Designer,21.9.2 (33)*
G04*
G04 Layer_Physical_Order=2*
G04 Layer_Color=36540*
%FSLAX44Y44*%
%MOMM*%
G71*
G04*
G04 #@! TF.SameCoordinates,D0450A9E-FE46-4EA2-B322-C77A40C1B8EA*
G04*
G04*
G04 #@! TF.FilePolarity,Positive*
G04*
G01*
G75*
%ADD50C,1.3900*%
%ADD51C,2.7750*%
%ADD54R,3.0000X3.0000*%
%ADD55C,10.0000*%
%ADD56C,4.0660*%
%ADD58C,1.5080*%
%ADD59C,2.1750*%
%ADD61C,2.1000*%
%ADD63C,1.2700*%
G36*
X1587500Y12700D02*
X12700D01*
Y1968500D01*
X1587500D01*
Y12700D01*
D02*
G37*
%LPC*%
G36*
X1502044Y1932140D02*
X1499870D01*
Y1880870D01*
X1551140D01*
Y1883044D01*
X1550241Y1889872D01*
X1548458Y1896525D01*
X1545823Y1902888D01*
X1542379Y1908852D01*
X1538186Y1914316D01*
X1533316Y1919186D01*
X1527852Y1923379D01*
X1521888Y1926823D01*
X1515525Y1929458D01*
X1508872Y1931241D01*
X1502044Y1932140D01*
D02*
G37*
G36*
X1497330D02*
X1495156D01*
X1488328Y1931241D01*
X1481675Y1929458D01*
X1475312Y1926823D01*
X1469348Y1923379D01*
X1463884Y1919186D01*
X1459014Y1914316D01*
X1454821Y1908852D01*
X1451377Y1902888D01*
X1448742Y1896525D01*
X1446959Y1889872D01*
X1446060Y1883044D01*
Y1880870D01*
X1497330D01*
Y1932140D01*
D02*
G37*
G36*
X105044D02*
X102870D01*
Y1880870D01*
X154140D01*
Y1883044D01*
X153241Y1889872D01*
X151458Y1896525D01*
X148823Y1902888D01*
X145379Y1908852D01*
X141186Y1914316D01*
X136316Y1919186D01*
X130852Y1923379D01*
X124888Y1926823D01*
X118525Y1929458D01*
X111872Y1931241D01*
X105044Y1932140D01*
D02*
G37*
G36*
X100330D02*
X98156D01*
X91328Y1931241D01*
X84675Y1929458D01*
X78312Y1926823D01*
X72348Y1923379D01*
X66884Y1919186D01*
X62014Y1914316D01*
X57821Y1908852D01*
X54377Y1902888D01*
X51742Y1896525D01*
X49959Y1889872D01*
X49060Y1883044D01*
Y1880870D01*
X100330D01*
Y1932140D01*
D02*
G37*
G36*
X1551140Y1878330D02*
X1499870D01*
Y1827060D01*
X1502044D01*
X1508872Y1827959D01*
X1515525Y1829742D01*
X1521888Y1832377D01*
X1527852Y1835821D01*
X1533316Y1840014D01*
X1538186Y1844884D01*
X1542379Y1850348D01*
X1545823Y1856312D01*
X1548458Y1862675D01*
X1550241Y1869328D01*
X1551140Y1876156D01*
Y1878330D01*
D02*
G37*
G36*
X1497330D02*
X1446060D01*
Y1876156D01*
X1446959Y1869328D01*
X1448742Y1862675D01*
X1451377Y1856312D01*
X1454821Y1850348D01*
X1459014Y1844884D01*
X1463884Y1840014D01*
X1469348Y1835821D01*
X1475312Y1832377D01*
X1481675Y1829742D01*
X1488328Y1827959D01*
X1495156Y1827060D01*
X1497330D01*
Y1878330D01*
D02*
G37*
G36*
X154140D02*
X102870D01*
Y1827060D01*
X105044D01*
X111872Y1827959D01*
X118525Y1829742D01*
X124888Y1832377D01*
X130852Y1835821D01*
X136316Y1840014D01*
X141186Y1844884D01*
X145379Y1850348D01*
X148823Y1856312D01*
X151458Y1862675D01*
X153241Y1869328D01*
X154140Y1876156D01*
Y1878330D01*
D02*
G37*
G36*
X100330D02*
X49060D01*
Y1876156D01*
X49959Y1869328D01*
X51742Y1862675D01*
X54377Y1856312D01*
X57821Y1850348D01*
X62014Y1844884D01*
X66884Y1840014D01*
X72348Y1835821D01*
X78312Y1832377D01*
X84675Y1829742D01*
X91328Y1827959D01*
X98156Y1827060D01*
X100330D01*
Y1878330D01*
D02*
G37*
G36*
X1385303Y1830070D02*
X1383297D01*
X1381359Y1829551D01*
X1379621Y1828548D01*
X1378203Y1827129D01*
X1377199Y1825391D01*
X1376680Y1823453D01*
Y1821447D01*
X1377199Y1819509D01*
X1378203Y1817771D01*
X1379621Y1816353D01*
X1381359Y1815349D01*
X1383297Y1814830D01*
X1385303D01*
X1387241Y1815349D01*
X1388979Y1816353D01*
X1390397Y1817771D01*
X1391401Y1819509D01*
X1391920Y1821447D01*
Y1823453D01*
X1391401Y1825391D01*
X1390397Y1827129D01*
X1388979Y1828548D01*
X1387241Y1829551D01*
X1385303Y1830070D01*
D02*
G37*
G36*
X1271003D02*
X1268997D01*
X1267059Y1829551D01*
X1265321Y1828548D01*
X1263903Y1827129D01*
X1262899Y1825391D01*
X1262380Y1823453D01*
Y1821447D01*
X1262899Y1819509D01*
X1263903Y1817771D01*
X1265321Y1816353D01*
X1267059Y1815349D01*
X1268997Y1814830D01*
X1271003D01*
X1272941Y1815349D01*
X1274679Y1816353D01*
X1276097Y1817771D01*
X1277101Y1819509D01*
X1277620Y1821447D01*
Y1823453D01*
X1277101Y1825391D01*
X1276097Y1827129D01*
X1274679Y1828548D01*
X1272941Y1829551D01*
X1271003Y1830070D01*
D02*
G37*
G36*
X293103D02*
X291097D01*
X289159Y1829551D01*
X287421Y1828548D01*
X286003Y1827129D01*
X284999Y1825391D01*
X284480Y1823453D01*
Y1821447D01*
X284999Y1819509D01*
X286003Y1817771D01*
X287421Y1816353D01*
X289159Y1815349D01*
X291097Y1814830D01*
X293103D01*
X295041Y1815349D01*
X296779Y1816353D01*
X298197Y1817771D01*
X299201Y1819509D01*
X299720Y1821447D01*
Y1823453D01*
X299201Y1825391D01*
X298197Y1827129D01*
X296779Y1828548D01*
X295041Y1829551D01*
X293103Y1830070D01*
D02*
G37*
G36*
X1385303Y1791970D02*
X1383297D01*
X1381359Y1791451D01*
X1379621Y1790448D01*
X1378203Y1789029D01*
X1377199Y1787291D01*
X1376680Y1785353D01*
Y1783347D01*
X1377199Y1781409D01*
X1378203Y1779671D01*
X1379621Y1778253D01*
X1381359Y1777249D01*
X1383297Y1776730D01*
X1385303D01*
X1387241Y1777249D01*
X1388979Y1778253D01*
X1390397Y1779671D01*
X1391401Y1781409D01*
X1391920Y1783347D01*
Y1785353D01*
X1391401Y1787291D01*
X1390397Y1789029D01*
X1388979Y1790448D01*
X1387241Y1791451D01*
X1385303Y1791970D01*
D02*
G37*
G36*
X1359903D02*
X1357897D01*
X1355959Y1791451D01*
X1354221Y1790448D01*
X1352802Y1789029D01*
X1351799Y1787291D01*
X1351280Y1785353D01*
Y1783347D01*
X1351799Y1781409D01*
X1352802Y1779671D01*
X1354221Y1778253D01*
X1355959Y1777249D01*
X1357897Y1776730D01*
X1359903D01*
X1361841Y1777249D01*
X1363579Y1778253D01*
X1364998Y1779671D01*
X1366001Y1781409D01*
X1366520Y1783347D01*
Y1785353D01*
X1366001Y1787291D01*
X1364998Y1789029D01*
X1363579Y1790448D01*
X1361841Y1791451D01*
X1359903Y1791970D01*
D02*
G37*
G36*
X1271003D02*
X1268997D01*
X1267059Y1791451D01*
X1265321Y1790448D01*
X1263903Y1789029D01*
X1262899Y1787291D01*
X1262380Y1785353D01*
Y1783347D01*
X1262899Y1781409D01*
X1263903Y1779671D01*
X1265321Y1778253D01*
X1267059Y1777249D01*
X1268997Y1776730D01*
X1271003D01*
X1272941Y1777249D01*
X1274679Y1778253D01*
X1276097Y1779671D01*
X1277101Y1781409D01*
X1277620Y1783347D01*
Y1785353D01*
X1277101Y1787291D01*
X1276097Y1789029D01*
X1274679Y1790448D01*
X1272941Y1791451D01*
X1271003Y1791970D01*
D02*
G37*
G36*
X1245603D02*
X1243597D01*
X1241659Y1791451D01*
X1239921Y1790448D01*
X1238503Y1789029D01*
X1237499Y1787291D01*
X1236980Y1785353D01*
Y1783347D01*
X1237499Y1781409D01*
X1238503Y1779671D01*
X1239921Y1778253D01*
X1241659Y1777249D01*
X1243597Y1776730D01*
X1245603D01*
X1247541Y1777249D01*
X1249279Y1778253D01*
X1250697Y1779671D01*
X1251701Y1781409D01*
X1252220Y1783347D01*
Y1785353D01*
X1251701Y1787291D01*
X1250697Y1789029D01*
X1249279Y1790448D01*
X1247541Y1791451D01*
X1245603Y1791970D01*
D02*
G37*
G36*
X1220203D02*
X1218197D01*
X1216259Y1791451D01*
X1214521Y1790448D01*
X1213102Y1789029D01*
X1212099Y1787291D01*
X1211580Y1785353D01*
Y1783347D01*
X1212099Y1781409D01*
X1213102Y1779671D01*
X1214521Y1778253D01*
X1216259Y1777249D01*
X1218197Y1776730D01*
X1220203D01*
X1222141Y1777249D01*
X1223879Y1778253D01*
X1225297Y1779671D01*
X1226301Y1781409D01*
X1226820Y1783347D01*
Y1785353D01*
X1226301Y1787291D01*
X1225297Y1789029D01*
X1223879Y1790448D01*
X1222141Y1791451D01*
X1220203Y1791970D01*
D02*
G37*
G36*
X343903D02*
X341897D01*
X339959Y1791451D01*
X338221Y1790448D01*
X336802Y1789029D01*
X335799Y1787291D01*
X335280Y1785353D01*
Y1783347D01*
X335799Y1781409D01*
X336802Y1779671D01*
X338221Y1778253D01*
X339959Y1777249D01*
X341897Y1776730D01*
X343903D01*
X345841Y1777249D01*
X347579Y1778253D01*
X348997Y1779671D01*
X350001Y1781409D01*
X350520Y1783347D01*
Y1785353D01*
X350001Y1787291D01*
X348997Y1789029D01*
X347579Y1790448D01*
X345841Y1791451D01*
X343903Y1791970D01*
D02*
G37*
G36*
X318503D02*
X316497D01*
X314559Y1791451D01*
X312821Y1790448D01*
X311402Y1789029D01*
X310399Y1787291D01*
X309880Y1785353D01*
Y1783347D01*
X310399Y1781409D01*
X311402Y1779671D01*
X312821Y1778253D01*
X314559Y1777249D01*
X316497Y1776730D01*
X318503D01*
X320441Y1777249D01*
X322179Y1778253D01*
X323597Y1779671D01*
X324601Y1781409D01*
X325120Y1783347D01*
Y1785353D01*
X324601Y1787291D01*
X323597Y1789029D01*
X322179Y1790448D01*
X320441Y1791451D01*
X318503Y1791970D01*
D02*
G37*
G36*
X293103D02*
X291097D01*
X289159Y1791451D01*
X287421Y1790448D01*
X286003Y1789029D01*
X284999Y1787291D01*
X284480Y1785353D01*
Y1783347D01*
X284999Y1781409D01*
X286003Y1779671D01*
X287421Y1778253D01*
X289159Y1777249D01*
X291097Y1776730D01*
X293103D01*
X295041Y1777249D01*
X296779Y1778253D01*
X298197Y1779671D01*
X299201Y1781409D01*
X299720Y1783347D01*
Y1785353D01*
X299201Y1787291D01*
X298197Y1789029D01*
X296779Y1790448D01*
X295041Y1791451D01*
X293103Y1791970D01*
D02*
G37*
G36*
X1334586Y1791008D02*
X1332580D01*
X1330642Y1790489D01*
X1328904Y1789486D01*
X1327485Y1788067D01*
X1326482Y1786330D01*
X1325963Y1784392D01*
Y1782385D01*
X1326482Y1780447D01*
X1327485Y1778710D01*
X1328904Y1777291D01*
X1330642Y1776288D01*
X1332580Y1775768D01*
X1334586D01*
X1336524Y1776288D01*
X1338262Y1777291D01*
X1339680Y1778710D01*
X1340683Y1780447D01*
X1341203Y1782385D01*
Y1784392D01*
X1340683Y1786330D01*
X1339680Y1788067D01*
X1338262Y1789486D01*
X1336524Y1790489D01*
X1334586Y1791008D01*
D02*
G37*
G36*
X1077590Y1770140D02*
X1061320D01*
Y1753870D01*
X1077590D01*
Y1770140D01*
D02*
G37*
G36*
X1058780D02*
X1042510D01*
Y1753870D01*
X1058780D01*
Y1770140D01*
D02*
G37*
G36*
X1011652Y1768870D02*
X1008447D01*
X1005304Y1768245D01*
X1002343Y1767018D01*
X999678Y1765238D01*
X997412Y1762971D01*
X995631Y1760307D01*
X994405Y1757346D01*
X993780Y1754203D01*
Y1750997D01*
X994405Y1747854D01*
X995631Y1744893D01*
X997412Y1742229D01*
X999678Y1739962D01*
X1002343Y1738182D01*
X1005304Y1736955D01*
X1008447Y1736330D01*
X1011652D01*
X1014796Y1736955D01*
X1017757Y1738182D01*
X1020421Y1739962D01*
X1022688Y1742229D01*
X1024468Y1744893D01*
X1025695Y1747854D01*
X1026320Y1750997D01*
Y1754203D01*
X1025695Y1757346D01*
X1024468Y1760307D01*
X1022688Y1762971D01*
X1020421Y1765238D01*
X1017757Y1767018D01*
X1014796Y1768245D01*
X1011652Y1768870D01*
D02*
G37*
G36*
X1077590Y1751330D02*
X1061320D01*
Y1735060D01*
X1077590D01*
Y1751330D01*
D02*
G37*
G36*
X1058780D02*
X1042510D01*
Y1735060D01*
X1058780D01*
Y1751330D01*
D02*
G37*
G36*
X61203Y1756570D02*
X57998D01*
X54854Y1755945D01*
X51893Y1754718D01*
X49229Y1752937D01*
X46962Y1750671D01*
X45182Y1748006D01*
X43955Y1745046D01*
X43330Y1741902D01*
Y1738697D01*
X43955Y1735554D01*
X45182Y1732593D01*
X46962Y1729928D01*
X49229Y1727662D01*
X51893Y1725882D01*
X54854Y1724655D01*
X57998Y1724030D01*
X61203D01*
X64346Y1724655D01*
X67307Y1725882D01*
X69972Y1727662D01*
X72238Y1729928D01*
X74018Y1732593D01*
X75245Y1735554D01*
X75870Y1738697D01*
Y1741902D01*
X75245Y1745046D01*
X74018Y1748006D01*
X72238Y1750671D01*
X69972Y1752937D01*
X67307Y1754718D01*
X64346Y1755945D01*
X61203Y1756570D01*
D02*
G37*
G36*
X61317Y1714840D02*
X60870D01*
Y1703070D01*
X72640D01*
Y1703517D01*
X71751Y1706833D01*
X70035Y1709807D01*
X67607Y1712235D01*
X64633Y1713951D01*
X61317Y1714840D01*
D02*
G37*
G36*
X58330D02*
X57883D01*
X54567Y1713951D01*
X51593Y1712235D01*
X49166Y1709807D01*
X47449Y1706833D01*
X46560Y1703517D01*
Y1703070D01*
X58330D01*
Y1714840D01*
D02*
G37*
G36*
X1542092Y1721145D02*
X1539108D01*
X1536182Y1720563D01*
X1533426Y1719422D01*
X1530945Y1717764D01*
X1528836Y1715654D01*
X1527179Y1713174D01*
X1526037Y1710418D01*
X1525455Y1707492D01*
Y1704509D01*
X1526037Y1701582D01*
X1527179Y1698826D01*
X1528836Y1696346D01*
X1530945Y1694236D01*
X1533426Y1692579D01*
X1536182Y1691437D01*
X1539108Y1690855D01*
X1542092D01*
X1545018Y1691437D01*
X1547774Y1692579D01*
X1550254Y1694236D01*
X1552364Y1696346D01*
X1554021Y1698826D01*
X1555163Y1701582D01*
X1555745Y1704509D01*
Y1707492D01*
X1555163Y1710418D01*
X1554021Y1713174D01*
X1552364Y1715654D01*
X1550254Y1717764D01*
X1547774Y1719422D01*
X1545018Y1720563D01*
X1542092Y1721145D01*
D02*
G37*
G36*
X1500092D02*
X1497108D01*
X1494182Y1720563D01*
X1491426Y1719422D01*
X1488946Y1717764D01*
X1486836Y1715654D01*
X1485179Y1713174D01*
X1484037Y1710418D01*
X1483455Y1707492D01*
Y1704509D01*
X1484037Y1701582D01*
X1485179Y1698826D01*
X1486836Y1696346D01*
X1488946Y1694236D01*
X1491426Y1692579D01*
X1494182Y1691437D01*
X1497108Y1690855D01*
X1500092D01*
X1503018Y1691437D01*
X1505774Y1692579D01*
X1508254Y1694236D01*
X1510364Y1696346D01*
X1512021Y1698826D01*
X1513163Y1701582D01*
X1513745Y1704509D01*
Y1707492D01*
X1513163Y1710418D01*
X1512021Y1713174D01*
X1510364Y1715654D01*
X1508254Y1717764D01*
X1505774Y1719422D01*
X1503018Y1720563D01*
X1500092Y1721145D01*
D02*
G37*
G36*
X1471745D02*
X1441455D01*
Y1690855D01*
X1471745D01*
Y1721145D01*
D02*
G37*
G36*
X155370Y1713570D02*
X131830D01*
Y1690030D01*
X155370D01*
Y1713570D01*
D02*
G37*
G36*
X103150D02*
X100050D01*
X97057Y1712768D01*
X94373Y1711218D01*
X92182Y1709027D01*
X90632Y1706343D01*
X89830Y1703350D01*
Y1700250D01*
X90632Y1697257D01*
X92182Y1694573D01*
X94373Y1692382D01*
X97057Y1690832D01*
X100050Y1690030D01*
X103150D01*
X106143Y1690832D01*
X108827Y1692382D01*
X111018Y1694573D01*
X112568Y1697257D01*
X113370Y1700250D01*
Y1703350D01*
X112568Y1706343D01*
X111018Y1709027D01*
X108827Y1711218D01*
X106143Y1712768D01*
X103150Y1713570D01*
D02*
G37*
G36*
X72640Y1700530D02*
X60870D01*
Y1688760D01*
X61317D01*
X64633Y1689649D01*
X67607Y1691365D01*
X70035Y1693793D01*
X71751Y1696767D01*
X72640Y1700083D01*
Y1700530D01*
D02*
G37*
G36*
X58330D02*
X46560D01*
Y1700083D01*
X47449Y1696767D01*
X49166Y1693793D01*
X51593Y1691365D01*
X54567Y1689649D01*
X57883Y1688760D01*
X58330D01*
Y1700530D01*
D02*
G37*
G36*
X1542217Y1667415D02*
X1541870D01*
Y1652270D01*
X1557015D01*
Y1652617D01*
X1556384Y1655788D01*
X1555147Y1658775D01*
X1553350Y1661464D01*
X1551064Y1663750D01*
X1548375Y1665547D01*
X1545388Y1666784D01*
X1542217Y1667415D01*
D02*
G37*
G36*
X1539330D02*
X1538983D01*
X1535812Y1666784D01*
X1532825Y1665547D01*
X1530136Y1663750D01*
X1527849Y1661464D01*
X1526053Y1658775D01*
X1524816Y1655788D01*
X1524185Y1652617D01*
Y1652270D01*
X1539330D01*
Y1667415D01*
D02*
G37*
G36*
X1500092Y1666145D02*
X1497108D01*
X1494182Y1665563D01*
X1491426Y1664421D01*
X1488946Y1662764D01*
X1486836Y1660654D01*
X1485179Y1658174D01*
X1484037Y1655418D01*
X1483455Y1652492D01*
Y1649508D01*
X1484037Y1646582D01*
X1485179Y1643826D01*
X1486836Y1641346D01*
X1488946Y1639236D01*
X1491426Y1637579D01*
X1494182Y1636437D01*
X1497108Y1635855D01*
X1500092D01*
X1503018Y1636437D01*
X1505774Y1637579D01*
X1508254Y1639236D01*
X1510364Y1641346D01*
X1512021Y1643826D01*
X1513163Y1646582D01*
X1513745Y1649508D01*
Y1652492D01*
X1513163Y1655418D01*
X1512021Y1658174D01*
X1510364Y1660654D01*
X1508254Y1662764D01*
X1505774Y1664421D01*
X1503018Y1665563D01*
X1500092Y1666145D01*
D02*
G37*
G36*
X1458092D02*
X1455108D01*
X1452182Y1665563D01*
X1449426Y1664421D01*
X1446946Y1662764D01*
X1444836Y1660654D01*
X1443179Y1658174D01*
X1442037Y1655418D01*
X1441455Y1652492D01*
Y1649508D01*
X1442037Y1646582D01*
X1443179Y1643826D01*
X1444836Y1641346D01*
X1446946Y1639236D01*
X1449426Y1637579D01*
X1452182Y1636437D01*
X1455108Y1635855D01*
X1458092D01*
X1461018Y1636437D01*
X1463774Y1637579D01*
X1466254Y1639236D01*
X1468364Y1641346D01*
X1470021Y1643826D01*
X1471163Y1646582D01*
X1471745Y1649508D01*
Y1652492D01*
X1471163Y1655418D01*
X1470021Y1658174D01*
X1468364Y1660654D01*
X1466254Y1662764D01*
X1463774Y1664421D01*
X1461018Y1665563D01*
X1458092Y1666145D01*
D02*
G37*
G36*
X1557015Y1649730D02*
X1541870D01*
Y1634585D01*
X1542217D01*
X1545388Y1635216D01*
X1548375Y1636453D01*
X1551064Y1638250D01*
X1553350Y1640536D01*
X1555147Y1643225D01*
X1556384Y1646212D01*
X1557015Y1649383D01*
Y1649730D01*
D02*
G37*
G36*
X1539330D02*
X1524185D01*
Y1649383D01*
X1524816Y1646212D01*
X1526053Y1643225D01*
X1527849Y1640536D01*
X1530136Y1638250D01*
X1532825Y1636453D01*
X1535812Y1635216D01*
X1538983Y1634585D01*
X1539330D01*
Y1649730D01*
D02*
G37*
G36*
X124203Y1662570D02*
X120998D01*
X117854Y1661945D01*
X114894Y1660718D01*
X112229Y1658938D01*
X109963Y1656671D01*
X108182Y1654007D01*
X106955Y1651046D01*
X106330Y1647902D01*
Y1644698D01*
X106955Y1641554D01*
X108182Y1638593D01*
X109963Y1635928D01*
X112229Y1633662D01*
X114894Y1631882D01*
X117854Y1630655D01*
X120998Y1630030D01*
X124203D01*
X127346Y1630655D01*
X130307Y1631882D01*
X132972Y1633662D01*
X135238Y1635928D01*
X137018Y1638593D01*
X138245Y1641554D01*
X138870Y1644698D01*
Y1647902D01*
X138245Y1651046D01*
X137018Y1654007D01*
X135238Y1656671D01*
X132972Y1658938D01*
X130307Y1660718D01*
X127346Y1661945D01*
X124203Y1662570D01*
D02*
G37*
G36*
X1271599Y1611845D02*
X1268401D01*
X1265312Y1611017D01*
X1262543Y1609418D01*
X1260282Y1607157D01*
X1258683Y1604388D01*
X1257855Y1601299D01*
Y1598101D01*
X1258683Y1595012D01*
X1260282Y1592243D01*
X1262543Y1589982D01*
X1265312Y1588383D01*
X1268401Y1587555D01*
X1271599D01*
X1274688Y1588383D01*
X1277457Y1589982D01*
X1279718Y1592243D01*
X1281317Y1595012D01*
X1282145Y1598101D01*
Y1601299D01*
X1281317Y1604388D01*
X1279718Y1607157D01*
X1277457Y1609418D01*
X1274688Y1611017D01*
X1271599Y1611845D01*
D02*
G37*
G36*
X331799D02*
X328601D01*
X325512Y1611017D01*
X322743Y1609418D01*
X320482Y1607157D01*
X318883Y1604388D01*
X318055Y1601299D01*
Y1598101D01*
X318883Y1595012D01*
X320482Y1592243D01*
X322743Y1589982D01*
X325512Y1588383D01*
X328601Y1587555D01*
X331799D01*
X334888Y1588383D01*
X337657Y1589982D01*
X339918Y1592243D01*
X341517Y1595012D01*
X342345Y1598101D01*
Y1601299D01*
X341517Y1604388D01*
X339918Y1607157D01*
X337657Y1609418D01*
X334888Y1611017D01*
X331799Y1611845D01*
D02*
G37*
G36*
X370302Y1615970D02*
X367097D01*
X363954Y1615345D01*
X360993Y1614118D01*
X358328Y1612338D01*
X356062Y1610072D01*
X354282Y1607407D01*
X353055Y1604446D01*
X352430Y1601303D01*
Y1598098D01*
X353055Y1594954D01*
X354282Y1591993D01*
X356062Y1589329D01*
X358328Y1587062D01*
X360993Y1585282D01*
X363954Y1584055D01*
X367097Y1583430D01*
X370302D01*
X373446Y1584055D01*
X376407Y1585282D01*
X379071Y1587062D01*
X381338Y1589329D01*
X383118Y1591993D01*
X384344Y1594954D01*
X384970Y1598098D01*
Y1601303D01*
X384344Y1604446D01*
X383118Y1607407D01*
X381338Y1610072D01*
X379071Y1612338D01*
X376407Y1614118D01*
X373446Y1615345D01*
X370302Y1615970D01*
D02*
G37*
G36*
X1327103Y1594970D02*
X1323898D01*
X1320754Y1594345D01*
X1317793Y1593118D01*
X1315128Y1591338D01*
X1312862Y1589071D01*
X1311082Y1586407D01*
X1309855Y1583446D01*
X1309230Y1580302D01*
Y1577097D01*
X1309855Y1573954D01*
X1311082Y1570993D01*
X1312862Y1568328D01*
X1315128Y1566062D01*
X1317793Y1564282D01*
X1320754Y1563055D01*
X1323898Y1562430D01*
X1327103D01*
X1330246Y1563055D01*
X1333207Y1564282D01*
X1335871Y1566062D01*
X1338138Y1568328D01*
X1339918Y1570993D01*
X1341145Y1573954D01*
X1341770Y1577097D01*
Y1580302D01*
X1341145Y1583446D01*
X1339918Y1586407D01*
X1338138Y1589071D01*
X1335871Y1591338D01*
X1333207Y1593118D01*
X1330246Y1594345D01*
X1327103Y1594970D01*
D02*
G37*
G36*
X61203Y1578770D02*
X57998D01*
X54854Y1578145D01*
X51893Y1576918D01*
X49229Y1575137D01*
X46962Y1572871D01*
X45182Y1570206D01*
X43955Y1567246D01*
X43330Y1564102D01*
Y1560897D01*
X43955Y1557754D01*
X45182Y1554793D01*
X46962Y1552128D01*
X49229Y1549862D01*
X51893Y1548082D01*
X54854Y1546855D01*
X57998Y1546230D01*
X61203D01*
X64346Y1546855D01*
X67307Y1548082D01*
X69972Y1549862D01*
X72238Y1552128D01*
X74018Y1554793D01*
X75245Y1557754D01*
X75870Y1560897D01*
Y1564102D01*
X75245Y1567246D01*
X74018Y1570206D01*
X72238Y1572871D01*
X69972Y1575137D01*
X67307Y1576918D01*
X64346Y1578145D01*
X61203Y1578770D01*
D02*
G37*
G36*
X1271599Y1569845D02*
X1268401D01*
X1265312Y1569017D01*
X1262543Y1567419D01*
X1260282Y1565157D01*
X1258683Y1562388D01*
X1257855Y1559299D01*
Y1556101D01*
X1258683Y1553012D01*
X1260282Y1550243D01*
X1262543Y1547982D01*
X1265312Y1546383D01*
X1268401Y1545555D01*
X1271599D01*
X1274688Y1546383D01*
X1277457Y1547982D01*
X1279718Y1550243D01*
X1281317Y1553012D01*
X1282145Y1556101D01*
Y1559299D01*
X1281317Y1562388D01*
X1279718Y1565157D01*
X1277457Y1567419D01*
X1274688Y1569017D01*
X1271599Y1569845D01*
D02*
G37*
G36*
X331799D02*
X328601D01*
X325512Y1569017D01*
X322743Y1567419D01*
X320482Y1565157D01*
X318883Y1562388D01*
X318055Y1559299D01*
Y1556101D01*
X318883Y1553012D01*
X320482Y1550243D01*
X322743Y1547982D01*
X325512Y1546383D01*
X328601Y1545555D01*
X331799D01*
X334888Y1546383D01*
X337657Y1547982D01*
X339918Y1550243D01*
X341517Y1553012D01*
X342345Y1556101D01*
Y1559299D01*
X341517Y1562388D01*
X339918Y1565157D01*
X337657Y1567419D01*
X334888Y1569017D01*
X331799Y1569845D01*
D02*
G37*
G36*
X1542092Y1556045D02*
X1539108D01*
X1536182Y1555463D01*
X1533426Y1554321D01*
X1530946Y1552664D01*
X1528836Y1550554D01*
X1527179Y1548074D01*
X1526037Y1545318D01*
X1525455Y1542392D01*
Y1539408D01*
X1526037Y1536482D01*
X1527179Y1533726D01*
X1528836Y1531246D01*
X1530946Y1529136D01*
X1533426Y1527479D01*
X1536182Y1526337D01*
X1539108Y1525755D01*
X1542092D01*
X1545018Y1526337D01*
X1547774Y1527479D01*
X1550254Y1529136D01*
X1552364Y1531246D01*
X1554021Y1533726D01*
X1555163Y1536482D01*
X1555745Y1539408D01*
Y1542392D01*
X1555163Y1545318D01*
X1554021Y1548074D01*
X1552364Y1550554D01*
X1550254Y1552664D01*
X1547774Y1554321D01*
X1545018Y1555463D01*
X1542092Y1556045D01*
D02*
G37*
G36*
X1500092D02*
X1497108D01*
X1494182Y1555463D01*
X1491426Y1554321D01*
X1488946Y1552664D01*
X1486836Y1550554D01*
X1485179Y1548074D01*
X1484037Y1545318D01*
X1483455Y1542392D01*
Y1539408D01*
X1484037Y1536482D01*
X1485179Y1533726D01*
X1486836Y1531246D01*
X1488946Y1529136D01*
X1491426Y1527479D01*
X1494182Y1526337D01*
X1497108Y1525755D01*
X1500092D01*
X1503018Y1526337D01*
X1505774Y1527479D01*
X1508254Y1529136D01*
X1510364Y1531246D01*
X1512021Y1533726D01*
X1513163Y1536482D01*
X1513745Y1539408D01*
Y1542392D01*
X1513163Y1545318D01*
X1512021Y1548074D01*
X1510364Y1550554D01*
X1508254Y1552664D01*
X1505774Y1554321D01*
X1503018Y1555463D01*
X1500092Y1556045D01*
D02*
G37*
G36*
X1471745D02*
X1441455D01*
Y1525755D01*
X1471745D01*
Y1556045D01*
D02*
G37*
G36*
X61317Y1537040D02*
X60870D01*
Y1525270D01*
X72640D01*
Y1525717D01*
X71751Y1529033D01*
X70035Y1532007D01*
X67607Y1534435D01*
X64633Y1536151D01*
X61317Y1537040D01*
D02*
G37*
G36*
X58330D02*
X57883D01*
X54567Y1536151D01*
X51593Y1534435D01*
X49166Y1532007D01*
X47449Y1529033D01*
X46560Y1525717D01*
Y1525270D01*
X58330D01*
Y1537040D01*
D02*
G37*
G36*
X155370Y1535770D02*
X131830D01*
Y1512230D01*
X155370D01*
Y1535770D01*
D02*
G37*
G36*
X103150D02*
X100050D01*
X97057Y1534968D01*
X94373Y1533418D01*
X92182Y1531227D01*
X90632Y1528543D01*
X89830Y1525550D01*
Y1522450D01*
X90632Y1519457D01*
X92182Y1516773D01*
X94373Y1514582D01*
X97057Y1513032D01*
X100050Y1512230D01*
X103150D01*
X106143Y1513032D01*
X108827Y1514582D01*
X111018Y1516773D01*
X112568Y1519457D01*
X113370Y1522450D01*
Y1525550D01*
X112568Y1528543D01*
X111018Y1531227D01*
X108827Y1533418D01*
X106143Y1534968D01*
X103150Y1535770D01*
D02*
G37*
G36*
X72640Y1522730D02*
X60870D01*
Y1510960D01*
X61317D01*
X64633Y1511849D01*
X67607Y1513565D01*
X70035Y1515993D01*
X71751Y1518967D01*
X72640Y1522283D01*
Y1522730D01*
D02*
G37*
G36*
X58330D02*
X46560D01*
Y1522283D01*
X47449Y1518967D01*
X49166Y1515993D01*
X51593Y1513565D01*
X54567Y1511849D01*
X57883Y1510960D01*
X58330D01*
Y1522730D01*
D02*
G37*
G36*
X1271599Y1527845D02*
X1268401D01*
X1265312Y1527017D01*
X1262543Y1525418D01*
X1260282Y1523157D01*
X1258683Y1520388D01*
X1257855Y1517299D01*
Y1514101D01*
X1258683Y1511012D01*
X1260282Y1508243D01*
X1262543Y1505981D01*
X1265312Y1504382D01*
X1268401Y1503555D01*
X1271599D01*
X1274688Y1504382D01*
X1277457Y1505981D01*
X1279718Y1508243D01*
X1281317Y1511012D01*
X1282145Y1514101D01*
Y1517299D01*
X1281317Y1520388D01*
X1279718Y1523157D01*
X1277457Y1525418D01*
X1274688Y1527017D01*
X1271599Y1527845D01*
D02*
G37*
G36*
X331799D02*
X328601D01*
X325512Y1527017D01*
X322743Y1525418D01*
X320482Y1523157D01*
X318883Y1520388D01*
X318055Y1517299D01*
Y1514101D01*
X318883Y1511012D01*
X320482Y1508243D01*
X322743Y1505981D01*
X325512Y1504382D01*
X328601Y1503555D01*
X331799D01*
X334888Y1504382D01*
X337657Y1505981D01*
X339918Y1508243D01*
X341517Y1511012D01*
X342345Y1514101D01*
Y1517299D01*
X341517Y1520388D01*
X339918Y1523157D01*
X337657Y1525418D01*
X334888Y1527017D01*
X331799Y1527845D01*
D02*
G37*
G36*
X1542217Y1502315D02*
X1541870D01*
Y1487170D01*
X1557015D01*
Y1487517D01*
X1556384Y1490688D01*
X1555147Y1493675D01*
X1553350Y1496364D01*
X1551064Y1498650D01*
X1548375Y1500447D01*
X1545388Y1501684D01*
X1542217Y1502315D01*
D02*
G37*
G36*
X1539330D02*
X1538983D01*
X1535812Y1501684D01*
X1532825Y1500447D01*
X1530136Y1498650D01*
X1527850Y1496364D01*
X1526053Y1493675D01*
X1524816Y1490688D01*
X1524185Y1487517D01*
Y1487170D01*
X1539330D01*
Y1502315D01*
D02*
G37*
G36*
X276302Y1510970D02*
X273097D01*
X269954Y1510345D01*
X266993Y1509118D01*
X264328Y1507338D01*
X262062Y1505072D01*
X260282Y1502407D01*
X259055Y1499446D01*
X258430Y1496302D01*
Y1493098D01*
X259055Y1489954D01*
X260282Y1486993D01*
X262062Y1484329D01*
X264328Y1482062D01*
X266993Y1480282D01*
X269954Y1479055D01*
X273097Y1478430D01*
X276302D01*
X279446Y1479055D01*
X282407Y1480282D01*
X285072Y1482062D01*
X287338Y1484329D01*
X289118Y1486993D01*
X290345Y1489954D01*
X290970Y1493098D01*
Y1496302D01*
X290345Y1499446D01*
X289118Y1502407D01*
X287338Y1505072D01*
X285072Y1507338D01*
X282407Y1509118D01*
X279446Y1510345D01*
X276302Y1510970D01*
D02*
G37*
G36*
X1271766Y1487115D02*
X1271270D01*
Y1474970D01*
X1283415D01*
Y1475466D01*
X1282501Y1478878D01*
X1280735Y1481937D01*
X1278237Y1484435D01*
X1275178Y1486201D01*
X1271766Y1487115D01*
D02*
G37*
G36*
X1268730D02*
X1268234D01*
X1264822Y1486201D01*
X1261763Y1484435D01*
X1259265Y1481937D01*
X1257499Y1478878D01*
X1256585Y1475466D01*
Y1474970D01*
X1268730D01*
Y1487115D01*
D02*
G37*
G36*
X1500092Y1501045D02*
X1497108D01*
X1494182Y1500463D01*
X1491426Y1499321D01*
X1488946Y1497664D01*
X1486836Y1495554D01*
X1485179Y1493074D01*
X1484037Y1490318D01*
X1483455Y1487392D01*
Y1484408D01*
X1484037Y1481482D01*
X1485179Y1478726D01*
X1486836Y1476246D01*
X1488946Y1474136D01*
X1491426Y1472479D01*
X1494182Y1471337D01*
X1497108Y1470755D01*
X1500092D01*
X1503018Y1471337D01*
X1505774Y1472479D01*
X1508254Y1474136D01*
X1510364Y1476246D01*
X1512021Y1478726D01*
X1513163Y1481482D01*
X1513745Y1484408D01*
Y1487392D01*
X1513163Y1490318D01*
X1512021Y1493074D01*
X1510364Y1495554D01*
X1508254Y1497664D01*
X1505774Y1499321D01*
X1503018Y1500463D01*
X1500092Y1501045D01*
D02*
G37*
G36*
X1458092D02*
X1455108D01*
X1452182Y1500463D01*
X1449426Y1499321D01*
X1446946Y1497664D01*
X1444836Y1495554D01*
X1443179Y1493074D01*
X1442037Y1490318D01*
X1441455Y1487392D01*
Y1484408D01*
X1442037Y1481482D01*
X1443179Y1478726D01*
X1444836Y1476246D01*
X1446946Y1474136D01*
X1449426Y1472479D01*
X1452182Y1471337D01*
X1455108Y1470755D01*
X1458092D01*
X1461018Y1471337D01*
X1463774Y1472479D01*
X1466254Y1474136D01*
X1468364Y1476246D01*
X1470021Y1478726D01*
X1471163Y1481482D01*
X1471745Y1484408D01*
Y1487392D01*
X1471163Y1490318D01*
X1470021Y1493074D01*
X1468364Y1495554D01*
X1466254Y1497664D01*
X1463774Y1499321D01*
X1461018Y1500463D01*
X1458092Y1501045D01*
D02*
G37*
G36*
X1557015Y1484630D02*
X1541870D01*
Y1469485D01*
X1542217D01*
X1545388Y1470116D01*
X1548375Y1471353D01*
X1551064Y1473150D01*
X1553350Y1475436D01*
X1555147Y1478125D01*
X1556384Y1481112D01*
X1557015Y1484283D01*
Y1484630D01*
D02*
G37*
G36*
X1539330D02*
X1524185D01*
Y1484283D01*
X1524816Y1481112D01*
X1526053Y1478125D01*
X1527850Y1475436D01*
X1530136Y1473150D01*
X1532825Y1471353D01*
X1535812Y1470116D01*
X1538983Y1469485D01*
X1539330D01*
Y1484630D01*
D02*
G37*
G36*
X331799Y1485845D02*
X328601D01*
X325512Y1485017D01*
X322743Y1483418D01*
X320482Y1481157D01*
X318883Y1478388D01*
X318055Y1475299D01*
Y1472101D01*
X318883Y1469012D01*
X320482Y1466243D01*
X322743Y1463981D01*
X325512Y1462383D01*
X328601Y1461555D01*
X331799D01*
X334888Y1462383D01*
X337657Y1463981D01*
X339918Y1466243D01*
X341517Y1469012D01*
X342345Y1472101D01*
Y1475299D01*
X341517Y1478388D01*
X339918Y1481157D01*
X337657Y1483418D01*
X334888Y1485017D01*
X331799Y1485845D01*
D02*
G37*
G36*
X1283415Y1472430D02*
X1271270D01*
Y1460285D01*
X1271766D01*
X1275178Y1461199D01*
X1278237Y1462965D01*
X1280735Y1465463D01*
X1282501Y1468522D01*
X1283415Y1471934D01*
Y1472430D01*
D02*
G37*
G36*
X1268730D02*
X1256585D01*
Y1471934D01*
X1257499Y1468522D01*
X1259265Y1465463D01*
X1261763Y1462965D01*
X1264822Y1461199D01*
X1268234Y1460285D01*
X1268730D01*
Y1472430D01*
D02*
G37*
G36*
X1233103Y1489970D02*
X1229898D01*
X1226754Y1489345D01*
X1223793Y1488118D01*
X1221129Y1486338D01*
X1218863Y1484071D01*
X1217082Y1481407D01*
X1215855Y1478446D01*
X1215230Y1475302D01*
Y1472097D01*
X1215855Y1468954D01*
X1217082Y1465993D01*
X1218863Y1463328D01*
X1221129Y1461062D01*
X1223793Y1459282D01*
X1226754Y1458055D01*
X1229898Y1457430D01*
X1233103D01*
X1236246Y1458055D01*
X1239207Y1459282D01*
X1241872Y1461062D01*
X1244138Y1463328D01*
X1245919Y1465993D01*
X1247145Y1468954D01*
X1247770Y1472097D01*
Y1475302D01*
X1247145Y1478446D01*
X1245919Y1481407D01*
X1244138Y1484071D01*
X1241872Y1486338D01*
X1239207Y1488118D01*
X1236246Y1489345D01*
X1233103Y1489970D01*
D02*
G37*
G36*
X124203Y1484770D02*
X120998D01*
X117854Y1484145D01*
X114894Y1482918D01*
X112229Y1481138D01*
X109963Y1478871D01*
X108182Y1476207D01*
X106955Y1473246D01*
X106330Y1470102D01*
Y1466897D01*
X106955Y1463754D01*
X108182Y1460793D01*
X109963Y1458129D01*
X112229Y1455862D01*
X114894Y1454082D01*
X117854Y1452855D01*
X120998Y1452230D01*
X124203D01*
X127346Y1452855D01*
X130307Y1454082D01*
X132972Y1455862D01*
X135238Y1458129D01*
X137018Y1460793D01*
X138245Y1463754D01*
X138870Y1466897D01*
Y1470102D01*
X138245Y1473246D01*
X137018Y1476207D01*
X135238Y1478871D01*
X132972Y1481138D01*
X130307Y1482918D01*
X127346Y1484145D01*
X124203Y1484770D01*
D02*
G37*
G36*
X331799Y1395945D02*
X328601D01*
X325512Y1395117D01*
X322743Y1393519D01*
X320482Y1391257D01*
X318883Y1388488D01*
X318055Y1385399D01*
Y1382201D01*
X318883Y1379112D01*
X320482Y1376343D01*
X322743Y1374082D01*
X325512Y1372483D01*
X328601Y1371655D01*
X331799D01*
X334888Y1372483D01*
X337657Y1374082D01*
X339918Y1376343D01*
X341517Y1379112D01*
X342345Y1382201D01*
Y1385399D01*
X341517Y1388488D01*
X339918Y1391257D01*
X337657Y1393519D01*
X334888Y1395117D01*
X331799Y1395945D01*
D02*
G37*
G36*
X61203Y1400970D02*
X57998D01*
X54854Y1400345D01*
X51893Y1399118D01*
X49229Y1397337D01*
X46962Y1395071D01*
X45182Y1392406D01*
X43955Y1389446D01*
X43330Y1386302D01*
Y1383097D01*
X43955Y1379954D01*
X45182Y1376993D01*
X46962Y1374328D01*
X49229Y1372062D01*
X51893Y1370282D01*
X54854Y1369055D01*
X57998Y1368430D01*
X61203D01*
X64346Y1369055D01*
X67307Y1370282D01*
X69972Y1372062D01*
X72238Y1374328D01*
X74018Y1376993D01*
X75245Y1379954D01*
X75870Y1383097D01*
Y1386302D01*
X75245Y1389446D01*
X74018Y1392406D01*
X72238Y1395071D01*
X69972Y1397337D01*
X67307Y1399118D01*
X64346Y1400345D01*
X61203Y1400970D01*
D02*
G37*
G36*
X370302Y1400070D02*
X367097D01*
X363954Y1399445D01*
X360993Y1398218D01*
X358328Y1396438D01*
X356062Y1394172D01*
X354282Y1391507D01*
X353055Y1388546D01*
X352430Y1385403D01*
Y1382198D01*
X353055Y1379054D01*
X354282Y1376093D01*
X356062Y1373429D01*
X358328Y1371162D01*
X360993Y1369382D01*
X363954Y1368155D01*
X367097Y1367530D01*
X370302D01*
X373446Y1368155D01*
X376407Y1369382D01*
X379071Y1371162D01*
X381338Y1373429D01*
X383118Y1376093D01*
X384344Y1379054D01*
X384970Y1382198D01*
Y1385403D01*
X384344Y1388546D01*
X383118Y1391507D01*
X381338Y1394172D01*
X379071Y1396438D01*
X376407Y1398218D01*
X373446Y1399445D01*
X370302Y1400070D01*
D02*
G37*
G36*
X1542092Y1390945D02*
X1539108D01*
X1536182Y1390363D01*
X1533426Y1389221D01*
X1530946Y1387564D01*
X1528836Y1385454D01*
X1527179Y1382974D01*
X1526037Y1380218D01*
X1525455Y1377292D01*
Y1374308D01*
X1526037Y1371382D01*
X1527179Y1368626D01*
X1528836Y1366146D01*
X1530946Y1364036D01*
X1533426Y1362379D01*
X1536182Y1361237D01*
X1539108Y1360655D01*
X1542092D01*
X1545018Y1361237D01*
X1547774Y1362379D01*
X1550254Y1364036D01*
X1552364Y1366146D01*
X1554021Y1368626D01*
X1555163Y1371382D01*
X1555745Y1374308D01*
Y1377292D01*
X1555163Y1380218D01*
X1554021Y1382974D01*
X1552364Y1385454D01*
X1550254Y1387564D01*
X1547774Y1389221D01*
X1545018Y1390363D01*
X1542092Y1390945D01*
D02*
G37*
G36*
X1500092D02*
X1497108D01*
X1494182Y1390363D01*
X1491426Y1389221D01*
X1488946Y1387564D01*
X1486836Y1385454D01*
X1485179Y1382974D01*
X1484037Y1380218D01*
X1483455Y1377292D01*
Y1374308D01*
X1484037Y1371382D01*
X1485179Y1368626D01*
X1486836Y1366146D01*
X1488946Y1364036D01*
X1491426Y1362379D01*
X1494182Y1361237D01*
X1497108Y1360655D01*
X1500092D01*
X1503018Y1361237D01*
X1505774Y1362379D01*
X1508254Y1364036D01*
X1510364Y1366146D01*
X1512021Y1368626D01*
X1513163Y1371382D01*
X1513745Y1374308D01*
Y1377292D01*
X1513163Y1380218D01*
X1512021Y1382974D01*
X1510364Y1385454D01*
X1508254Y1387564D01*
X1505774Y1389221D01*
X1503018Y1390363D01*
X1500092Y1390945D01*
D02*
G37*
G36*
X1471745D02*
X1441455D01*
Y1360655D01*
X1471745D01*
Y1390945D01*
D02*
G37*
G36*
X1271599Y1383245D02*
X1268401D01*
X1265312Y1382417D01*
X1262543Y1380818D01*
X1260282Y1378557D01*
X1258683Y1375788D01*
X1257855Y1372699D01*
Y1369501D01*
X1258683Y1366412D01*
X1260282Y1363643D01*
X1262543Y1361382D01*
X1265312Y1359783D01*
X1268401Y1358955D01*
X1271599D01*
X1274688Y1359783D01*
X1277457Y1361382D01*
X1279718Y1363643D01*
X1281317Y1366412D01*
X1282145Y1369501D01*
Y1372699D01*
X1281317Y1375788D01*
X1279718Y1378557D01*
X1277457Y1380818D01*
X1274688Y1382417D01*
X1271599Y1383245D01*
D02*
G37*
G36*
X61317Y1359240D02*
X60870D01*
Y1347470D01*
X72640D01*
Y1347917D01*
X71751Y1351233D01*
X70035Y1354207D01*
X67607Y1356635D01*
X64633Y1358351D01*
X61317Y1359240D01*
D02*
G37*
G36*
X58330D02*
X57883D01*
X54567Y1358351D01*
X51593Y1356635D01*
X49166Y1354207D01*
X47449Y1351233D01*
X46560Y1347917D01*
Y1347470D01*
X58330D01*
Y1359240D01*
D02*
G37*
G36*
X155370Y1357970D02*
X131830D01*
Y1334430D01*
X155370D01*
Y1357970D01*
D02*
G37*
G36*
X103150D02*
X100050D01*
X97057Y1357168D01*
X94373Y1355618D01*
X92182Y1353427D01*
X90632Y1350743D01*
X89830Y1347750D01*
Y1344650D01*
X90632Y1341657D01*
X92182Y1338973D01*
X94373Y1336782D01*
X97057Y1335232D01*
X100050Y1334430D01*
X103150D01*
X106143Y1335232D01*
X108827Y1336782D01*
X111018Y1338973D01*
X112568Y1341657D01*
X113370Y1344650D01*
Y1347750D01*
X112568Y1350743D01*
X111018Y1353427D01*
X108827Y1355618D01*
X106143Y1357168D01*
X103150Y1357970D01*
D02*
G37*
G36*
X1327103Y1366370D02*
X1323898D01*
X1320754Y1365745D01*
X1317793Y1364518D01*
X1315128Y1362738D01*
X1312862Y1360471D01*
X1311082Y1357807D01*
X1309855Y1354846D01*
X1309230Y1351702D01*
Y1348497D01*
X1309855Y1345354D01*
X1311082Y1342393D01*
X1312862Y1339728D01*
X1315128Y1337462D01*
X1317793Y1335682D01*
X1320754Y1334455D01*
X1323898Y1333830D01*
X1327103D01*
X1330246Y1334455D01*
X1333207Y1335682D01*
X1335871Y1337462D01*
X1338138Y1339728D01*
X1339918Y1342393D01*
X1341145Y1345354D01*
X1341770Y1348497D01*
Y1351702D01*
X1341145Y1354846D01*
X1339918Y1357807D01*
X1338138Y1360471D01*
X1335871Y1362738D01*
X1333207Y1364518D01*
X1330246Y1365745D01*
X1327103Y1366370D01*
D02*
G37*
G36*
X72640Y1344930D02*
X60870D01*
Y1333160D01*
X61317D01*
X64633Y1334049D01*
X67607Y1335765D01*
X70035Y1338193D01*
X71751Y1341167D01*
X72640Y1344483D01*
Y1344930D01*
D02*
G37*
G36*
X58330D02*
X46560D01*
Y1344483D01*
X47449Y1341167D01*
X49166Y1338193D01*
X51593Y1335765D01*
X54567Y1334049D01*
X57883Y1333160D01*
X58330D01*
Y1344930D01*
D02*
G37*
G36*
X331799Y1353945D02*
X328601D01*
X325512Y1353118D01*
X322743Y1351519D01*
X320482Y1349257D01*
X318883Y1346488D01*
X318055Y1343399D01*
Y1340201D01*
X318883Y1337112D01*
X320482Y1334343D01*
X322743Y1332082D01*
X325512Y1330483D01*
X328601Y1329655D01*
X331799D01*
X334888Y1330483D01*
X337657Y1332082D01*
X339918Y1334343D01*
X341517Y1337112D01*
X342345Y1340201D01*
Y1343399D01*
X341517Y1346488D01*
X339918Y1349257D01*
X337657Y1351519D01*
X334888Y1353118D01*
X331799Y1353945D01*
D02*
G37*
G36*
X1118682Y1341720D02*
X1116518D01*
X1114427Y1341160D01*
X1112553Y1340078D01*
X1111022Y1338547D01*
X1109940Y1336673D01*
X1109380Y1334582D01*
Y1332418D01*
X1109940Y1330327D01*
X1111022Y1328453D01*
X1112553Y1326922D01*
X1114427Y1325840D01*
X1116518Y1325280D01*
X1118682D01*
X1120773Y1325840D01*
X1122647Y1326922D01*
X1124178Y1328453D01*
X1125260Y1330327D01*
X1125820Y1332418D01*
Y1334582D01*
X1125260Y1336673D01*
X1124178Y1338547D01*
X1122647Y1340078D01*
X1120773Y1341160D01*
X1118682Y1341720D01*
D02*
G37*
G36*
X1100420D02*
X1083980D01*
Y1325280D01*
X1100420D01*
Y1341720D01*
D02*
G37*
G36*
X509082D02*
X506918D01*
X504827Y1341160D01*
X502953Y1340078D01*
X501422Y1338547D01*
X500340Y1336673D01*
X499780Y1334582D01*
Y1332418D01*
X500340Y1330327D01*
X501422Y1328453D01*
X502953Y1326922D01*
X504827Y1325840D01*
X506918Y1325280D01*
X509082D01*
X511173Y1325840D01*
X513047Y1326922D01*
X514578Y1328453D01*
X515660Y1330327D01*
X516220Y1332418D01*
Y1334582D01*
X515660Y1336673D01*
X514578Y1338547D01*
X513047Y1340078D01*
X511173Y1341160D01*
X509082Y1341720D01*
D02*
G37*
G36*
X490820D02*
X474380D01*
Y1325280D01*
X490820D01*
Y1341720D01*
D02*
G37*
G36*
X1542217Y1337215D02*
X1541870D01*
Y1322070D01*
X1557015D01*
Y1322417D01*
X1556384Y1325588D01*
X1555147Y1328575D01*
X1553350Y1331264D01*
X1551064Y1333550D01*
X1548375Y1335347D01*
X1545388Y1336584D01*
X1542217Y1337215D01*
D02*
G37*
G36*
X1539330D02*
X1538983D01*
X1535812Y1336584D01*
X1532825Y1335347D01*
X1530136Y1333550D01*
X1527850Y1331264D01*
X1526053Y1328575D01*
X1524816Y1325588D01*
X1524185Y1322417D01*
Y1322070D01*
X1539330D01*
Y1337215D01*
D02*
G37*
G36*
X1271599Y1341245D02*
X1268401D01*
X1265312Y1340417D01*
X1262543Y1338819D01*
X1260282Y1336557D01*
X1258683Y1333788D01*
X1257855Y1330699D01*
Y1327501D01*
X1258683Y1324412D01*
X1260282Y1321643D01*
X1262543Y1319382D01*
X1265312Y1317783D01*
X1268401Y1316955D01*
X1271599D01*
X1274688Y1317783D01*
X1277457Y1319382D01*
X1279718Y1321643D01*
X1281317Y1324412D01*
X1282145Y1327501D01*
Y1330699D01*
X1281317Y1333788D01*
X1279718Y1336557D01*
X1277457Y1338819D01*
X1274688Y1340417D01*
X1271599Y1341245D01*
D02*
G37*
G36*
X1500092Y1335945D02*
X1497108D01*
X1494182Y1335363D01*
X1491426Y1334221D01*
X1488946Y1332564D01*
X1486836Y1330454D01*
X1485179Y1327974D01*
X1484037Y1325218D01*
X1483455Y1322292D01*
Y1319308D01*
X1484037Y1316382D01*
X1485179Y1313626D01*
X1486836Y1311146D01*
X1488946Y1309036D01*
X1491426Y1307379D01*
X1494182Y1306237D01*
X1497108Y1305655D01*
X1500092D01*
X1503018Y1306237D01*
X1505774Y1307379D01*
X1508254Y1309036D01*
X1510364Y1311146D01*
X1512021Y1313626D01*
X1513163Y1316382D01*
X1513745Y1319308D01*
Y1322292D01*
X1513163Y1325218D01*
X1512021Y1327974D01*
X1510364Y1330454D01*
X1508254Y1332564D01*
X1505774Y1334221D01*
X1503018Y1335363D01*
X1500092Y1335945D01*
D02*
G37*
G36*
X1458092D02*
X1455108D01*
X1452182Y1335363D01*
X1449426Y1334221D01*
X1446946Y1332564D01*
X1444836Y1330454D01*
X1443179Y1327974D01*
X1442037Y1325218D01*
X1441455Y1322292D01*
Y1319308D01*
X1442037Y1316382D01*
X1443179Y1313626D01*
X1444836Y1311146D01*
X1446946Y1309036D01*
X1449426Y1307379D01*
X1452182Y1306237D01*
X1455108Y1305655D01*
X1458092D01*
X1461018Y1306237D01*
X1463774Y1307379D01*
X1466254Y1309036D01*
X1468364Y1311146D01*
X1470021Y1313626D01*
X1471163Y1316382D01*
X1471745Y1319308D01*
Y1322292D01*
X1471163Y1325218D01*
X1470021Y1327974D01*
X1468364Y1330454D01*
X1466254Y1332564D01*
X1463774Y1334221D01*
X1461018Y1335363D01*
X1458092Y1335945D01*
D02*
G37*
G36*
X1557015Y1319530D02*
X1541870D01*
Y1304385D01*
X1542217D01*
X1545388Y1305016D01*
X1548375Y1306253D01*
X1551064Y1308050D01*
X1553350Y1310336D01*
X1555147Y1313025D01*
X1556384Y1316012D01*
X1557015Y1319183D01*
Y1319530D01*
D02*
G37*
G36*
X1539330D02*
X1524185D01*
Y1319183D01*
X1524816Y1316012D01*
X1526053Y1313025D01*
X1527850Y1310336D01*
X1530136Y1308050D01*
X1532825Y1306253D01*
X1535812Y1305016D01*
X1538983Y1304385D01*
X1539330D01*
Y1319530D01*
D02*
G37*
G36*
X1118682Y1316320D02*
X1116518D01*
X1114427Y1315760D01*
X1112553Y1314678D01*
X1111022Y1313147D01*
X1109940Y1311273D01*
X1109380Y1309182D01*
Y1307018D01*
X1109940Y1304927D01*
X1111022Y1303053D01*
X1112553Y1301522D01*
X1114427Y1300440D01*
X1116518Y1299880D01*
X1118682D01*
X1120773Y1300440D01*
X1122647Y1301522D01*
X1124178Y1303053D01*
X1125260Y1304927D01*
X1125820Y1307018D01*
Y1309182D01*
X1125260Y1311273D01*
X1124178Y1313147D01*
X1122647Y1314678D01*
X1120773Y1315760D01*
X1118682Y1316320D01*
D02*
G37*
G36*
X1093282D02*
X1091118D01*
X1089027Y1315760D01*
X1087153Y1314678D01*
X1085622Y1313147D01*
X1084540Y1311273D01*
X1083980Y1309182D01*
Y1307018D01*
X1084540Y1304927D01*
X1085622Y1303053D01*
X1087153Y1301522D01*
X1089027Y1300440D01*
X1091118Y1299880D01*
X1093282D01*
X1095373Y1300440D01*
X1097247Y1301522D01*
X1098778Y1303053D01*
X1099860Y1304927D01*
X1100420Y1307018D01*
Y1309182D01*
X1099860Y1311273D01*
X1098778Y1313147D01*
X1097247Y1314678D01*
X1095373Y1315760D01*
X1093282Y1316320D01*
D02*
G37*
G36*
X509082D02*
X506918D01*
X504827Y1315760D01*
X502953Y1314678D01*
X501422Y1313147D01*
X500340Y1311273D01*
X499780Y1309182D01*
Y1307018D01*
X500340Y1304927D01*
X501422Y1303053D01*
X502953Y1301522D01*
X504827Y1300440D01*
X506918Y1299880D01*
X509082D01*
X511173Y1300440D01*
X513047Y1301522D01*
X514578Y1303053D01*
X515660Y1304927D01*
X516220Y1307018D01*
Y1309182D01*
X515660Y1311273D01*
X514578Y1313147D01*
X513047Y1314678D01*
X511173Y1315760D01*
X509082Y1316320D01*
D02*
G37*
G36*
X483682D02*
X481518D01*
X479427Y1315760D01*
X477553Y1314678D01*
X476022Y1313147D01*
X474940Y1311273D01*
X474380Y1309182D01*
Y1307018D01*
X474940Y1304927D01*
X476022Y1303053D01*
X477553Y1301522D01*
X479427Y1300440D01*
X481518Y1299880D01*
X483682D01*
X485773Y1300440D01*
X487647Y1301522D01*
X489178Y1303053D01*
X490260Y1304927D01*
X490820Y1307018D01*
Y1309182D01*
X490260Y1311273D01*
X489178Y1313147D01*
X487647Y1314678D01*
X485773Y1315760D01*
X483682Y1316320D01*
D02*
G37*
G36*
X331799Y1311945D02*
X328601D01*
X325512Y1311117D01*
X322743Y1309518D01*
X320482Y1307257D01*
X318883Y1304488D01*
X318055Y1301399D01*
Y1298201D01*
X318883Y1295112D01*
X320482Y1292343D01*
X322743Y1290081D01*
X325512Y1288483D01*
X328601Y1287655D01*
X331799D01*
X334888Y1288483D01*
X337657Y1290081D01*
X339918Y1292343D01*
X341517Y1295112D01*
X342345Y1298201D01*
Y1301399D01*
X341517Y1304488D01*
X339918Y1307257D01*
X337657Y1309518D01*
X334888Y1311117D01*
X331799Y1311945D01*
D02*
G37*
G36*
X1271599Y1299245D02*
X1268401D01*
X1265312Y1298417D01*
X1262543Y1296818D01*
X1260282Y1294557D01*
X1258683Y1291788D01*
X1257855Y1288699D01*
Y1285501D01*
X1258683Y1282412D01*
X1260282Y1279643D01*
X1262543Y1277381D01*
X1265312Y1275782D01*
X1268401Y1274955D01*
X1271599D01*
X1274688Y1275782D01*
X1277457Y1277381D01*
X1279718Y1279643D01*
X1281317Y1282412D01*
X1282145Y1285501D01*
Y1288699D01*
X1281317Y1291788D01*
X1279718Y1294557D01*
X1277457Y1296818D01*
X1274688Y1298417D01*
X1271599Y1299245D01*
D02*
G37*
G36*
X1118682Y1290920D02*
X1116518D01*
X1114427Y1290360D01*
X1112553Y1289278D01*
X1111022Y1287747D01*
X1109940Y1285873D01*
X1109380Y1283782D01*
Y1281618D01*
X1109940Y1279527D01*
X1111022Y1277653D01*
X1112553Y1276122D01*
X1114427Y1275040D01*
X1116518Y1274480D01*
X1118682D01*
X1120773Y1275040D01*
X1122647Y1276122D01*
X1124178Y1277653D01*
X1125260Y1279527D01*
X1125820Y1281618D01*
Y1283782D01*
X1125260Y1285873D01*
X1124178Y1287747D01*
X1122647Y1289278D01*
X1120773Y1290360D01*
X1118682Y1290920D01*
D02*
G37*
G36*
X1093282D02*
X1091118D01*
X1089027Y1290360D01*
X1087153Y1289278D01*
X1085622Y1287747D01*
X1084540Y1285873D01*
X1083980Y1283782D01*
Y1281618D01*
X1084540Y1279527D01*
X1085622Y1277653D01*
X1087153Y1276122D01*
X1089027Y1275040D01*
X1091118Y1274480D01*
X1093282D01*
X1095373Y1275040D01*
X1097247Y1276122D01*
X1098778Y1277653D01*
X1099860Y1279527D01*
X1100420Y1281618D01*
Y1283782D01*
X1099860Y1285873D01*
X1098778Y1287747D01*
X1097247Y1289278D01*
X1095373Y1290360D01*
X1093282Y1290920D01*
D02*
G37*
G36*
X509082D02*
X506918D01*
X504827Y1290360D01*
X502953Y1289278D01*
X501422Y1287747D01*
X500340Y1285873D01*
X499780Y1283782D01*
Y1281618D01*
X500340Y1279527D01*
X501422Y1277653D01*
X502953Y1276122D01*
X504827Y1275040D01*
X506918Y1274480D01*
X509082D01*
X511173Y1275040D01*
X513047Y1276122D01*
X514578Y1277653D01*
X515660Y1279527D01*
X516220Y1281618D01*
Y1283782D01*
X515660Y1285873D01*
X514578Y1287747D01*
X513047Y1289278D01*
X511173Y1290360D01*
X509082Y1290920D01*
D02*
G37*
G36*
X483682D02*
X481518D01*
X479427Y1290360D01*
X477553Y1289278D01*
X476022Y1287747D01*
X474940Y1285873D01*
X474380Y1283782D01*
Y1281618D01*
X474940Y1279527D01*
X476022Y1277653D01*
X477553Y1276122D01*
X479427Y1275040D01*
X481518Y1274480D01*
X483682D01*
X485773Y1275040D01*
X487647Y1276122D01*
X489178Y1277653D01*
X490260Y1279527D01*
X490820Y1281618D01*
Y1283782D01*
X490260Y1285873D01*
X489178Y1287747D01*
X487647Y1289278D01*
X485773Y1290360D01*
X483682Y1290920D01*
D02*
G37*
G36*
X124203Y1306970D02*
X120998D01*
X117854Y1306345D01*
X114894Y1305118D01*
X112229Y1303338D01*
X109963Y1301071D01*
X108182Y1298407D01*
X106955Y1295446D01*
X106330Y1292302D01*
Y1289097D01*
X106955Y1285954D01*
X108182Y1282993D01*
X109963Y1280329D01*
X112229Y1278062D01*
X114894Y1276282D01*
X117854Y1275055D01*
X120998Y1274430D01*
X124203D01*
X127346Y1275055D01*
X130307Y1276282D01*
X132972Y1278062D01*
X135238Y1280329D01*
X137018Y1282993D01*
X138245Y1285954D01*
X138870Y1289097D01*
Y1292302D01*
X138245Y1295446D01*
X137018Y1298407D01*
X135238Y1301071D01*
X132972Y1303338D01*
X130307Y1305118D01*
X127346Y1306345D01*
X124203Y1306970D01*
D02*
G37*
G36*
X307581Y1283798D02*
X305575D01*
X303637Y1283279D01*
X301899Y1282275D01*
X300480Y1280857D01*
X299477Y1279119D01*
X298958Y1277181D01*
Y1275175D01*
X299477Y1273237D01*
X300480Y1271499D01*
X301899Y1270080D01*
X303637Y1269077D01*
X305575Y1268558D01*
X307581D01*
X309519Y1269077D01*
X311257Y1270080D01*
X312675Y1271499D01*
X313679Y1273237D01*
X314198Y1275175D01*
Y1277181D01*
X313679Y1279119D01*
X312675Y1280857D01*
X311257Y1282275D01*
X309519Y1283279D01*
X307581Y1283798D01*
D02*
G37*
G36*
X276302Y1295070D02*
X273097D01*
X269954Y1294445D01*
X266993Y1293218D01*
X264328Y1291438D01*
X262062Y1289172D01*
X260282Y1286507D01*
X259055Y1283546D01*
X258430Y1280403D01*
Y1277198D01*
X259055Y1274054D01*
X260282Y1271093D01*
X262062Y1268429D01*
X264328Y1266162D01*
X266993Y1264382D01*
X269954Y1263155D01*
X273097Y1262530D01*
X276302D01*
X279446Y1263155D01*
X282407Y1264382D01*
X285072Y1266162D01*
X287338Y1268429D01*
X289118Y1271093D01*
X290345Y1274054D01*
X290970Y1277198D01*
Y1280403D01*
X290345Y1283546D01*
X289118Y1286507D01*
X287338Y1289172D01*
X285072Y1291438D01*
X282407Y1293218D01*
X279446Y1294445D01*
X276302Y1295070D01*
D02*
G37*
G36*
X509270Y1266785D02*
Y1258570D01*
X517485D01*
X516843Y1260963D01*
X515594Y1263127D01*
X513827Y1264894D01*
X511663Y1266143D01*
X509270Y1266785D01*
D02*
G37*
G36*
X506730D02*
X504337Y1266143D01*
X502173Y1264894D01*
X500406Y1263127D01*
X499157Y1260963D01*
X498516Y1258570D01*
X506730D01*
Y1266785D01*
D02*
G37*
G36*
X1118682Y1265520D02*
X1116518D01*
X1114427Y1264960D01*
X1112553Y1263878D01*
X1111022Y1262347D01*
X1109940Y1260473D01*
X1109380Y1258382D01*
Y1256218D01*
X1109940Y1254127D01*
X1111022Y1252253D01*
X1112553Y1250722D01*
X1114427Y1249640D01*
X1116518Y1249080D01*
X1118682D01*
X1120773Y1249640D01*
X1122647Y1250722D01*
X1124178Y1252253D01*
X1125260Y1254127D01*
X1125820Y1256218D01*
Y1258382D01*
X1125260Y1260473D01*
X1124178Y1262347D01*
X1122647Y1263878D01*
X1120773Y1264960D01*
X1118682Y1265520D01*
D02*
G37*
G36*
X1093282D02*
X1091118D01*
X1089027Y1264960D01*
X1087153Y1263878D01*
X1085622Y1262347D01*
X1084540Y1260473D01*
X1083980Y1258382D01*
Y1256218D01*
X1084540Y1254127D01*
X1085622Y1252253D01*
X1087153Y1250722D01*
X1089027Y1249640D01*
X1091118Y1249080D01*
X1093282D01*
X1095373Y1249640D01*
X1097247Y1250722D01*
X1098778Y1252253D01*
X1099860Y1254127D01*
X1100420Y1256218D01*
Y1258382D01*
X1099860Y1260473D01*
X1098778Y1262347D01*
X1097247Y1263878D01*
X1095373Y1264960D01*
X1093282Y1265520D01*
D02*
G37*
G36*
X483682D02*
X481518D01*
X479427Y1264960D01*
X477553Y1263878D01*
X476022Y1262347D01*
X474940Y1260473D01*
X474380Y1258382D01*
Y1256218D01*
X474940Y1254127D01*
X476022Y1252253D01*
X477553Y1250722D01*
X479427Y1249640D01*
X481518Y1249080D01*
X483682D01*
X485773Y1249640D01*
X487647Y1250722D01*
X489178Y1252253D01*
X490260Y1254127D01*
X490820Y1256218D01*
Y1258382D01*
X490260Y1260473D01*
X489178Y1262347D01*
X487647Y1263878D01*
X485773Y1264960D01*
X483682Y1265520D01*
D02*
G37*
G36*
X517485Y1256030D02*
X509270D01*
Y1247815D01*
X511663Y1248457D01*
X513827Y1249706D01*
X515594Y1251473D01*
X516843Y1253637D01*
X517485Y1256030D01*
D02*
G37*
G36*
X506730D02*
X498516D01*
X499157Y1253637D01*
X500406Y1251473D01*
X502173Y1249706D01*
X504337Y1248457D01*
X506730Y1247815D01*
Y1256030D01*
D02*
G37*
G36*
X1271766Y1258515D02*
X1271270D01*
Y1246370D01*
X1283415D01*
Y1246866D01*
X1282501Y1250278D01*
X1280735Y1253337D01*
X1278237Y1255835D01*
X1275178Y1257601D01*
X1271766Y1258515D01*
D02*
G37*
G36*
X1268730D02*
X1268234D01*
X1264822Y1257601D01*
X1261763Y1255835D01*
X1259265Y1253337D01*
X1257499Y1250278D01*
X1256585Y1246866D01*
Y1246370D01*
X1268730D01*
Y1258515D01*
D02*
G37*
G36*
X331799Y1269945D02*
X328601D01*
X325512Y1269117D01*
X322743Y1267518D01*
X320482Y1265257D01*
X318883Y1262488D01*
X318055Y1259399D01*
Y1256201D01*
X318883Y1253112D01*
X320482Y1250343D01*
X322743Y1248082D01*
X325512Y1246482D01*
X328601Y1245655D01*
X331799D01*
X334888Y1246482D01*
X337657Y1248082D01*
X339918Y1250343D01*
X341517Y1253112D01*
X342345Y1256201D01*
Y1259399D01*
X341517Y1262488D01*
X339918Y1265257D01*
X337657Y1267518D01*
X334888Y1269117D01*
X331799Y1269945D01*
D02*
G37*
G36*
X1093470Y1241385D02*
Y1233170D01*
X1101684D01*
X1101043Y1235563D01*
X1099794Y1237727D01*
X1098027Y1239494D01*
X1095863Y1240743D01*
X1093470Y1241385D01*
D02*
G37*
G36*
X1090930D02*
X1088537Y1240743D01*
X1086373Y1239494D01*
X1084606Y1237727D01*
X1083357Y1235563D01*
X1082716Y1233170D01*
X1090930D01*
Y1241385D01*
D02*
G37*
G36*
X1283415Y1243830D02*
X1271270D01*
Y1231685D01*
X1271766D01*
X1275178Y1232599D01*
X1278237Y1234365D01*
X1280735Y1236863D01*
X1282501Y1239922D01*
X1283415Y1243334D01*
Y1243830D01*
D02*
G37*
G36*
X1268730D02*
X1256585D01*
Y1243334D01*
X1257499Y1239922D01*
X1259265Y1236863D01*
X1261763Y1234365D01*
X1264822Y1232599D01*
X1268234Y1231685D01*
X1268730D01*
Y1243830D01*
D02*
G37*
G36*
X1233103Y1261370D02*
X1229898D01*
X1226754Y1260745D01*
X1223793Y1259518D01*
X1221129Y1257738D01*
X1218863Y1255471D01*
X1217082Y1252807D01*
X1215855Y1249846D01*
X1215230Y1246702D01*
Y1243497D01*
X1215855Y1240354D01*
X1217082Y1237393D01*
X1218863Y1234728D01*
X1221129Y1232462D01*
X1223793Y1230682D01*
X1226754Y1229455D01*
X1229898Y1228830D01*
X1233103D01*
X1236246Y1229455D01*
X1239207Y1230682D01*
X1241872Y1232462D01*
X1244138Y1234728D01*
X1245919Y1237393D01*
X1247145Y1240354D01*
X1247770Y1243497D01*
Y1246702D01*
X1247145Y1249846D01*
X1245919Y1252807D01*
X1244138Y1255471D01*
X1241872Y1257738D01*
X1239207Y1259518D01*
X1236246Y1260745D01*
X1233103Y1261370D01*
D02*
G37*
G36*
X1118682Y1240120D02*
X1116518D01*
X1114427Y1239560D01*
X1112553Y1238478D01*
X1111022Y1236947D01*
X1109940Y1235073D01*
X1109380Y1232982D01*
Y1230818D01*
X1109940Y1228727D01*
X1111022Y1226853D01*
X1112553Y1225322D01*
X1114427Y1224240D01*
X1116518Y1223680D01*
X1118682D01*
X1120773Y1224240D01*
X1122647Y1225322D01*
X1124178Y1226853D01*
X1125260Y1228727D01*
X1125820Y1230818D01*
Y1232982D01*
X1125260Y1235073D01*
X1124178Y1236947D01*
X1122647Y1238478D01*
X1120773Y1239560D01*
X1118682Y1240120D01*
D02*
G37*
G36*
X509082D02*
X506918D01*
X504827Y1239560D01*
X502953Y1238478D01*
X501422Y1236947D01*
X500340Y1235073D01*
X499780Y1232982D01*
Y1230818D01*
X500340Y1228727D01*
X501422Y1226853D01*
X502953Y1225322D01*
X504827Y1224240D01*
X506918Y1223680D01*
X509082D01*
X511173Y1224240D01*
X513047Y1225322D01*
X514578Y1226853D01*
X515660Y1228727D01*
X516220Y1230818D01*
Y1232982D01*
X515660Y1235073D01*
X514578Y1236947D01*
X513047Y1238478D01*
X511173Y1239560D01*
X509082Y1240120D01*
D02*
G37*
G36*
X483682D02*
X481518D01*
X479427Y1239560D01*
X477553Y1238478D01*
X476022Y1236947D01*
X474940Y1235073D01*
X474380Y1232982D01*
Y1230818D01*
X474940Y1228727D01*
X476022Y1226853D01*
X477553Y1225322D01*
X479427Y1224240D01*
X481518Y1223680D01*
X483682D01*
X485773Y1224240D01*
X487647Y1225322D01*
X489178Y1226853D01*
X490260Y1228727D01*
X490820Y1230818D01*
Y1232982D01*
X490260Y1235073D01*
X489178Y1236947D01*
X487647Y1238478D01*
X485773Y1239560D01*
X483682Y1240120D01*
D02*
G37*
G36*
X1101684Y1230630D02*
X1093470D01*
Y1222415D01*
X1095863Y1223057D01*
X1098027Y1224306D01*
X1099794Y1226073D01*
X1101043Y1228237D01*
X1101684Y1230630D01*
D02*
G37*
G36*
X1090930D02*
X1082716D01*
X1083357Y1228237D01*
X1084606Y1226073D01*
X1086373Y1224306D01*
X1088537Y1223057D01*
X1090930Y1222415D01*
Y1230630D01*
D02*
G37*
G36*
X1479202Y1240170D02*
X1475997D01*
X1472854Y1239545D01*
X1469893Y1238318D01*
X1467228Y1236538D01*
X1464962Y1234271D01*
X1463181Y1231607D01*
X1461955Y1228646D01*
X1461330Y1225502D01*
Y1222298D01*
X1461955Y1219154D01*
X1463181Y1216193D01*
X1464962Y1213529D01*
X1467228Y1211262D01*
X1469893Y1209482D01*
X1472854Y1208255D01*
X1475997Y1207630D01*
X1479202D01*
X1482346Y1208255D01*
X1485307Y1209482D01*
X1487971Y1211262D01*
X1490237Y1213529D01*
X1492018Y1216193D01*
X1493244Y1219154D01*
X1493870Y1222298D01*
Y1225502D01*
X1493244Y1228646D01*
X1492018Y1231607D01*
X1490237Y1234271D01*
X1487971Y1236538D01*
X1485307Y1238318D01*
X1482346Y1239545D01*
X1479202Y1240170D01*
D02*
G37*
G36*
X1118682Y1214720D02*
X1116518D01*
X1114427Y1214160D01*
X1112553Y1213078D01*
X1111022Y1211547D01*
X1109940Y1209673D01*
X1109380Y1207582D01*
Y1205418D01*
X1109940Y1203327D01*
X1111022Y1201453D01*
X1112553Y1199922D01*
X1114427Y1198840D01*
X1116518Y1198280D01*
X1118682D01*
X1120773Y1198840D01*
X1122647Y1199922D01*
X1124178Y1201453D01*
X1125260Y1203327D01*
X1125820Y1205418D01*
Y1207582D01*
X1125260Y1209673D01*
X1124178Y1211547D01*
X1122647Y1213078D01*
X1120773Y1214160D01*
X1118682Y1214720D01*
D02*
G37*
G36*
X1093282D02*
X1091118D01*
X1089027Y1214160D01*
X1087153Y1213078D01*
X1085622Y1211547D01*
X1084540Y1209673D01*
X1083980Y1207582D01*
Y1205418D01*
X1084540Y1203327D01*
X1085622Y1201453D01*
X1087153Y1199922D01*
X1089027Y1198840D01*
X1091118Y1198280D01*
X1093282D01*
X1095373Y1198840D01*
X1097247Y1199922D01*
X1098778Y1201453D01*
X1099860Y1203327D01*
X1100420Y1205418D01*
Y1207582D01*
X1099860Y1209673D01*
X1098778Y1211547D01*
X1097247Y1213078D01*
X1095373Y1214160D01*
X1093282Y1214720D01*
D02*
G37*
G36*
X509082D02*
X506918D01*
X504827Y1214160D01*
X502953Y1213078D01*
X501422Y1211547D01*
X500340Y1209673D01*
X499780Y1207582D01*
Y1205418D01*
X500340Y1203327D01*
X501422Y1201453D01*
X502953Y1199922D01*
X504827Y1198840D01*
X506918Y1198280D01*
X509082D01*
X511173Y1198840D01*
X513047Y1199922D01*
X514578Y1201453D01*
X515660Y1203327D01*
X516220Y1205418D01*
Y1207582D01*
X515660Y1209673D01*
X514578Y1211547D01*
X513047Y1213078D01*
X511173Y1214160D01*
X509082Y1214720D01*
D02*
G37*
G36*
X483682D02*
X481518D01*
X479427Y1214160D01*
X477553Y1213078D01*
X476022Y1211547D01*
X474940Y1209673D01*
X474380Y1207582D01*
Y1205418D01*
X474940Y1203327D01*
X476022Y1201453D01*
X477553Y1199922D01*
X479427Y1198840D01*
X481518Y1198280D01*
X483682D01*
X485773Y1198840D01*
X487647Y1199922D01*
X489178Y1201453D01*
X490260Y1203327D01*
X490820Y1205418D01*
Y1207582D01*
X490260Y1209673D01*
X489178Y1211547D01*
X487647Y1213078D01*
X485773Y1214160D01*
X483682Y1214720D01*
D02*
G37*
G36*
X61203Y1223170D02*
X57998D01*
X54854Y1222544D01*
X51893Y1221318D01*
X49229Y1219538D01*
X46962Y1217271D01*
X45182Y1214606D01*
X43955Y1211646D01*
X43330Y1208502D01*
Y1205297D01*
X43955Y1202154D01*
X45182Y1199193D01*
X46962Y1196528D01*
X49229Y1194262D01*
X51893Y1192482D01*
X54854Y1191255D01*
X57998Y1190630D01*
X61203D01*
X64346Y1191255D01*
X67307Y1192482D01*
X69972Y1194262D01*
X72238Y1196528D01*
X74018Y1199193D01*
X75245Y1202154D01*
X75870Y1205297D01*
Y1208502D01*
X75245Y1211646D01*
X74018Y1214606D01*
X72238Y1217271D01*
X69972Y1219538D01*
X67307Y1221318D01*
X64346Y1222544D01*
X61203Y1223170D01*
D02*
G37*
G36*
X1118682Y1189320D02*
X1116518D01*
X1114427Y1188760D01*
X1112553Y1187678D01*
X1111022Y1186147D01*
X1109940Y1184273D01*
X1109380Y1182182D01*
Y1180018D01*
X1109940Y1177927D01*
X1111022Y1176053D01*
X1112553Y1174522D01*
X1114427Y1173440D01*
X1116518Y1172880D01*
X1118682D01*
X1120773Y1173440D01*
X1122647Y1174522D01*
X1124178Y1176053D01*
X1125260Y1177927D01*
X1125820Y1180018D01*
Y1182182D01*
X1125260Y1184273D01*
X1124178Y1186147D01*
X1122647Y1187678D01*
X1120773Y1188760D01*
X1118682Y1189320D01*
D02*
G37*
G36*
X1093282D02*
X1091118D01*
X1089027Y1188760D01*
X1087153Y1187678D01*
X1085622Y1186147D01*
X1084540Y1184273D01*
X1083980Y1182182D01*
Y1180018D01*
X1084540Y1177927D01*
X1085622Y1176053D01*
X1087153Y1174522D01*
X1089027Y1173440D01*
X1091118Y1172880D01*
X1093282D01*
X1095373Y1173440D01*
X1097247Y1174522D01*
X1098778Y1176053D01*
X1099860Y1177927D01*
X1100420Y1180018D01*
Y1182182D01*
X1099860Y1184273D01*
X1098778Y1186147D01*
X1097247Y1187678D01*
X1095373Y1188760D01*
X1093282Y1189320D01*
D02*
G37*
G36*
X509082D02*
X506918D01*
X504827Y1188760D01*
X502953Y1187678D01*
X501422Y1186147D01*
X500340Y1184273D01*
X499780Y1182182D01*
Y1180018D01*
X500340Y1177927D01*
X501422Y1176053D01*
X502953Y1174522D01*
X504827Y1173440D01*
X506918Y1172880D01*
X509082D01*
X511173Y1173440D01*
X513047Y1174522D01*
X514578Y1176053D01*
X515660Y1177927D01*
X516220Y1180018D01*
Y1182182D01*
X515660Y1184273D01*
X514578Y1186147D01*
X513047Y1187678D01*
X511173Y1188760D01*
X509082Y1189320D01*
D02*
G37*
G36*
X483682D02*
X481518D01*
X479427Y1188760D01*
X477553Y1187678D01*
X476022Y1186147D01*
X474940Y1184273D01*
X474380Y1182182D01*
Y1180018D01*
X474940Y1177927D01*
X476022Y1176053D01*
X477553Y1174522D01*
X479427Y1173440D01*
X481518Y1172880D01*
X483682D01*
X485773Y1173440D01*
X487647Y1174522D01*
X489178Y1176053D01*
X490260Y1177927D01*
X490820Y1180018D01*
Y1182182D01*
X490260Y1184273D01*
X489178Y1186147D01*
X487647Y1187678D01*
X485773Y1188760D01*
X483682Y1189320D01*
D02*
G37*
G36*
X1542317Y1181440D02*
X1541870D01*
Y1169670D01*
X1553640D01*
Y1170117D01*
X1552751Y1173433D01*
X1551035Y1176407D01*
X1548607Y1178835D01*
X1545633Y1180551D01*
X1542317Y1181440D01*
D02*
G37*
G36*
X61317D02*
X60870D01*
Y1169670D01*
X72640D01*
Y1170117D01*
X71751Y1173433D01*
X70035Y1176407D01*
X67607Y1178835D01*
X64633Y1180551D01*
X61317Y1181440D01*
D02*
G37*
G36*
X58330D02*
X57883D01*
X54567Y1180551D01*
X51593Y1178835D01*
X49166Y1176407D01*
X47449Y1173433D01*
X46560Y1170117D01*
Y1169670D01*
X58330D01*
Y1181440D01*
D02*
G37*
G36*
X1539330D02*
X1538883D01*
X1535567Y1180551D01*
X1532593Y1178835D01*
X1530165Y1176407D01*
X1528449Y1173433D01*
X1527560Y1170117D01*
Y1169670D01*
X1539330D01*
Y1181440D01*
D02*
G37*
G36*
X1500150Y1180170D02*
X1497050D01*
X1494057Y1179368D01*
X1491373Y1177818D01*
X1489182Y1175627D01*
X1487632Y1172943D01*
X1486830Y1169950D01*
Y1166850D01*
X1487632Y1163857D01*
X1489182Y1161173D01*
X1491373Y1158982D01*
X1494057Y1157432D01*
X1497050Y1156630D01*
X1500150D01*
X1503143Y1157432D01*
X1505827Y1158982D01*
X1508018Y1161173D01*
X1509568Y1163857D01*
X1510370Y1166850D01*
Y1169950D01*
X1509568Y1172943D01*
X1508018Y1175627D01*
X1505827Y1177818D01*
X1503143Y1179368D01*
X1500150Y1180170D01*
D02*
G37*
G36*
X1468370D02*
X1444830D01*
Y1156630D01*
X1468370D01*
Y1180170D01*
D02*
G37*
G36*
X155370D02*
X131830D01*
Y1156630D01*
X155370D01*
Y1180170D01*
D02*
G37*
G36*
X103150D02*
X100050D01*
X97057Y1179368D01*
X94373Y1177818D01*
X92182Y1175627D01*
X90632Y1172943D01*
X89830Y1169950D01*
Y1166850D01*
X90632Y1163857D01*
X92182Y1161173D01*
X94373Y1158982D01*
X97057Y1157432D01*
X100050Y1156630D01*
X103150D01*
X106143Y1157432D01*
X108827Y1158982D01*
X111018Y1161173D01*
X112568Y1163857D01*
X113370Y1166850D01*
Y1169950D01*
X112568Y1172943D01*
X111018Y1175627D01*
X108827Y1177818D01*
X106143Y1179368D01*
X103150Y1180170D01*
D02*
G37*
G36*
X331799Y1180045D02*
X328601D01*
X325512Y1179218D01*
X322743Y1177618D01*
X320482Y1175357D01*
X318883Y1172588D01*
X318055Y1169499D01*
Y1166301D01*
X318883Y1163212D01*
X320482Y1160443D01*
X322743Y1158182D01*
X325512Y1156583D01*
X328601Y1155755D01*
X331799D01*
X334888Y1156583D01*
X337657Y1158182D01*
X339918Y1160443D01*
X341517Y1163212D01*
X342345Y1166301D01*
Y1169499D01*
X341517Y1172588D01*
X339918Y1175357D01*
X337657Y1177618D01*
X334888Y1179218D01*
X331799Y1180045D01*
D02*
G37*
G36*
X1553640Y1167130D02*
X1541870D01*
Y1155360D01*
X1542317D01*
X1545633Y1156249D01*
X1548607Y1157965D01*
X1551035Y1160393D01*
X1552751Y1163367D01*
X1553640Y1166683D01*
Y1167130D01*
D02*
G37*
G36*
X1539330D02*
X1527560D01*
Y1166683D01*
X1528449Y1163367D01*
X1530165Y1160393D01*
X1532593Y1157965D01*
X1535567Y1156249D01*
X1538883Y1155360D01*
X1539330D01*
Y1167130D01*
D02*
G37*
G36*
X72640D02*
X60870D01*
Y1155360D01*
X61317D01*
X64633Y1156249D01*
X67607Y1157965D01*
X70035Y1160393D01*
X71751Y1163367D01*
X72640Y1166683D01*
Y1167130D01*
D02*
G37*
G36*
X58330D02*
X46560D01*
Y1166683D01*
X47449Y1163367D01*
X49166Y1160393D01*
X51593Y1157965D01*
X54567Y1156249D01*
X57883Y1155360D01*
X58330D01*
Y1167130D01*
D02*
G37*
G36*
X370302Y1184170D02*
X367097D01*
X363954Y1183545D01*
X360993Y1182318D01*
X358328Y1180538D01*
X356062Y1178272D01*
X354282Y1175607D01*
X353055Y1172646D01*
X352430Y1169503D01*
Y1166298D01*
X353055Y1163154D01*
X354282Y1160193D01*
X356062Y1157529D01*
X358328Y1155262D01*
X360993Y1153482D01*
X363954Y1152255D01*
X367097Y1151630D01*
X370302D01*
X373446Y1152255D01*
X376407Y1153482D01*
X379071Y1155262D01*
X381338Y1157529D01*
X383118Y1160193D01*
X384344Y1163154D01*
X384970Y1166298D01*
Y1169503D01*
X384344Y1172646D01*
X383118Y1175607D01*
X381338Y1178272D01*
X379071Y1180538D01*
X376407Y1182318D01*
X373446Y1183545D01*
X370302Y1184170D01*
D02*
G37*
G36*
X1118682Y1163920D02*
X1116518D01*
X1114427Y1163360D01*
X1112553Y1162278D01*
X1111022Y1160747D01*
X1109940Y1158873D01*
X1109380Y1156782D01*
Y1154618D01*
X1109940Y1152527D01*
X1111022Y1150653D01*
X1112553Y1149122D01*
X1114427Y1148040D01*
X1116518Y1147480D01*
X1118682D01*
X1120773Y1148040D01*
X1122647Y1149122D01*
X1124178Y1150653D01*
X1125260Y1152527D01*
X1125820Y1154618D01*
Y1156782D01*
X1125260Y1158873D01*
X1124178Y1160747D01*
X1122647Y1162278D01*
X1120773Y1163360D01*
X1118682Y1163920D01*
D02*
G37*
G36*
X1093282D02*
X1091118D01*
X1089027Y1163360D01*
X1087153Y1162278D01*
X1085622Y1160747D01*
X1084540Y1158873D01*
X1083980Y1156782D01*
Y1154618D01*
X1084540Y1152527D01*
X1085622Y1150653D01*
X1087153Y1149122D01*
X1089027Y1148040D01*
X1091118Y1147480D01*
X1093282D01*
X1095373Y1148040D01*
X1097247Y1149122D01*
X1098778Y1150653D01*
X1099860Y1152527D01*
X1100420Y1154618D01*
Y1156782D01*
X1099860Y1158873D01*
X1098778Y1160747D01*
X1097247Y1162278D01*
X1095373Y1163360D01*
X1093282Y1163920D01*
D02*
G37*
G36*
X509082D02*
X506918D01*
X504827Y1163360D01*
X502953Y1162278D01*
X501422Y1160747D01*
X500340Y1158873D01*
X499780Y1156782D01*
Y1154618D01*
X500340Y1152527D01*
X501422Y1150653D01*
X502953Y1149122D01*
X504827Y1148040D01*
X506918Y1147480D01*
X509082D01*
X511173Y1148040D01*
X513047Y1149122D01*
X514578Y1150653D01*
X515660Y1152527D01*
X516220Y1154618D01*
Y1156782D01*
X515660Y1158873D01*
X514578Y1160747D01*
X513047Y1162278D01*
X511173Y1163360D01*
X509082Y1163920D01*
D02*
G37*
G36*
X483682D02*
X481518D01*
X479427Y1163360D01*
X477553Y1162278D01*
X476022Y1160747D01*
X474940Y1158873D01*
X474380Y1156782D01*
Y1154618D01*
X474940Y1152527D01*
X476022Y1150653D01*
X477553Y1149122D01*
X479427Y1148040D01*
X481518Y1147480D01*
X483682D01*
X485773Y1148040D01*
X487647Y1149122D01*
X489178Y1150653D01*
X490260Y1152527D01*
X490820Y1154618D01*
Y1156782D01*
X490260Y1158873D01*
X489178Y1160747D01*
X487647Y1162278D01*
X485773Y1163360D01*
X483682Y1163920D01*
D02*
G37*
G36*
X1271599Y1154645D02*
X1268401D01*
X1265312Y1153818D01*
X1262543Y1152218D01*
X1260282Y1149957D01*
X1258683Y1147188D01*
X1257855Y1144099D01*
Y1140901D01*
X1258683Y1137812D01*
X1260282Y1135043D01*
X1262543Y1132782D01*
X1265312Y1131183D01*
X1268401Y1130355D01*
X1271599D01*
X1274688Y1131183D01*
X1277457Y1132782D01*
X1279718Y1135043D01*
X1281317Y1137812D01*
X1282145Y1140901D01*
Y1144099D01*
X1281317Y1147188D01*
X1279718Y1149957D01*
X1277457Y1152218D01*
X1274688Y1153818D01*
X1271599Y1154645D01*
D02*
G37*
G36*
X1118682Y1138520D02*
X1116518D01*
X1114427Y1137960D01*
X1112553Y1136878D01*
X1111022Y1135347D01*
X1109940Y1133473D01*
X1109380Y1131382D01*
Y1129218D01*
X1109940Y1127127D01*
X1111022Y1125253D01*
X1112553Y1123722D01*
X1114427Y1122640D01*
X1116518Y1122080D01*
X1118682D01*
X1120773Y1122640D01*
X1122647Y1123722D01*
X1124178Y1125253D01*
X1125260Y1127127D01*
X1125820Y1129218D01*
Y1131382D01*
X1125260Y1133473D01*
X1124178Y1135347D01*
X1122647Y1136878D01*
X1120773Y1137960D01*
X1118682Y1138520D01*
D02*
G37*
G36*
X1093282D02*
X1091118D01*
X1089027Y1137960D01*
X1087153Y1136878D01*
X1085622Y1135347D01*
X1084540Y1133473D01*
X1083980Y1131382D01*
Y1129218D01*
X1084540Y1127127D01*
X1085622Y1125253D01*
X1087153Y1123722D01*
X1089027Y1122640D01*
X1091118Y1122080D01*
X1093282D01*
X1095373Y1122640D01*
X1097247Y1123722D01*
X1098778Y1125253D01*
X1099860Y1127127D01*
X1100420Y1129218D01*
Y1131382D01*
X1099860Y1133473D01*
X1098778Y1135347D01*
X1097247Y1136878D01*
X1095373Y1137960D01*
X1093282Y1138520D01*
D02*
G37*
G36*
X509082D02*
X506918D01*
X504827Y1137960D01*
X502953Y1136878D01*
X501422Y1135347D01*
X500340Y1133473D01*
X499780Y1131382D01*
Y1129218D01*
X500340Y1127127D01*
X501422Y1125253D01*
X502953Y1123722D01*
X504827Y1122640D01*
X506918Y1122080D01*
X509082D01*
X511173Y1122640D01*
X513047Y1123722D01*
X514578Y1125253D01*
X515660Y1127127D01*
X516220Y1129218D01*
Y1131382D01*
X515660Y1133473D01*
X514578Y1135347D01*
X513047Y1136878D01*
X511173Y1137960D01*
X509082Y1138520D01*
D02*
G37*
G36*
X483682D02*
X481518D01*
X479427Y1137960D01*
X477553Y1136878D01*
X476022Y1135347D01*
X474940Y1133473D01*
X474380Y1131382D01*
Y1129218D01*
X474940Y1127127D01*
X476022Y1125253D01*
X477553Y1123722D01*
X479427Y1122640D01*
X481518Y1122080D01*
X483682D01*
X485773Y1122640D01*
X487647Y1123722D01*
X489178Y1125253D01*
X490260Y1127127D01*
X490820Y1129218D01*
Y1131382D01*
X490260Y1133473D01*
X489178Y1135347D01*
X487647Y1136878D01*
X485773Y1137960D01*
X483682Y1138520D01*
D02*
G37*
G36*
X331799Y1138045D02*
X328601D01*
X325512Y1137217D01*
X322743Y1135619D01*
X320482Y1133357D01*
X318883Y1130588D01*
X318055Y1127499D01*
Y1124301D01*
X318883Y1121212D01*
X320482Y1118443D01*
X322743Y1116182D01*
X325512Y1114583D01*
X328601Y1113755D01*
X331799D01*
X334888Y1114583D01*
X337657Y1116182D01*
X339918Y1118443D01*
X341517Y1121212D01*
X342345Y1124301D01*
Y1127499D01*
X341517Y1130588D01*
X339918Y1133357D01*
X337657Y1135619D01*
X334888Y1137217D01*
X331799Y1138045D01*
D02*
G37*
G36*
X1542202Y1146170D02*
X1538997D01*
X1535854Y1145545D01*
X1532893Y1144318D01*
X1530228Y1142538D01*
X1527962Y1140272D01*
X1526182Y1137607D01*
X1524955Y1134646D01*
X1524330Y1131503D01*
Y1128298D01*
X1524955Y1125154D01*
X1526182Y1122194D01*
X1527962Y1119529D01*
X1530228Y1117262D01*
X1532893Y1115482D01*
X1535854Y1114256D01*
X1538997Y1113630D01*
X1542202D01*
X1545346Y1114256D01*
X1548307Y1115482D01*
X1550971Y1117262D01*
X1553238Y1119529D01*
X1555018Y1122194D01*
X1556245Y1125154D01*
X1556870Y1128298D01*
Y1131503D01*
X1556245Y1134646D01*
X1555018Y1137607D01*
X1553238Y1140272D01*
X1550971Y1142538D01*
X1548307Y1144318D01*
X1545346Y1145545D01*
X1542202Y1146170D01*
D02*
G37*
G36*
X1118870Y1114385D02*
Y1106170D01*
X1127085D01*
X1126443Y1108563D01*
X1125194Y1110727D01*
X1123427Y1112494D01*
X1121263Y1113743D01*
X1118870Y1114385D01*
D02*
G37*
G36*
X509270D02*
Y1106170D01*
X517485D01*
X516843Y1108563D01*
X515594Y1110727D01*
X513827Y1112494D01*
X511663Y1113743D01*
X509270Y1114385D01*
D02*
G37*
G36*
X483870D02*
Y1106170D01*
X492085D01*
X491443Y1108563D01*
X490194Y1110727D01*
X488427Y1112494D01*
X486263Y1113743D01*
X483870Y1114385D01*
D02*
G37*
G36*
X481330D02*
X478937Y1113743D01*
X476773Y1112494D01*
X475006Y1110727D01*
X473757Y1108563D01*
X473116Y1106170D01*
X481330D01*
Y1114385D01*
D02*
G37*
G36*
X506730D02*
X504337Y1113743D01*
X502173Y1112494D01*
X500406Y1110727D01*
X499157Y1108563D01*
X498516Y1106170D01*
X506730D01*
Y1114385D01*
D02*
G37*
G36*
X1116330D02*
X1113937Y1113743D01*
X1111773Y1112494D01*
X1110006Y1110727D01*
X1108757Y1108563D01*
X1108115Y1106170D01*
X1116330D01*
Y1114385D01*
D02*
G37*
G36*
X1327103Y1137770D02*
X1323898D01*
X1320754Y1137145D01*
X1317793Y1135918D01*
X1315128Y1134138D01*
X1312862Y1131871D01*
X1311082Y1129207D01*
X1309855Y1126246D01*
X1309230Y1123102D01*
Y1119898D01*
X1309855Y1116754D01*
X1311082Y1113793D01*
X1312862Y1111128D01*
X1315128Y1108862D01*
X1317793Y1107082D01*
X1320754Y1105855D01*
X1323898Y1105230D01*
X1327103D01*
X1330246Y1105855D01*
X1333207Y1107082D01*
X1335871Y1108862D01*
X1338138Y1111128D01*
X1339918Y1113793D01*
X1341145Y1116754D01*
X1341770Y1119898D01*
Y1123102D01*
X1341145Y1126246D01*
X1339918Y1129207D01*
X1338138Y1131871D01*
X1335871Y1134138D01*
X1333207Y1135918D01*
X1330246Y1137145D01*
X1327103Y1137770D01*
D02*
G37*
G36*
X191503Y1112520D02*
X189497D01*
X187559Y1112001D01*
X185821Y1110997D01*
X184403Y1109579D01*
X183399Y1107841D01*
X182880Y1105903D01*
Y1103897D01*
X183399Y1101959D01*
X184403Y1100221D01*
X185821Y1098802D01*
X187559Y1097799D01*
X189497Y1097280D01*
X191503D01*
X193441Y1097799D01*
X195179Y1098802D01*
X196597Y1100221D01*
X197601Y1101959D01*
X198120Y1103897D01*
Y1105903D01*
X197601Y1107841D01*
X196597Y1109579D01*
X195179Y1110997D01*
X193441Y1112001D01*
X191503Y1112520D01*
D02*
G37*
G36*
X1093282Y1113120D02*
X1091118D01*
X1089027Y1112560D01*
X1087153Y1111478D01*
X1085622Y1109947D01*
X1084540Y1108073D01*
X1083980Y1105982D01*
Y1103818D01*
X1084540Y1101727D01*
X1085622Y1099853D01*
X1087153Y1098322D01*
X1089027Y1097240D01*
X1091118Y1096680D01*
X1093282D01*
X1095373Y1097240D01*
X1097247Y1098322D01*
X1098778Y1099853D01*
X1099860Y1101727D01*
X1100420Y1103818D01*
Y1105982D01*
X1099860Y1108073D01*
X1098778Y1109947D01*
X1097247Y1111478D01*
X1095373Y1112560D01*
X1093282Y1113120D01*
D02*
G37*
G36*
X124203Y1129170D02*
X120998D01*
X117854Y1128545D01*
X114894Y1127318D01*
X112229Y1125538D01*
X109963Y1123271D01*
X108182Y1120607D01*
X106955Y1117646D01*
X106330Y1114502D01*
Y1111298D01*
X106955Y1108154D01*
X108182Y1105193D01*
X109963Y1102529D01*
X112229Y1100262D01*
X114894Y1098482D01*
X117854Y1097255D01*
X120998Y1096630D01*
X124203D01*
X127346Y1097255D01*
X130307Y1098482D01*
X132972Y1100262D01*
X135238Y1102529D01*
X137018Y1105193D01*
X138245Y1108154D01*
X138870Y1111298D01*
Y1114502D01*
X138245Y1117646D01*
X137018Y1120607D01*
X135238Y1123271D01*
X132972Y1125538D01*
X130307Y1127318D01*
X127346Y1128545D01*
X124203Y1129170D01*
D02*
G37*
G36*
X517485Y1103630D02*
X509270D01*
Y1095415D01*
X511663Y1096057D01*
X513827Y1097306D01*
X515594Y1099073D01*
X516843Y1101237D01*
X517485Y1103630D01*
D02*
G37*
G36*
X492085D02*
X483870D01*
Y1095415D01*
X486263Y1096057D01*
X488427Y1097306D01*
X490194Y1099073D01*
X491443Y1101237D01*
X492085Y1103630D01*
D02*
G37*
G36*
X1127085D02*
X1118870D01*
Y1095415D01*
X1121263Y1096057D01*
X1123427Y1097306D01*
X1125194Y1099073D01*
X1126443Y1101237D01*
X1127085Y1103630D01*
D02*
G37*
G36*
X1116330D02*
X1108115D01*
X1108757Y1101237D01*
X1110006Y1099073D01*
X1111773Y1097306D01*
X1113937Y1096057D01*
X1116330Y1095415D01*
Y1103630D01*
D02*
G37*
G36*
X481330D02*
X473116D01*
X473757Y1101237D01*
X475006Y1099073D01*
X476773Y1097306D01*
X478937Y1096057D01*
X481330Y1095415D01*
Y1103630D01*
D02*
G37*
G36*
X506730D02*
X498516D01*
X499157Y1101237D01*
X500406Y1099073D01*
X502173Y1097306D01*
X504337Y1096057D01*
X506730Y1095415D01*
Y1103630D01*
D02*
G37*
G36*
X1271599Y1112645D02*
X1268401D01*
X1265312Y1111817D01*
X1262543Y1110219D01*
X1260282Y1107957D01*
X1258683Y1105188D01*
X1257855Y1102099D01*
Y1098901D01*
X1258683Y1095812D01*
X1260282Y1093043D01*
X1262543Y1090782D01*
X1265312Y1089183D01*
X1268401Y1088355D01*
X1271599D01*
X1274688Y1089183D01*
X1277457Y1090782D01*
X1279718Y1093043D01*
X1281317Y1095812D01*
X1282145Y1098901D01*
Y1102099D01*
X1281317Y1105188D01*
X1279718Y1107957D01*
X1277457Y1110219D01*
X1274688Y1111817D01*
X1271599Y1112645D01*
D02*
G37*
G36*
X509270Y1088985D02*
Y1080770D01*
X517485D01*
X516843Y1083163D01*
X515594Y1085327D01*
X513827Y1087094D01*
X511663Y1088343D01*
X509270Y1088985D01*
D02*
G37*
G36*
X506730D02*
X504337Y1088343D01*
X502173Y1087094D01*
X500406Y1085327D01*
X499157Y1083163D01*
X498516Y1080770D01*
X506730D01*
Y1088985D01*
D02*
G37*
G36*
X331799Y1096045D02*
X328601D01*
X325512Y1095218D01*
X322743Y1093619D01*
X320482Y1091357D01*
X318883Y1088588D01*
X318055Y1085499D01*
Y1082301D01*
X318883Y1079212D01*
X320482Y1076443D01*
X322743Y1074182D01*
X325512Y1072583D01*
X328601Y1071755D01*
X331799D01*
X334888Y1072583D01*
X337657Y1074182D01*
X339918Y1076443D01*
X341517Y1079212D01*
X342345Y1082301D01*
Y1085499D01*
X341517Y1088588D01*
X339918Y1091357D01*
X337657Y1093619D01*
X334888Y1095218D01*
X331799Y1096045D01*
D02*
G37*
G36*
X1118682Y1087720D02*
X1116518D01*
X1114427Y1087160D01*
X1112553Y1086078D01*
X1111022Y1084547D01*
X1109940Y1082673D01*
X1109380Y1080582D01*
Y1078418D01*
X1109940Y1076327D01*
X1111022Y1074453D01*
X1112553Y1072922D01*
X1114427Y1071840D01*
X1116518Y1071280D01*
X1118682D01*
X1120773Y1071840D01*
X1122647Y1072922D01*
X1124178Y1074453D01*
X1125260Y1076327D01*
X1125820Y1078418D01*
Y1080582D01*
X1125260Y1082673D01*
X1124178Y1084547D01*
X1122647Y1086078D01*
X1120773Y1087160D01*
X1118682Y1087720D01*
D02*
G37*
G36*
X1093282D02*
X1091118D01*
X1089027Y1087160D01*
X1087153Y1086078D01*
X1085622Y1084547D01*
X1084540Y1082673D01*
X1083980Y1080582D01*
Y1078418D01*
X1084540Y1076327D01*
X1085622Y1074453D01*
X1087153Y1072922D01*
X1089027Y1071840D01*
X1091118Y1071280D01*
X1093282D01*
X1095373Y1071840D01*
X1097247Y1072922D01*
X1098778Y1074453D01*
X1099860Y1076327D01*
X1100420Y1078418D01*
Y1080582D01*
X1099860Y1082673D01*
X1098778Y1084547D01*
X1097247Y1086078D01*
X1095373Y1087160D01*
X1093282Y1087720D01*
D02*
G37*
G36*
X483682D02*
X481518D01*
X479427Y1087160D01*
X477553Y1086078D01*
X476022Y1084547D01*
X474940Y1082673D01*
X474380Y1080582D01*
Y1078418D01*
X474940Y1076327D01*
X476022Y1074453D01*
X477553Y1072922D01*
X479427Y1071840D01*
X481518Y1071280D01*
X483682D01*
X485773Y1071840D01*
X487647Y1072922D01*
X489178Y1074453D01*
X490260Y1076327D01*
X490820Y1078418D01*
Y1080582D01*
X490260Y1082673D01*
X489178Y1084547D01*
X487647Y1086078D01*
X485773Y1087160D01*
X483682Y1087720D01*
D02*
G37*
G36*
X517485Y1078230D02*
X509270D01*
Y1070015D01*
X511663Y1070657D01*
X513827Y1071906D01*
X515594Y1073673D01*
X516843Y1075837D01*
X517485Y1078230D01*
D02*
G37*
G36*
X506730D02*
X498516D01*
X499157Y1075837D01*
X500406Y1073673D01*
X502173Y1071906D01*
X504337Y1070657D01*
X506730Y1070015D01*
Y1078230D01*
D02*
G37*
G36*
X649973Y1073150D02*
X647967D01*
X646029Y1072631D01*
X644291Y1071628D01*
X642872Y1070209D01*
X641869Y1068471D01*
X641350Y1066533D01*
Y1064527D01*
X641869Y1062589D01*
X642872Y1060851D01*
X644291Y1059433D01*
X646029Y1058429D01*
X647967Y1057910D01*
X649973D01*
X651911Y1058429D01*
X653649Y1059433D01*
X655068Y1060851D01*
X656071Y1062589D01*
X656590Y1064527D01*
Y1066533D01*
X656071Y1068471D01*
X655068Y1070209D01*
X653649Y1071628D01*
X651911Y1072631D01*
X649973Y1073150D01*
D02*
G37*
G36*
X276302Y1079170D02*
X273097D01*
X269954Y1078545D01*
X266993Y1077318D01*
X264328Y1075538D01*
X262062Y1073272D01*
X260282Y1070607D01*
X259055Y1067646D01*
X258430Y1064502D01*
Y1061298D01*
X259055Y1058154D01*
X260282Y1055193D01*
X262062Y1052529D01*
X264328Y1050262D01*
X266993Y1048482D01*
X269954Y1047255D01*
X273097Y1046630D01*
X276302D01*
X279446Y1047255D01*
X282407Y1048482D01*
X285072Y1050262D01*
X287338Y1052529D01*
X289118Y1055193D01*
X290345Y1058154D01*
X290970Y1061298D01*
Y1064502D01*
X290345Y1067646D01*
X289118Y1070607D01*
X287338Y1073272D01*
X285072Y1075538D01*
X282407Y1077318D01*
X279446Y1078545D01*
X276302Y1079170D01*
D02*
G37*
G36*
X1271599Y1070645D02*
X1268401D01*
X1265312Y1069817D01*
X1262543Y1068218D01*
X1260282Y1065957D01*
X1258683Y1063188D01*
X1257855Y1060099D01*
Y1056901D01*
X1258683Y1053812D01*
X1260282Y1051043D01*
X1262543Y1048781D01*
X1265312Y1047182D01*
X1268401Y1046355D01*
X1271599D01*
X1274688Y1047182D01*
X1277457Y1048781D01*
X1279718Y1051043D01*
X1281317Y1053812D01*
X1282145Y1056901D01*
Y1060099D01*
X1281317Y1063188D01*
X1279718Y1065957D01*
X1277457Y1068218D01*
X1274688Y1069817D01*
X1271599Y1070645D01*
D02*
G37*
G36*
X1118682Y1062320D02*
X1116518D01*
X1114427Y1061760D01*
X1112553Y1060678D01*
X1111022Y1059147D01*
X1109940Y1057273D01*
X1109380Y1055182D01*
Y1053018D01*
X1109940Y1050927D01*
X1111022Y1049053D01*
X1112553Y1047522D01*
X1114427Y1046440D01*
X1116518Y1045880D01*
X1118682D01*
X1120773Y1046440D01*
X1122647Y1047522D01*
X1124178Y1049053D01*
X1125260Y1050927D01*
X1125820Y1053018D01*
Y1055182D01*
X1125260Y1057273D01*
X1124178Y1059147D01*
X1122647Y1060678D01*
X1120773Y1061760D01*
X1118682Y1062320D01*
D02*
G37*
G36*
X1093282D02*
X1091118D01*
X1089027Y1061760D01*
X1087153Y1060678D01*
X1085622Y1059147D01*
X1084540Y1057273D01*
X1083980Y1055182D01*
Y1053018D01*
X1084540Y1050927D01*
X1085622Y1049053D01*
X1087153Y1047522D01*
X1089027Y1046440D01*
X1091118Y1045880D01*
X1093282D01*
X1095373Y1046440D01*
X1097247Y1047522D01*
X1098778Y1049053D01*
X1099860Y1050927D01*
X1100420Y1053018D01*
Y1055182D01*
X1099860Y1057273D01*
X1098778Y1059147D01*
X1097247Y1060678D01*
X1095373Y1061760D01*
X1093282Y1062320D01*
D02*
G37*
G36*
X509082D02*
X506918D01*
X504827Y1061760D01*
X502953Y1060678D01*
X501422Y1059147D01*
X500340Y1057273D01*
X499780Y1055182D01*
Y1053018D01*
X500340Y1050927D01*
X501422Y1049053D01*
X502953Y1047522D01*
X504827Y1046440D01*
X506918Y1045880D01*
X509082D01*
X511173Y1046440D01*
X513047Y1047522D01*
X514578Y1049053D01*
X515660Y1050927D01*
X516220Y1053018D01*
Y1055182D01*
X515660Y1057273D01*
X514578Y1059147D01*
X513047Y1060678D01*
X511173Y1061760D01*
X509082Y1062320D01*
D02*
G37*
G36*
X483682D02*
X481518D01*
X479427Y1061760D01*
X477553Y1060678D01*
X476022Y1059147D01*
X474940Y1057273D01*
X474380Y1055182D01*
Y1053018D01*
X474940Y1050927D01*
X476022Y1049053D01*
X477553Y1047522D01*
X479427Y1046440D01*
X481518Y1045880D01*
X483682D01*
X485773Y1046440D01*
X487647Y1047522D01*
X489178Y1049053D01*
X490260Y1050927D01*
X490820Y1053018D01*
Y1055182D01*
X490260Y1057273D01*
X489178Y1059147D01*
X487647Y1060678D01*
X485773Y1061760D01*
X483682Y1062320D01*
D02*
G37*
G36*
X1479202Y1075070D02*
X1475997D01*
X1472854Y1074445D01*
X1469893Y1073218D01*
X1467228Y1071438D01*
X1464962Y1069172D01*
X1463181Y1066507D01*
X1461955Y1063546D01*
X1461330Y1060403D01*
Y1057198D01*
X1461955Y1054054D01*
X1463181Y1051093D01*
X1464962Y1048428D01*
X1467228Y1046162D01*
X1469893Y1044382D01*
X1472854Y1043155D01*
X1475997Y1042530D01*
X1479202D01*
X1482346Y1043155D01*
X1485307Y1044382D01*
X1487971Y1046162D01*
X1490237Y1048428D01*
X1492018Y1051093D01*
X1493244Y1054054D01*
X1493870Y1057198D01*
Y1060403D01*
X1493244Y1063546D01*
X1492018Y1066507D01*
X1490237Y1069172D01*
X1487971Y1071438D01*
X1485307Y1073218D01*
X1482346Y1074445D01*
X1479202Y1075070D01*
D02*
G37*
G36*
X331799Y1054045D02*
X328601D01*
X325512Y1053218D01*
X322743Y1051619D01*
X320482Y1049358D01*
X318883Y1046588D01*
X318055Y1043499D01*
Y1040301D01*
X318883Y1037213D01*
X320482Y1034443D01*
X322743Y1032182D01*
X325512Y1030583D01*
X328601Y1029755D01*
X331799D01*
X334888Y1030583D01*
X337657Y1032182D01*
X339918Y1034443D01*
X341517Y1037213D01*
X342345Y1040301D01*
Y1043499D01*
X341517Y1046588D01*
X339918Y1049358D01*
X337657Y1051619D01*
X334888Y1053218D01*
X331799Y1054045D01*
D02*
G37*
G36*
X1118682Y1036920D02*
X1116518D01*
X1114427Y1036360D01*
X1112553Y1035278D01*
X1111022Y1033747D01*
X1109940Y1031873D01*
X1109380Y1029782D01*
Y1027618D01*
X1109940Y1025527D01*
X1111022Y1023653D01*
X1112553Y1022122D01*
X1114427Y1021040D01*
X1116518Y1020480D01*
X1118682D01*
X1120773Y1021040D01*
X1122647Y1022122D01*
X1124178Y1023653D01*
X1125260Y1025527D01*
X1125820Y1027618D01*
Y1029782D01*
X1125260Y1031873D01*
X1124178Y1033747D01*
X1122647Y1035278D01*
X1120773Y1036360D01*
X1118682Y1036920D01*
D02*
G37*
G36*
X1093282D02*
X1091118D01*
X1089027Y1036360D01*
X1087153Y1035278D01*
X1085622Y1033747D01*
X1084540Y1031873D01*
X1083980Y1029782D01*
Y1027618D01*
X1084540Y1025527D01*
X1085622Y1023653D01*
X1087153Y1022122D01*
X1089027Y1021040D01*
X1091118Y1020480D01*
X1093282D01*
X1095373Y1021040D01*
X1097247Y1022122D01*
X1098778Y1023653D01*
X1099860Y1025527D01*
X1100420Y1027618D01*
Y1029782D01*
X1099860Y1031873D01*
X1098778Y1033747D01*
X1097247Y1035278D01*
X1095373Y1036360D01*
X1093282Y1036920D01*
D02*
G37*
G36*
X509082D02*
X506918D01*
X504827Y1036360D01*
X502953Y1035278D01*
X501422Y1033747D01*
X500340Y1031873D01*
X499780Y1029782D01*
Y1027618D01*
X500340Y1025527D01*
X501422Y1023653D01*
X502953Y1022122D01*
X504827Y1021040D01*
X506918Y1020480D01*
X509082D01*
X511173Y1021040D01*
X513047Y1022122D01*
X514578Y1023653D01*
X515660Y1025527D01*
X516220Y1027618D01*
Y1029782D01*
X515660Y1031873D01*
X514578Y1033747D01*
X513047Y1035278D01*
X511173Y1036360D01*
X509082Y1036920D01*
D02*
G37*
G36*
X483682D02*
X481518D01*
X479427Y1036360D01*
X477553Y1035278D01*
X476022Y1033747D01*
X474940Y1031873D01*
X474380Y1029782D01*
Y1027618D01*
X474940Y1025527D01*
X476022Y1023653D01*
X477553Y1022122D01*
X479427Y1021040D01*
X481518Y1020480D01*
X483682D01*
X485773Y1021040D01*
X487647Y1022122D01*
X489178Y1023653D01*
X490260Y1025527D01*
X490820Y1027618D01*
Y1029782D01*
X490260Y1031873D01*
X489178Y1033747D01*
X487647Y1035278D01*
X485773Y1036360D01*
X483682Y1036920D01*
D02*
G37*
G36*
X1271766Y1029915D02*
X1271270D01*
Y1017770D01*
X1283415D01*
Y1018266D01*
X1282501Y1021678D01*
X1280735Y1024737D01*
X1278237Y1027234D01*
X1275178Y1029001D01*
X1271766Y1029915D01*
D02*
G37*
G36*
X1268730D02*
X1268234D01*
X1264822Y1029001D01*
X1261763Y1027234D01*
X1259265Y1024737D01*
X1257499Y1021678D01*
X1256585Y1018266D01*
Y1017770D01*
X1268730D01*
Y1029915D01*
D02*
G37*
G36*
X61203Y1045370D02*
X57998D01*
X54854Y1044744D01*
X51893Y1043518D01*
X49229Y1041738D01*
X46962Y1039471D01*
X45182Y1036806D01*
X43955Y1033846D01*
X43330Y1030702D01*
Y1027497D01*
X43955Y1024354D01*
X45182Y1021393D01*
X46962Y1018728D01*
X49229Y1016462D01*
X51893Y1014681D01*
X54854Y1013455D01*
X57998Y1012830D01*
X61203D01*
X64346Y1013455D01*
X67307Y1014681D01*
X69972Y1016462D01*
X72238Y1018728D01*
X74018Y1021393D01*
X75245Y1024354D01*
X75870Y1027497D01*
Y1030702D01*
X75245Y1033846D01*
X74018Y1036806D01*
X72238Y1039471D01*
X69972Y1041738D01*
X67307Y1043518D01*
X64346Y1044744D01*
X61203Y1045370D01*
D02*
G37*
G36*
X1542317Y1016340D02*
X1541870D01*
Y1004570D01*
X1553640D01*
Y1005017D01*
X1552751Y1008333D01*
X1551035Y1011307D01*
X1548607Y1013735D01*
X1545633Y1015451D01*
X1542317Y1016340D01*
D02*
G37*
G36*
X1539330D02*
X1538883D01*
X1535567Y1015451D01*
X1532593Y1013735D01*
X1530165Y1011307D01*
X1528449Y1008333D01*
X1527560Y1005017D01*
Y1004570D01*
X1539330D01*
Y1016340D01*
D02*
G37*
G36*
X1283415Y1015230D02*
X1271270D01*
Y1003085D01*
X1271766D01*
X1275178Y1003999D01*
X1278237Y1005765D01*
X1280735Y1008263D01*
X1282501Y1011322D01*
X1283415Y1014734D01*
Y1015230D01*
D02*
G37*
G36*
X1268730D02*
X1256585D01*
Y1014734D01*
X1257499Y1011322D01*
X1259265Y1008263D01*
X1261763Y1005765D01*
X1264822Y1003999D01*
X1268234Y1003085D01*
X1268730D01*
Y1015230D01*
D02*
G37*
G36*
X1233103Y1032770D02*
X1229898D01*
X1226754Y1032145D01*
X1223793Y1030918D01*
X1221129Y1029138D01*
X1218863Y1026871D01*
X1217082Y1024207D01*
X1215855Y1021246D01*
X1215230Y1018102D01*
Y1014897D01*
X1215855Y1011754D01*
X1217082Y1008793D01*
X1218863Y1006128D01*
X1221129Y1003862D01*
X1223793Y1002082D01*
X1226754Y1000855D01*
X1229898Y1000230D01*
X1233103D01*
X1236246Y1000855D01*
X1239207Y1002082D01*
X1241872Y1003862D01*
X1244138Y1006128D01*
X1245919Y1008793D01*
X1247145Y1011754D01*
X1247770Y1014897D01*
Y1018102D01*
X1247145Y1021246D01*
X1245919Y1024207D01*
X1244138Y1026871D01*
X1241872Y1029138D01*
X1239207Y1030918D01*
X1236246Y1032145D01*
X1233103Y1032770D01*
D02*
G37*
G36*
X1118682Y1011520D02*
X1116518D01*
X1114427Y1010960D01*
X1112553Y1009878D01*
X1111022Y1008347D01*
X1109940Y1006473D01*
X1109380Y1004382D01*
Y1002218D01*
X1109940Y1000127D01*
X1111022Y998253D01*
X1112553Y996722D01*
X1114427Y995640D01*
X1116518Y995080D01*
X1118682D01*
X1120773Y995640D01*
X1122647Y996722D01*
X1124178Y998253D01*
X1125260Y1000127D01*
X1125820Y1002218D01*
Y1004382D01*
X1125260Y1006473D01*
X1124178Y1008347D01*
X1122647Y1009878D01*
X1120773Y1010960D01*
X1118682Y1011520D01*
D02*
G37*
G36*
X1093282D02*
X1091118D01*
X1089027Y1010960D01*
X1087153Y1009878D01*
X1085622Y1008347D01*
X1084540Y1006473D01*
X1083980Y1004382D01*
Y1002218D01*
X1084540Y1000127D01*
X1085622Y998253D01*
X1087153Y996722D01*
X1089027Y995640D01*
X1091118Y995080D01*
X1093282D01*
X1095373Y995640D01*
X1097247Y996722D01*
X1098778Y998253D01*
X1099860Y1000127D01*
X1100420Y1002218D01*
Y1004382D01*
X1099860Y1006473D01*
X1098778Y1008347D01*
X1097247Y1009878D01*
X1095373Y1010960D01*
X1093282Y1011520D01*
D02*
G37*
G36*
X509082D02*
X506918D01*
X504827Y1010960D01*
X502953Y1009878D01*
X501422Y1008347D01*
X500340Y1006473D01*
X499780Y1004382D01*
Y1002218D01*
X500340Y1000127D01*
X501422Y998253D01*
X502953Y996722D01*
X504827Y995640D01*
X506918Y995080D01*
X509082D01*
X511173Y995640D01*
X513047Y996722D01*
X514578Y998253D01*
X515660Y1000127D01*
X516220Y1002218D01*
Y1004382D01*
X515660Y1006473D01*
X514578Y1008347D01*
X513047Y1009878D01*
X511173Y1010960D01*
X509082Y1011520D01*
D02*
G37*
G36*
X483682D02*
X481518D01*
X479427Y1010960D01*
X477553Y1009878D01*
X476022Y1008347D01*
X474940Y1006473D01*
X474380Y1004382D01*
Y1002218D01*
X474940Y1000127D01*
X476022Y998253D01*
X477553Y996722D01*
X479427Y995640D01*
X481518Y995080D01*
X483682D01*
X485773Y995640D01*
X487647Y996722D01*
X489178Y998253D01*
X490260Y1000127D01*
X490820Y1002218D01*
Y1004382D01*
X490260Y1006473D01*
X489178Y1008347D01*
X487647Y1009878D01*
X485773Y1010960D01*
X483682Y1011520D01*
D02*
G37*
G36*
X61317Y1003640D02*
X60870D01*
Y991870D01*
X72640D01*
Y992317D01*
X71751Y995633D01*
X70035Y998607D01*
X67607Y1001035D01*
X64633Y1002751D01*
X61317Y1003640D01*
D02*
G37*
G36*
X58330D02*
X57883D01*
X54567Y1002751D01*
X51593Y1001035D01*
X49166Y998607D01*
X47449Y995633D01*
X46560Y992317D01*
Y991870D01*
X58330D01*
Y1003640D01*
D02*
G37*
G36*
X1500150Y1015070D02*
X1497050D01*
X1494057Y1014268D01*
X1491373Y1012718D01*
X1489182Y1010527D01*
X1487632Y1007843D01*
X1486830Y1004850D01*
Y1001750D01*
X1487632Y998757D01*
X1489182Y996073D01*
X1491373Y993882D01*
X1494057Y992332D01*
X1497050Y991530D01*
X1500150D01*
X1503143Y992332D01*
X1505827Y993882D01*
X1508018Y996073D01*
X1509568Y998757D01*
X1510370Y1001750D01*
Y1004850D01*
X1509568Y1007843D01*
X1508018Y1010527D01*
X1505827Y1012718D01*
X1503143Y1014268D01*
X1500150Y1015070D01*
D02*
G37*
G36*
X1468370D02*
X1444830D01*
Y991530D01*
X1468370D01*
Y1015070D01*
D02*
G37*
G36*
X1553640Y1002030D02*
X1541870D01*
Y990260D01*
X1542317D01*
X1545633Y991149D01*
X1548607Y992865D01*
X1551035Y995293D01*
X1552751Y998267D01*
X1553640Y1001583D01*
Y1002030D01*
D02*
G37*
G36*
X1539330D02*
X1527560D01*
Y1001583D01*
X1528449Y998267D01*
X1530165Y995293D01*
X1532593Y992865D01*
X1535567Y991149D01*
X1538883Y990260D01*
X1539330D01*
Y1002030D01*
D02*
G37*
G36*
X155370Y1002370D02*
X131830D01*
Y978830D01*
X155370D01*
Y1002370D01*
D02*
G37*
G36*
X103150D02*
X100050D01*
X97057Y1001568D01*
X94373Y1000018D01*
X92182Y997827D01*
X90632Y995143D01*
X89830Y992150D01*
Y989050D01*
X90632Y986057D01*
X92182Y983373D01*
X94373Y981182D01*
X97057Y979632D01*
X100050Y978830D01*
X103150D01*
X106143Y979632D01*
X108827Y981182D01*
X111018Y983373D01*
X112568Y986057D01*
X113370Y989050D01*
Y992150D01*
X112568Y995143D01*
X111018Y997827D01*
X108827Y1000018D01*
X106143Y1001568D01*
X103150Y1002370D01*
D02*
G37*
G36*
X72640Y989330D02*
X60870D01*
Y977560D01*
X61317D01*
X64633Y978449D01*
X67607Y980165D01*
X70035Y982593D01*
X71751Y985567D01*
X72640Y988883D01*
Y989330D01*
D02*
G37*
G36*
X58330D02*
X46560D01*
Y988883D01*
X47449Y985567D01*
X49166Y982593D01*
X51593Y980165D01*
X54567Y978449D01*
X57883Y977560D01*
X58330D01*
Y989330D01*
D02*
G37*
G36*
X1118682Y986120D02*
X1116518D01*
X1114427Y985560D01*
X1112553Y984478D01*
X1111022Y982947D01*
X1109940Y981073D01*
X1109380Y978982D01*
Y976818D01*
X1109940Y974727D01*
X1111022Y972853D01*
X1112553Y971322D01*
X1114427Y970240D01*
X1116518Y969680D01*
X1118682D01*
X1120773Y970240D01*
X1122647Y971322D01*
X1124178Y972853D01*
X1125260Y974727D01*
X1125820Y976818D01*
Y978982D01*
X1125260Y981073D01*
X1124178Y982947D01*
X1122647Y984478D01*
X1120773Y985560D01*
X1118682Y986120D01*
D02*
G37*
G36*
X1093282D02*
X1091118D01*
X1089027Y985560D01*
X1087153Y984478D01*
X1085622Y982947D01*
X1084540Y981073D01*
X1083980Y978982D01*
Y976818D01*
X1084540Y974727D01*
X1085622Y972853D01*
X1087153Y971322D01*
X1089027Y970240D01*
X1091118Y969680D01*
X1093282D01*
X1095373Y970240D01*
X1097247Y971322D01*
X1098778Y972853D01*
X1099860Y974727D01*
X1100420Y976818D01*
Y978982D01*
X1099860Y981073D01*
X1098778Y982947D01*
X1097247Y984478D01*
X1095373Y985560D01*
X1093282Y986120D01*
D02*
G37*
G36*
X509082D02*
X506918D01*
X504827Y985560D01*
X502953Y984478D01*
X501422Y982947D01*
X500340Y981073D01*
X499780Y978982D01*
Y976818D01*
X500340Y974727D01*
X501422Y972853D01*
X502953Y971322D01*
X504827Y970240D01*
X506918Y969680D01*
X509082D01*
X511173Y970240D01*
X513047Y971322D01*
X514578Y972853D01*
X515660Y974727D01*
X516220Y976818D01*
Y978982D01*
X515660Y981073D01*
X514578Y982947D01*
X513047Y984478D01*
X511173Y985560D01*
X509082Y986120D01*
D02*
G37*
G36*
X483682D02*
X481518D01*
X479427Y985560D01*
X477553Y984478D01*
X476022Y982947D01*
X474940Y981073D01*
X474380Y978982D01*
Y976818D01*
X474940Y974727D01*
X476022Y972853D01*
X477553Y971322D01*
X479427Y970240D01*
X481518Y969680D01*
X483682D01*
X485773Y970240D01*
X487647Y971322D01*
X489178Y972853D01*
X490260Y974727D01*
X490820Y976818D01*
Y978982D01*
X490260Y981073D01*
X489178Y982947D01*
X487647Y984478D01*
X485773Y985560D01*
X483682Y986120D01*
D02*
G37*
G36*
X242811Y964438D02*
X240805D01*
X238867Y963919D01*
X237129Y962915D01*
X235711Y961497D01*
X234707Y959759D01*
X234188Y957821D01*
Y955815D01*
X234707Y953877D01*
X235711Y952139D01*
X237129Y950721D01*
X238867Y949717D01*
X240805Y949198D01*
X242811D01*
X244749Y949717D01*
X246487Y950721D01*
X247906Y952139D01*
X248909Y953877D01*
X249428Y955815D01*
Y957821D01*
X248909Y959759D01*
X247906Y961497D01*
X246487Y962915D01*
X244749Y963919D01*
X242811Y964438D01*
D02*
G37*
G36*
X1542202Y981070D02*
X1538997D01*
X1535854Y980445D01*
X1532893Y979219D01*
X1530228Y977438D01*
X1527962Y975172D01*
X1526182Y972507D01*
X1524955Y969546D01*
X1524330Y966403D01*
Y963198D01*
X1524955Y960054D01*
X1526182Y957094D01*
X1527962Y954429D01*
X1530228Y952162D01*
X1532893Y950382D01*
X1535854Y949156D01*
X1538997Y948530D01*
X1542202D01*
X1545346Y949156D01*
X1548307Y950382D01*
X1550971Y952162D01*
X1553238Y954429D01*
X1555018Y957094D01*
X1556245Y960054D01*
X1556870Y963198D01*
Y966403D01*
X1556245Y969546D01*
X1555018Y972507D01*
X1553238Y975172D01*
X1550971Y977438D01*
X1548307Y979219D01*
X1545346Y980445D01*
X1542202Y981070D01*
D02*
G37*
G36*
X1118682Y960720D02*
X1116518D01*
X1114427Y960160D01*
X1112553Y959078D01*
X1111022Y957547D01*
X1109940Y955673D01*
X1109380Y953582D01*
Y951418D01*
X1109940Y949327D01*
X1111022Y947453D01*
X1112553Y945922D01*
X1114427Y944840D01*
X1116518Y944280D01*
X1118682D01*
X1120773Y944840D01*
X1122647Y945922D01*
X1124178Y947453D01*
X1125260Y949327D01*
X1125820Y951418D01*
Y953582D01*
X1125260Y955673D01*
X1124178Y957547D01*
X1122647Y959078D01*
X1120773Y960160D01*
X1118682Y960720D01*
D02*
G37*
G36*
X1093282D02*
X1091118D01*
X1089027Y960160D01*
X1087153Y959078D01*
X1085622Y957547D01*
X1084540Y955673D01*
X1083980Y953582D01*
Y951418D01*
X1084540Y949327D01*
X1085622Y947453D01*
X1087153Y945922D01*
X1089027Y944840D01*
X1091118Y944280D01*
X1093282D01*
X1095373Y944840D01*
X1097247Y945922D01*
X1098778Y947453D01*
X1099860Y949327D01*
X1100420Y951418D01*
Y953582D01*
X1099860Y955673D01*
X1098778Y957547D01*
X1097247Y959078D01*
X1095373Y960160D01*
X1093282Y960720D01*
D02*
G37*
G36*
X509082D02*
X506918D01*
X504827Y960160D01*
X502953Y959078D01*
X501422Y957547D01*
X500340Y955673D01*
X499780Y953582D01*
Y951418D01*
X500340Y949327D01*
X501422Y947453D01*
X502953Y945922D01*
X504827Y944840D01*
X506918Y944280D01*
X509082D01*
X511173Y944840D01*
X513047Y945922D01*
X514578Y947453D01*
X515660Y949327D01*
X516220Y951418D01*
Y953582D01*
X515660Y955673D01*
X514578Y957547D01*
X513047Y959078D01*
X511173Y960160D01*
X509082Y960720D01*
D02*
G37*
G36*
X483682D02*
X481518D01*
X479427Y960160D01*
X477553Y959078D01*
X476022Y957547D01*
X474940Y955673D01*
X474380Y953582D01*
Y951418D01*
X474940Y949327D01*
X476022Y947453D01*
X477553Y945922D01*
X479427Y944840D01*
X481518Y944280D01*
X483682D01*
X485773Y944840D01*
X487647Y945922D01*
X489178Y947453D01*
X490260Y949327D01*
X490820Y951418D01*
Y953582D01*
X490260Y955673D01*
X489178Y957547D01*
X487647Y959078D01*
X485773Y960160D01*
X483682Y960720D01*
D02*
G37*
G36*
X331799Y964145D02*
X328601D01*
X325512Y963317D01*
X322743Y961719D01*
X320482Y959457D01*
X318883Y956688D01*
X318055Y953599D01*
Y950401D01*
X318883Y947312D01*
X320482Y944543D01*
X322743Y942282D01*
X325512Y940683D01*
X328601Y939855D01*
X331799D01*
X334888Y940683D01*
X337657Y942282D01*
X339918Y944543D01*
X341517Y947312D01*
X342345Y950401D01*
Y953599D01*
X341517Y956688D01*
X339918Y959457D01*
X337657Y961719D01*
X334888Y963317D01*
X331799Y964145D01*
D02*
G37*
G36*
X370302Y968270D02*
X367097D01*
X363954Y967645D01*
X360993Y966418D01*
X358328Y964638D01*
X356062Y962372D01*
X354282Y959707D01*
X353055Y956746D01*
X352430Y953603D01*
Y950398D01*
X353055Y947254D01*
X354282Y944293D01*
X356062Y941629D01*
X358328Y939362D01*
X360993Y937582D01*
X363954Y936355D01*
X367097Y935730D01*
X370302D01*
X373446Y936355D01*
X376407Y937582D01*
X379071Y939362D01*
X381338Y941629D01*
X383118Y944293D01*
X384344Y947254D01*
X384970Y950398D01*
Y953603D01*
X384344Y956746D01*
X383118Y959707D01*
X381338Y962372D01*
X379071Y964638D01*
X376407Y966418D01*
X373446Y967645D01*
X370302Y968270D01*
D02*
G37*
G36*
X1118682Y935320D02*
X1116518D01*
X1114427Y934760D01*
X1112553Y933678D01*
X1111022Y932147D01*
X1109940Y930273D01*
X1109380Y928182D01*
Y926018D01*
X1109940Y923927D01*
X1111022Y922053D01*
X1112553Y920522D01*
X1114427Y919440D01*
X1116518Y918880D01*
X1118682D01*
X1120773Y919440D01*
X1122647Y920522D01*
X1124178Y922053D01*
X1125260Y923927D01*
X1125820Y926018D01*
Y928182D01*
X1125260Y930273D01*
X1124178Y932147D01*
X1122647Y933678D01*
X1120773Y934760D01*
X1118682Y935320D01*
D02*
G37*
G36*
X1093282D02*
X1091118D01*
X1089027Y934760D01*
X1087153Y933678D01*
X1085622Y932147D01*
X1084540Y930273D01*
X1083980Y928182D01*
Y926018D01*
X1084540Y923927D01*
X1085622Y922053D01*
X1087153Y920522D01*
X1089027Y919440D01*
X1091118Y918880D01*
X1093282D01*
X1095373Y919440D01*
X1097247Y920522D01*
X1098778Y922053D01*
X1099860Y923927D01*
X1100420Y926018D01*
Y928182D01*
X1099860Y930273D01*
X1098778Y932147D01*
X1097247Y933678D01*
X1095373Y934760D01*
X1093282Y935320D01*
D02*
G37*
G36*
X509082D02*
X506918D01*
X504827Y934760D01*
X502953Y933678D01*
X501422Y932147D01*
X500340Y930273D01*
X499780Y928182D01*
Y926018D01*
X500340Y923927D01*
X501422Y922053D01*
X502953Y920522D01*
X504827Y919440D01*
X506918Y918880D01*
X509082D01*
X511173Y919440D01*
X513047Y920522D01*
X514578Y922053D01*
X515660Y923927D01*
X516220Y926018D01*
Y928182D01*
X515660Y930273D01*
X514578Y932147D01*
X513047Y933678D01*
X511173Y934760D01*
X509082Y935320D01*
D02*
G37*
G36*
X483682D02*
X481518D01*
X479427Y934760D01*
X477553Y933678D01*
X476022Y932147D01*
X474940Y930273D01*
X474380Y928182D01*
Y926018D01*
X474940Y923927D01*
X476022Y922053D01*
X477553Y920522D01*
X479427Y919440D01*
X481518Y918880D01*
X483682D01*
X485773Y919440D01*
X487647Y920522D01*
X489178Y922053D01*
X490260Y923927D01*
X490820Y926018D01*
Y928182D01*
X490260Y930273D01*
X489178Y932147D01*
X487647Y933678D01*
X485773Y934760D01*
X483682Y935320D01*
D02*
G37*
G36*
X124203Y951370D02*
X120998D01*
X117854Y950745D01*
X114894Y949518D01*
X112229Y947738D01*
X109963Y945471D01*
X108182Y942807D01*
X106955Y939846D01*
X106330Y936702D01*
Y933497D01*
X106955Y930354D01*
X108182Y927393D01*
X109963Y924728D01*
X112229Y922462D01*
X114894Y920682D01*
X117854Y919455D01*
X120998Y918830D01*
X124203D01*
X127346Y919455D01*
X130307Y920682D01*
X132972Y922462D01*
X135238Y924728D01*
X137018Y927393D01*
X138245Y930354D01*
X138870Y933497D01*
Y936702D01*
X138245Y939846D01*
X137018Y942807D01*
X135238Y945471D01*
X132972Y947738D01*
X130307Y949518D01*
X127346Y950745D01*
X124203Y951370D01*
D02*
G37*
G36*
X1271599Y926045D02*
X1268401D01*
X1265312Y925218D01*
X1262543Y923618D01*
X1260282Y921357D01*
X1258683Y918588D01*
X1257855Y915499D01*
Y912301D01*
X1258683Y909212D01*
X1260282Y906443D01*
X1262543Y904182D01*
X1265312Y902583D01*
X1268401Y901755D01*
X1271599D01*
X1274688Y902583D01*
X1277457Y904182D01*
X1279718Y906443D01*
X1281317Y909212D01*
X1282145Y912301D01*
Y915499D01*
X1281317Y918588D01*
X1279718Y921357D01*
X1277457Y923618D01*
X1274688Y925218D01*
X1271599Y926045D01*
D02*
G37*
G36*
X331799Y922145D02*
X328601D01*
X325512Y921318D01*
X322743Y919719D01*
X320482Y917457D01*
X318883Y914688D01*
X318055Y911599D01*
Y908401D01*
X318883Y905312D01*
X320482Y902543D01*
X322743Y900282D01*
X325512Y898683D01*
X328601Y897855D01*
X331799D01*
X334888Y898683D01*
X337657Y900282D01*
X339918Y902543D01*
X341517Y905312D01*
X342345Y908401D01*
Y911599D01*
X341517Y914688D01*
X339918Y917457D01*
X337657Y919719D01*
X334888Y921318D01*
X331799Y922145D01*
D02*
G37*
G36*
X1118682Y909920D02*
X1116518D01*
X1114427Y909360D01*
X1112553Y908278D01*
X1111022Y906747D01*
X1109940Y904873D01*
X1109380Y902782D01*
Y900618D01*
X1109940Y898527D01*
X1111022Y896653D01*
X1112553Y895122D01*
X1114427Y894040D01*
X1116518Y893480D01*
X1118682D01*
X1120773Y894040D01*
X1122647Y895122D01*
X1124178Y896653D01*
X1125260Y898527D01*
X1125820Y900618D01*
Y902782D01*
X1125260Y904873D01*
X1124178Y906747D01*
X1122647Y908278D01*
X1120773Y909360D01*
X1118682Y909920D01*
D02*
G37*
G36*
X1093282D02*
X1091118D01*
X1089027Y909360D01*
X1087153Y908278D01*
X1085622Y906747D01*
X1084540Y904873D01*
X1083980Y902782D01*
Y900618D01*
X1084540Y898527D01*
X1085622Y896653D01*
X1087153Y895122D01*
X1089027Y894040D01*
X1091118Y893480D01*
X1093282D01*
X1095373Y894040D01*
X1097247Y895122D01*
X1098778Y896653D01*
X1099860Y898527D01*
X1100420Y900618D01*
Y902782D01*
X1099860Y904873D01*
X1098778Y906747D01*
X1097247Y908278D01*
X1095373Y909360D01*
X1093282Y909920D01*
D02*
G37*
G36*
X509082D02*
X506918D01*
X504827Y909360D01*
X502953Y908278D01*
X501422Y906747D01*
X500340Y904873D01*
X499780Y902782D01*
Y900618D01*
X500340Y898527D01*
X501422Y896653D01*
X502953Y895122D01*
X504827Y894040D01*
X506918Y893480D01*
X509082D01*
X511173Y894040D01*
X513047Y895122D01*
X514578Y896653D01*
X515660Y898527D01*
X516220Y900618D01*
Y902782D01*
X515660Y904873D01*
X514578Y906747D01*
X513047Y908278D01*
X511173Y909360D01*
X509082Y909920D01*
D02*
G37*
G36*
X483682D02*
X481518D01*
X479427Y909360D01*
X477553Y908278D01*
X476022Y906747D01*
X474940Y904873D01*
X474380Y902782D01*
Y900618D01*
X474940Y898527D01*
X476022Y896653D01*
X477553Y895122D01*
X479427Y894040D01*
X481518Y893480D01*
X483682D01*
X485773Y894040D01*
X487647Y895122D01*
X489178Y896653D01*
X490260Y898527D01*
X490820Y900618D01*
Y902782D01*
X490260Y904873D01*
X489178Y906747D01*
X487647Y908278D01*
X485773Y909360D01*
X483682Y909920D01*
D02*
G37*
G36*
X1479202Y909970D02*
X1475997D01*
X1472854Y909345D01*
X1469893Y908118D01*
X1467228Y906338D01*
X1464962Y904072D01*
X1463181Y901407D01*
X1461955Y898446D01*
X1461330Y895303D01*
Y892098D01*
X1461955Y888954D01*
X1463181Y885993D01*
X1464962Y883328D01*
X1467228Y881062D01*
X1469893Y879282D01*
X1472854Y878055D01*
X1475997Y877430D01*
X1479202D01*
X1482346Y878055D01*
X1485307Y879282D01*
X1487971Y881062D01*
X1490237Y883328D01*
X1492018Y885993D01*
X1493244Y888954D01*
X1493870Y892098D01*
Y895303D01*
X1493244Y898446D01*
X1492018Y901407D01*
X1490237Y904072D01*
X1487971Y906338D01*
X1485307Y908118D01*
X1482346Y909345D01*
X1479202Y909970D01*
D02*
G37*
G36*
X1327103Y909170D02*
X1323898D01*
X1320754Y908545D01*
X1317793Y907318D01*
X1315128Y905538D01*
X1312862Y903271D01*
X1311082Y900607D01*
X1309855Y897646D01*
X1309230Y894502D01*
Y891298D01*
X1309855Y888154D01*
X1311082Y885193D01*
X1312862Y882528D01*
X1315128Y880262D01*
X1317793Y878482D01*
X1320754Y877255D01*
X1323898Y876630D01*
X1327103D01*
X1330246Y877255D01*
X1333207Y878482D01*
X1335871Y880262D01*
X1338138Y882528D01*
X1339918Y885193D01*
X1341145Y888154D01*
X1341770Y891298D01*
Y894502D01*
X1341145Y897646D01*
X1339918Y900607D01*
X1338138Y903271D01*
X1335871Y905538D01*
X1333207Y907318D01*
X1330246Y908545D01*
X1327103Y909170D01*
D02*
G37*
G36*
X1118682Y884520D02*
X1116518D01*
X1114427Y883960D01*
X1112553Y882878D01*
X1111022Y881347D01*
X1109940Y879473D01*
X1109380Y877382D01*
Y875218D01*
X1109940Y873127D01*
X1111022Y871253D01*
X1112553Y869722D01*
X1114427Y868640D01*
X1116518Y868080D01*
X1118682D01*
X1120773Y868640D01*
X1122647Y869722D01*
X1124178Y871253D01*
X1125260Y873127D01*
X1125820Y875218D01*
Y877382D01*
X1125260Y879473D01*
X1124178Y881347D01*
X1122647Y882878D01*
X1120773Y883960D01*
X1118682Y884520D01*
D02*
G37*
G36*
X1093282D02*
X1091118D01*
X1089027Y883960D01*
X1087153Y882878D01*
X1085622Y881347D01*
X1084540Y879473D01*
X1083980Y877382D01*
Y875218D01*
X1084540Y873127D01*
X1085622Y871253D01*
X1087153Y869722D01*
X1089027Y868640D01*
X1091118Y868080D01*
X1093282D01*
X1095373Y868640D01*
X1097247Y869722D01*
X1098778Y871253D01*
X1099860Y873127D01*
X1100420Y875218D01*
Y877382D01*
X1099860Y879473D01*
X1098778Y881347D01*
X1097247Y882878D01*
X1095373Y883960D01*
X1093282Y884520D01*
D02*
G37*
G36*
X509082D02*
X506918D01*
X504827Y883960D01*
X502953Y882878D01*
X501422Y881347D01*
X500340Y879473D01*
X499780Y877382D01*
Y875218D01*
X500340Y873127D01*
X501422Y871253D01*
X502953Y869722D01*
X504827Y868640D01*
X506918Y868080D01*
X509082D01*
X511173Y868640D01*
X513047Y869722D01*
X514578Y871253D01*
X515660Y873127D01*
X516220Y875218D01*
Y877382D01*
X515660Y879473D01*
X514578Y881347D01*
X513047Y882878D01*
X511173Y883960D01*
X509082Y884520D01*
D02*
G37*
G36*
X483682D02*
X481518D01*
X479427Y883960D01*
X477553Y882878D01*
X476022Y881347D01*
X474940Y879473D01*
X474380Y877382D01*
Y875218D01*
X474940Y873127D01*
X476022Y871253D01*
X477553Y869722D01*
X479427Y868640D01*
X481518Y868080D01*
X483682D01*
X485773Y868640D01*
X487647Y869722D01*
X489178Y871253D01*
X490260Y873127D01*
X490820Y875218D01*
Y877382D01*
X490260Y879473D01*
X489178Y881347D01*
X487647Y882878D01*
X485773Y883960D01*
X483682Y884520D01*
D02*
G37*
G36*
X1271599Y884045D02*
X1268401D01*
X1265312Y883217D01*
X1262543Y881619D01*
X1260282Y879357D01*
X1258683Y876588D01*
X1257855Y873499D01*
Y870301D01*
X1258683Y867212D01*
X1260282Y864443D01*
X1262543Y862182D01*
X1265312Y860583D01*
X1268401Y859755D01*
X1271599D01*
X1274688Y860583D01*
X1277457Y862182D01*
X1279718Y864443D01*
X1281317Y867212D01*
X1282145Y870301D01*
Y873499D01*
X1281317Y876588D01*
X1279718Y879357D01*
X1277457Y881619D01*
X1274688Y883217D01*
X1271599Y884045D01*
D02*
G37*
G36*
X331799Y880145D02*
X328601D01*
X325512Y879317D01*
X322743Y877718D01*
X320482Y875457D01*
X318883Y872688D01*
X318055Y869599D01*
Y866401D01*
X318883Y863312D01*
X320482Y860543D01*
X322743Y858281D01*
X325512Y856683D01*
X328601Y855855D01*
X331799D01*
X334888Y856683D01*
X337657Y858281D01*
X339918Y860543D01*
X341517Y863312D01*
X342345Y866401D01*
Y869599D01*
X341517Y872688D01*
X339918Y875457D01*
X337657Y877718D01*
X334888Y879317D01*
X331799Y880145D01*
D02*
G37*
G36*
X1093470Y860385D02*
Y852170D01*
X1101684D01*
X1101043Y854563D01*
X1099794Y856727D01*
X1098027Y858494D01*
X1095863Y859743D01*
X1093470Y860385D01*
D02*
G37*
G36*
X1090930D02*
X1088537Y859743D01*
X1086373Y858494D01*
X1084606Y856727D01*
X1083357Y854563D01*
X1082716Y852170D01*
X1090930D01*
Y860385D01*
D02*
G37*
G36*
X1118682Y859120D02*
X1116518D01*
X1114427Y858560D01*
X1112553Y857478D01*
X1111022Y855947D01*
X1109940Y854073D01*
X1109380Y851982D01*
Y849818D01*
X1109940Y847727D01*
X1111022Y845853D01*
X1112553Y844322D01*
X1114427Y843240D01*
X1116518Y842680D01*
X1118682D01*
X1120773Y843240D01*
X1122647Y844322D01*
X1124178Y845853D01*
X1125260Y847727D01*
X1125820Y849818D01*
Y851982D01*
X1125260Y854073D01*
X1124178Y855947D01*
X1122647Y857478D01*
X1120773Y858560D01*
X1118682Y859120D01*
D02*
G37*
G36*
X509082D02*
X506918D01*
X504827Y858560D01*
X502953Y857478D01*
X501422Y855947D01*
X500340Y854073D01*
X499780Y851982D01*
Y849818D01*
X500340Y847727D01*
X501422Y845853D01*
X502953Y844322D01*
X504827Y843240D01*
X506918Y842680D01*
X509082D01*
X511173Y843240D01*
X513047Y844322D01*
X514578Y845853D01*
X515660Y847727D01*
X516220Y849818D01*
Y851982D01*
X515660Y854073D01*
X514578Y855947D01*
X513047Y857478D01*
X511173Y858560D01*
X509082Y859120D01*
D02*
G37*
G36*
X483682D02*
X481518D01*
X479427Y858560D01*
X477553Y857478D01*
X476022Y855947D01*
X474940Y854073D01*
X474380Y851982D01*
Y849818D01*
X474940Y847727D01*
X476022Y845853D01*
X477553Y844322D01*
X479427Y843240D01*
X481518Y842680D01*
X483682D01*
X485773Y843240D01*
X487647Y844322D01*
X489178Y845853D01*
X490260Y847727D01*
X490820Y849818D01*
Y851982D01*
X490260Y854073D01*
X489178Y855947D01*
X487647Y857478D01*
X485773Y858560D01*
X483682Y859120D01*
D02*
G37*
G36*
X1101684Y849630D02*
X1093470D01*
Y841415D01*
X1095863Y842057D01*
X1098027Y843306D01*
X1099794Y845073D01*
X1101043Y847237D01*
X1101684Y849630D01*
D02*
G37*
G36*
X1090930D02*
X1082716D01*
X1083357Y847237D01*
X1084606Y845073D01*
X1086373Y843306D01*
X1088537Y842057D01*
X1090930Y841415D01*
Y849630D01*
D02*
G37*
G36*
X1542317Y851240D02*
X1541870D01*
Y839470D01*
X1553640D01*
Y839917D01*
X1552751Y843233D01*
X1551035Y846207D01*
X1548607Y848635D01*
X1545633Y850351D01*
X1542317Y851240D01*
D02*
G37*
G36*
X1539330D02*
X1538883D01*
X1535567Y850351D01*
X1532593Y848635D01*
X1530165Y846207D01*
X1528449Y843233D01*
X1527560Y839917D01*
Y839470D01*
X1539330D01*
Y851240D01*
D02*
G37*
G36*
X61203Y867570D02*
X57998D01*
X54854Y866945D01*
X51893Y865718D01*
X49229Y863938D01*
X46962Y861671D01*
X45182Y859007D01*
X43955Y856046D01*
X43330Y852902D01*
Y849697D01*
X43955Y846554D01*
X45182Y843593D01*
X46962Y840928D01*
X49229Y838662D01*
X51893Y836881D01*
X54854Y835655D01*
X57998Y835030D01*
X61203D01*
X64346Y835655D01*
X67307Y836881D01*
X69972Y838662D01*
X72238Y840928D01*
X74018Y843593D01*
X75245Y846554D01*
X75870Y849697D01*
Y852902D01*
X75245Y856046D01*
X74018Y859007D01*
X72238Y861671D01*
X69972Y863938D01*
X67307Y865718D01*
X64346Y866945D01*
X61203Y867570D01*
D02*
G37*
G36*
X276302Y863270D02*
X273097D01*
X269954Y862645D01*
X266993Y861418D01*
X264328Y859638D01*
X262062Y857372D01*
X260282Y854707D01*
X259055Y851746D01*
X258430Y848603D01*
Y845398D01*
X259055Y842254D01*
X260282Y839293D01*
X262062Y836629D01*
X264328Y834362D01*
X266993Y832582D01*
X269954Y831355D01*
X273097Y830730D01*
X276302D01*
X279446Y831355D01*
X282407Y832582D01*
X285072Y834362D01*
X287338Y836629D01*
X289118Y839293D01*
X290345Y842254D01*
X290970Y845398D01*
Y848603D01*
X290345Y851746D01*
X289118Y854707D01*
X287338Y857372D01*
X285072Y859638D01*
X282407Y861418D01*
X279446Y862645D01*
X276302Y863270D01*
D02*
G37*
G36*
X1500150Y849970D02*
X1497050D01*
X1494057Y849168D01*
X1491373Y847618D01*
X1489182Y845427D01*
X1487632Y842743D01*
X1486830Y839750D01*
Y836650D01*
X1487632Y833657D01*
X1489182Y830973D01*
X1491373Y828782D01*
X1494057Y827232D01*
X1497050Y826430D01*
X1500150D01*
X1503143Y827232D01*
X1505827Y828782D01*
X1508018Y830973D01*
X1509568Y833657D01*
X1510370Y836650D01*
Y839750D01*
X1509568Y842743D01*
X1508018Y845427D01*
X1505827Y847618D01*
X1503143Y849168D01*
X1500150Y849970D01*
D02*
G37*
G36*
X1468370D02*
X1444830D01*
Y826430D01*
X1468370D01*
Y849970D01*
D02*
G37*
G36*
X1553640Y836930D02*
X1541870D01*
Y825160D01*
X1542317D01*
X1545633Y826049D01*
X1548607Y827765D01*
X1551035Y830193D01*
X1552751Y833167D01*
X1553640Y836483D01*
Y836930D01*
D02*
G37*
G36*
X1539330D02*
X1527560D01*
Y836483D01*
X1528449Y833167D01*
X1530165Y830193D01*
X1532593Y827765D01*
X1535567Y826049D01*
X1538883Y825160D01*
X1539330D01*
Y836930D01*
D02*
G37*
G36*
X1271599Y842045D02*
X1268401D01*
X1265312Y841217D01*
X1262543Y839618D01*
X1260282Y837357D01*
X1258683Y834588D01*
X1257855Y831499D01*
Y828301D01*
X1258683Y825212D01*
X1260282Y822443D01*
X1262543Y820181D01*
X1265312Y818583D01*
X1268401Y817755D01*
X1271599D01*
X1274688Y818583D01*
X1277457Y820181D01*
X1279718Y822443D01*
X1281317Y825212D01*
X1282145Y828301D01*
Y831499D01*
X1281317Y834588D01*
X1279718Y837357D01*
X1277457Y839618D01*
X1274688Y841217D01*
X1271599Y842045D01*
D02*
G37*
G36*
X1118682Y833720D02*
X1116518D01*
X1114427Y833160D01*
X1112553Y832078D01*
X1111022Y830547D01*
X1109940Y828673D01*
X1109380Y826582D01*
Y824418D01*
X1109940Y822327D01*
X1111022Y820453D01*
X1112553Y818922D01*
X1114427Y817840D01*
X1116518Y817280D01*
X1118682D01*
X1120773Y817840D01*
X1122647Y818922D01*
X1124178Y820453D01*
X1125260Y822327D01*
X1125820Y824418D01*
Y826582D01*
X1125260Y828673D01*
X1124178Y830547D01*
X1122647Y832078D01*
X1120773Y833160D01*
X1118682Y833720D01*
D02*
G37*
G36*
X1093282D02*
X1091118D01*
X1089027Y833160D01*
X1087153Y832078D01*
X1085622Y830547D01*
X1084540Y828673D01*
X1083980Y826582D01*
Y824418D01*
X1084540Y822327D01*
X1085622Y820453D01*
X1087153Y818922D01*
X1089027Y817840D01*
X1091118Y817280D01*
X1093282D01*
X1095373Y817840D01*
X1097247Y818922D01*
X1098778Y820453D01*
X1099860Y822327D01*
X1100420Y824418D01*
Y826582D01*
X1099860Y828673D01*
X1098778Y830547D01*
X1097247Y832078D01*
X1095373Y833160D01*
X1093282Y833720D01*
D02*
G37*
G36*
X509082D02*
X506918D01*
X504827Y833160D01*
X502953Y832078D01*
X501422Y830547D01*
X500340Y828673D01*
X499780Y826582D01*
Y824418D01*
X500340Y822327D01*
X501422Y820453D01*
X502953Y818922D01*
X504827Y817840D01*
X506918Y817280D01*
X509082D01*
X511173Y817840D01*
X513047Y818922D01*
X514578Y820453D01*
X515660Y822327D01*
X516220Y824418D01*
Y826582D01*
X515660Y828673D01*
X514578Y830547D01*
X513047Y832078D01*
X511173Y833160D01*
X509082Y833720D01*
D02*
G37*
G36*
X483682D02*
X481518D01*
X479427Y833160D01*
X477553Y832078D01*
X476022Y830547D01*
X474940Y828673D01*
X474380Y826582D01*
Y824418D01*
X474940Y822327D01*
X476022Y820453D01*
X477553Y818922D01*
X479427Y817840D01*
X481518Y817280D01*
X483682D01*
X485773Y817840D01*
X487647Y818922D01*
X489178Y820453D01*
X490260Y822327D01*
X490820Y824418D01*
Y826582D01*
X490260Y828673D01*
X489178Y830547D01*
X487647Y832078D01*
X485773Y833160D01*
X483682Y833720D01*
D02*
G37*
G36*
X61317Y825840D02*
X60870D01*
Y814070D01*
X72640D01*
Y814517D01*
X71751Y817833D01*
X70035Y820807D01*
X67607Y823235D01*
X64633Y824951D01*
X61317Y825840D01*
D02*
G37*
G36*
X58330D02*
X57883D01*
X54567Y824951D01*
X51593Y823235D01*
X49166Y820807D01*
X47449Y817833D01*
X46560Y814517D01*
Y814070D01*
X58330D01*
Y825840D01*
D02*
G37*
G36*
X331799Y838145D02*
X328601D01*
X325512Y837317D01*
X322743Y835718D01*
X320482Y833457D01*
X318883Y830688D01*
X318055Y827599D01*
Y824401D01*
X318883Y821312D01*
X320482Y818543D01*
X322743Y816282D01*
X325512Y814682D01*
X328601Y813855D01*
X331799D01*
X334888Y814682D01*
X337657Y816282D01*
X339918Y818543D01*
X341517Y821312D01*
X342345Y824401D01*
Y827599D01*
X341517Y830688D01*
X339918Y833457D01*
X337657Y835718D01*
X334888Y837317D01*
X331799Y838145D01*
D02*
G37*
G36*
X155370Y824570D02*
X131830D01*
Y801030D01*
X155370D01*
Y824570D01*
D02*
G37*
G36*
X103150D02*
X100050D01*
X97057Y823768D01*
X94373Y822218D01*
X92182Y820027D01*
X90632Y817343D01*
X89830Y814350D01*
Y811250D01*
X90632Y808257D01*
X92182Y805573D01*
X94373Y803382D01*
X97057Y801832D01*
X100050Y801030D01*
X103150D01*
X106143Y801832D01*
X108827Y803382D01*
X111018Y805573D01*
X112568Y808257D01*
X113370Y811250D01*
Y814350D01*
X112568Y817343D01*
X111018Y820027D01*
X108827Y822218D01*
X106143Y823768D01*
X103150Y824570D01*
D02*
G37*
G36*
X72640Y811530D02*
X60870D01*
Y799760D01*
X61317D01*
X64633Y800649D01*
X67607Y802365D01*
X70035Y804793D01*
X71751Y807767D01*
X72640Y811083D01*
Y811530D01*
D02*
G37*
G36*
X58330D02*
X46560D01*
Y811083D01*
X47449Y807767D01*
X49166Y804793D01*
X51593Y802365D01*
X54567Y800649D01*
X57883Y799760D01*
X58330D01*
Y811530D01*
D02*
G37*
G36*
X1118682Y808320D02*
X1116518D01*
X1114427Y807760D01*
X1112553Y806678D01*
X1111022Y805147D01*
X1109940Y803273D01*
X1109380Y801182D01*
Y799018D01*
X1109940Y796927D01*
X1111022Y795053D01*
X1112553Y793522D01*
X1114427Y792440D01*
X1116518Y791880D01*
X1118682D01*
X1120773Y792440D01*
X1122647Y793522D01*
X1124178Y795053D01*
X1125260Y796927D01*
X1125820Y799018D01*
Y801182D01*
X1125260Y803273D01*
X1124178Y805147D01*
X1122647Y806678D01*
X1120773Y807760D01*
X1118682Y808320D01*
D02*
G37*
G36*
X1093282D02*
X1091118D01*
X1089027Y807760D01*
X1087153Y806678D01*
X1085622Y805147D01*
X1084540Y803273D01*
X1083980Y801182D01*
Y799018D01*
X1084540Y796927D01*
X1085622Y795053D01*
X1087153Y793522D01*
X1089027Y792440D01*
X1091118Y791880D01*
X1093282D01*
X1095373Y792440D01*
X1097247Y793522D01*
X1098778Y795053D01*
X1099860Y796927D01*
X1100420Y799018D01*
Y801182D01*
X1099860Y803273D01*
X1098778Y805147D01*
X1097247Y806678D01*
X1095373Y807760D01*
X1093282Y808320D01*
D02*
G37*
G36*
X509082D02*
X506918D01*
X504827Y807760D01*
X502953Y806678D01*
X501422Y805147D01*
X500340Y803273D01*
X499780Y801182D01*
Y799018D01*
X500340Y796927D01*
X501422Y795053D01*
X502953Y793522D01*
X504827Y792440D01*
X506918Y791880D01*
X509082D01*
X511173Y792440D01*
X513047Y793522D01*
X514578Y795053D01*
X515660Y796927D01*
X516220Y799018D01*
Y801182D01*
X515660Y803273D01*
X514578Y805147D01*
X513047Y806678D01*
X511173Y807760D01*
X509082Y808320D01*
D02*
G37*
G36*
X483682D02*
X481518D01*
X479427Y807760D01*
X477553Y806678D01*
X476022Y805147D01*
X474940Y803273D01*
X474380Y801182D01*
Y799018D01*
X474940Y796927D01*
X476022Y795053D01*
X477553Y793522D01*
X479427Y792440D01*
X481518Y791880D01*
X483682D01*
X485773Y792440D01*
X487647Y793522D01*
X489178Y795053D01*
X490260Y796927D01*
X490820Y799018D01*
Y801182D01*
X490260Y803273D01*
X489178Y805147D01*
X487647Y806678D01*
X485773Y807760D01*
X483682Y808320D01*
D02*
G37*
G36*
X1271766Y801315D02*
X1271270D01*
Y789170D01*
X1283415D01*
Y789666D01*
X1282501Y793078D01*
X1280735Y796137D01*
X1278237Y798634D01*
X1275178Y800401D01*
X1271766Y801315D01*
D02*
G37*
G36*
X1268730D02*
X1268234D01*
X1264822Y800401D01*
X1261763Y798634D01*
X1259265Y796137D01*
X1257499Y793078D01*
X1256585Y789666D01*
Y789170D01*
X1268730D01*
Y801315D01*
D02*
G37*
G36*
X1542202Y815970D02*
X1538997D01*
X1535854Y815345D01*
X1532893Y814118D01*
X1530228Y812338D01*
X1527962Y810072D01*
X1526182Y807407D01*
X1524955Y804446D01*
X1524330Y801303D01*
Y798098D01*
X1524955Y794954D01*
X1526182Y791993D01*
X1527962Y789329D01*
X1530228Y787063D01*
X1532893Y785282D01*
X1535854Y784055D01*
X1538997Y783430D01*
X1542202D01*
X1545346Y784055D01*
X1548307Y785282D01*
X1550971Y787063D01*
X1553238Y789329D01*
X1555018Y791993D01*
X1556245Y794954D01*
X1556870Y798098D01*
Y801303D01*
X1556245Y804446D01*
X1555018Y807407D01*
X1553238Y810072D01*
X1550971Y812338D01*
X1548307Y814118D01*
X1545346Y815345D01*
X1542202Y815970D01*
D02*
G37*
G36*
X1283415Y786630D02*
X1271270D01*
Y774485D01*
X1271766D01*
X1275178Y775399D01*
X1278237Y777165D01*
X1280735Y779663D01*
X1282501Y782722D01*
X1283415Y786134D01*
Y786630D01*
D02*
G37*
G36*
X1268730D02*
X1256585D01*
Y786134D01*
X1257499Y782722D01*
X1259265Y779663D01*
X1261763Y777165D01*
X1264822Y775399D01*
X1268234Y774485D01*
X1268730D01*
Y786630D01*
D02*
G37*
G36*
X1233103Y804170D02*
X1229898D01*
X1226754Y803545D01*
X1223793Y802318D01*
X1221129Y800538D01*
X1218863Y798271D01*
X1217082Y795607D01*
X1215855Y792646D01*
X1215230Y789502D01*
Y786297D01*
X1215855Y783154D01*
X1217082Y780193D01*
X1218863Y777528D01*
X1221129Y775262D01*
X1223793Y773482D01*
X1226754Y772255D01*
X1229898Y771630D01*
X1233103D01*
X1236246Y772255D01*
X1239207Y773482D01*
X1241872Y775262D01*
X1244138Y777528D01*
X1245919Y780193D01*
X1247145Y783154D01*
X1247770Y786297D01*
Y789502D01*
X1247145Y792646D01*
X1245919Y795607D01*
X1244138Y798271D01*
X1241872Y800538D01*
X1239207Y802318D01*
X1236246Y803545D01*
X1233103Y804170D01*
D02*
G37*
G36*
X1118682Y782920D02*
X1116518D01*
X1114427Y782360D01*
X1112553Y781278D01*
X1111022Y779747D01*
X1109940Y777873D01*
X1109380Y775782D01*
Y773618D01*
X1109940Y771527D01*
X1111022Y769653D01*
X1112553Y768122D01*
X1114427Y767040D01*
X1116518Y766480D01*
X1118682D01*
X1120773Y767040D01*
X1122647Y768122D01*
X1124178Y769653D01*
X1125260Y771527D01*
X1125820Y773618D01*
Y775782D01*
X1125260Y777873D01*
X1124178Y779747D01*
X1122647Y781278D01*
X1120773Y782360D01*
X1118682Y782920D01*
D02*
G37*
G36*
X1093282D02*
X1091118D01*
X1089027Y782360D01*
X1087153Y781278D01*
X1085622Y779747D01*
X1084540Y777873D01*
X1083980Y775782D01*
Y773618D01*
X1084540Y771527D01*
X1085622Y769653D01*
X1087153Y768122D01*
X1089027Y767040D01*
X1091118Y766480D01*
X1093282D01*
X1095373Y767040D01*
X1097247Y768122D01*
X1098778Y769653D01*
X1099860Y771527D01*
X1100420Y773618D01*
Y775782D01*
X1099860Y777873D01*
X1098778Y779747D01*
X1097247Y781278D01*
X1095373Y782360D01*
X1093282Y782920D01*
D02*
G37*
G36*
X509082D02*
X506918D01*
X504827Y782360D01*
X502953Y781278D01*
X501422Y779747D01*
X500340Y777873D01*
X499780Y775782D01*
Y773618D01*
X500340Y771527D01*
X501422Y769653D01*
X502953Y768122D01*
X504827Y767040D01*
X506918Y766480D01*
X509082D01*
X511173Y767040D01*
X513047Y768122D01*
X514578Y769653D01*
X515660Y771527D01*
X516220Y773618D01*
Y775782D01*
X515660Y777873D01*
X514578Y779747D01*
X513047Y781278D01*
X511173Y782360D01*
X509082Y782920D01*
D02*
G37*
G36*
X483682D02*
X481518D01*
X479427Y782360D01*
X477553Y781278D01*
X476022Y779747D01*
X474940Y777873D01*
X474380Y775782D01*
Y773618D01*
X474940Y771527D01*
X476022Y769653D01*
X477553Y768122D01*
X479427Y767040D01*
X481518Y766480D01*
X483682D01*
X485773Y767040D01*
X487647Y768122D01*
X489178Y769653D01*
X490260Y771527D01*
X490820Y773618D01*
Y775782D01*
X490260Y777873D01*
X489178Y779747D01*
X487647Y781278D01*
X485773Y782360D01*
X483682Y782920D01*
D02*
G37*
G36*
X608063Y764540D02*
X606057D01*
X604119Y764021D01*
X602381Y763018D01*
X600962Y761599D01*
X599959Y759861D01*
X599440Y757923D01*
Y755917D01*
X599959Y753979D01*
X600962Y752241D01*
X602381Y750823D01*
X604119Y749819D01*
X606057Y749300D01*
X608063D01*
X610001Y749819D01*
X611739Y750823D01*
X613158Y752241D01*
X614161Y753979D01*
X614680Y755917D01*
Y757923D01*
X614161Y759861D01*
X613158Y761599D01*
X611739Y763018D01*
X610001Y764021D01*
X608063Y764540D01*
D02*
G37*
G36*
X1118682Y757520D02*
X1116518D01*
X1114427Y756960D01*
X1112553Y755878D01*
X1111022Y754347D01*
X1109940Y752473D01*
X1109380Y750382D01*
Y748218D01*
X1109940Y746127D01*
X1111022Y744253D01*
X1112553Y742722D01*
X1114427Y741640D01*
X1116518Y741080D01*
X1118682D01*
X1120773Y741640D01*
X1122647Y742722D01*
X1124178Y744253D01*
X1125260Y746127D01*
X1125820Y748218D01*
Y750382D01*
X1125260Y752473D01*
X1124178Y754347D01*
X1122647Y755878D01*
X1120773Y756960D01*
X1118682Y757520D01*
D02*
G37*
G36*
X1093282D02*
X1091118D01*
X1089027Y756960D01*
X1087153Y755878D01*
X1085622Y754347D01*
X1084540Y752473D01*
X1083980Y750382D01*
Y748218D01*
X1084540Y746127D01*
X1085622Y744253D01*
X1087153Y742722D01*
X1089027Y741640D01*
X1091118Y741080D01*
X1093282D01*
X1095373Y741640D01*
X1097247Y742722D01*
X1098778Y744253D01*
X1099860Y746127D01*
X1100420Y748218D01*
Y750382D01*
X1099860Y752473D01*
X1098778Y754347D01*
X1097247Y755878D01*
X1095373Y756960D01*
X1093282Y757520D01*
D02*
G37*
G36*
X509082D02*
X506918D01*
X504827Y756960D01*
X502953Y755878D01*
X501422Y754347D01*
X500340Y752473D01*
X499780Y750382D01*
Y748218D01*
X500340Y746127D01*
X501422Y744253D01*
X502953Y742722D01*
X504827Y741640D01*
X506918Y741080D01*
X509082D01*
X511173Y741640D01*
X513047Y742722D01*
X514578Y744253D01*
X515660Y746127D01*
X516220Y748218D01*
Y750382D01*
X515660Y752473D01*
X514578Y754347D01*
X513047Y755878D01*
X511173Y756960D01*
X509082Y757520D01*
D02*
G37*
G36*
X483682D02*
X481518D01*
X479427Y756960D01*
X477553Y755878D01*
X476022Y754347D01*
X474940Y752473D01*
X474380Y750382D01*
Y748218D01*
X474940Y746127D01*
X476022Y744253D01*
X477553Y742722D01*
X479427Y741640D01*
X481518Y741080D01*
X483682D01*
X485773Y741640D01*
X487647Y742722D01*
X489178Y744253D01*
X490260Y746127D01*
X490820Y748218D01*
Y750382D01*
X490260Y752473D01*
X489178Y754347D01*
X487647Y755878D01*
X485773Y756960D01*
X483682Y757520D01*
D02*
G37*
G36*
X124203Y773570D02*
X120998D01*
X117854Y772945D01*
X114894Y771718D01*
X112229Y769938D01*
X109963Y767672D01*
X108182Y765007D01*
X106955Y762046D01*
X106330Y758902D01*
Y755697D01*
X106955Y752554D01*
X108182Y749593D01*
X109963Y746928D01*
X112229Y744662D01*
X114894Y742882D01*
X117854Y741655D01*
X120998Y741030D01*
X124203D01*
X127346Y741655D01*
X130307Y742882D01*
X132972Y744662D01*
X135238Y746928D01*
X137018Y749593D01*
X138245Y752554D01*
X138870Y755697D01*
Y758902D01*
X138245Y762046D01*
X137018Y765007D01*
X135238Y767672D01*
X132972Y769938D01*
X130307Y771718D01*
X127346Y772945D01*
X124203Y773570D01*
D02*
G37*
G36*
X483870Y733384D02*
Y725170D01*
X492085D01*
X491443Y727563D01*
X490194Y729727D01*
X488427Y731494D01*
X486263Y732743D01*
X483870Y733384D01*
D02*
G37*
G36*
X481330D02*
X478937Y732743D01*
X476773Y731494D01*
X475006Y729727D01*
X473757Y727563D01*
X473116Y725170D01*
X481330D01*
Y733384D01*
D02*
G37*
G36*
X331799Y748245D02*
X328601D01*
X325512Y747418D01*
X322743Y745818D01*
X320482Y743557D01*
X318883Y740788D01*
X318055Y737699D01*
Y734501D01*
X318883Y731412D01*
X320482Y728643D01*
X322743Y726382D01*
X325512Y724783D01*
X328601Y723955D01*
X331799D01*
X334888Y724783D01*
X337657Y726382D01*
X339918Y728643D01*
X341517Y731412D01*
X342345Y734501D01*
Y737699D01*
X341517Y740788D01*
X339918Y743557D01*
X337657Y745818D01*
X334888Y747418D01*
X331799Y748245D01*
D02*
G37*
G36*
X370302Y752370D02*
X367097D01*
X363954Y751745D01*
X360993Y750518D01*
X358328Y748738D01*
X356062Y746472D01*
X354282Y743807D01*
X353055Y740846D01*
X352430Y737703D01*
Y734498D01*
X353055Y731354D01*
X354282Y728393D01*
X356062Y725729D01*
X358328Y723462D01*
X360993Y721682D01*
X363954Y720455D01*
X367097Y719830D01*
X370302D01*
X373446Y720455D01*
X376407Y721682D01*
X379071Y723462D01*
X381338Y725729D01*
X383118Y728393D01*
X384344Y731354D01*
X384970Y734498D01*
Y737703D01*
X384344Y740846D01*
X383118Y743807D01*
X381338Y746472D01*
X379071Y748738D01*
X376407Y750518D01*
X373446Y751745D01*
X370302Y752370D01*
D02*
G37*
G36*
X1118682Y732120D02*
X1116518D01*
X1114427Y731560D01*
X1112553Y730478D01*
X1111022Y728947D01*
X1109940Y727073D01*
X1109380Y724982D01*
Y722818D01*
X1109940Y720727D01*
X1111022Y718853D01*
X1112553Y717322D01*
X1114427Y716240D01*
X1116518Y715680D01*
X1118682D01*
X1120773Y716240D01*
X1122647Y717322D01*
X1124178Y718853D01*
X1125260Y720727D01*
X1125820Y722818D01*
Y724982D01*
X1125260Y727073D01*
X1124178Y728947D01*
X1122647Y730478D01*
X1120773Y731560D01*
X1118682Y732120D01*
D02*
G37*
G36*
X1093282D02*
X1091118D01*
X1089027Y731560D01*
X1087153Y730478D01*
X1085622Y728947D01*
X1084540Y727073D01*
X1083980Y724982D01*
Y722818D01*
X1084540Y720727D01*
X1085622Y718853D01*
X1087153Y717322D01*
X1089027Y716240D01*
X1091118Y715680D01*
X1093282D01*
X1095373Y716240D01*
X1097247Y717322D01*
X1098778Y718853D01*
X1099860Y720727D01*
X1100420Y722818D01*
Y724982D01*
X1099860Y727073D01*
X1098778Y728947D01*
X1097247Y730478D01*
X1095373Y731560D01*
X1093282Y732120D01*
D02*
G37*
G36*
X509082D02*
X506918D01*
X504827Y731560D01*
X502953Y730478D01*
X501422Y728947D01*
X500340Y727073D01*
X499780Y724982D01*
Y722818D01*
X500340Y720727D01*
X501422Y718853D01*
X502953Y717322D01*
X504827Y716240D01*
X506918Y715680D01*
X509082D01*
X511173Y716240D01*
X513047Y717322D01*
X514578Y718853D01*
X515660Y720727D01*
X516220Y722818D01*
Y724982D01*
X515660Y727073D01*
X514578Y728947D01*
X513047Y730478D01*
X511173Y731560D01*
X509082Y732120D01*
D02*
G37*
G36*
X492085Y722630D02*
X483870D01*
Y714416D01*
X486263Y715057D01*
X488427Y716306D01*
X490194Y718073D01*
X491443Y720237D01*
X492085Y722630D01*
D02*
G37*
G36*
X481330D02*
X473116D01*
X473757Y720237D01*
X475006Y718073D01*
X476773Y716306D01*
X478937Y715057D01*
X481330Y714416D01*
Y722630D01*
D02*
G37*
G36*
X1479202Y744870D02*
X1475997D01*
X1472854Y744245D01*
X1469893Y743018D01*
X1467228Y741238D01*
X1464962Y738971D01*
X1463181Y736307D01*
X1461955Y733346D01*
X1461330Y730202D01*
Y726998D01*
X1461955Y723854D01*
X1463181Y720893D01*
X1464962Y718229D01*
X1467228Y715962D01*
X1469893Y714182D01*
X1472854Y712955D01*
X1475997Y712330D01*
X1479202D01*
X1482346Y712955D01*
X1485307Y714182D01*
X1487971Y715962D01*
X1490237Y718229D01*
X1492018Y720893D01*
X1493244Y723854D01*
X1493870Y726998D01*
Y730202D01*
X1493244Y733346D01*
X1492018Y736307D01*
X1490237Y738971D01*
X1487971Y741238D01*
X1485307Y743018D01*
X1482346Y744245D01*
X1479202Y744870D01*
D02*
G37*
G36*
X1118682Y706720D02*
X1116518D01*
X1114427Y706160D01*
X1112553Y705078D01*
X1111022Y703547D01*
X1109940Y701673D01*
X1109380Y699582D01*
Y697418D01*
X1109940Y695327D01*
X1111022Y693453D01*
X1112553Y691922D01*
X1114427Y690840D01*
X1116518Y690280D01*
X1118682D01*
X1120773Y690840D01*
X1122647Y691922D01*
X1124178Y693453D01*
X1125260Y695327D01*
X1125820Y697418D01*
Y699582D01*
X1125260Y701673D01*
X1124178Y703547D01*
X1122647Y705078D01*
X1120773Y706160D01*
X1118682Y706720D01*
D02*
G37*
G36*
X1093282D02*
X1091118D01*
X1089027Y706160D01*
X1087153Y705078D01*
X1085622Y703547D01*
X1084540Y701673D01*
X1083980Y699582D01*
Y697418D01*
X1084540Y695327D01*
X1085622Y693453D01*
X1087153Y691922D01*
X1089027Y690840D01*
X1091118Y690280D01*
X1093282D01*
X1095373Y690840D01*
X1097247Y691922D01*
X1098778Y693453D01*
X1099860Y695327D01*
X1100420Y697418D01*
Y699582D01*
X1099860Y701673D01*
X1098778Y703547D01*
X1097247Y705078D01*
X1095373Y706160D01*
X1093282Y706720D01*
D02*
G37*
G36*
X509082D02*
X506918D01*
X504827Y706160D01*
X502953Y705078D01*
X501422Y703547D01*
X500340Y701673D01*
X499780Y699582D01*
Y697418D01*
X500340Y695327D01*
X501422Y693453D01*
X502953Y691922D01*
X504827Y690840D01*
X506918Y690280D01*
X509082D01*
X511173Y690840D01*
X513047Y691922D01*
X514578Y693453D01*
X515660Y695327D01*
X516220Y697418D01*
Y699582D01*
X515660Y701673D01*
X514578Y703547D01*
X513047Y705078D01*
X511173Y706160D01*
X509082Y706720D01*
D02*
G37*
G36*
X483682D02*
X481518D01*
X479427Y706160D01*
X477553Y705078D01*
X476022Y703547D01*
X474940Y701673D01*
X474380Y699582D01*
Y697418D01*
X474940Y695327D01*
X476022Y693453D01*
X477553Y691922D01*
X479427Y690840D01*
X481518Y690280D01*
X483682D01*
X485773Y690840D01*
X487647Y691922D01*
X489178Y693453D01*
X490260Y695327D01*
X490820Y697418D01*
Y699582D01*
X490260Y701673D01*
X489178Y703547D01*
X487647Y705078D01*
X485773Y706160D01*
X483682Y706720D01*
D02*
G37*
G36*
X331799Y706245D02*
X328601D01*
X325512Y705417D01*
X322743Y703819D01*
X320482Y701557D01*
X318883Y698788D01*
X318055Y695699D01*
Y692501D01*
X318883Y689412D01*
X320482Y686643D01*
X322743Y684382D01*
X325512Y682783D01*
X328601Y681955D01*
X331799D01*
X334888Y682783D01*
X337657Y684382D01*
X339918Y686643D01*
X341517Y689412D01*
X342345Y692501D01*
Y695699D01*
X341517Y698788D01*
X339918Y701557D01*
X337657Y703819D01*
X334888Y705417D01*
X331799Y706245D01*
D02*
G37*
G36*
X1542317Y686140D02*
X1541870D01*
Y674370D01*
X1553640D01*
Y674817D01*
X1552751Y678133D01*
X1551035Y681107D01*
X1548607Y683535D01*
X1545633Y685251D01*
X1542317Y686140D01*
D02*
G37*
G36*
X1118870Y682585D02*
Y674370D01*
X1127085D01*
X1126443Y676763D01*
X1125194Y678927D01*
X1123427Y680694D01*
X1121263Y681943D01*
X1118870Y682585D01*
D02*
G37*
G36*
X1116330D02*
X1113937Y681943D01*
X1111773Y680694D01*
X1110006Y678927D01*
X1108757Y676763D01*
X1108115Y674370D01*
X1116330D01*
Y682585D01*
D02*
G37*
G36*
X1539330Y686140D02*
X1538883D01*
X1535567Y685251D01*
X1532593Y683535D01*
X1530165Y681107D01*
X1528449Y678133D01*
X1527560Y674817D01*
Y674370D01*
X1539330D01*
Y686140D01*
D02*
G37*
G36*
X1093282Y681320D02*
X1091118D01*
X1089027Y680760D01*
X1087153Y679678D01*
X1085622Y678147D01*
X1084540Y676273D01*
X1083980Y674182D01*
Y672018D01*
X1084540Y669927D01*
X1085622Y668053D01*
X1087153Y666522D01*
X1089027Y665440D01*
X1091118Y664880D01*
X1093282D01*
X1095373Y665440D01*
X1097247Y666522D01*
X1098778Y668053D01*
X1099860Y669927D01*
X1100420Y672018D01*
Y674182D01*
X1099860Y676273D01*
X1098778Y678147D01*
X1097247Y679678D01*
X1095373Y680760D01*
X1093282Y681320D01*
D02*
G37*
G36*
X509082D02*
X506918D01*
X504827Y680760D01*
X502953Y679678D01*
X501422Y678147D01*
X500340Y676273D01*
X499780Y674182D01*
Y672018D01*
X500340Y669927D01*
X501422Y668053D01*
X502953Y666522D01*
X504827Y665440D01*
X506918Y664880D01*
X509082D01*
X511173Y665440D01*
X513047Y666522D01*
X514578Y668053D01*
X515660Y669927D01*
X516220Y672018D01*
Y674182D01*
X515660Y676273D01*
X514578Y678147D01*
X513047Y679678D01*
X511173Y680760D01*
X509082Y681320D01*
D02*
G37*
G36*
X483682D02*
X481518D01*
X479427Y680760D01*
X477553Y679678D01*
X476022Y678147D01*
X474940Y676273D01*
X474380Y674182D01*
Y672018D01*
X474940Y669927D01*
X476022Y668053D01*
X477553Y666522D01*
X479427Y665440D01*
X481518Y664880D01*
X483682D01*
X485773Y665440D01*
X487647Y666522D01*
X489178Y668053D01*
X490260Y669927D01*
X490820Y672018D01*
Y674182D01*
X490260Y676273D01*
X489178Y678147D01*
X487647Y679678D01*
X485773Y680760D01*
X483682Y681320D01*
D02*
G37*
G36*
X394195Y679958D02*
X392189D01*
X390251Y679439D01*
X388513Y678436D01*
X387094Y677017D01*
X386091Y675279D01*
X385572Y673341D01*
Y671335D01*
X386091Y669397D01*
X387094Y667659D01*
X388513Y666240D01*
X390251Y665237D01*
X392189Y664718D01*
X394195D01*
X396133Y665237D01*
X397871Y666240D01*
X399290Y667659D01*
X400293Y669397D01*
X400812Y671335D01*
Y673341D01*
X400293Y675279D01*
X399290Y677017D01*
X397871Y678436D01*
X396133Y679439D01*
X394195Y679958D01*
D02*
G37*
G36*
X1127085Y671830D02*
X1118870D01*
Y663615D01*
X1121263Y664257D01*
X1123427Y665506D01*
X1125194Y667273D01*
X1126443Y669437D01*
X1127085Y671830D01*
D02*
G37*
G36*
X1116330D02*
X1108115D01*
X1108757Y669437D01*
X1110006Y667273D01*
X1111773Y665506D01*
X1113937Y664257D01*
X1116330Y663615D01*
Y671830D01*
D02*
G37*
G36*
X1500150Y684870D02*
X1497050D01*
X1494057Y684068D01*
X1491373Y682518D01*
X1489182Y680327D01*
X1487632Y677643D01*
X1486830Y674650D01*
Y671550D01*
X1487632Y668557D01*
X1489182Y665873D01*
X1491373Y663682D01*
X1494057Y662132D01*
X1497050Y661330D01*
X1500150D01*
X1503143Y662132D01*
X1505827Y663682D01*
X1508018Y665873D01*
X1509568Y668557D01*
X1510370Y671550D01*
Y674650D01*
X1509568Y677643D01*
X1508018Y680327D01*
X1505827Y682518D01*
X1503143Y684068D01*
X1500150Y684870D01*
D02*
G37*
G36*
X1468370D02*
X1444830D01*
Y661330D01*
X1468370D01*
Y684870D01*
D02*
G37*
G36*
X1553640Y671830D02*
X1541870D01*
Y660060D01*
X1542317D01*
X1545633Y660949D01*
X1548607Y662665D01*
X1551035Y665093D01*
X1552751Y668067D01*
X1553640Y671383D01*
Y671830D01*
D02*
G37*
G36*
X1539330D02*
X1527560D01*
Y671383D01*
X1528449Y668067D01*
X1530165Y665093D01*
X1532593Y662665D01*
X1535567Y660949D01*
X1538883Y660060D01*
X1539330D01*
Y671830D01*
D02*
G37*
G36*
X61203Y689770D02*
X57998D01*
X54854Y689145D01*
X51893Y687918D01*
X49229Y686137D01*
X46962Y683871D01*
X45182Y681207D01*
X43955Y678246D01*
X43330Y675102D01*
Y671897D01*
X43955Y668754D01*
X45182Y665793D01*
X46962Y663128D01*
X49229Y660862D01*
X51893Y659081D01*
X54854Y657855D01*
X57998Y657230D01*
X61203D01*
X64346Y657855D01*
X67307Y659081D01*
X69972Y660862D01*
X72238Y663128D01*
X74018Y665793D01*
X75245Y668754D01*
X75870Y671897D01*
Y675102D01*
X75245Y678246D01*
X74018Y681207D01*
X72238Y683871D01*
X69972Y686137D01*
X67307Y687918D01*
X64346Y689145D01*
X61203Y689770D01*
D02*
G37*
G36*
X331799Y664245D02*
X328601D01*
X325512Y663417D01*
X322743Y661818D01*
X320482Y659557D01*
X318883Y656788D01*
X318055Y653699D01*
Y650501D01*
X318883Y647412D01*
X320482Y644643D01*
X322743Y642381D01*
X325512Y640782D01*
X328601Y639955D01*
X331799D01*
X334888Y640782D01*
X337657Y642381D01*
X339918Y644643D01*
X341517Y647412D01*
X342345Y650501D01*
Y653699D01*
X341517Y656788D01*
X339918Y659557D01*
X337657Y661818D01*
X334888Y663417D01*
X331799Y664245D01*
D02*
G37*
G36*
X1118682Y655920D02*
X1116518D01*
X1114427Y655360D01*
X1112553Y654278D01*
X1111022Y652747D01*
X1109940Y650873D01*
X1109380Y648782D01*
Y646618D01*
X1109940Y644527D01*
X1111022Y642653D01*
X1112553Y641122D01*
X1114427Y640040D01*
X1116518Y639480D01*
X1118682D01*
X1120773Y640040D01*
X1122647Y641122D01*
X1124178Y642653D01*
X1125260Y644527D01*
X1125820Y646618D01*
Y648782D01*
X1125260Y650873D01*
X1124178Y652747D01*
X1122647Y654278D01*
X1120773Y655360D01*
X1118682Y655920D01*
D02*
G37*
G36*
X1093282D02*
X1091118D01*
X1089027Y655360D01*
X1087153Y654278D01*
X1085622Y652747D01*
X1084540Y650873D01*
X1083980Y648782D01*
Y646618D01*
X1084540Y644527D01*
X1085622Y642653D01*
X1087153Y641122D01*
X1089027Y640040D01*
X1091118Y639480D01*
X1093282D01*
X1095373Y640040D01*
X1097247Y641122D01*
X1098778Y642653D01*
X1099860Y644527D01*
X1100420Y646618D01*
Y648782D01*
X1099860Y650873D01*
X1098778Y652747D01*
X1097247Y654278D01*
X1095373Y655360D01*
X1093282Y655920D01*
D02*
G37*
G36*
X509082D02*
X506918D01*
X504827Y655360D01*
X502953Y654278D01*
X501422Y652747D01*
X500340Y650873D01*
X499780Y648782D01*
Y646618D01*
X500340Y644527D01*
X501422Y642653D01*
X502953Y641122D01*
X504827Y640040D01*
X506918Y639480D01*
X509082D01*
X511173Y640040D01*
X513047Y641122D01*
X514578Y642653D01*
X515660Y644527D01*
X516220Y646618D01*
Y648782D01*
X515660Y650873D01*
X514578Y652747D01*
X513047Y654278D01*
X511173Y655360D01*
X509082Y655920D01*
D02*
G37*
G36*
X483682D02*
X481518D01*
X479427Y655360D01*
X477553Y654278D01*
X476022Y652747D01*
X474940Y650873D01*
X474380Y648782D01*
Y646618D01*
X474940Y644527D01*
X476022Y642653D01*
X477553Y641122D01*
X479427Y640040D01*
X481518Y639480D01*
X483682D01*
X485773Y640040D01*
X487647Y641122D01*
X489178Y642653D01*
X490260Y644527D01*
X490820Y646618D01*
Y648782D01*
X490260Y650873D01*
X489178Y652747D01*
X487647Y654278D01*
X485773Y655360D01*
X483682Y655920D01*
D02*
G37*
G36*
X61317Y648040D02*
X60870D01*
Y636270D01*
X72640D01*
Y636717D01*
X71751Y640033D01*
X70035Y643007D01*
X67607Y645435D01*
X64633Y647151D01*
X61317Y648040D01*
D02*
G37*
G36*
X58330D02*
X57883D01*
X54567Y647151D01*
X51593Y645435D01*
X49166Y643007D01*
X47449Y640033D01*
X46560Y636717D01*
Y636270D01*
X58330D01*
Y648040D01*
D02*
G37*
G36*
X155370Y646770D02*
X131830D01*
Y623230D01*
X155370D01*
Y646770D01*
D02*
G37*
G36*
X103150D02*
X100050D01*
X97057Y645968D01*
X94373Y644418D01*
X92182Y642227D01*
X90632Y639543D01*
X89830Y636550D01*
Y633450D01*
X90632Y630457D01*
X92182Y627773D01*
X94373Y625582D01*
X97057Y624032D01*
X100050Y623230D01*
X103150D01*
X106143Y624032D01*
X108827Y625582D01*
X111018Y627773D01*
X112568Y630457D01*
X113370Y633450D01*
Y636550D01*
X112568Y639543D01*
X111018Y642227D01*
X108827Y644418D01*
X106143Y645968D01*
X103150Y646770D01*
D02*
G37*
G36*
X72640Y633730D02*
X60870D01*
Y621960D01*
X61317D01*
X64633Y622849D01*
X67607Y624565D01*
X70035Y626993D01*
X71751Y629967D01*
X72640Y633283D01*
Y633730D01*
D02*
G37*
G36*
X58330D02*
X46560D01*
Y633283D01*
X47449Y629967D01*
X49166Y626993D01*
X51593Y624565D01*
X54567Y622849D01*
X57883Y621960D01*
X58330D01*
Y633730D01*
D02*
G37*
G36*
X1542202Y650870D02*
X1538997D01*
X1535854Y650245D01*
X1532893Y649018D01*
X1530228Y647238D01*
X1527962Y644972D01*
X1526182Y642307D01*
X1524955Y639346D01*
X1524330Y636203D01*
Y632998D01*
X1524955Y629854D01*
X1526182Y626894D01*
X1527962Y624229D01*
X1530228Y621963D01*
X1532893Y620182D01*
X1535854Y618955D01*
X1538997Y618330D01*
X1542202D01*
X1545346Y618955D01*
X1548307Y620182D01*
X1550971Y621963D01*
X1553238Y624229D01*
X1555018Y626894D01*
X1556245Y629854D01*
X1556870Y632998D01*
Y636203D01*
X1556245Y639346D01*
X1555018Y642307D01*
X1553238Y644972D01*
X1550971Y647238D01*
X1548307Y649018D01*
X1545346Y650245D01*
X1542202Y650870D01*
D02*
G37*
G36*
X276302Y647370D02*
X273097D01*
X269954Y646745D01*
X266993Y645518D01*
X264328Y643738D01*
X262062Y641472D01*
X260282Y638807D01*
X259055Y635846D01*
X258430Y632702D01*
Y629498D01*
X259055Y626354D01*
X260282Y623393D01*
X262062Y620729D01*
X264328Y618462D01*
X266993Y616682D01*
X269954Y615455D01*
X273097Y614830D01*
X276302D01*
X279446Y615455D01*
X282407Y616682D01*
X285072Y618462D01*
X287338Y620729D01*
X289118Y623393D01*
X290345Y626354D01*
X290970Y629498D01*
Y632702D01*
X290345Y635846D01*
X289118Y638807D01*
X287338Y641472D01*
X285072Y643738D01*
X282407Y645518D01*
X279446Y646745D01*
X276302Y647370D01*
D02*
G37*
G36*
X1281770Y637970D02*
X1258230D01*
Y614430D01*
X1281770D01*
Y637970D01*
D02*
G37*
G36*
X1118682Y630520D02*
X1116518D01*
X1114427Y629960D01*
X1112553Y628878D01*
X1111022Y627347D01*
X1109940Y625473D01*
X1109380Y623382D01*
Y621218D01*
X1109940Y619127D01*
X1111022Y617253D01*
X1112553Y615722D01*
X1114427Y614640D01*
X1116518Y614080D01*
X1118682D01*
X1120773Y614640D01*
X1122647Y615722D01*
X1124178Y617253D01*
X1125260Y619127D01*
X1125820Y621218D01*
Y623382D01*
X1125260Y625473D01*
X1124178Y627347D01*
X1122647Y628878D01*
X1120773Y629960D01*
X1118682Y630520D01*
D02*
G37*
G36*
X1093282D02*
X1091118D01*
X1089027Y629960D01*
X1087153Y628878D01*
X1085622Y627347D01*
X1084540Y625473D01*
X1083980Y623382D01*
Y621218D01*
X1084540Y619127D01*
X1085622Y617253D01*
X1087153Y615722D01*
X1089027Y614640D01*
X1091118Y614080D01*
X1093282D01*
X1095373Y614640D01*
X1097247Y615722D01*
X1098778Y617253D01*
X1099860Y619127D01*
X1100420Y621218D01*
Y623382D01*
X1099860Y625473D01*
X1098778Y627347D01*
X1097247Y628878D01*
X1095373Y629960D01*
X1093282Y630520D01*
D02*
G37*
G36*
X509082D02*
X506918D01*
X504827Y629960D01*
X502953Y628878D01*
X501422Y627347D01*
X500340Y625473D01*
X499780Y623382D01*
Y621218D01*
X500340Y619127D01*
X501422Y617253D01*
X502953Y615722D01*
X504827Y614640D01*
X506918Y614080D01*
X509082D01*
X511173Y614640D01*
X513047Y615722D01*
X514578Y617253D01*
X515660Y619127D01*
X516220Y621218D01*
Y623382D01*
X515660Y625473D01*
X514578Y627347D01*
X513047Y628878D01*
X511173Y629960D01*
X509082Y630520D01*
D02*
G37*
G36*
X483682D02*
X481518D01*
X479427Y629960D01*
X477553Y628878D01*
X476022Y627347D01*
X474940Y625473D01*
X474380Y623382D01*
Y621218D01*
X474940Y619127D01*
X476022Y617253D01*
X477553Y615722D01*
X479427Y614640D01*
X481518Y614080D01*
X483682D01*
X485773Y614640D01*
X487647Y615722D01*
X489178Y617253D01*
X490260Y619127D01*
X490820Y621218D01*
Y623382D01*
X490260Y625473D01*
X489178Y627347D01*
X487647Y628878D01*
X485773Y629960D01*
X483682Y630520D01*
D02*
G37*
G36*
X509270Y606385D02*
Y598170D01*
X517485D01*
X516843Y600563D01*
X515594Y602727D01*
X513827Y604494D01*
X511663Y605743D01*
X509270Y606385D01*
D02*
G37*
G36*
X506730D02*
X504337Y605743D01*
X502173Y604494D01*
X500406Y602727D01*
X499157Y600563D01*
X498516Y598170D01*
X506730D01*
Y606385D01*
D02*
G37*
G36*
X331799Y622245D02*
X328601D01*
X325512Y621417D01*
X322743Y619818D01*
X320482Y617557D01*
X318883Y614788D01*
X318055Y611699D01*
Y608501D01*
X318883Y605412D01*
X320482Y602643D01*
X322743Y600382D01*
X325512Y598783D01*
X328601Y597955D01*
X331799D01*
X334888Y598783D01*
X337657Y600382D01*
X339918Y602643D01*
X341517Y605412D01*
X342345Y608501D01*
Y611699D01*
X341517Y614788D01*
X339918Y617557D01*
X337657Y619818D01*
X334888Y621417D01*
X331799Y622245D01*
D02*
G37*
G36*
X1327103Y621470D02*
X1323898D01*
X1320754Y620845D01*
X1317793Y619618D01*
X1315128Y617838D01*
X1312862Y615572D01*
X1311082Y612907D01*
X1309855Y609946D01*
X1309230Y606803D01*
Y603598D01*
X1309855Y600454D01*
X1311082Y597494D01*
X1312862Y594829D01*
X1315128Y592562D01*
X1317793Y590782D01*
X1320754Y589556D01*
X1323898Y588930D01*
X1327103D01*
X1330246Y589556D01*
X1333207Y590782D01*
X1335871Y592562D01*
X1338138Y594829D01*
X1339918Y597494D01*
X1341145Y600454D01*
X1341770Y603598D01*
Y606803D01*
X1341145Y609946D01*
X1339918Y612907D01*
X1338138Y615572D01*
X1335871Y617838D01*
X1333207Y619618D01*
X1330246Y620845D01*
X1327103Y621470D01*
D02*
G37*
G36*
X1118682Y605120D02*
X1116518D01*
X1114427Y604560D01*
X1112553Y603478D01*
X1111022Y601947D01*
X1109940Y600073D01*
X1109380Y597982D01*
Y595818D01*
X1109940Y593727D01*
X1111022Y591853D01*
X1112553Y590322D01*
X1114427Y589240D01*
X1116518Y588680D01*
X1118682D01*
X1120773Y589240D01*
X1122647Y590322D01*
X1124178Y591853D01*
X1125260Y593727D01*
X1125820Y595818D01*
Y597982D01*
X1125260Y600073D01*
X1124178Y601947D01*
X1122647Y603478D01*
X1120773Y604560D01*
X1118682Y605120D01*
D02*
G37*
G36*
X1093282D02*
X1091118D01*
X1089027Y604560D01*
X1087153Y603478D01*
X1085622Y601947D01*
X1084540Y600073D01*
X1083980Y597982D01*
Y595818D01*
X1084540Y593727D01*
X1085622Y591853D01*
X1087153Y590322D01*
X1089027Y589240D01*
X1091118Y588680D01*
X1093282D01*
X1095373Y589240D01*
X1097247Y590322D01*
X1098778Y591853D01*
X1099860Y593727D01*
X1100420Y595818D01*
Y597982D01*
X1099860Y600073D01*
X1098778Y601947D01*
X1097247Y603478D01*
X1095373Y604560D01*
X1093282Y605120D01*
D02*
G37*
G36*
X483682D02*
X481518D01*
X479427Y604560D01*
X477553Y603478D01*
X476022Y601947D01*
X474940Y600073D01*
X474380Y597982D01*
Y595818D01*
X474940Y593727D01*
X476022Y591853D01*
X477553Y590322D01*
X479427Y589240D01*
X481518Y588680D01*
X483682D01*
X485773Y589240D01*
X487647Y590322D01*
X489178Y591853D01*
X490260Y593727D01*
X490820Y595818D01*
Y597982D01*
X490260Y600073D01*
X489178Y601947D01*
X487647Y603478D01*
X485773Y604560D01*
X483682Y605120D01*
D02*
G37*
G36*
X517485Y595630D02*
X509270D01*
Y587416D01*
X511663Y588057D01*
X513827Y589306D01*
X515594Y591073D01*
X516843Y593237D01*
X517485Y595630D01*
D02*
G37*
G36*
X506730D02*
X498516D01*
X499157Y593237D01*
X500406Y591073D01*
X502173Y589306D01*
X504337Y588057D01*
X506730Y587416D01*
Y595630D01*
D02*
G37*
G36*
X1133081Y588772D02*
X1131075D01*
X1129137Y588253D01*
X1127399Y587249D01*
X1125981Y585831D01*
X1124977Y584093D01*
X1124458Y582155D01*
Y580149D01*
X1124977Y578211D01*
X1125981Y576473D01*
X1127399Y575055D01*
X1129137Y574051D01*
X1131075Y573532D01*
X1133081D01*
X1135019Y574051D01*
X1136757Y575055D01*
X1138176Y576473D01*
X1139179Y578211D01*
X1139698Y580149D01*
Y582155D01*
X1139179Y584093D01*
X1138176Y585831D01*
X1136757Y587249D01*
X1135019Y588253D01*
X1133081Y588772D01*
D02*
G37*
G36*
X1271550Y595970D02*
X1268450D01*
X1265457Y595168D01*
X1262773Y593618D01*
X1260582Y591427D01*
X1259032Y588743D01*
X1258230Y585750D01*
Y582650D01*
X1259032Y579657D01*
X1260582Y576973D01*
X1262773Y574782D01*
X1265457Y573232D01*
X1268450Y572430D01*
X1271550D01*
X1274543Y573232D01*
X1277227Y574782D01*
X1279418Y576973D01*
X1280968Y579657D01*
X1281770Y582650D01*
Y585750D01*
X1280968Y588743D01*
X1279418Y591427D01*
X1277227Y593618D01*
X1274543Y595168D01*
X1271550Y595970D01*
D02*
G37*
G36*
X1118682Y579720D02*
X1116518D01*
X1114427Y579160D01*
X1112553Y578078D01*
X1111022Y576547D01*
X1109940Y574673D01*
X1109380Y572582D01*
Y570418D01*
X1109940Y568327D01*
X1111022Y566453D01*
X1112553Y564922D01*
X1114427Y563840D01*
X1116518Y563280D01*
X1118682D01*
X1120773Y563840D01*
X1122647Y564922D01*
X1124178Y566453D01*
X1125260Y568327D01*
X1125820Y570418D01*
Y572582D01*
X1125260Y574673D01*
X1124178Y576547D01*
X1122647Y578078D01*
X1120773Y579160D01*
X1118682Y579720D01*
D02*
G37*
G36*
X1093282D02*
X1091118D01*
X1089027Y579160D01*
X1087153Y578078D01*
X1085622Y576547D01*
X1084540Y574673D01*
X1083980Y572582D01*
Y570418D01*
X1084540Y568327D01*
X1085622Y566453D01*
X1087153Y564922D01*
X1089027Y563840D01*
X1091118Y563280D01*
X1093282D01*
X1095373Y563840D01*
X1097247Y564922D01*
X1098778Y566453D01*
X1099860Y568327D01*
X1100420Y570418D01*
Y572582D01*
X1099860Y574673D01*
X1098778Y576547D01*
X1097247Y578078D01*
X1095373Y579160D01*
X1093282Y579720D01*
D02*
G37*
G36*
X509082D02*
X506918D01*
X504827Y579160D01*
X502953Y578078D01*
X501422Y576547D01*
X500340Y574673D01*
X499780Y572582D01*
Y570418D01*
X500340Y568327D01*
X501422Y566453D01*
X502953Y564922D01*
X504827Y563840D01*
X506918Y563280D01*
X509082D01*
X511173Y563840D01*
X513047Y564922D01*
X514578Y566453D01*
X515660Y568327D01*
X516220Y570418D01*
Y572582D01*
X515660Y574673D01*
X514578Y576547D01*
X513047Y578078D01*
X511173Y579160D01*
X509082Y579720D01*
D02*
G37*
G36*
X483682D02*
X481518D01*
X479427Y579160D01*
X477553Y578078D01*
X476022Y576547D01*
X474940Y574673D01*
X474380Y572582D01*
Y570418D01*
X474940Y568327D01*
X476022Y566453D01*
X477553Y564922D01*
X479427Y563840D01*
X481518Y563280D01*
X483682D01*
X485773Y563840D01*
X487647Y564922D01*
X489178Y566453D01*
X490260Y568327D01*
X490820Y570418D01*
Y572582D01*
X490260Y574673D01*
X489178Y576547D01*
X487647Y578078D01*
X485773Y579160D01*
X483682Y579720D01*
D02*
G37*
G36*
X124203Y595770D02*
X120998D01*
X117854Y595145D01*
X114894Y593918D01*
X112229Y592138D01*
X109963Y589871D01*
X108182Y587207D01*
X106955Y584246D01*
X106330Y581102D01*
Y577897D01*
X106955Y574754D01*
X108182Y571793D01*
X109963Y569128D01*
X112229Y566862D01*
X114894Y565082D01*
X117854Y563855D01*
X120998Y563230D01*
X124203D01*
X127346Y563855D01*
X130307Y565082D01*
X132972Y566862D01*
X135238Y569128D01*
X137018Y571793D01*
X138245Y574754D01*
X138870Y577897D01*
Y581102D01*
X138245Y584246D01*
X137018Y587207D01*
X135238Y589871D01*
X132972Y592138D01*
X130307Y593918D01*
X127346Y595145D01*
X124203Y595770D01*
D02*
G37*
G36*
X1093470Y555584D02*
Y547370D01*
X1101684D01*
X1101043Y549763D01*
X1099794Y551927D01*
X1098027Y553694D01*
X1095863Y554943D01*
X1093470Y555584D01*
D02*
G37*
G36*
X1090930D02*
X1088537Y554943D01*
X1086373Y553694D01*
X1084606Y551927D01*
X1083357Y549763D01*
X1082716Y547370D01*
X1090930D01*
Y555584D01*
D02*
G37*
G36*
X1479202Y579770D02*
X1475997D01*
X1472854Y579145D01*
X1469893Y577918D01*
X1467228Y576138D01*
X1464962Y573871D01*
X1463181Y571207D01*
X1461955Y568246D01*
X1461330Y565103D01*
Y561898D01*
X1461955Y558754D01*
X1463181Y555793D01*
X1464962Y553129D01*
X1467228Y550862D01*
X1469893Y549082D01*
X1472854Y547855D01*
X1475997Y547230D01*
X1479202D01*
X1482346Y547855D01*
X1485307Y549082D01*
X1487971Y550862D01*
X1490237Y553129D01*
X1492018Y555793D01*
X1493244Y558754D01*
X1493870Y561898D01*
Y565103D01*
X1493244Y568246D01*
X1492018Y571207D01*
X1490237Y573871D01*
X1487971Y576138D01*
X1485307Y577918D01*
X1482346Y579145D01*
X1479202Y579770D01*
D02*
G37*
G36*
X1271717Y555240D02*
X1271270D01*
Y543470D01*
X1283040D01*
Y543917D01*
X1282151Y547233D01*
X1280435Y550207D01*
X1278007Y552635D01*
X1275033Y554351D01*
X1271717Y555240D01*
D02*
G37*
G36*
X1268730D02*
X1268283D01*
X1264967Y554351D01*
X1261993Y552635D01*
X1259565Y550207D01*
X1257849Y547233D01*
X1256960Y543917D01*
Y543470D01*
X1268730D01*
Y555240D01*
D02*
G37*
G36*
X1118682Y554320D02*
X1116518D01*
X1114427Y553760D01*
X1112553Y552678D01*
X1111022Y551147D01*
X1109940Y549273D01*
X1109380Y547182D01*
Y545018D01*
X1109940Y542927D01*
X1111022Y541053D01*
X1112553Y539522D01*
X1114427Y538440D01*
X1116518Y537880D01*
X1118682D01*
X1120773Y538440D01*
X1122647Y539522D01*
X1124178Y541053D01*
X1125260Y542927D01*
X1125820Y545018D01*
Y547182D01*
X1125260Y549273D01*
X1124178Y551147D01*
X1122647Y552678D01*
X1120773Y553760D01*
X1118682Y554320D01*
D02*
G37*
G36*
X509082D02*
X506918D01*
X504827Y553760D01*
X502953Y552678D01*
X501422Y551147D01*
X500340Y549273D01*
X499780Y547182D01*
Y545018D01*
X500340Y542927D01*
X501422Y541053D01*
X502953Y539522D01*
X504827Y538440D01*
X506918Y537880D01*
X509082D01*
X511173Y538440D01*
X513047Y539522D01*
X514578Y541053D01*
X515660Y542927D01*
X516220Y545018D01*
Y547182D01*
X515660Y549273D01*
X514578Y551147D01*
X513047Y552678D01*
X511173Y553760D01*
X509082Y554320D01*
D02*
G37*
G36*
X483682D02*
X481518D01*
X479427Y553760D01*
X477553Y552678D01*
X476022Y551147D01*
X474940Y549273D01*
X474380Y547182D01*
Y545018D01*
X474940Y542927D01*
X476022Y541053D01*
X477553Y539522D01*
X479427Y538440D01*
X481518Y537880D01*
X483682D01*
X485773Y538440D01*
X487647Y539522D01*
X489178Y541053D01*
X490260Y542927D01*
X490820Y545018D01*
Y547182D01*
X490260Y549273D01*
X489178Y551147D01*
X487647Y552678D01*
X485773Y553760D01*
X483682Y554320D01*
D02*
G37*
G36*
X1101684Y544830D02*
X1093470D01*
Y536615D01*
X1095863Y537257D01*
X1098027Y538506D01*
X1099794Y540273D01*
X1101043Y542437D01*
X1101684Y544830D01*
D02*
G37*
G36*
X1090930D02*
X1082716D01*
X1083357Y542437D01*
X1084606Y540273D01*
X1086373Y538506D01*
X1088537Y537257D01*
X1090930Y536615D01*
Y544830D01*
D02*
G37*
G36*
X1283040Y540930D02*
X1271270D01*
Y529160D01*
X1271717D01*
X1275033Y530049D01*
X1278007Y531766D01*
X1280435Y534193D01*
X1282151Y537167D01*
X1283040Y540483D01*
Y540930D01*
D02*
G37*
G36*
X1268730D02*
X1256960D01*
Y540483D01*
X1257849Y537167D01*
X1259565Y534193D01*
X1261993Y531766D01*
X1264967Y530049D01*
X1268283Y529160D01*
X1268730D01*
Y540930D01*
D02*
G37*
G36*
X1233103Y558470D02*
X1229898D01*
X1226754Y557845D01*
X1223793Y556618D01*
X1221129Y554838D01*
X1218863Y552572D01*
X1217082Y549907D01*
X1215855Y546946D01*
X1215230Y543802D01*
Y540598D01*
X1215855Y537454D01*
X1217082Y534493D01*
X1218863Y531829D01*
X1221129Y529562D01*
X1223793Y527782D01*
X1226754Y526555D01*
X1229898Y525930D01*
X1233103D01*
X1236246Y526555D01*
X1239207Y527782D01*
X1241872Y529562D01*
X1244138Y531829D01*
X1245919Y534493D01*
X1247145Y537454D01*
X1247770Y540598D01*
Y543802D01*
X1247145Y546946D01*
X1245919Y549907D01*
X1244138Y552572D01*
X1241872Y554838D01*
X1239207Y556618D01*
X1236246Y557845D01*
X1233103Y558470D01*
D02*
G37*
G36*
X1118682Y528920D02*
X1116518D01*
X1114427Y528360D01*
X1112553Y527278D01*
X1111022Y525747D01*
X1109940Y523873D01*
X1109380Y521782D01*
Y519618D01*
X1109940Y517527D01*
X1110526Y516513D01*
X1109689Y515422D01*
X1108951Y515620D01*
X1106945D01*
X1105007Y515101D01*
X1103269Y514098D01*
X1101851Y512679D01*
X1100847Y510941D01*
X1100328Y509003D01*
Y506997D01*
X1100847Y505059D01*
X1101851Y503321D01*
X1103269Y501903D01*
X1105007Y500899D01*
X1106945Y500380D01*
X1108951D01*
X1109689Y500578D01*
X1110526Y499487D01*
X1109940Y498473D01*
X1109380Y496382D01*
Y494218D01*
X1109940Y492127D01*
X1111022Y490253D01*
X1112553Y488722D01*
X1114427Y487640D01*
X1116518Y487080D01*
X1118682D01*
X1120773Y487640D01*
X1122647Y488722D01*
X1124178Y490253D01*
X1125260Y492127D01*
X1125820Y494218D01*
Y496382D01*
X1125260Y498473D01*
X1124178Y500347D01*
X1122647Y501878D01*
X1120773Y502960D01*
X1118682Y503520D01*
X1116518D01*
X1115464Y503238D01*
X1114627Y504328D01*
X1115049Y505059D01*
X1115568Y506997D01*
Y509003D01*
X1115049Y510941D01*
X1114627Y511672D01*
X1115464Y512762D01*
X1116518Y512480D01*
X1118682D01*
X1120773Y513040D01*
X1122647Y514122D01*
X1124178Y515653D01*
X1125260Y517527D01*
X1125820Y519618D01*
Y521782D01*
X1125260Y523873D01*
X1124178Y525747D01*
X1122647Y527278D01*
X1120773Y528360D01*
X1118682Y528920D01*
D02*
G37*
G36*
X1093282D02*
X1091118D01*
X1089027Y528360D01*
X1087153Y527278D01*
X1085622Y525747D01*
X1084540Y523873D01*
X1083980Y521782D01*
Y519618D01*
X1084540Y517527D01*
X1085622Y515653D01*
X1087153Y514122D01*
X1089027Y513040D01*
X1091118Y512480D01*
X1093282D01*
X1095373Y513040D01*
X1097247Y514122D01*
X1098778Y515653D01*
X1099860Y517527D01*
X1100420Y519618D01*
Y521782D01*
X1099860Y523873D01*
X1098778Y525747D01*
X1097247Y527278D01*
X1095373Y528360D01*
X1093282Y528920D01*
D02*
G37*
G36*
X509082D02*
X506918D01*
X504827Y528360D01*
X502953Y527278D01*
X501422Y525747D01*
X500340Y523873D01*
X499780Y521782D01*
Y519618D01*
X500340Y517527D01*
X501422Y515653D01*
X502953Y514122D01*
X504827Y513040D01*
X506918Y512480D01*
X509082D01*
X511173Y513040D01*
X513047Y514122D01*
X514578Y515653D01*
X515660Y517527D01*
X516220Y519618D01*
Y521782D01*
X515660Y523873D01*
X514578Y525747D01*
X513047Y527278D01*
X511173Y528360D01*
X509082Y528920D01*
D02*
G37*
G36*
X483682D02*
X481518D01*
X479427Y528360D01*
X477553Y527278D01*
X476022Y525747D01*
X474940Y523873D01*
X474380Y521782D01*
Y519618D01*
X474940Y517527D01*
X476022Y515653D01*
X477553Y514122D01*
X479427Y513040D01*
X481518Y512480D01*
X483682D01*
X485773Y513040D01*
X487647Y514122D01*
X489178Y515653D01*
X490260Y517527D01*
X490820Y519618D01*
Y521782D01*
X490260Y523873D01*
X489178Y525747D01*
X487647Y527278D01*
X485773Y528360D01*
X483682Y528920D01*
D02*
G37*
G36*
X1542317Y521040D02*
X1541870D01*
Y509270D01*
X1553640D01*
Y509717D01*
X1552751Y513033D01*
X1551035Y516007D01*
X1548607Y518435D01*
X1545633Y520151D01*
X1542317Y521040D01*
D02*
G37*
G36*
X1539330D02*
X1538883D01*
X1535567Y520151D01*
X1532593Y518435D01*
X1530165Y516007D01*
X1528449Y513033D01*
X1527560Y509717D01*
Y509270D01*
X1539330D01*
Y521040D01*
D02*
G37*
G36*
X331799Y532345D02*
X328601D01*
X325512Y531517D01*
X322743Y529919D01*
X320482Y527657D01*
X318883Y524888D01*
X318055Y521799D01*
Y518601D01*
X318883Y515512D01*
X320482Y512743D01*
X322743Y510482D01*
X325512Y508883D01*
X328601Y508055D01*
X331799D01*
X334888Y508883D01*
X337657Y510482D01*
X339918Y512743D01*
X341517Y515512D01*
X342345Y518601D01*
Y521799D01*
X341517Y524888D01*
X339918Y527657D01*
X337657Y529919D01*
X334888Y531517D01*
X331799Y532345D01*
D02*
G37*
G36*
X370302Y536470D02*
X367097D01*
X363954Y535845D01*
X360993Y534618D01*
X358328Y532838D01*
X356062Y530572D01*
X354282Y527907D01*
X353055Y524946D01*
X352430Y521803D01*
Y518598D01*
X353055Y515454D01*
X354282Y512493D01*
X356062Y509829D01*
X358328Y507562D01*
X360993Y505782D01*
X363954Y504555D01*
X367097Y503930D01*
X370302D01*
X373446Y504555D01*
X376407Y505782D01*
X379071Y507562D01*
X381338Y509829D01*
X383118Y512493D01*
X384344Y515454D01*
X384970Y518598D01*
Y521803D01*
X384344Y524946D01*
X383118Y527907D01*
X381338Y530572D01*
X379071Y532838D01*
X376407Y534618D01*
X373446Y535845D01*
X370302Y536470D01*
D02*
G37*
G36*
X1500150Y519770D02*
X1497050D01*
X1494057Y518968D01*
X1491373Y517418D01*
X1489182Y515227D01*
X1487632Y512543D01*
X1486830Y509550D01*
Y506450D01*
X1487632Y503457D01*
X1489182Y500773D01*
X1491373Y498582D01*
X1494057Y497032D01*
X1497050Y496230D01*
X1500150D01*
X1503143Y497032D01*
X1505827Y498582D01*
X1508018Y500773D01*
X1509568Y503457D01*
X1510370Y506450D01*
Y509550D01*
X1509568Y512543D01*
X1508018Y515227D01*
X1505827Y517418D01*
X1503143Y518968D01*
X1500150Y519770D01*
D02*
G37*
G36*
X1468370D02*
X1444830D01*
Y496230D01*
X1468370D01*
Y519770D01*
D02*
G37*
G36*
X1553640Y506730D02*
X1541870D01*
Y494960D01*
X1542317D01*
X1545633Y495849D01*
X1548607Y497565D01*
X1551035Y499993D01*
X1552751Y502967D01*
X1553640Y506283D01*
Y506730D01*
D02*
G37*
G36*
X1539330D02*
X1527560D01*
Y506283D01*
X1528449Y502967D01*
X1530165Y499993D01*
X1532593Y497565D01*
X1535567Y495849D01*
X1538883Y494960D01*
X1539330D01*
Y506730D01*
D02*
G37*
G36*
X1093282Y503520D02*
X1091118D01*
X1089027Y502960D01*
X1087153Y501878D01*
X1085622Y500347D01*
X1084540Y498473D01*
X1083980Y496382D01*
Y494218D01*
X1084540Y492127D01*
X1085622Y490253D01*
X1087153Y488722D01*
X1089027Y487640D01*
X1091118Y487080D01*
X1093282D01*
X1095373Y487640D01*
X1097247Y488722D01*
X1098778Y490253D01*
X1099860Y492127D01*
X1100420Y494218D01*
Y496382D01*
X1099860Y498473D01*
X1098778Y500347D01*
X1097247Y501878D01*
X1095373Y502960D01*
X1093282Y503520D01*
D02*
G37*
G36*
X509082D02*
X506918D01*
X504827Y502960D01*
X502953Y501878D01*
X501422Y500347D01*
X500340Y498473D01*
X499780Y496382D01*
Y494218D01*
X500340Y492127D01*
X501422Y490253D01*
X502953Y488722D01*
X504827Y487640D01*
X506918Y487080D01*
X509082D01*
X511173Y487640D01*
X513047Y488722D01*
X514578Y490253D01*
X515660Y492127D01*
X516220Y494218D01*
Y496382D01*
X515660Y498473D01*
X514578Y500347D01*
X513047Y501878D01*
X511173Y502960D01*
X509082Y503520D01*
D02*
G37*
G36*
X483682D02*
X481518D01*
X479427Y502960D01*
X477553Y501878D01*
X476022Y500347D01*
X474940Y498473D01*
X474380Y496382D01*
Y494218D01*
X474940Y492127D01*
X476022Y490253D01*
X477553Y488722D01*
X479427Y487640D01*
X481518Y487080D01*
X483682D01*
X485773Y487640D01*
X487647Y488722D01*
X489178Y490253D01*
X490260Y492127D01*
X490820Y494218D01*
Y496382D01*
X490260Y498473D01*
X489178Y500347D01*
X487647Y501878D01*
X485773Y502960D01*
X483682Y503520D01*
D02*
G37*
G36*
X61203Y511970D02*
X57998D01*
X54854Y511344D01*
X51893Y510118D01*
X49229Y508338D01*
X46962Y506071D01*
X45182Y503406D01*
X43955Y500446D01*
X43330Y497302D01*
Y494097D01*
X43955Y490954D01*
X45182Y487993D01*
X46962Y485328D01*
X49229Y483062D01*
X51893Y481282D01*
X54854Y480055D01*
X57998Y479430D01*
X61203D01*
X64346Y480055D01*
X67307Y481282D01*
X69972Y483062D01*
X72238Y485328D01*
X74018Y487993D01*
X75245Y490954D01*
X75870Y494097D01*
Y497302D01*
X75245Y500446D01*
X74018Y503406D01*
X72238Y506071D01*
X69972Y508338D01*
X67307Y510118D01*
X64346Y511344D01*
X61203Y511970D01*
D02*
G37*
G36*
X331799Y490345D02*
X328601D01*
X325512Y489518D01*
X322743Y487919D01*
X320482Y485657D01*
X318883Y482888D01*
X318055Y479799D01*
Y476601D01*
X318883Y473512D01*
X320482Y470743D01*
X322743Y468482D01*
X325512Y466883D01*
X328601Y466055D01*
X331799D01*
X334888Y466883D01*
X337657Y468482D01*
X339918Y470743D01*
X341517Y473512D01*
X342345Y476601D01*
Y479799D01*
X341517Y482888D01*
X339918Y485657D01*
X337657Y487919D01*
X334888Y489518D01*
X331799Y490345D01*
D02*
G37*
G36*
X1118682Y478120D02*
X1116518D01*
X1114427Y477560D01*
X1112553Y476478D01*
X1111022Y474947D01*
X1109940Y473073D01*
X1109380Y470982D01*
Y468818D01*
X1109940Y466727D01*
X1111022Y464853D01*
X1112553Y463322D01*
X1114427Y462240D01*
X1116518Y461680D01*
X1118682D01*
X1120773Y462240D01*
X1122647Y463322D01*
X1124178Y464853D01*
X1125260Y466727D01*
X1125820Y468818D01*
Y470982D01*
X1125260Y473073D01*
X1124178Y474947D01*
X1122647Y476478D01*
X1120773Y477560D01*
X1118682Y478120D01*
D02*
G37*
G36*
X1093282D02*
X1091118D01*
X1089027Y477560D01*
X1087153Y476478D01*
X1085622Y474947D01*
X1084540Y473073D01*
X1083980Y470982D01*
Y468818D01*
X1084540Y466727D01*
X1085622Y464853D01*
X1087153Y463322D01*
X1089027Y462240D01*
X1091118Y461680D01*
X1093282D01*
X1095373Y462240D01*
X1097247Y463322D01*
X1098778Y464853D01*
X1099860Y466727D01*
X1100420Y468818D01*
Y470982D01*
X1099860Y473073D01*
X1098778Y474947D01*
X1097247Y476478D01*
X1095373Y477560D01*
X1093282Y478120D01*
D02*
G37*
G36*
X509082D02*
X506918D01*
X504827Y477560D01*
X502953Y476478D01*
X501422Y474947D01*
X500340Y473073D01*
X499780Y470982D01*
Y468818D01*
X500340Y466727D01*
X501422Y464853D01*
X502953Y463322D01*
X504827Y462240D01*
X506918Y461680D01*
X509082D01*
X511173Y462240D01*
X513047Y463322D01*
X514578Y464853D01*
X515660Y466727D01*
X516220Y468818D01*
Y470982D01*
X515660Y473073D01*
X514578Y474947D01*
X513047Y476478D01*
X511173Y477560D01*
X509082Y478120D01*
D02*
G37*
G36*
X483682D02*
X481518D01*
X479427Y477560D01*
X477553Y476478D01*
X476022Y474947D01*
X474940Y473073D01*
X474380Y470982D01*
Y468818D01*
X474940Y466727D01*
X476022Y464853D01*
X477553Y463322D01*
X479427Y462240D01*
X481518Y461680D01*
X483682D01*
X485773Y462240D01*
X487647Y463322D01*
X489178Y464853D01*
X490260Y466727D01*
X490820Y468818D01*
Y470982D01*
X490260Y473073D01*
X489178Y474947D01*
X487647Y476478D01*
X485773Y477560D01*
X483682Y478120D01*
D02*
G37*
G36*
X61317Y470240D02*
X60870D01*
Y458470D01*
X72640D01*
Y458917D01*
X71751Y462233D01*
X70035Y465207D01*
X67607Y467635D01*
X64633Y469351D01*
X61317Y470240D01*
D02*
G37*
G36*
X58330D02*
X57883D01*
X54567Y469351D01*
X51593Y467635D01*
X49166Y465207D01*
X47449Y462233D01*
X46560Y458917D01*
Y458470D01*
X58330D01*
Y470240D01*
D02*
G37*
G36*
X1542202Y485770D02*
X1538997D01*
X1535854Y485145D01*
X1532893Y483918D01*
X1530228Y482138D01*
X1527962Y479872D01*
X1526182Y477207D01*
X1524955Y474246D01*
X1524330Y471103D01*
Y467898D01*
X1524955Y464754D01*
X1526182Y461794D01*
X1527962Y459129D01*
X1530228Y456862D01*
X1532893Y455082D01*
X1535854Y453856D01*
X1538997Y453230D01*
X1542202D01*
X1545346Y453856D01*
X1548307Y455082D01*
X1550971Y456862D01*
X1553238Y459129D01*
X1555018Y461794D01*
X1556245Y464754D01*
X1556870Y467898D01*
Y471103D01*
X1556245Y474246D01*
X1555018Y477207D01*
X1553238Y479872D01*
X1550971Y482138D01*
X1548307Y483918D01*
X1545346Y485145D01*
X1542202Y485770D01*
D02*
G37*
G36*
X155370Y468970D02*
X131830D01*
Y445430D01*
X155370D01*
Y468970D01*
D02*
G37*
G36*
X103150D02*
X100050D01*
X97057Y468168D01*
X94373Y466618D01*
X92182Y464427D01*
X90632Y461743D01*
X89830Y458750D01*
Y455650D01*
X90632Y452657D01*
X92182Y449973D01*
X94373Y447782D01*
X97057Y446232D01*
X100050Y445430D01*
X103150D01*
X106143Y446232D01*
X108827Y447782D01*
X111018Y449973D01*
X112568Y452657D01*
X113370Y455650D01*
Y458750D01*
X112568Y461743D01*
X111018Y464427D01*
X108827Y466618D01*
X106143Y468168D01*
X103150Y468970D01*
D02*
G37*
G36*
X72640Y455930D02*
X60870D01*
Y444160D01*
X61317D01*
X64633Y445049D01*
X67607Y446765D01*
X70035Y449193D01*
X71751Y452167D01*
X72640Y455483D01*
Y455930D01*
D02*
G37*
G36*
X58330D02*
X46560D01*
Y455483D01*
X47449Y452167D01*
X49166Y449193D01*
X51593Y446765D01*
X54567Y445049D01*
X57883Y444160D01*
X58330D01*
Y455930D01*
D02*
G37*
G36*
X1281770Y460170D02*
X1258230D01*
Y436630D01*
X1281770D01*
Y460170D01*
D02*
G37*
G36*
X331799Y448345D02*
X328601D01*
X325512Y447517D01*
X322743Y445918D01*
X320482Y443657D01*
X318883Y440888D01*
X318055Y437799D01*
Y434601D01*
X318883Y431512D01*
X320482Y428743D01*
X322743Y426481D01*
X325512Y424883D01*
X328601Y424055D01*
X331799D01*
X334888Y424883D01*
X337657Y426481D01*
X339918Y428743D01*
X341517Y431512D01*
X342345Y434601D01*
Y437799D01*
X341517Y440888D01*
X339918Y443657D01*
X337657Y445918D01*
X334888Y447517D01*
X331799Y448345D01*
D02*
G37*
G36*
X1327103Y443670D02*
X1323898D01*
X1320754Y443045D01*
X1317793Y441819D01*
X1315128Y440038D01*
X1312862Y437772D01*
X1311082Y435107D01*
X1309855Y432146D01*
X1309230Y429003D01*
Y425798D01*
X1309855Y422654D01*
X1311082Y419693D01*
X1312862Y417029D01*
X1315128Y414762D01*
X1317793Y412982D01*
X1320754Y411755D01*
X1323898Y411130D01*
X1327103D01*
X1330246Y411755D01*
X1333207Y412982D01*
X1335871Y414762D01*
X1338138Y417029D01*
X1339918Y419693D01*
X1341145Y422654D01*
X1341770Y425798D01*
Y429003D01*
X1341145Y432146D01*
X1339918Y435107D01*
X1338138Y437772D01*
X1335871Y440038D01*
X1333207Y441819D01*
X1330246Y443045D01*
X1327103Y443670D01*
D02*
G37*
G36*
X276302Y431470D02*
X273097D01*
X269954Y430845D01*
X266993Y429618D01*
X264328Y427838D01*
X262062Y425572D01*
X260282Y422907D01*
X259055Y419946D01*
X258430Y416802D01*
Y413598D01*
X259055Y410454D01*
X260282Y407493D01*
X262062Y404829D01*
X264328Y402562D01*
X266993Y400782D01*
X269954Y399555D01*
X273097Y398930D01*
X276302D01*
X279446Y399555D01*
X282407Y400782D01*
X285072Y402562D01*
X287338Y404829D01*
X289118Y407493D01*
X290345Y410454D01*
X290970Y413598D01*
Y416802D01*
X290345Y419946D01*
X289118Y422907D01*
X287338Y425572D01*
X285072Y427838D01*
X282407Y429618D01*
X279446Y430845D01*
X276302Y431470D01*
D02*
G37*
G36*
X1271550Y418170D02*
X1268450D01*
X1265457Y417368D01*
X1262773Y415818D01*
X1260582Y413627D01*
X1259032Y410943D01*
X1258230Y407950D01*
Y404850D01*
X1259032Y401857D01*
X1260582Y399173D01*
X1262773Y396982D01*
X1265457Y395432D01*
X1268450Y394630D01*
X1271550D01*
X1274543Y395432D01*
X1277227Y396982D01*
X1279418Y399173D01*
X1280968Y401857D01*
X1281770Y404850D01*
Y407950D01*
X1280968Y410943D01*
X1279418Y413627D01*
X1277227Y415818D01*
X1274543Y417368D01*
X1271550Y418170D01*
D02*
G37*
G36*
X124203Y417970D02*
X120998D01*
X117854Y417345D01*
X114894Y416118D01*
X112229Y414338D01*
X109963Y412071D01*
X108182Y409407D01*
X106955Y406446D01*
X106330Y403302D01*
Y400098D01*
X106955Y396954D01*
X108182Y393993D01*
X109963Y391329D01*
X112229Y389062D01*
X114894Y387282D01*
X117854Y386055D01*
X120998Y385430D01*
X124203D01*
X127346Y386055D01*
X130307Y387282D01*
X132972Y389062D01*
X135238Y391329D01*
X137018Y393993D01*
X138245Y396954D01*
X138870Y400098D01*
Y403302D01*
X138245Y406446D01*
X137018Y409407D01*
X135238Y412071D01*
X132972Y414338D01*
X130307Y416118D01*
X127346Y417345D01*
X124203Y417970D01*
D02*
G37*
G36*
X1479202Y414670D02*
X1475997D01*
X1472854Y414045D01*
X1469893Y412818D01*
X1467228Y411038D01*
X1464962Y408772D01*
X1463181Y406107D01*
X1461955Y403146D01*
X1461330Y400003D01*
Y396798D01*
X1461955Y393654D01*
X1463181Y390693D01*
X1464962Y388028D01*
X1467228Y385762D01*
X1469893Y383982D01*
X1472854Y382755D01*
X1475997Y382130D01*
X1479202D01*
X1482346Y382755D01*
X1485307Y383982D01*
X1487971Y385762D01*
X1490237Y388028D01*
X1492018Y390693D01*
X1493244Y393654D01*
X1493870Y396798D01*
Y400003D01*
X1493244Y403146D01*
X1492018Y406107D01*
X1490237Y408772D01*
X1487971Y411038D01*
X1485307Y412818D01*
X1482346Y414045D01*
X1479202Y414670D01*
D02*
G37*
G36*
X331799Y406345D02*
X328601D01*
X325512Y405517D01*
X322743Y403918D01*
X320482Y401657D01*
X318883Y398888D01*
X318055Y395799D01*
Y392601D01*
X318883Y389512D01*
X320482Y386743D01*
X322743Y384482D01*
X325512Y382882D01*
X328601Y382055D01*
X331799D01*
X334888Y382882D01*
X337657Y384482D01*
X339918Y386743D01*
X341517Y389512D01*
X342345Y392601D01*
Y395799D01*
X341517Y398888D01*
X339918Y401657D01*
X337657Y403918D01*
X334888Y405517D01*
X331799Y406345D01*
D02*
G37*
G36*
X779259Y394970D02*
X777253D01*
X775315Y394451D01*
X773577Y393447D01*
X772159Y392029D01*
X771155Y390291D01*
X770636Y388353D01*
Y386347D01*
X771155Y384409D01*
X772159Y382671D01*
X773577Y381253D01*
X775315Y380249D01*
X777253Y379730D01*
X779259D01*
X781197Y380249D01*
X782935Y381253D01*
X784353Y382671D01*
X785357Y384409D01*
X785876Y386347D01*
Y388353D01*
X785357Y390291D01*
X784353Y392029D01*
X782935Y393447D01*
X781197Y394451D01*
X779259Y394970D01*
D02*
G37*
G36*
X1271717Y377440D02*
X1271270D01*
Y365670D01*
X1283040D01*
Y366117D01*
X1282151Y369433D01*
X1280435Y372407D01*
X1278007Y374835D01*
X1275033Y376551D01*
X1271717Y377440D01*
D02*
G37*
G36*
X1268730D02*
X1268283D01*
X1264967Y376551D01*
X1261993Y374835D01*
X1259565Y372407D01*
X1257849Y369433D01*
X1256960Y366117D01*
Y365670D01*
X1268730D01*
Y377440D01*
D02*
G37*
G36*
X1019543Y376682D02*
X1017537D01*
X1015599Y376163D01*
X1013861Y375159D01*
X1012442Y373741D01*
X1011439Y372003D01*
X1010920Y370065D01*
Y368059D01*
X1011439Y366121D01*
X1012442Y364383D01*
X1013861Y362965D01*
X1015599Y361961D01*
X1017537Y361442D01*
X1019543D01*
X1021481Y361961D01*
X1023219Y362965D01*
X1024638Y364383D01*
X1025641Y366121D01*
X1026160Y368059D01*
Y370065D01*
X1025641Y372003D01*
X1024638Y373741D01*
X1023219Y375159D01*
X1021481Y376163D01*
X1019543Y376682D01*
D02*
G37*
G36*
X1283040Y363130D02*
X1271270D01*
Y351360D01*
X1271717D01*
X1275033Y352249D01*
X1278007Y353965D01*
X1280435Y356393D01*
X1282151Y359367D01*
X1283040Y362683D01*
Y363130D01*
D02*
G37*
G36*
X1268730D02*
X1256960D01*
Y362683D01*
X1257849Y359367D01*
X1259565Y356393D01*
X1261993Y353965D01*
X1264967Y352249D01*
X1268283Y351360D01*
X1268730D01*
Y363130D01*
D02*
G37*
G36*
X1233103Y380670D02*
X1229898D01*
X1226754Y380045D01*
X1223793Y378818D01*
X1221129Y377038D01*
X1218863Y374772D01*
X1217082Y372107D01*
X1215855Y369146D01*
X1215230Y366003D01*
Y362798D01*
X1215855Y359654D01*
X1217082Y356693D01*
X1218863Y354029D01*
X1221129Y351762D01*
X1223793Y349982D01*
X1226754Y348755D01*
X1229898Y348130D01*
X1233103D01*
X1236246Y348755D01*
X1239207Y349982D01*
X1241872Y351762D01*
X1244138Y354029D01*
X1245919Y356693D01*
X1247145Y359654D01*
X1247770Y362798D01*
Y366003D01*
X1247145Y369146D01*
X1245919Y372107D01*
X1244138Y374772D01*
X1241872Y377038D01*
X1239207Y378818D01*
X1236246Y380045D01*
X1233103Y380670D01*
D02*
G37*
G36*
X1542317Y355940D02*
X1541870D01*
Y344170D01*
X1553640D01*
Y344617D01*
X1552751Y347933D01*
X1551035Y350907D01*
X1548607Y353335D01*
X1545633Y355051D01*
X1542317Y355940D01*
D02*
G37*
G36*
X1539330D02*
X1538883D01*
X1535567Y355051D01*
X1532593Y353335D01*
X1530165Y350907D01*
X1528449Y347933D01*
X1527560Y344617D01*
Y344170D01*
X1539330D01*
Y355940D01*
D02*
G37*
G36*
X1019543Y353060D02*
X1017537D01*
X1015599Y352541D01*
X1013861Y351538D01*
X1012442Y350119D01*
X1011439Y348381D01*
X1010920Y346443D01*
Y344437D01*
X1011439Y342499D01*
X1012442Y340761D01*
X1013861Y339342D01*
X1015599Y338339D01*
X1017537Y337820D01*
X1019543D01*
X1021481Y338339D01*
X1023219Y339342D01*
X1024638Y340761D01*
X1025641Y342499D01*
X1026160Y344437D01*
Y346443D01*
X1025641Y348381D01*
X1024638Y350119D01*
X1023219Y351538D01*
X1021481Y352541D01*
X1019543Y353060D01*
D02*
G37*
G36*
X745223D02*
X743217D01*
X741279Y352541D01*
X739541Y351538D01*
X738122Y350119D01*
X737119Y348381D01*
X736600Y346443D01*
Y344437D01*
X737119Y342499D01*
X738122Y340761D01*
X739541Y339342D01*
X741279Y338339D01*
X743217Y337820D01*
X745223D01*
X747161Y338339D01*
X748899Y339342D01*
X750318Y340761D01*
X751321Y342499D01*
X751840Y344437D01*
Y346443D01*
X751321Y348381D01*
X750318Y350119D01*
X748899Y351538D01*
X747161Y352541D01*
X745223Y353060D01*
D02*
G37*
G36*
X1500150Y354670D02*
X1497050D01*
X1494057Y353868D01*
X1491373Y352318D01*
X1489182Y350127D01*
X1487632Y347443D01*
X1486830Y344450D01*
Y341350D01*
X1487632Y338357D01*
X1489182Y335673D01*
X1491373Y333482D01*
X1494057Y331932D01*
X1497050Y331130D01*
X1500150D01*
X1503143Y331932D01*
X1505827Y333482D01*
X1508018Y335673D01*
X1509568Y338357D01*
X1510370Y341350D01*
Y344450D01*
X1509568Y347443D01*
X1508018Y350127D01*
X1505827Y352318D01*
X1503143Y353868D01*
X1500150Y354670D01*
D02*
G37*
G36*
X1468370D02*
X1444830D01*
Y331130D01*
X1468370D01*
Y354670D01*
D02*
G37*
G36*
X1553640Y341630D02*
X1541870D01*
Y329860D01*
X1542317D01*
X1545633Y330749D01*
X1548607Y332465D01*
X1551035Y334893D01*
X1552751Y337867D01*
X1553640Y341183D01*
Y341630D01*
D02*
G37*
G36*
X1539330D02*
X1527560D01*
Y341183D01*
X1528449Y337867D01*
X1530165Y334893D01*
X1532593Y332465D01*
X1535567Y330749D01*
X1538883Y329860D01*
X1539330D01*
Y341630D01*
D02*
G37*
G36*
X390131Y317500D02*
X388125D01*
X386187Y316981D01*
X384449Y315977D01*
X383031Y314559D01*
X382027Y312821D01*
X381508Y310883D01*
Y308877D01*
X382027Y306939D01*
X383031Y305201D01*
X384449Y303783D01*
X386187Y302779D01*
X388125Y302260D01*
X390131D01*
X392069Y302779D01*
X393807Y303783D01*
X395225Y305201D01*
X396229Y306939D01*
X396748Y308877D01*
Y310883D01*
X396229Y312821D01*
X395225Y314559D01*
X393807Y315977D01*
X392069Y316981D01*
X390131Y317500D01*
D02*
G37*
G36*
X61203Y334170D02*
X57998D01*
X54854Y333545D01*
X51893Y332318D01*
X49229Y330537D01*
X46962Y328271D01*
X45182Y325606D01*
X43955Y322646D01*
X43330Y319502D01*
Y316297D01*
X43955Y313154D01*
X45182Y310193D01*
X46962Y307528D01*
X49229Y305262D01*
X51893Y303482D01*
X54854Y302255D01*
X57998Y301630D01*
X61203D01*
X64346Y302255D01*
X67307Y303482D01*
X69972Y305262D01*
X72238Y307528D01*
X74018Y310193D01*
X75245Y313154D01*
X75870Y316297D01*
Y319502D01*
X75245Y322646D01*
X74018Y325606D01*
X72238Y328271D01*
X69972Y330537D01*
X67307Y332318D01*
X64346Y333545D01*
X61203Y334170D01*
D02*
G37*
G36*
X1542202Y320670D02*
X1538997D01*
X1535854Y320045D01*
X1532893Y318818D01*
X1530228Y317038D01*
X1527962Y314772D01*
X1526182Y312107D01*
X1524955Y309146D01*
X1524330Y306003D01*
Y302798D01*
X1524955Y299654D01*
X1526182Y296693D01*
X1527962Y294029D01*
X1530228Y291763D01*
X1532893Y289982D01*
X1535854Y288755D01*
X1538997Y288130D01*
X1542202D01*
X1545346Y288755D01*
X1548307Y289982D01*
X1550971Y291763D01*
X1553238Y294029D01*
X1555018Y296693D01*
X1556245Y299654D01*
X1556870Y302798D01*
Y306003D01*
X1556245Y309146D01*
X1555018Y312107D01*
X1553238Y314772D01*
X1550971Y317038D01*
X1548307Y318818D01*
X1545346Y320045D01*
X1542202Y320670D01*
D02*
G37*
G36*
X706120Y288263D02*
Y280670D01*
X713713D01*
X713134Y282831D01*
X711964Y284859D01*
X710309Y286514D01*
X708281Y287684D01*
X706120Y288263D01*
D02*
G37*
G36*
X703580D02*
X701419Y287684D01*
X699391Y286514D01*
X697736Y284859D01*
X696566Y282831D01*
X695987Y280670D01*
X703580D01*
Y288263D01*
D02*
G37*
G36*
X61317Y292440D02*
X60870D01*
Y280670D01*
X72640D01*
Y281117D01*
X71751Y284433D01*
X70035Y287407D01*
X67607Y289835D01*
X64633Y291551D01*
X61317Y292440D01*
D02*
G37*
G36*
X58330D02*
X57883D01*
X54567Y291551D01*
X51593Y289835D01*
X49166Y287407D01*
X47449Y284433D01*
X46560Y281117D01*
Y280670D01*
X58330D01*
Y292440D01*
D02*
G37*
G36*
X318770Y281913D02*
Y274320D01*
X326363D01*
X325784Y276481D01*
X324614Y278509D01*
X322959Y280164D01*
X320931Y281334D01*
X318770Y281913D01*
D02*
G37*
G36*
X316230D02*
X314069Y281334D01*
X312041Y280164D01*
X310386Y278509D01*
X309216Y276481D01*
X308637Y274320D01*
X316230D01*
Y281913D01*
D02*
G37*
G36*
X713713Y278130D02*
X706120D01*
Y270537D01*
X708281Y271116D01*
X710309Y272286D01*
X711964Y273941D01*
X713134Y275969D01*
X713713Y278130D01*
D02*
G37*
G36*
X703580D02*
X695987D01*
X696566Y275969D01*
X697736Y273941D01*
X699391Y272286D01*
X701419Y271116D01*
X703580Y270537D01*
Y278130D01*
D02*
G37*
G36*
X155370Y291170D02*
X131830D01*
Y267630D01*
X155370D01*
Y291170D01*
D02*
G37*
G36*
X103150D02*
X100050D01*
X97057Y290368D01*
X94373Y288818D01*
X92182Y286627D01*
X90632Y283943D01*
X89830Y280950D01*
Y277850D01*
X90632Y274857D01*
X92182Y272173D01*
X94373Y269982D01*
X97057Y268432D01*
X100050Y267630D01*
X103150D01*
X106143Y268432D01*
X108827Y269982D01*
X111018Y272173D01*
X112568Y274857D01*
X113370Y277850D01*
Y280950D01*
X112568Y283943D01*
X111018Y286627D01*
X108827Y288818D01*
X106143Y290368D01*
X103150Y291170D01*
D02*
G37*
G36*
X72640Y278130D02*
X60870D01*
Y266360D01*
X61317D01*
X64633Y267249D01*
X67607Y268965D01*
X70035Y271393D01*
X71751Y274367D01*
X72640Y277683D01*
Y278130D01*
D02*
G37*
G36*
X58330D02*
X46560D01*
Y277683D01*
X47449Y274367D01*
X49166Y271393D01*
X51593Y268965D01*
X54567Y267249D01*
X57883Y266360D01*
X58330D01*
Y278130D01*
D02*
G37*
G36*
X326363Y271780D02*
X318770D01*
Y264187D01*
X320931Y264766D01*
X322959Y265936D01*
X324614Y267591D01*
X325784Y269619D01*
X326363Y271780D01*
D02*
G37*
G36*
X316230D02*
X308637D01*
X309216Y269619D01*
X310386Y267591D01*
X312041Y265936D01*
X314069Y264766D01*
X316230Y264187D01*
Y271780D01*
D02*
G37*
G36*
X1140950Y267943D02*
Y260350D01*
X1148543D01*
X1147964Y262511D01*
X1146794Y264539D01*
X1145139Y266194D01*
X1143112Y267364D01*
X1140950Y267943D01*
D02*
G37*
G36*
X1138410D02*
X1136249Y267364D01*
X1134222Y266194D01*
X1132566Y264539D01*
X1131396Y262511D01*
X1130817Y260350D01*
X1138410D01*
Y267943D01*
D02*
G37*
G36*
X1148543Y257810D02*
X1140950D01*
Y250217D01*
X1143112Y250796D01*
X1145139Y251966D01*
X1146794Y253621D01*
X1147964Y255649D01*
X1148543Y257810D01*
D02*
G37*
G36*
X1138410D02*
X1130817D01*
X1131396Y255649D01*
X1132566Y253621D01*
X1134222Y251966D01*
X1136249Y250796D01*
X1138410Y250217D01*
Y257810D01*
D02*
G37*
G36*
X705853Y261620D02*
X703847D01*
X701909Y261101D01*
X700171Y260098D01*
X698753Y258679D01*
X697749Y256941D01*
X697230Y255003D01*
Y252997D01*
X697749Y251059D01*
X698753Y249321D01*
X700171Y247903D01*
X701909Y246899D01*
X703847Y246380D01*
X705853D01*
X707791Y246899D01*
X709529Y247903D01*
X710947Y249321D01*
X711951Y251059D01*
X712470Y252997D01*
Y255003D01*
X711951Y256941D01*
X710947Y258679D01*
X709529Y260098D01*
X707791Y261101D01*
X705853Y261620D01*
D02*
G37*
G36*
X318503Y255270D02*
X316497D01*
X314559Y254751D01*
X312821Y253748D01*
X311402Y252329D01*
X310399Y250591D01*
X309880Y248653D01*
Y246647D01*
X310399Y244709D01*
X311402Y242971D01*
X312821Y241553D01*
X314559Y240549D01*
X316497Y240030D01*
X318503D01*
X320441Y240549D01*
X322179Y241553D01*
X323597Y242971D01*
X324601Y244709D01*
X325120Y246647D01*
Y248653D01*
X324601Y250591D01*
X323597Y252329D01*
X322179Y253748D01*
X320441Y254751D01*
X318503Y255270D01*
D02*
G37*
G36*
X124203Y240170D02*
X120998D01*
X117854Y239545D01*
X114894Y238318D01*
X112229Y236538D01*
X109963Y234272D01*
X108182Y231607D01*
X106955Y228646D01*
X106330Y225502D01*
Y222297D01*
X106955Y219154D01*
X108182Y216193D01*
X109963Y213528D01*
X112229Y211262D01*
X114894Y209482D01*
X117854Y208255D01*
X120998Y207630D01*
X124203D01*
X127346Y208255D01*
X130307Y209482D01*
X132972Y211262D01*
X135238Y213528D01*
X137018Y216193D01*
X138245Y219154D01*
X138870Y222297D01*
Y225502D01*
X138245Y228646D01*
X137018Y231607D01*
X135238Y234272D01*
X132972Y236538D01*
X130307Y238318D01*
X127346Y239545D01*
X124203Y240170D01*
D02*
G37*
G36*
X667240Y203403D02*
Y195810D01*
X674834D01*
X674254Y197971D01*
X673084Y199999D01*
X671429Y201654D01*
X669402Y202824D01*
X667240Y203403D01*
D02*
G37*
G36*
X664700D02*
X662539Y202824D01*
X660512Y201654D01*
X658856Y199999D01*
X657686Y197971D01*
X657107Y195810D01*
X664700D01*
Y203403D01*
D02*
G37*
G36*
X275590Y199363D02*
Y191770D01*
X283183D01*
X282604Y193931D01*
X281434Y195959D01*
X279779Y197614D01*
X277751Y198784D01*
X275590Y199363D01*
D02*
G37*
G36*
X273050D02*
X270889Y198784D01*
X268861Y197614D01*
X267206Y195959D01*
X266036Y193931D01*
X265457Y191770D01*
X273050D01*
Y199363D01*
D02*
G37*
G36*
X855200Y196799D02*
Y189206D01*
X862794D01*
X862214Y191367D01*
X861044Y193395D01*
X859389Y195050D01*
X857362Y196220D01*
X855200Y196799D01*
D02*
G37*
G36*
X852660D02*
X850499Y196220D01*
X848472Y195050D01*
X846816Y193395D01*
X845646Y191367D01*
X845067Y189206D01*
X852660D01*
Y196799D01*
D02*
G37*
G36*
X1262870Y194283D02*
Y186690D01*
X1270463D01*
X1269884Y188851D01*
X1268714Y190879D01*
X1267059Y192534D01*
X1265032Y193704D01*
X1262870Y194283D01*
D02*
G37*
G36*
X1260330D02*
X1258169Y193704D01*
X1256142Y192534D01*
X1254486Y190879D01*
X1253316Y188851D01*
X1252737Y186690D01*
X1260330D01*
Y194283D01*
D02*
G37*
G36*
X674834Y193270D02*
X667240D01*
Y185677D01*
X669402Y186256D01*
X671429Y187426D01*
X673084Y189081D01*
X674254Y191109D01*
X674834Y193270D01*
D02*
G37*
G36*
X664700D02*
X657107D01*
X657686Y191109D01*
X658856Y189081D01*
X660512Y187426D01*
X662539Y186256D01*
X664700Y185677D01*
Y193270D01*
D02*
G37*
G36*
X463042Y192759D02*
Y185166D01*
X470635D01*
X470056Y187327D01*
X468886Y189355D01*
X467231Y191010D01*
X465203Y192180D01*
X463042Y192759D01*
D02*
G37*
G36*
X460502D02*
X458341Y192180D01*
X456313Y191010D01*
X454658Y189355D01*
X453488Y187327D01*
X452909Y185166D01*
X460502D01*
Y192759D01*
D02*
G37*
G36*
X283183Y189230D02*
X275590D01*
Y181637D01*
X277751Y182216D01*
X279779Y183386D01*
X281434Y185041D01*
X282604Y187069D01*
X283183Y189230D01*
D02*
G37*
G36*
X273050D02*
X265457D01*
X266036Y187069D01*
X267206Y185041D01*
X268861Y183386D01*
X270889Y182216D01*
X273050Y181637D01*
Y189230D01*
D02*
G37*
G36*
X862794Y186666D02*
X855200D01*
Y179073D01*
X857362Y179652D01*
X859389Y180822D01*
X861044Y182477D01*
X862214Y184505D01*
X862794Y186666D01*
D02*
G37*
G36*
X852660D02*
X845067D01*
X845646Y184505D01*
X846816Y182477D01*
X848472Y180822D01*
X850499Y179652D01*
X852660Y179073D01*
Y186666D01*
D02*
G37*
G36*
X1270463Y184150D02*
X1262870D01*
Y176557D01*
X1265032Y177136D01*
X1267059Y178306D01*
X1268714Y179961D01*
X1269884Y181989D01*
X1270463Y184150D01*
D02*
G37*
G36*
X1260330D02*
X1252737D01*
X1253316Y181989D01*
X1254486Y179961D01*
X1256142Y178306D01*
X1258169Y177136D01*
X1260330Y176557D01*
Y184150D01*
D02*
G37*
G36*
X470635Y182626D02*
X463042D01*
Y175033D01*
X465203Y175612D01*
X467231Y176782D01*
X468886Y178437D01*
X470056Y180465D01*
X470635Y182626D01*
D02*
G37*
G36*
X460502D02*
X452909D01*
X453488Y180465D01*
X454658Y178437D01*
X456313Y176782D01*
X458341Y175612D01*
X460502Y175033D01*
Y182626D01*
D02*
G37*
G36*
X686803Y172720D02*
X684797D01*
X682859Y172201D01*
X681121Y171197D01*
X679703Y169779D01*
X678699Y168041D01*
X678180Y166103D01*
Y164097D01*
X678699Y162159D01*
X679703Y160421D01*
X681121Y159003D01*
X682859Y157999D01*
X684797Y157480D01*
X686803D01*
X688741Y157999D01*
X690479Y159003D01*
X691898Y160421D01*
X692901Y162159D01*
X693420Y164097D01*
Y166103D01*
X692901Y168041D01*
X691898Y169779D01*
X690479Y171197D01*
X688741Y172201D01*
X686803Y172720D01*
D02*
G37*
G36*
X293103Y166370D02*
X291097D01*
X289159Y165851D01*
X287421Y164848D01*
X286003Y163429D01*
X284999Y161691D01*
X284480Y159753D01*
Y157747D01*
X284999Y155809D01*
X286003Y154071D01*
X287421Y152653D01*
X289159Y151649D01*
X291097Y151130D01*
X293103D01*
X295041Y151649D01*
X296779Y152653D01*
X298197Y154071D01*
X299201Y155809D01*
X299720Y157747D01*
Y159753D01*
X299201Y161691D01*
X298197Y163429D01*
X296779Y164848D01*
X295041Y165851D01*
X293103Y166370D01*
D02*
G37*
G36*
X1232390Y151103D02*
Y143510D01*
X1239984D01*
X1239404Y145671D01*
X1238234Y147699D01*
X1236579Y149354D01*
X1234552Y150524D01*
X1232390Y151103D01*
D02*
G37*
G36*
X1229850D02*
X1227689Y150524D01*
X1225662Y149354D01*
X1224006Y147699D01*
X1222836Y145671D01*
X1222257Y143510D01*
X1229850D01*
Y151103D01*
D02*
G37*
G36*
X320789Y157226D02*
X318783D01*
X316845Y156707D01*
X315107Y155703D01*
X313689Y154285D01*
X312685Y152547D01*
X312166Y150609D01*
Y148603D01*
X312685Y146665D01*
X313689Y144927D01*
X315107Y143509D01*
X316845Y142505D01*
X318783Y141986D01*
X320789D01*
X322727Y142505D01*
X324465Y143509D01*
X325883Y144927D01*
X326887Y146665D01*
X327406Y148603D01*
Y150609D01*
X326887Y152547D01*
X325883Y154285D01*
X324465Y155703D01*
X322727Y156707D01*
X320789Y157226D01*
D02*
G37*
G36*
X1239984Y140970D02*
X1232390D01*
Y133377D01*
X1234552Y133956D01*
X1236579Y135126D01*
X1238234Y136781D01*
X1239404Y138809D01*
X1239984Y140970D01*
D02*
G37*
G36*
X1229850D02*
X1222257D01*
X1222836Y138809D01*
X1224006Y136781D01*
X1225662Y135126D01*
X1227689Y133956D01*
X1229850Y133377D01*
Y140970D01*
D02*
G37*
G36*
X1137677Y125880D02*
X1137620D01*
Y117070D01*
X1146430D01*
Y117127D01*
X1145743Y119691D01*
X1144416Y121989D01*
X1142540Y123866D01*
X1140241Y125193D01*
X1137677Y125880D01*
D02*
G37*
G36*
X1135080D02*
X1135023D01*
X1132460Y125193D01*
X1130161Y123866D01*
X1128284Y121989D01*
X1126957Y119691D01*
X1126270Y117127D01*
Y117070D01*
X1135080D01*
Y125880D01*
D02*
G37*
G36*
X1255960Y124610D02*
X1238340D01*
Y106990D01*
X1255960D01*
Y124610D01*
D02*
G37*
G36*
X1220610D02*
X1218291D01*
X1216050Y124010D01*
X1214041Y122850D01*
X1212401Y121210D01*
X1211241Y119201D01*
X1210640Y116960D01*
Y114640D01*
X1211241Y112400D01*
X1212401Y110391D01*
X1214041Y108750D01*
X1216050Y107591D01*
X1218291Y106990D01*
X1220610D01*
X1222851Y107591D01*
X1224860Y108750D01*
X1226500Y110391D01*
X1227660Y112400D01*
X1228260Y114640D01*
Y116960D01*
X1227660Y119201D01*
X1226500Y121210D01*
X1224860Y122850D01*
X1222851Y124010D01*
X1220610Y124610D01*
D02*
G37*
G36*
X1192910D02*
X1190590D01*
X1188350Y124010D01*
X1186341Y122850D01*
X1184700Y121210D01*
X1183541Y119201D01*
X1182940Y116960D01*
Y114640D01*
X1183541Y112400D01*
X1184700Y110391D01*
X1186341Y108750D01*
X1188350Y107591D01*
X1190590Y106990D01*
X1192910D01*
X1195151Y107591D01*
X1197160Y108750D01*
X1198800Y110391D01*
X1199960Y112400D01*
X1200560Y114640D01*
Y116960D01*
X1199960Y119201D01*
X1198800Y121210D01*
X1197160Y122850D01*
X1195151Y124010D01*
X1192910Y124610D01*
D02*
G37*
G36*
X1165210D02*
X1162890D01*
X1160649Y124010D01*
X1158641Y122850D01*
X1157000Y121210D01*
X1155840Y119201D01*
X1155240Y116960D01*
Y114640D01*
X1155840Y112400D01*
X1157000Y110391D01*
X1158641Y108750D01*
X1160649Y107591D01*
X1162890Y106990D01*
X1165210D01*
X1167450Y107591D01*
X1169460Y108750D01*
X1171100Y110391D01*
X1172260Y112400D01*
X1172860Y114640D01*
Y116960D01*
X1172260Y119201D01*
X1171100Y121210D01*
X1169460Y122850D01*
X1167450Y124010D01*
X1165210Y124610D01*
D02*
G37*
G36*
X862260D02*
X844640D01*
Y106990D01*
X862260D01*
Y124610D01*
D02*
G37*
G36*
X826910D02*
X824591D01*
X822350Y124010D01*
X820341Y122850D01*
X818701Y121210D01*
X817541Y119201D01*
X816941Y116960D01*
Y114640D01*
X817541Y112400D01*
X818701Y110391D01*
X820341Y108750D01*
X822350Y107591D01*
X824591Y106990D01*
X826910D01*
X829151Y107591D01*
X831160Y108750D01*
X832800Y110391D01*
X833960Y112400D01*
X834560Y114640D01*
Y116960D01*
X833960Y119201D01*
X832800Y121210D01*
X831160Y122850D01*
X829151Y124010D01*
X826910Y124610D01*
D02*
G37*
G36*
X799210D02*
X796890D01*
X794650Y124010D01*
X792641Y122850D01*
X791001Y121210D01*
X789841Y119201D01*
X789240Y116960D01*
Y114640D01*
X789841Y112400D01*
X791001Y110391D01*
X792641Y108750D01*
X794650Y107591D01*
X796890Y106990D01*
X799210D01*
X801451Y107591D01*
X803460Y108750D01*
X805100Y110391D01*
X806260Y112400D01*
X806860Y114640D01*
Y116960D01*
X806260Y119201D01*
X805100Y121210D01*
X803460Y122850D01*
X801451Y124010D01*
X799210Y124610D01*
D02*
G37*
G36*
X771510D02*
X769190D01*
X766949Y124010D01*
X764940Y122850D01*
X763300Y121210D01*
X762140Y119201D01*
X761540Y116960D01*
Y114640D01*
X762140Y112400D01*
X763300Y110391D01*
X764940Y108750D01*
X766949Y107591D01*
X769190Y106990D01*
X771510D01*
X773751Y107591D01*
X775760Y108750D01*
X777400Y110391D01*
X778560Y112400D01*
X779160Y114640D01*
Y116960D01*
X778560Y119201D01*
X777400Y121210D01*
X775760Y122850D01*
X773751Y124010D01*
X771510Y124610D01*
D02*
G37*
G36*
X743810D02*
X741490D01*
X739250Y124010D01*
X737241Y122850D01*
X735601Y121210D01*
X734441Y119201D01*
X733840Y116960D01*
Y114640D01*
X734441Y112400D01*
X735601Y110391D01*
X737241Y108750D01*
X739250Y107591D01*
X741490Y106990D01*
X743810D01*
X746051Y107591D01*
X748060Y108750D01*
X749700Y110391D01*
X750860Y112400D01*
X751460Y114640D01*
Y116960D01*
X750860Y119201D01*
X749700Y121210D01*
X748060Y122850D01*
X746051Y124010D01*
X743810Y124610D01*
D02*
G37*
G36*
X472660D02*
X455040D01*
Y106990D01*
X472660D01*
Y124610D01*
D02*
G37*
G36*
X437310D02*
X434990D01*
X432749Y124010D01*
X430741Y122850D01*
X429100Y121210D01*
X427940Y119201D01*
X427340Y116960D01*
Y114640D01*
X427940Y112400D01*
X429100Y110391D01*
X430741Y108750D01*
X432749Y107591D01*
X434990Y106990D01*
X437310D01*
X439551Y107591D01*
X441559Y108750D01*
X443200Y110391D01*
X444360Y112400D01*
X444960Y114640D01*
Y116960D01*
X444360Y119201D01*
X443200Y121210D01*
X441559Y122850D01*
X439551Y124010D01*
X437310Y124610D01*
D02*
G37*
G36*
X409610D02*
X407290D01*
X405050Y124010D01*
X403041Y122850D01*
X401400Y121210D01*
X400241Y119201D01*
X399640Y116960D01*
Y114640D01*
X400241Y112400D01*
X401400Y110391D01*
X403041Y108750D01*
X405050Y107591D01*
X407290Y106990D01*
X409610D01*
X411851Y107591D01*
X413860Y108750D01*
X415500Y110391D01*
X416660Y112400D01*
X417260Y114640D01*
Y116960D01*
X416660Y119201D01*
X415500Y121210D01*
X413860Y122850D01*
X411851Y124010D01*
X409610Y124610D01*
D02*
G37*
G36*
X381910D02*
X379590D01*
X377350Y124010D01*
X375341Y122850D01*
X373700Y121210D01*
X372541Y119201D01*
X371940Y116960D01*
Y114640D01*
X372541Y112400D01*
X373700Y110391D01*
X375341Y108750D01*
X377350Y107591D01*
X379590Y106990D01*
X381910D01*
X384151Y107591D01*
X386160Y108750D01*
X387800Y110391D01*
X388960Y112400D01*
X389560Y114640D01*
Y116960D01*
X388960Y119201D01*
X387800Y121210D01*
X386160Y122850D01*
X384151Y124010D01*
X381910Y124610D01*
D02*
G37*
G36*
X354210D02*
X351890D01*
X349650Y124010D01*
X347641Y122850D01*
X346001Y121210D01*
X344841Y119201D01*
X344240Y116960D01*
Y114640D01*
X344841Y112400D01*
X346001Y110391D01*
X347641Y108750D01*
X349650Y107591D01*
X351890Y106990D01*
X354210D01*
X356451Y107591D01*
X358460Y108750D01*
X360100Y110391D01*
X361260Y112400D01*
X361860Y114640D01*
Y116960D01*
X361260Y119201D01*
X360100Y121210D01*
X358460Y122850D01*
X356451Y124010D01*
X354210Y124610D01*
D02*
G37*
G36*
X1146430Y114530D02*
X1137620D01*
Y105720D01*
X1137677D01*
X1140241Y106407D01*
X1142540Y107734D01*
X1144416Y109611D01*
X1145743Y111909D01*
X1146430Y114473D01*
Y114530D01*
D02*
G37*
G36*
X1135080D02*
X1126270D01*
Y114473D01*
X1126957Y111909D01*
X1128284Y109611D01*
X1130161Y107734D01*
X1132460Y106407D01*
X1135023Y105720D01*
X1135080D01*
Y114530D01*
D02*
G37*
G36*
X1502044Y154140D02*
X1499870D01*
Y102870D01*
X1551140D01*
Y105044D01*
X1550241Y111872D01*
X1548458Y118525D01*
X1545823Y124888D01*
X1542379Y130852D01*
X1538186Y136316D01*
X1533316Y141186D01*
X1527852Y145379D01*
X1521888Y148823D01*
X1515525Y151458D01*
X1508872Y153241D01*
X1502044Y154140D01*
D02*
G37*
G36*
X1497330D02*
X1495156D01*
X1488328Y153241D01*
X1481675Y151458D01*
X1475312Y148823D01*
X1469348Y145379D01*
X1463884Y141186D01*
X1459014Y136316D01*
X1454821Y130852D01*
X1451377Y124888D01*
X1448742Y118525D01*
X1446959Y111872D01*
X1446060Y105044D01*
Y102870D01*
X1497330D01*
Y154140D01*
D02*
G37*
G36*
X1318953Y124470D02*
X1317970D01*
Y102870D01*
X1339570D01*
Y103853D01*
X1338692Y108271D01*
X1336968Y112433D01*
X1334465Y116179D01*
X1331279Y119364D01*
X1327533Y121867D01*
X1323371Y123591D01*
X1318953Y124470D01*
D02*
G37*
G36*
X1315430D02*
X1314448D01*
X1310029Y123591D01*
X1305867Y121867D01*
X1302122Y119364D01*
X1298936Y116179D01*
X1296433Y112433D01*
X1294709Y108271D01*
X1293831Y103853D01*
Y102870D01*
X1315430D01*
Y124470D01*
D02*
G37*
G36*
X1069053D02*
X1068070D01*
Y102870D01*
X1089670D01*
Y103853D01*
X1088791Y108271D01*
X1087067Y112433D01*
X1084564Y116179D01*
X1081379Y119364D01*
X1077633Y121867D01*
X1073471Y123591D01*
X1069053Y124470D01*
D02*
G37*
G36*
X1065530D02*
X1064548D01*
X1060129Y123591D01*
X1055967Y121867D01*
X1052221Y119364D01*
X1049036Y116179D01*
X1046533Y112433D01*
X1044809Y108271D01*
X1043930Y103853D01*
Y102870D01*
X1065530D01*
Y124470D01*
D02*
G37*
G36*
X925253D02*
X924270D01*
Y102870D01*
X945870D01*
Y103853D01*
X944992Y108271D01*
X943268Y112433D01*
X940765Y116179D01*
X937579Y119364D01*
X933833Y121867D01*
X929671Y123591D01*
X925253Y124470D01*
D02*
G37*
G36*
X921730D02*
X920748D01*
X916329Y123591D01*
X912167Y121867D01*
X908422Y119364D01*
X905236Y116179D01*
X902733Y112433D01*
X901009Y108271D01*
X900130Y103853D01*
Y102870D01*
X921730D01*
Y124470D01*
D02*
G37*
G36*
X675352D02*
X674370D01*
Y102870D01*
X695970D01*
Y103853D01*
X695091Y108271D01*
X693367Y112433D01*
X690864Y116179D01*
X687679Y119364D01*
X683933Y121867D01*
X679771Y123591D01*
X675352Y124470D01*
D02*
G37*
G36*
X671830D02*
X670847D01*
X666429Y123591D01*
X662267Y121867D01*
X658521Y119364D01*
X655336Y116179D01*
X652833Y112433D01*
X651109Y108271D01*
X650230Y103853D01*
Y102870D01*
X671830D01*
Y124470D01*
D02*
G37*
G36*
X535653D02*
X534670D01*
Y102870D01*
X556270D01*
Y103853D01*
X555391Y108271D01*
X553667Y112433D01*
X551164Y116179D01*
X547979Y119364D01*
X544233Y121867D01*
X540071Y123591D01*
X535653Y124470D01*
D02*
G37*
G36*
X532130D02*
X531147D01*
X526729Y123591D01*
X522567Y121867D01*
X518821Y119364D01*
X515636Y116179D01*
X513133Y112433D01*
X511409Y108271D01*
X510530Y103853D01*
Y102870D01*
X532130D01*
Y124470D01*
D02*
G37*
G36*
X285753D02*
X284770D01*
Y102870D01*
X306370D01*
Y103853D01*
X305491Y108271D01*
X303767Y112433D01*
X301264Y116179D01*
X298079Y119364D01*
X294333Y121867D01*
X290171Y123591D01*
X285753Y124470D01*
D02*
G37*
G36*
X282230D02*
X281248D01*
X276829Y123591D01*
X272667Y121867D01*
X268921Y119364D01*
X265736Y116179D01*
X263233Y112433D01*
X261509Y108271D01*
X260630Y103853D01*
Y102870D01*
X282230D01*
Y124470D01*
D02*
G37*
G36*
X105044Y154140D02*
X102870D01*
Y102870D01*
X154140D01*
Y105044D01*
X153241Y111872D01*
X151458Y118525D01*
X148823Y124888D01*
X145379Y130852D01*
X141186Y136316D01*
X136316Y141186D01*
X130852Y145379D01*
X124888Y148823D01*
X118525Y151458D01*
X111872Y153241D01*
X105044Y154140D01*
D02*
G37*
G36*
X100330D02*
X98156D01*
X91328Y153241D01*
X84675Y151458D01*
X78312Y148823D01*
X72348Y145379D01*
X66884Y141186D01*
X62014Y136316D01*
X57821Y130852D01*
X54377Y124888D01*
X51742Y118525D01*
X49959Y111872D01*
X49060Y105044D01*
Y102870D01*
X100330D01*
Y154140D01*
D02*
G37*
G36*
X1339570Y100330D02*
X1317970D01*
Y78730D01*
X1318953D01*
X1323371Y79609D01*
X1327533Y81333D01*
X1331279Y83836D01*
X1334465Y87021D01*
X1336968Y90767D01*
X1338692Y94929D01*
X1339570Y99347D01*
Y100330D01*
D02*
G37*
G36*
X1315430D02*
X1293831D01*
Y99347D01*
X1294709Y94929D01*
X1296433Y90767D01*
X1298936Y87021D01*
X1302122Y83836D01*
X1305867Y81333D01*
X1310029Y79609D01*
X1314448Y78730D01*
X1315430D01*
Y100330D01*
D02*
G37*
G36*
X1089670D02*
X1068070D01*
Y78730D01*
X1069053D01*
X1073471Y79609D01*
X1077633Y81333D01*
X1081379Y83836D01*
X1084564Y87021D01*
X1087067Y90767D01*
X1088791Y94929D01*
X1089670Y99347D01*
Y100330D01*
D02*
G37*
G36*
X1065530D02*
X1043930D01*
Y99347D01*
X1044809Y94929D01*
X1046533Y90767D01*
X1049036Y87021D01*
X1052221Y83836D01*
X1055967Y81333D01*
X1060129Y79609D01*
X1064548Y78730D01*
X1065530D01*
Y100330D01*
D02*
G37*
G36*
X945870D02*
X924270D01*
Y78730D01*
X925253D01*
X929671Y79609D01*
X933833Y81333D01*
X937579Y83836D01*
X940765Y87021D01*
X943268Y90767D01*
X944992Y94929D01*
X945870Y99347D01*
Y100330D01*
D02*
G37*
G36*
X921730D02*
X900130D01*
Y99347D01*
X901009Y94929D01*
X902733Y90767D01*
X905236Y87021D01*
X908422Y83836D01*
X912167Y81333D01*
X916329Y79609D01*
X920748Y78730D01*
X921730D01*
Y100330D01*
D02*
G37*
G36*
X695970D02*
X674370D01*
Y78730D01*
X675352D01*
X679771Y79609D01*
X683933Y81333D01*
X687679Y83836D01*
X690864Y87021D01*
X693367Y90767D01*
X695091Y94929D01*
X695970Y99347D01*
Y100330D01*
D02*
G37*
G36*
X671830D02*
X650230D01*
Y99347D01*
X651109Y94929D01*
X652833Y90767D01*
X655336Y87021D01*
X658521Y83836D01*
X662267Y81333D01*
X666429Y79609D01*
X670847Y78730D01*
X671830D01*
Y100330D01*
D02*
G37*
G36*
X556270D02*
X534670D01*
Y78730D01*
X535653D01*
X540071Y79609D01*
X544233Y81333D01*
X547979Y83836D01*
X551164Y87021D01*
X553667Y90767D01*
X555391Y94929D01*
X556270Y99347D01*
Y100330D01*
D02*
G37*
G36*
X532130D02*
X510530D01*
Y99347D01*
X511409Y94929D01*
X513133Y90767D01*
X515636Y87021D01*
X518821Y83836D01*
X522567Y81333D01*
X526729Y79609D01*
X531147Y78730D01*
X532130D01*
Y100330D01*
D02*
G37*
G36*
X306370D02*
X284770D01*
Y78730D01*
X285753D01*
X290171Y79609D01*
X294333Y81333D01*
X298079Y83836D01*
X301264Y87021D01*
X303767Y90767D01*
X305491Y94929D01*
X306370Y99347D01*
Y100330D01*
D02*
G37*
G36*
X282230D02*
X260630D01*
Y99347D01*
X261509Y94929D01*
X263233Y90767D01*
X265736Y87021D01*
X268921Y83836D01*
X272667Y81333D01*
X276829Y79609D01*
X281248Y78730D01*
X282230D01*
Y100330D01*
D02*
G37*
G36*
X840760Y96210D02*
X838440D01*
X836199Y95610D01*
X834191Y94450D01*
X832550Y92810D01*
X831390Y90801D01*
X830790Y88560D01*
Y86241D01*
X831390Y84000D01*
X832550Y81991D01*
X834191Y80351D01*
X836199Y79191D01*
X838440Y78590D01*
X840760D01*
X843001Y79191D01*
X845010Y80351D01*
X846650Y81991D01*
X847810Y84000D01*
X848410Y86241D01*
Y88560D01*
X847810Y90801D01*
X846650Y92810D01*
X845010Y94450D01*
X843001Y95610D01*
X840760Y96210D01*
D02*
G37*
G36*
X813060D02*
X810741D01*
X808500Y95610D01*
X806491Y94450D01*
X804851Y92810D01*
X803691Y90801D01*
X803090Y88560D01*
Y86241D01*
X803691Y84000D01*
X804851Y81991D01*
X806491Y80351D01*
X808500Y79191D01*
X810741Y78590D01*
X813060D01*
X815301Y79191D01*
X817310Y80351D01*
X818950Y81991D01*
X820110Y84000D01*
X820710Y86241D01*
Y88560D01*
X820110Y90801D01*
X818950Y92810D01*
X817310Y94450D01*
X815301Y95610D01*
X813060Y96210D01*
D02*
G37*
G36*
X785360D02*
X783040D01*
X780800Y95610D01*
X778791Y94450D01*
X777150Y92810D01*
X775991Y90801D01*
X775390Y88560D01*
Y86241D01*
X775991Y84000D01*
X777150Y81991D01*
X778791Y80351D01*
X780800Y79191D01*
X783040Y78590D01*
X785360D01*
X787601Y79191D01*
X789610Y80351D01*
X791250Y81991D01*
X792410Y84000D01*
X793010Y86241D01*
Y88560D01*
X792410Y90801D01*
X791250Y92810D01*
X789610Y94450D01*
X787601Y95610D01*
X785360Y96210D01*
D02*
G37*
G36*
X757660D02*
X755340D01*
X753100Y95610D01*
X751091Y94450D01*
X749451Y92810D01*
X748291Y90801D01*
X747690Y88560D01*
Y86241D01*
X748291Y84000D01*
X749451Y81991D01*
X751091Y80351D01*
X753100Y79191D01*
X755340Y78590D01*
X757660D01*
X759901Y79191D01*
X761910Y80351D01*
X763550Y81991D01*
X764710Y84000D01*
X765310Y86241D01*
Y88560D01*
X764710Y90801D01*
X763550Y92810D01*
X761910Y94450D01*
X759901Y95610D01*
X757660Y96210D01*
D02*
G37*
G36*
X451160D02*
X448840D01*
X446600Y95610D01*
X444591Y94450D01*
X442950Y92810D01*
X441791Y90801D01*
X441190Y88560D01*
Y86241D01*
X441791Y84000D01*
X442950Y81991D01*
X444591Y80351D01*
X446600Y79191D01*
X448840Y78590D01*
X451160D01*
X453401Y79191D01*
X455410Y80351D01*
X457050Y81991D01*
X458210Y84000D01*
X458810Y86241D01*
Y88560D01*
X458210Y90801D01*
X457050Y92810D01*
X455410Y94450D01*
X453401Y95610D01*
X451160Y96210D01*
D02*
G37*
G36*
X423460D02*
X421141D01*
X418900Y95610D01*
X416891Y94450D01*
X415251Y92810D01*
X414091Y90801D01*
X413490Y88560D01*
Y86241D01*
X414091Y84000D01*
X415251Y81991D01*
X416891Y80351D01*
X418900Y79191D01*
X421141Y78590D01*
X423460D01*
X425701Y79191D01*
X427710Y80351D01*
X429350Y81991D01*
X430510Y84000D01*
X431110Y86241D01*
Y88560D01*
X430510Y90801D01*
X429350Y92810D01*
X427710Y94450D01*
X425701Y95610D01*
X423460Y96210D01*
D02*
G37*
G36*
X395760D02*
X393440D01*
X391200Y95610D01*
X389191Y94450D01*
X387550Y92810D01*
X386391Y90801D01*
X385790Y88560D01*
Y86241D01*
X386391Y84000D01*
X387550Y81991D01*
X389191Y80351D01*
X391200Y79191D01*
X393440Y78590D01*
X395760D01*
X398001Y79191D01*
X400010Y80351D01*
X401650Y81991D01*
X402810Y84000D01*
X403410Y86241D01*
Y88560D01*
X402810Y90801D01*
X401650Y92810D01*
X400010Y94450D01*
X398001Y95610D01*
X395760Y96210D01*
D02*
G37*
G36*
X368060D02*
X365741D01*
X363500Y95610D01*
X361491Y94450D01*
X359851Y92810D01*
X358691Y90801D01*
X358091Y88560D01*
Y86241D01*
X358691Y84000D01*
X359851Y81991D01*
X361491Y80351D01*
X363500Y79191D01*
X365741Y78590D01*
X368060D01*
X370301Y79191D01*
X372310Y80351D01*
X373950Y81991D01*
X375110Y84000D01*
X375710Y86241D01*
Y88560D01*
X375110Y90801D01*
X373950Y92810D01*
X372310Y94450D01*
X370301Y95610D01*
X368060Y96210D01*
D02*
G37*
G36*
X1234460Y96210D02*
X1232140D01*
X1229900Y95610D01*
X1227891Y94450D01*
X1226250Y92809D01*
X1225090Y90800D01*
X1224490Y88560D01*
Y86240D01*
X1225090Y83999D01*
X1226250Y81990D01*
X1227891Y80350D01*
X1229900Y79190D01*
X1232140Y78590D01*
X1234460D01*
X1236701Y79190D01*
X1238709Y80350D01*
X1240350Y81990D01*
X1241510Y83999D01*
X1242110Y86240D01*
Y88560D01*
X1241510Y90800D01*
X1240350Y92809D01*
X1238709Y94450D01*
X1236701Y95610D01*
X1234460Y96210D01*
D02*
G37*
G36*
X1206760D02*
X1204441D01*
X1202200Y95610D01*
X1200191Y94450D01*
X1198551Y92809D01*
X1197391Y90800D01*
X1196790Y88560D01*
Y86240D01*
X1197391Y83999D01*
X1198551Y81990D01*
X1200191Y80350D01*
X1202200Y79190D01*
X1204441Y78590D01*
X1206760D01*
X1209001Y79190D01*
X1211010Y80350D01*
X1212650Y81990D01*
X1213810Y83999D01*
X1214410Y86240D01*
Y88560D01*
X1213810Y90800D01*
X1212650Y92809D01*
X1211010Y94450D01*
X1209001Y95610D01*
X1206760Y96210D01*
D02*
G37*
G36*
X1179060D02*
X1176740D01*
X1174500Y95610D01*
X1172491Y94450D01*
X1170850Y92809D01*
X1169690Y90800D01*
X1169090Y88560D01*
Y86240D01*
X1169690Y83999D01*
X1170850Y81990D01*
X1172491Y80350D01*
X1174500Y79190D01*
X1176740Y78590D01*
X1179060D01*
X1181301Y79190D01*
X1183310Y80350D01*
X1184950Y81990D01*
X1186110Y83999D01*
X1186710Y86240D01*
Y88560D01*
X1186110Y90800D01*
X1184950Y92809D01*
X1183310Y94450D01*
X1181301Y95610D01*
X1179060Y96210D01*
D02*
G37*
G36*
X1151360D02*
X1149041D01*
X1146800Y95610D01*
X1144791Y94450D01*
X1143151Y92809D01*
X1141991Y90800D01*
X1141390Y88560D01*
Y86240D01*
X1141991Y83999D01*
X1143151Y81990D01*
X1144791Y80350D01*
X1146800Y79190D01*
X1149041Y78590D01*
X1151360D01*
X1153601Y79190D01*
X1155610Y80350D01*
X1157250Y81990D01*
X1158410Y83999D01*
X1159010Y86240D01*
Y88560D01*
X1158410Y90800D01*
X1157250Y92809D01*
X1155610Y94450D01*
X1153601Y95610D01*
X1151360Y96210D01*
D02*
G37*
G36*
X1551140Y100330D02*
X1499870D01*
Y49060D01*
X1502044D01*
X1508872Y49959D01*
X1515525Y51742D01*
X1521888Y54377D01*
X1527852Y57821D01*
X1533316Y62014D01*
X1538186Y66884D01*
X1542379Y72348D01*
X1545823Y78312D01*
X1548458Y84675D01*
X1550241Y91328D01*
X1551140Y98156D01*
Y100330D01*
D02*
G37*
G36*
X1497330D02*
X1446060D01*
Y98156D01*
X1446959Y91328D01*
X1448742Y84675D01*
X1451377Y78312D01*
X1454821Y72348D01*
X1459014Y66884D01*
X1463884Y62014D01*
X1469348Y57821D01*
X1475312Y54377D01*
X1481675Y51742D01*
X1488328Y49959D01*
X1495156Y49060D01*
X1497330D01*
Y100330D01*
D02*
G37*
G36*
X154140D02*
X102870D01*
Y49060D01*
X105044D01*
X111872Y49959D01*
X118525Y51742D01*
X124888Y54377D01*
X130852Y57821D01*
X136316Y62014D01*
X141186Y66884D01*
X145379Y72348D01*
X148823Y78312D01*
X151458Y84675D01*
X153241Y91328D01*
X154140Y98156D01*
Y100330D01*
D02*
G37*
G36*
X100330D02*
X49060D01*
Y98156D01*
X49959Y91328D01*
X51742Y84675D01*
X54377Y78312D01*
X57821Y72348D01*
X62014Y66884D01*
X66884Y62014D01*
X72348Y57821D01*
X78312Y54377D01*
X84675Y51742D01*
X91328Y49959D01*
X98156Y49060D01*
X100330D01*
Y100330D01*
D02*
G37*
%LPD*%
D50*
X1092200Y1231900D02*
D03*
X1117600Y1104900D02*
D03*
X1092200Y850900D02*
D03*
X1117600Y673100D02*
D03*
X1092200Y546100D02*
D03*
X508000Y596900D02*
D03*
X482600Y723900D02*
D03*
X508000Y1079500D02*
D03*
Y1104900D02*
D03*
X482600D02*
D03*
X508000Y1257300D02*
D03*
D51*
X1540600Y1651000D02*
D03*
X1540600Y1320800D02*
D03*
Y1485900D02*
D03*
D54*
X1060050Y1752600D02*
D03*
D55*
X101600Y1879600D02*
D03*
X1498600D02*
D03*
Y101600D02*
D03*
X101600D02*
D03*
D56*
X1316700D02*
D03*
X1066800D02*
D03*
X533400D02*
D03*
X283500D02*
D03*
X923000D02*
D03*
X673100D02*
D03*
D58*
X1136350Y115800D02*
D03*
D59*
X1270000Y1245100D02*
D03*
Y1473700D02*
D03*
Y1016500D02*
D03*
Y787900D02*
D03*
D61*
Y542200D02*
D03*
Y364400D02*
D03*
X1540600Y342900D02*
D03*
Y508000D02*
D03*
Y673100D02*
D03*
Y838200D02*
D03*
Y1003300D02*
D03*
Y1168400D02*
D03*
X59600Y1524000D02*
D03*
Y635000D02*
D03*
Y1346200D02*
D03*
Y812800D02*
D03*
Y457200D02*
D03*
Y990600D02*
D03*
Y1701800D02*
D03*
Y1168400D02*
D03*
Y279400D02*
D03*
D63*
X704850D02*
D03*
X317500Y273050D02*
D03*
X274320Y190500D02*
D03*
X665970Y194540D02*
D03*
X461772Y183896D02*
D03*
X853930Y187936D02*
D03*
X1139680Y259080D02*
D03*
X1231120Y142240D02*
D03*
X1261600Y185420D02*
D03*
M02*
