M48
;Layer_Color=9474304
;FILE_FORMAT=4:4
METRIC,LZ
;TYPE=PLATED
T1F00S00C0.7112
T2F00S00C1.0000
T3F00S00C1.0400
T4F00S00C1.4000
T5F00S00C1.4500
T6F00S00C1.8500
T7F00S00C2.0000
T8F00S00C3.0500
T9F00S00C6.0000
;TYPE=NON_PLATED
T10F00S00C3.0000
%
T01
X002921Y0015875
X00319786Y00149606
X0027432Y001905
X00461772Y00183896
X006858Y001651
X0085393Y00187936
X012616Y0018542
X0123112Y0014224
X0113968Y0025908
X0101854Y0034544
Y00369062
X01107948Y00508
X01132078Y00581152
X00778256Y0038735
X0074422Y0034544
X0070485Y002794
Y00254
X0066597Y0019454
X00389128Y0030988
X003175Y0027305
Y0024765
X00393192Y00672338
X00241808Y00956818
X0060706Y0075692
X0064897Y0106553
X001905Y011049
X00306578Y01276178
X013843Y0178435
Y0182245
X013589Y0178435
X01333583Y01783388
X0127Y0178435
X012446
X012192
X0127Y0182245
X003429Y0178435
X003175
X002921
Y0182245
T02
X003669Y000874
X003946
X004223
X0045
X0046385Y001158
X0043615
X0040845
X0038075
X0035305
X0074265
X0077035
X0079805
X0082575
X0085345
X008396Y000874
X008119
X007842
X007565
X011502Y000874
X011779
X012056
X012333
X0121945Y001158
X0124715
X0119175
X0116405
X0113635
T03
X010922Y004699
Y004953
Y005207
Y005461
Y005715
X011176
Y005461
Y005207
Y004953
Y004699
X00508
X004826
Y004953
X00508
Y005207
X004826
Y005461
X00508
Y005715
X004826
Y005969
X00508
Y006223
X004826
Y006477
X00508
Y006731
X004826
Y006985
X00508
Y007239
X004826
Y007493
X00508
Y007747
X004826
Y008001
X00508
Y008255
X004826
Y008509
X00508
Y008763
X004826
Y009017
X00508
Y009271
X004826
Y009525
X00508
Y009779
X004826
X010922
X011176
Y009525
X010922
Y009271
X011176
Y009017
X010922
Y008763
X011176
Y008509
X010922
Y008255
X011176
Y008001
X010922
Y007747
X011176
Y007493
X010922
Y007239
X011176
Y006985
X010922
Y006731
X011176
Y006477
X010922
Y006223
X011176
Y005969
X010922
Y010033
Y010287
Y010541
Y010795
Y011049
Y011303
Y011557
Y011811
Y012065
Y012319
Y012573
Y012827
Y013081
Y013335
X011176
Y013081
Y012827
Y012573
Y012319
Y012065
Y011811
Y011557
Y011303
Y011049
Y010795
Y010541
Y010287
Y010033
X00508
X004826
Y010287
X00508
Y010541
X004826
Y010795
X00508
Y011049
X004826
Y011303
X00508
Y011557
X004826
Y011811
X00508
Y012065
X004826
Y012319
X00508
Y012573
X004826
Y012827
X00508
Y013081
X004826
Y013335
X00508
T04
X014566Y003429
X014986
X015406
Y00508
X014986
X014566
X0127Y005422
Y005842
Y004484
Y004064
Y003644
X001436Y002794
X001016
X000596
Y004572
X001016
X001436
Y00635
X001016
X000596
Y008128
X001016
X001436
X0127Y006262
X014566Y006731
X014986
X015406
Y008382
X014986
X014566
Y010033
X014986
X015406
Y011684
X014986
X014566
X001436
X001016
X000596
Y013462
X001016
X001436
Y009906
X001016
X000596
Y01524
X001016
X001436
Y017018
X001016
X000596
T05
X003302Y003942
Y004362
Y004782
Y005202
Y006101
Y006521
Y006941
Y007361
Y00826
Y00868
Y0091
Y00952
X0127Y009139
Y008719
Y008299
Y007879
Y010165
Y010585
Y011005
Y011425
Y012451
Y012871
Y013291
Y013711
X003302Y013838
Y013418
Y012998
Y012578
Y011679
Y011259
Y010839
Y010419
Y014737
Y015157
Y015577
Y015997
X0127
Y015577
Y015157
Y014737
T06
X014566Y013208
X014986
X015406
Y013758
X014986
X014566
Y014859
X014986
X015406
Y015409
X014986
X014566
X014566Y01651
X014986
X015406
Y01706
X014986
X014566
T07
X0101005Y017526
X0106005
T08
X002835Y001016
X005334
X006731
X00923
X010668
X013167
T09
X001016Y001016
X014986
Y018796
X001016
T10
X015406Y003044
X014776Y003984
X015406Y004695
X014776Y005635
X012315Y005422
Y003644
X013255Y004274
X003687Y005202
X002747Y004152
X001226Y004017
X000596Y003179
X001226Y002239
X000596Y004957
X001226Y005795
X000596Y006735
X001226Y007573
X000596Y008513
X001226Y009351
X002747Y00847
X003687Y00952
Y007361
X002747Y006311
X013255Y006052
X012315Y007879
X013255Y008929
X014776Y008937
X015406Y009648
Y007997
X014776Y007286
X015406Y006346
X014776Y010588
X015406Y011299
X014776Y012239
X013255Y011215
X012315Y010165
Y012451
X013255Y013501
X003687Y013838
X002747Y012788
X003687Y011679
X002747Y010629
X001226Y011129
X000596Y010291
Y012069
X001226Y012907
X000596Y013847
X001226Y014685
X000596Y015625
X001226Y016463
X000596Y017403
X003687Y015997
X002747Y014947
X012315Y014737
X013255Y015787
M30
