G04*
G04 #@! TF.GenerationSoftware,Altium Limited,Altium Designer,21.9.2 (33)*
G04*
G04 Layer_Physical_Order=4*
G04 Layer_Color=16711680*
%FSLAX44Y44*%
%MOMM*%
G71*
G04*
G04 #@! TF.SameCoordinates,D0450A9E-FE46-4EA2-B322-C77A40C1B8EA*
G04*
G04*
G04 #@! TF.FilePolarity,Positive*
G04*
G01*
G75*
%ADD11C,0.2540*%
%ADD49R,1.3900X1.3900*%
%ADD50C,1.3900*%
%ADD51C,2.7750*%
%ADD52R,2.7750X2.7750*%
%ADD53C,3.0000*%
%ADD54R,3.0000X3.0000*%
%ADD55C,10.0000*%
%ADD56C,4.0660*%
%ADD57R,1.5080X1.5080*%
%ADD58C,1.5080*%
%ADD59C,2.1750*%
%ADD60R,2.1000X2.1000*%
%ADD61C,2.1000*%
%ADD62R,2.1000X2.1000*%
%ADD63C,1.2700*%
D11*
X1219120Y1486125D02*
G03*
X1218816Y1485814I12380J-12425D01*
G01*
X1447800Y1676400D02*
X1492214D01*
X1390650Y1555750D02*
Y1619250D01*
X1447800Y1676400D01*
X1381555Y1621893D02*
X1443682Y1684020D01*
X1449070D01*
X1445260Y1680210D02*
X1472810D01*
X1449070Y1684020D02*
X1454853Y1689803D01*
X1385365Y1608371D02*
Y1620314D01*
X1445260Y1680210D01*
X1381555Y1609949D02*
Y1621893D01*
X1454853Y1689803D02*
Y1704253D01*
X1456600Y1706000D01*
X1117600Y1282700D02*
X1390650Y1555750D01*
X1269695Y1536700D02*
X1313694D01*
X1312115Y1540510D02*
X1381555Y1609949D01*
X1313694Y1536700D02*
X1385365Y1608371D01*
X1265062Y1540510D02*
X1312115D01*
X1492214Y1676400D02*
X1521814Y1706000D01*
X1472810Y1680210D02*
X1498600Y1706000D01*
X1117600Y1308100D02*
X1196622Y1387122D01*
Y1462575D01*
X1219120Y1486125D02*
X1269695Y1536700D01*
X1255126Y1530574D02*
X1265062Y1540510D01*
X1255126Y1530574D02*
Y1530574D01*
X1192812Y1408712D02*
Y1468260D01*
X1255126Y1530574D01*
X1117600Y1333500D02*
X1192812Y1408712D01*
X1251984Y1426228D02*
X1253472Y1499172D01*
X1196622Y1462575D02*
X1218816Y1485814D01*
X1253472Y1499172D02*
X1270000Y1515700D01*
X1121156Y1295400D02*
X1251984Y1426228D01*
X1521814Y1706000D02*
X1540600D01*
X1125014Y1227560D02*
X1284710D01*
X1390650Y1333500D02*
Y1474950D01*
X1284710Y1227560D02*
X1390650Y1333500D01*
X1250950Y1181100D02*
X1403350Y1333500D01*
X1117600Y1181100D02*
X1250950D01*
X1117600Y1206500D02*
X1270000D01*
X1397000Y1333500D01*
Y1466850D01*
X1403350Y1333500D02*
Y1460500D01*
X1117600Y1155700D02*
X1236500D01*
X1456600Y1375800D01*
X1219200Y1130300D02*
X1441450Y1352550D01*
Y1346200D02*
X1511000D01*
X1117600Y1130300D02*
X1219200D01*
X1441450Y1352550D02*
X1475350D01*
X1174750Y1079500D02*
X1441450Y1346200D01*
X1117600Y1079500D02*
X1174750D01*
X1390650Y1474950D02*
X1456600Y1540900D01*
X1117600Y1231900D02*
X1120674D01*
X1125014Y1227560D01*
X1397000Y1466850D02*
X1447800Y1517650D01*
X1475350D01*
X1454150Y1511300D02*
X1511000D01*
X1403350Y1460500D02*
X1454150Y1511300D01*
X1511000D02*
X1540600Y1540900D01*
X1475350Y1517650D02*
X1498600Y1540900D01*
X1475350Y1352550D02*
X1498600Y1375800D01*
X1511000Y1346200D02*
X1540600Y1375800D01*
X101600Y1524000D02*
X190500Y1435100D01*
Y1104900D02*
Y1435100D01*
X270510Y672338D02*
X393192D01*
X185928Y756920D02*
Y906272D01*
Y756920D02*
X270510Y672338D01*
X101600Y990600D02*
X185928Y906272D01*
X319786Y149606D02*
X492252Y322072D01*
Y612648D01*
X1107948Y815848D02*
X1117600Y825500D01*
X1107948Y508000D02*
Y815848D01*
X1092200Y1308100D02*
X1104900Y1320800D01*
Y1392600D01*
X1270000Y1557700D01*
X306578Y1276178D02*
X330200Y1299800D01*
X482600Y1308100D02*
X495300Y1295400D01*
X512572D01*
X607060Y1200912D01*
Y756920D02*
Y1200912D01*
X241808Y956818D02*
Y1116330D01*
X343662Y1218184D01*
Y1328338D01*
X330200Y1341800D02*
X343662Y1328338D01*
X316738Y464738D02*
X330200Y478200D01*
X316738Y425450D02*
Y464738D01*
Y425450D02*
X322580Y419608D01*
X356108D01*
X482600Y546100D01*
Y622300D02*
X492252Y612648D01*
X744220Y782320D02*
X1092200Y1130300D01*
X744220Y345440D02*
Y782320D01*
X1012444Y898144D02*
X1092200Y977900D01*
X1012444Y621538D02*
Y898144D01*
X778256Y387350D02*
X1012444Y621538D01*
X1252728Y1041228D02*
X1270000Y1058500D01*
X1252728Y732028D02*
Y1041228D01*
X1117600Y596900D02*
X1252728Y732028D01*
X1117600Y723900D02*
X1170686Y776986D01*
Y1001186D01*
X1270000Y1100500D01*
X1104900Y1295400D02*
X1121156D01*
X1092200Y1282700D02*
X1104900Y1295400D01*
X408432Y700532D02*
X482600Y774700D01*
X408432Y514432D02*
Y700532D01*
X330200Y436200D02*
X408432Y514432D01*
D49*
X1092200Y1333500D02*
D03*
X482600D02*
D03*
D50*
X1117600D02*
D03*
X1092200Y1308100D02*
D03*
X1117600D02*
D03*
X1092200Y1282700D02*
D03*
X1117600D02*
D03*
X1092200Y1257300D02*
D03*
X1117600D02*
D03*
X1092200Y1231900D02*
D03*
X1117600D02*
D03*
X1092200Y1206500D02*
D03*
X1117600D02*
D03*
X1092200Y1181100D02*
D03*
X1117600D02*
D03*
X1092200Y1155700D02*
D03*
X1117600D02*
D03*
X1092200Y1130300D02*
D03*
X1117600D02*
D03*
X1092200Y1104900D02*
D03*
X1117600D02*
D03*
X1092200Y1079500D02*
D03*
X1117600D02*
D03*
X1092200Y1054100D02*
D03*
X1117600D02*
D03*
X1092200Y1028700D02*
D03*
X1117600D02*
D03*
X1092200Y1003300D02*
D03*
X1117600D02*
D03*
X1092200Y977900D02*
D03*
X1117600D02*
D03*
X1092200Y952500D02*
D03*
X1117600D02*
D03*
X1092200Y927100D02*
D03*
X1117600D02*
D03*
X1092200Y901700D02*
D03*
X1117600D02*
D03*
X1092200Y876300D02*
D03*
X1117600D02*
D03*
X1092200Y850900D02*
D03*
X1117600D02*
D03*
X1092200Y825500D02*
D03*
X1117600D02*
D03*
X1092200Y800100D02*
D03*
X1117600D02*
D03*
X1092200Y774700D02*
D03*
X1117600D02*
D03*
X1092200Y749300D02*
D03*
X1117600D02*
D03*
X1092200Y723900D02*
D03*
X1117600D02*
D03*
X1092200Y698500D02*
D03*
X1117600D02*
D03*
X1092200Y673100D02*
D03*
X1117600D02*
D03*
X1092200Y647700D02*
D03*
X1117600D02*
D03*
X1092200Y622300D02*
D03*
X1117600D02*
D03*
X1092200Y596900D02*
D03*
X1117600D02*
D03*
X1092200Y571500D02*
D03*
X1117600D02*
D03*
X1092200Y546100D02*
D03*
X1117600D02*
D03*
X1092200Y520700D02*
D03*
X1117600D02*
D03*
X1092200Y495300D02*
D03*
X1117600D02*
D03*
X1092200Y469900D02*
D03*
X1117600D02*
D03*
X508000D02*
D03*
X482600D02*
D03*
X508000Y495300D02*
D03*
X482600D02*
D03*
X508000Y520700D02*
D03*
X482600D02*
D03*
X508000Y546100D02*
D03*
X482600D02*
D03*
X508000Y571500D02*
D03*
X482600D02*
D03*
X508000Y596900D02*
D03*
X482600D02*
D03*
X508000Y622300D02*
D03*
X482600D02*
D03*
X508000Y647700D02*
D03*
X482600D02*
D03*
X508000Y673100D02*
D03*
X482600D02*
D03*
X508000Y698500D02*
D03*
X482600D02*
D03*
X508000Y723900D02*
D03*
X482600D02*
D03*
X508000Y749300D02*
D03*
X482600D02*
D03*
X508000Y774700D02*
D03*
X482600D02*
D03*
X508000Y800100D02*
D03*
X482600D02*
D03*
X508000Y825500D02*
D03*
X482600D02*
D03*
X508000Y850900D02*
D03*
X482600D02*
D03*
X508000Y876300D02*
D03*
X482600D02*
D03*
X508000Y901700D02*
D03*
X482600D02*
D03*
X508000Y927100D02*
D03*
X482600D02*
D03*
X508000Y952500D02*
D03*
X482600D02*
D03*
X508000Y977900D02*
D03*
X482600D02*
D03*
X508000Y1003300D02*
D03*
X482600D02*
D03*
X508000Y1028700D02*
D03*
X482600D02*
D03*
X508000Y1054100D02*
D03*
X482600D02*
D03*
X508000Y1079500D02*
D03*
X482600D02*
D03*
X508000Y1104900D02*
D03*
X482600D02*
D03*
X508000Y1130300D02*
D03*
X482600D02*
D03*
X508000Y1155700D02*
D03*
X482600D02*
D03*
X508000Y1181100D02*
D03*
X482600D02*
D03*
X508000Y1206500D02*
D03*
X482600D02*
D03*
X508000Y1231900D02*
D03*
X482600D02*
D03*
X508000Y1257300D02*
D03*
X482600D02*
D03*
X508000Y1282700D02*
D03*
X482600D02*
D03*
X508000Y1308100D02*
D03*
X482600D02*
D03*
X508000Y1333500D02*
D03*
D51*
X1540600Y1651000D02*
D03*
X1498600D02*
D03*
X1456600D02*
D03*
X1498600Y1706000D02*
D03*
X1540600D02*
D03*
X1540600Y1375800D02*
D03*
X1498600D02*
D03*
X1456600Y1320800D02*
D03*
X1498600D02*
D03*
X1540600D02*
D03*
Y1540900D02*
D03*
X1498600D02*
D03*
X1456600Y1485900D02*
D03*
X1498600D02*
D03*
X1540600D02*
D03*
D52*
X1456600Y1706000D02*
D03*
X1456600Y1375800D02*
D03*
Y1540900D02*
D03*
D53*
X1010050Y1752600D02*
D03*
X1231500Y1245100D02*
D03*
X1325500Y1350100D02*
D03*
X1231500Y1473700D02*
D03*
X1325500Y1578700D02*
D03*
X274700Y1494700D02*
D03*
X368700Y1599700D02*
D03*
X1231500Y1016500D02*
D03*
X1325500Y1121500D02*
D03*
X1231500Y787900D02*
D03*
X1325500Y892900D02*
D03*
Y605200D02*
D03*
X1231500Y542200D02*
D03*
Y364400D02*
D03*
X1325500Y427400D02*
D03*
X1477600Y398400D02*
D03*
X1540600Y304400D02*
D03*
X1477600Y563500D02*
D03*
X1540600Y469500D02*
D03*
Y634600D02*
D03*
X1477600Y728600D02*
D03*
Y893700D02*
D03*
X1540600Y799700D02*
D03*
X1477600Y1058800D02*
D03*
X1540600Y964800D02*
D03*
X1477600Y1223900D02*
D03*
X1540600Y1129900D02*
D03*
X59600Y1562500D02*
D03*
X122600Y1468500D02*
D03*
X368700Y520200D02*
D03*
X274700Y415200D02*
D03*
X59600Y673500D02*
D03*
X122600Y579500D02*
D03*
X368700Y1383800D02*
D03*
X274700Y1278800D02*
D03*
X368700Y952000D02*
D03*
X274700Y847000D02*
D03*
X59600Y1384700D02*
D03*
X122600Y1290700D02*
D03*
X59600Y851300D02*
D03*
X122600Y757300D02*
D03*
X59600Y495700D02*
D03*
X122600Y401700D02*
D03*
X59600Y1029100D02*
D03*
X122600Y935100D02*
D03*
X59600Y1740300D02*
D03*
X122600Y1646300D02*
D03*
X59600Y1206900D02*
D03*
X122600Y1112900D02*
D03*
X59600Y317900D02*
D03*
X122600Y223900D02*
D03*
X368700Y736100D02*
D03*
X274700Y631100D02*
D03*
X368700Y1167900D02*
D03*
X274700Y1062900D02*
D03*
D54*
X1060050Y1752600D02*
D03*
D55*
X101600Y1879600D02*
D03*
X1498600D02*
D03*
Y101600D02*
D03*
X101600D02*
D03*
D56*
X1316700D02*
D03*
X1066800D02*
D03*
X533400D02*
D03*
X283500D02*
D03*
X923000D02*
D03*
X673100D02*
D03*
D57*
X1247150Y115800D02*
D03*
X463850D02*
D03*
X853450D02*
D03*
D58*
X1233300Y87400D02*
D03*
X1219450Y115800D02*
D03*
X1205600Y87400D02*
D03*
X1191750Y115800D02*
D03*
X1177900Y87400D02*
D03*
X1164050Y115800D02*
D03*
X1150200Y87400D02*
D03*
X1136350Y115800D02*
D03*
X450000Y87400D02*
D03*
X436150Y115800D02*
D03*
X422300Y87400D02*
D03*
X408450Y115800D02*
D03*
X394600Y87400D02*
D03*
X380750Y115800D02*
D03*
X366900Y87400D02*
D03*
X353050Y115800D02*
D03*
X839600Y87400D02*
D03*
X825750Y115800D02*
D03*
X811900Y87400D02*
D03*
X798050Y115800D02*
D03*
X784200Y87400D02*
D03*
X770350Y115800D02*
D03*
X756500Y87400D02*
D03*
X742650Y115800D02*
D03*
D59*
X1270000Y1245100D02*
D03*
Y1287100D02*
D03*
Y1329100D02*
D03*
Y1371100D02*
D03*
Y1473700D02*
D03*
Y1515700D02*
D03*
Y1557700D02*
D03*
Y1599700D02*
D03*
X330200Y1473700D02*
D03*
Y1515700D02*
D03*
Y1557700D02*
D03*
Y1599700D02*
D03*
X1270000Y1016500D02*
D03*
Y1058500D02*
D03*
Y1100500D02*
D03*
Y1142500D02*
D03*
Y787900D02*
D03*
Y829900D02*
D03*
Y871900D02*
D03*
Y913900D02*
D03*
X330200Y520200D02*
D03*
Y478200D02*
D03*
Y436200D02*
D03*
Y394200D02*
D03*
Y1383800D02*
D03*
Y1341800D02*
D03*
Y1299800D02*
D03*
Y1257800D02*
D03*
Y952000D02*
D03*
Y910000D02*
D03*
Y868000D02*
D03*
Y826000D02*
D03*
Y736100D02*
D03*
Y694100D02*
D03*
Y652100D02*
D03*
Y610100D02*
D03*
Y1167900D02*
D03*
Y1125900D02*
D03*
Y1083900D02*
D03*
Y1041900D02*
D03*
D60*
X1270000Y626200D02*
D03*
Y448400D02*
D03*
D61*
Y584200D02*
D03*
Y542200D02*
D03*
Y364400D02*
D03*
Y406400D02*
D03*
X1498600Y342900D02*
D03*
X1540600D02*
D03*
X1498600Y508000D02*
D03*
X1540600D02*
D03*
Y673100D02*
D03*
X1498600D02*
D03*
Y838200D02*
D03*
X1540600D02*
D03*
X1498600Y1003300D02*
D03*
X1540600D02*
D03*
X1498600Y1168400D02*
D03*
X1540600D02*
D03*
X59600Y1524000D02*
D03*
X101600D02*
D03*
X59600Y635000D02*
D03*
X101600D02*
D03*
X59600Y1346200D02*
D03*
X101600D02*
D03*
X59600Y812800D02*
D03*
X101600D02*
D03*
X59600Y457200D02*
D03*
X101600D02*
D03*
X59600Y990600D02*
D03*
X101600D02*
D03*
X59600Y1701800D02*
D03*
X101600D02*
D03*
X59600Y1168400D02*
D03*
X101600D02*
D03*
X59600Y279400D02*
D03*
X101600D02*
D03*
D62*
X1456600Y342900D02*
D03*
Y508000D02*
D03*
Y673100D02*
D03*
Y838200D02*
D03*
Y1003300D02*
D03*
Y1168400D02*
D03*
X143600Y1524000D02*
D03*
Y635000D02*
D03*
Y1346200D02*
D03*
Y812800D02*
D03*
Y457200D02*
D03*
Y990600D02*
D03*
Y1701800D02*
D03*
Y1168400D02*
D03*
Y279400D02*
D03*
D63*
X190500Y1104900D02*
D03*
X393192Y672338D02*
D03*
X1107948Y508000D02*
D03*
X389128Y309880D02*
D03*
X306578Y1276178D02*
D03*
X607060Y756920D02*
D03*
X1018540Y345440D02*
D03*
X1132078Y581152D02*
D03*
X241808Y956818D02*
D03*
X648970Y1065530D02*
D03*
X319786Y149606D02*
D03*
X744220Y345440D02*
D03*
X778256Y387350D02*
D03*
X1018540Y369062D02*
D03*
X1244600Y1784350D02*
D03*
X1219200D02*
D03*
X342900D02*
D03*
X1333583Y1783388D02*
D03*
X1358900Y1784350D02*
D03*
X1384300D02*
D03*
Y1822450D02*
D03*
X1270000Y1784350D02*
D03*
Y1822450D02*
D03*
X292100D02*
D03*
Y1784350D02*
D03*
X317500D02*
D03*
X704850Y279400D02*
D03*
Y254000D02*
D03*
X685800Y165100D02*
D03*
X317500Y247650D02*
D03*
Y273050D02*
D03*
X292100Y158750D02*
D03*
X274320Y190500D02*
D03*
X665970Y194540D02*
D03*
X461772Y183896D02*
D03*
X853930Y187936D02*
D03*
X1139680Y259080D02*
D03*
X1231120Y142240D02*
D03*
X1261600Y185420D02*
D03*
M02*
