G04*
G04 #@! TF.GenerationSoftware,Altium Limited,Altium Designer,21.9.2 (33)*
G04*
G04 Layer_Color=8421504*
%FSLAX44Y44*%
%MOMM*%
G71*
G04*
G04 #@! TF.SameCoordinates,D0450A9E-FE46-4EA2-B322-C77A40C1B8EA*
G04*
G04*
G04 #@! TF.FilePolarity,Positive*
G04*
G01*
G75*
%ADD16R,1.2000X1.2000*%
%ADD17R,0.8500X0.9500*%
%ADD18R,0.9500X0.8500*%
G04:AMPARAMS|DCode=19|XSize=1.97mm|YSize=0.6mm|CornerRadius=0.075mm|HoleSize=0mm|Usage=FLASHONLY|Rotation=270.000|XOffset=0mm|YOffset=0mm|HoleType=Round|Shape=RoundedRectangle|*
%AMROUNDEDRECTD19*
21,1,1.9700,0.4500,0,0,270.0*
21,1,1.8200,0.6000,0,0,270.0*
1,1,0.1500,-0.2250,-0.9100*
1,1,0.1500,-0.2250,0.9100*
1,1,0.1500,0.2250,0.9100*
1,1,0.1500,0.2250,-0.9100*
%
%ADD19ROUNDEDRECTD19*%
%ADD20R,0.9000X1.0000*%
%ADD21R,1.0000X0.9000*%
G04:AMPARAMS|DCode=22|XSize=2.159mm|YSize=0.6858mm|CornerRadius=0.0857mm|HoleSize=0mm|Usage=FLASHONLY|Rotation=0.000|XOffset=0mm|YOffset=0mm|HoleType=Round|Shape=RoundedRectangle|*
%AMROUNDEDRECTD22*
21,1,2.1590,0.5143,0,0,0.0*
21,1,1.9876,0.6858,0,0,0.0*
1,1,0.1715,0.9938,-0.2572*
1,1,0.1715,-0.9938,-0.2572*
1,1,0.1715,-0.9938,0.2572*
1,1,0.1715,0.9938,0.2572*
%
%ADD22ROUNDEDRECTD22*%
%ADD23R,1.1500X1.3500*%
D16*
X1043600Y1828800D02*
D03*
X1064600D02*
D03*
D17*
X1022500D02*
D03*
X1009500D02*
D03*
X406550Y171450D02*
D03*
X393550D02*
D03*
Y196850D02*
D03*
X406550D02*
D03*
X785200Y200890D02*
D03*
X798200D02*
D03*
Y175490D02*
D03*
X785200D02*
D03*
D18*
X1371600Y1809900D02*
D03*
Y1796900D02*
D03*
X1320800Y1809900D02*
D03*
Y1796900D02*
D03*
X1346200Y1809900D02*
D03*
Y1796900D02*
D03*
X1257300Y1809900D02*
D03*
Y1796900D02*
D03*
X1231900Y1809900D02*
D03*
Y1796900D02*
D03*
X1206500Y1809900D02*
D03*
Y1796900D02*
D03*
X355600Y1809900D02*
D03*
Y1796900D02*
D03*
X330200Y1809900D02*
D03*
Y1796900D02*
D03*
X304800Y1809900D02*
D03*
Y1796900D02*
D03*
D19*
X1242550Y233030D02*
D03*
X1229850D02*
D03*
X1217150D02*
D03*
X1204450D02*
D03*
X1191750D02*
D03*
X1179050D02*
D03*
X1166350D02*
D03*
X1153650D02*
D03*
Y183530D02*
D03*
X1166350D02*
D03*
X1179050D02*
D03*
X1191750D02*
D03*
X1204450D02*
D03*
X1217150D02*
D03*
X1229850D02*
D03*
X1242550D02*
D03*
D20*
X431000Y184150D02*
D03*
X444500D02*
D03*
X823050Y188190D02*
D03*
X836550D02*
D03*
X1236600Y260350D02*
D03*
X1223100D02*
D03*
X1204450D02*
D03*
X1190950D02*
D03*
X1173100D02*
D03*
X1159600D02*
D03*
X1242950Y158750D02*
D03*
X1229450D02*
D03*
D21*
X292100Y190900D02*
D03*
Y177400D02*
D03*
X683750Y194940D02*
D03*
Y181440D02*
D03*
X1261600Y216300D02*
D03*
Y202800D02*
D03*
D22*
X318200Y165100D02*
D03*
Y177800D02*
D03*
Y190500D02*
D03*
Y203200D02*
D03*
X367600D02*
D03*
Y190500D02*
D03*
Y177800D02*
D03*
Y165100D02*
D03*
X709850Y169140D02*
D03*
Y181840D02*
D03*
Y194540D02*
D03*
Y207240D02*
D03*
X759250D02*
D03*
Y194540D02*
D03*
Y181840D02*
D03*
Y169140D02*
D03*
D23*
X351650Y247650D02*
D03*
X334150D02*
D03*
Y273050D02*
D03*
X351650D02*
D03*
X725800Y277090D02*
D03*
X743300D02*
D03*
Y251690D02*
D03*
X725800D02*
D03*
M02*
