G04*
G04 #@! TF.GenerationSoftware,Altium Limited,Altium Designer,21.9.2 (33)*
G04*
G04 Layer_Color=32768*
%FSLAX44Y44*%
%MOMM*%
G71*
G04*
G04 #@! TF.SameCoordinates,D0450A9E-FE46-4EA2-B322-C77A40C1B8EA*
G04*
G04*
G04 #@! TF.FilePolarity,Positive*
G04*
G01*
G75*
%ADD65C,0.1000*%
%ADD66C,0.0500*%
D65*
X1049100Y1828800D02*
X1059100D01*
X1054100Y1823800D02*
Y1833800D01*
X1016000Y1824050D02*
Y1833550D01*
X1011250Y1828800D02*
X1020750D01*
X1371600Y1798650D02*
Y1808150D01*
X1366850Y1803400D02*
X1376350D01*
X1320800Y1798650D02*
Y1808150D01*
X1316050Y1803400D02*
X1325550D01*
X1346200Y1798650D02*
Y1808150D01*
X1341450Y1803400D02*
X1350950D01*
X1257300Y1798650D02*
Y1808150D01*
X1252550Y1803400D02*
X1262050D01*
X1231900Y1798650D02*
Y1808150D01*
X1227150Y1803400D02*
X1236650D01*
X1206500Y1798650D02*
Y1808150D01*
X1201750Y1803400D02*
X1211250D01*
X355600Y1798650D02*
Y1808150D01*
X350850Y1803400D02*
X360350D01*
X330200Y1798650D02*
Y1808150D01*
X325450Y1803400D02*
X334950D01*
X304800Y1798650D02*
Y1808150D01*
X300050Y1803400D02*
X309550D01*
X395300Y171450D02*
X404800D01*
X400050Y166700D02*
Y176200D01*
X395300Y196850D02*
X404800D01*
X400050Y192100D02*
Y201600D01*
X433000Y184150D02*
X442500D01*
X437750Y179400D02*
Y188900D01*
X292100Y179400D02*
Y188900D01*
X287350Y184150D02*
X296850D01*
X337900Y247650D02*
X347900D01*
X342900Y242650D02*
Y252650D01*
X337900Y273050D02*
X347900D01*
X342900Y268050D02*
Y278050D01*
X683750Y183440D02*
Y192940D01*
X679000Y188190D02*
X688500D01*
X825050D02*
X834550D01*
X829800Y183440D02*
Y192940D01*
X786950Y200890D02*
X796450D01*
X791700Y196140D02*
Y205640D01*
X786950Y175490D02*
X796450D01*
X791700Y170740D02*
Y180240D01*
X729550Y277090D02*
X739550D01*
X734550Y272090D02*
Y282090D01*
X729550Y251690D02*
X739550D01*
X734550Y246690D02*
Y256690D01*
X1229850Y255600D02*
Y265100D01*
X1225100Y260350D02*
X1234600D01*
X1197700Y255600D02*
Y265100D01*
X1192950Y260350D02*
X1202450D01*
X1166350Y255600D02*
Y265100D01*
X1161600Y260350D02*
X1171100D01*
X1256850Y209550D02*
X1266350D01*
X1261600Y204800D02*
Y214300D01*
X1236200Y154000D02*
Y163500D01*
X1231450Y158750D02*
X1240950D01*
D66*
X1077635Y452150D02*
X1132165D01*
Y1351250D01*
X1077635D02*
X1132165D01*
X1077635Y452150D02*
Y1351250D01*
X1576100Y1614500D02*
Y1733500D01*
X1421100Y1614500D02*
X1576100D01*
X1421100Y1733500D02*
X1576100D01*
X1421100Y1614500D02*
Y1733500D01*
X1421100Y1284300D02*
Y1403300D01*
X1576100D01*
X1421100Y1284300D02*
X1576100D01*
Y1403300D01*
X1421100Y1449400D02*
Y1568400D01*
X1576100D01*
X1421100Y1449400D02*
X1576100D01*
Y1568400D01*
X1090550Y1723100D02*
Y1782100D01*
X980550Y1723100D02*
Y1782100D01*
X1090550D01*
X980550Y1723100D02*
X1090550D01*
X1035050Y1819300D02*
Y1838300D01*
X1073150Y1819300D02*
Y1838300D01*
X1035050D02*
X1073150D01*
X1035050Y1819300D02*
X1073150D01*
X1002500Y1821300D02*
X1029500D01*
X1002500Y1836300D02*
X1029500D01*
Y1821300D02*
Y1836300D01*
X1002500Y1821300D02*
Y1836300D01*
X1364100Y1816900D02*
X1379100D01*
X1364100Y1789900D02*
X1379100D01*
Y1816900D01*
X1364100Y1789900D02*
Y1816900D01*
X1313300D02*
X1328300D01*
X1313300Y1789900D02*
X1328300D01*
Y1816900D01*
X1313300Y1789900D02*
Y1816900D01*
X1338700D02*
X1353700D01*
X1338700Y1789900D02*
X1353700D01*
Y1816900D01*
X1338700Y1789900D02*
Y1816900D01*
X1249800D02*
X1264800D01*
X1249800Y1789900D02*
X1264800D01*
Y1816900D01*
X1249800Y1789900D02*
Y1816900D01*
X1224400D02*
X1239400D01*
X1224400Y1789900D02*
X1239400D01*
Y1816900D01*
X1224400Y1789900D02*
Y1816900D01*
X1199000D02*
X1214000D01*
X1199000Y1789900D02*
X1214000D01*
Y1816900D01*
X1199000Y1789900D02*
Y1816900D01*
X348100D02*
X363100D01*
X348100Y1789900D02*
X363100D01*
Y1816900D01*
X348100Y1789900D02*
Y1816900D01*
X322700D02*
X337700D01*
X322700Y1789900D02*
X337700D01*
Y1816900D01*
X322700Y1789900D02*
Y1816900D01*
X297300D02*
X312300D01*
X297300Y1789900D02*
X312300D01*
Y1816900D01*
X297300Y1789900D02*
Y1816900D01*
X1250100Y171180D02*
Y245380D01*
X1146100Y171180D02*
Y245380D01*
X1250100D01*
X1146100Y171180D02*
X1250100D01*
X1035200Y134100D02*
X1348300D01*
Y-56900D02*
Y134100D01*
X1035200Y-56900D02*
X1348300D01*
X1035200D02*
Y134100D01*
X251900Y134100D02*
X565000D01*
Y-56900D02*
Y134100D01*
X251900Y-56900D02*
X565000D01*
X251900D02*
Y134100D01*
X641500D02*
X954600D01*
Y-56900D02*
Y134100D01*
X641500Y-56900D02*
X954600D01*
X641500D02*
Y134100D01*
X413550Y163950D02*
Y178950D01*
X386550Y163950D02*
Y178950D01*
Y163950D02*
X413550D01*
X386550Y178950D02*
X413550D01*
X386550Y189350D02*
Y204350D01*
X413550Y189350D02*
Y204350D01*
X386550D02*
X413550D01*
X386550Y189350D02*
X413550D01*
X424250Y176650D02*
Y191650D01*
X451250Y176650D02*
Y191650D01*
X424250D02*
X451250D01*
X424250Y176650D02*
X451250D01*
X284600Y197650D02*
X299600D01*
X284600Y170650D02*
X299600D01*
Y197650D01*
X284600Y170650D02*
Y197650D01*
X305850Y211175D02*
X379950D01*
X305850Y157125D02*
X379950D01*
X305850D02*
Y211175D01*
X379950Y157125D02*
Y211175D01*
X359900Y238150D02*
Y257150D01*
X325900Y238150D02*
Y257150D01*
Y238150D02*
X359900D01*
X325900Y257150D02*
X359900D01*
X325900Y263550D02*
Y282550D01*
X359900Y263550D02*
Y282550D01*
X325900D02*
X359900D01*
X325900Y263550D02*
X359900D01*
X676250Y201690D02*
X691250D01*
X676250Y174690D02*
X691250D01*
Y201690D01*
X676250Y174690D02*
Y201690D01*
X816300Y180690D02*
Y195690D01*
X843300Y180690D02*
Y195690D01*
X816300D02*
X843300D01*
X816300Y180690D02*
X843300D01*
X778200Y193390D02*
Y208390D01*
X805200Y193390D02*
Y208390D01*
X778200D02*
X805200D01*
X778200Y193390D02*
X805200D01*
X697500Y215215D02*
X771600D01*
X697500Y161165D02*
X771600D01*
X697500D02*
Y215215D01*
X771600Y161165D02*
Y215215D01*
X805200Y167990D02*
Y182990D01*
X778200Y167990D02*
Y182990D01*
Y167990D02*
X805200D01*
X778200Y182990D02*
X805200D01*
X717550Y267590D02*
Y286590D01*
X751550Y267590D02*
Y286590D01*
X717550D02*
X751550D01*
X717550Y267590D02*
X751550D01*
Y242190D02*
Y261190D01*
X717550Y242190D02*
Y261190D01*
Y242190D02*
X751550D01*
X717550Y261190D02*
X751550D01*
X1212500Y511700D02*
Y656700D01*
X1345000D01*
Y511700D02*
Y656700D01*
X1212500Y511700D02*
X1345000D01*
X1212500Y333900D02*
X1345000D01*
Y478900D01*
X1212500D02*
X1345000D01*
X1212500Y333900D02*
Y478900D01*
X468035Y452150D02*
Y1351250D01*
X522565D01*
Y452150D02*
Y1351250D01*
X468035Y452150D02*
X522565D01*
X1426100Y285400D02*
X1571100D01*
X1426100D02*
Y417900D01*
X1571100D01*
Y285400D02*
Y417900D01*
X1426100Y450500D02*
X1571100D01*
X1426100D02*
Y583000D01*
X1571100D01*
Y450500D02*
Y583000D01*
Y615600D02*
Y748100D01*
X1426100D02*
X1571100D01*
X1426100Y615600D02*
Y748100D01*
Y615600D02*
X1571100D01*
X1426100Y780700D02*
X1571100D01*
X1426100D02*
Y913200D01*
X1571100D01*
Y780700D02*
Y913200D01*
X1426100Y945800D02*
X1571100D01*
X1426100D02*
Y1078300D01*
X1571100D01*
Y945800D02*
Y1078300D01*
X1426100Y1110900D02*
X1571100D01*
X1426100D02*
Y1243400D01*
X1571100D01*
Y1110900D02*
Y1243400D01*
X1216350Y252850D02*
X1243350D01*
X1216350Y267850D02*
X1243350D01*
Y252850D02*
Y267850D01*
X1216350Y252850D02*
Y267850D01*
X1184200Y252850D02*
X1211200D01*
X1184200Y267850D02*
X1211200D01*
Y252850D02*
Y267850D01*
X1184200Y252850D02*
Y267850D01*
X1152850Y252850D02*
X1179850D01*
X1152850Y267850D02*
X1179850D01*
Y252850D02*
Y267850D01*
X1152850Y252850D02*
Y267850D01*
X1269100Y196050D02*
Y223050D01*
X1254100Y196050D02*
Y223050D01*
X1269100D01*
X1254100Y196050D02*
X1269100D01*
X1222700Y151250D02*
X1249700D01*
X1222700Y166250D02*
X1249700D01*
Y151250D02*
Y166250D01*
X1222700Y151250D02*
Y166250D01*
X29100Y1449000D02*
Y1581500D01*
Y1449000D02*
X174100D01*
Y1581500D01*
X29100D02*
X174100D01*
X29100Y560000D02*
Y692500D01*
Y560000D02*
X174100D01*
Y692500D01*
X29100D02*
X174100D01*
X29100Y1271200D02*
Y1403700D01*
Y1271200D02*
X174100D01*
Y1403700D01*
X29100D02*
X174100D01*
X29100Y737800D02*
Y870300D01*
Y737800D02*
X174100D01*
Y870300D01*
X29100D02*
X174100D01*
X29100Y382200D02*
Y514700D01*
Y382200D02*
X174100D01*
Y514700D01*
X29100D02*
X174100D01*
X29100Y915600D02*
Y1048100D01*
Y915600D02*
X174100D01*
Y1048100D01*
X29100D02*
X174100D01*
X29100Y1626800D02*
Y1759300D01*
Y1626800D02*
X174100D01*
Y1759300D01*
X29100D02*
X174100D01*
X29100Y1093400D02*
Y1225900D01*
Y1093400D02*
X174100D01*
Y1225900D01*
X29100D02*
X174100D01*
X29100Y204400D02*
Y336900D01*
Y204400D02*
X174100D01*
Y336900D01*
X29100D02*
X174100D01*
M02*
