G04*
G04 #@! TF.GenerationSoftware,Altium Limited,Altium Designer,21.9.2 (33)*
G04*
G04 Layer_Color=255*
%FSLAX44Y44*%
%MOMM*%
G71*
G04*
G04 #@! TF.SameCoordinates,D0450A9E-FE46-4EA2-B322-C77A40C1B8EA*
G04*
G04*
G04 #@! TF.FilePolarity,Positive*
G04*
G01*
G75*
%ADD49R,1.3900X1.3900*%
%ADD50C,1.3900*%
%ADD51C,2.7750*%
%ADD52R,2.7750X2.7750*%
%ADD53C,3.0000*%
%ADD54R,3.0000X3.0000*%
%ADD55C,10.0000*%
%ADD56C,4.0660*%
%ADD57R,1.5080X1.5080*%
%ADD58C,1.5080*%
%ADD59C,2.1750*%
%ADD60R,2.1000X2.1000*%
%ADD61C,2.1000*%
%ADD62R,2.1000X2.1000*%
D49*
X1092200Y1333500D02*
D03*
X482600D02*
D03*
D50*
X1117600D02*
D03*
X1092200Y1308100D02*
D03*
X1117600D02*
D03*
X1092200Y1282700D02*
D03*
X1117600D02*
D03*
X1092200Y1257300D02*
D03*
X1117600D02*
D03*
X1092200Y1231900D02*
D03*
X1117600D02*
D03*
X1092200Y1206500D02*
D03*
X1117600D02*
D03*
X1092200Y1181100D02*
D03*
X1117600D02*
D03*
X1092200Y1155700D02*
D03*
X1117600D02*
D03*
X1092200Y1130300D02*
D03*
X1117600D02*
D03*
X1092200Y1104900D02*
D03*
X1117600D02*
D03*
X1092200Y1079500D02*
D03*
X1117600D02*
D03*
X1092200Y1054100D02*
D03*
X1117600D02*
D03*
X1092200Y1028700D02*
D03*
X1117600D02*
D03*
X1092200Y1003300D02*
D03*
X1117600D02*
D03*
X1092200Y977900D02*
D03*
X1117600D02*
D03*
X1092200Y952500D02*
D03*
X1117600D02*
D03*
X1092200Y927100D02*
D03*
X1117600D02*
D03*
X1092200Y901700D02*
D03*
X1117600D02*
D03*
X1092200Y876300D02*
D03*
X1117600D02*
D03*
X1092200Y850900D02*
D03*
X1117600D02*
D03*
X1092200Y825500D02*
D03*
X1117600D02*
D03*
X1092200Y800100D02*
D03*
X1117600D02*
D03*
X1092200Y774700D02*
D03*
X1117600D02*
D03*
X1092200Y749300D02*
D03*
X1117600D02*
D03*
X1092200Y723900D02*
D03*
X1117600D02*
D03*
X1092200Y698500D02*
D03*
X1117600D02*
D03*
X1092200Y673100D02*
D03*
X1117600D02*
D03*
X1092200Y647700D02*
D03*
X1117600D02*
D03*
X1092200Y622300D02*
D03*
X1117600D02*
D03*
X1092200Y596900D02*
D03*
X1117600D02*
D03*
X1092200Y571500D02*
D03*
X1117600D02*
D03*
X1092200Y546100D02*
D03*
X1117600D02*
D03*
X1092200Y520700D02*
D03*
X1117600D02*
D03*
X1092200Y495300D02*
D03*
X1117600D02*
D03*
X1092200Y469900D02*
D03*
X1117600D02*
D03*
X508000D02*
D03*
X482600D02*
D03*
X508000Y495300D02*
D03*
X482600D02*
D03*
X508000Y520700D02*
D03*
X482600D02*
D03*
X508000Y546100D02*
D03*
X482600D02*
D03*
X508000Y571500D02*
D03*
X482600D02*
D03*
X508000Y596900D02*
D03*
X482600D02*
D03*
X508000Y622300D02*
D03*
X482600D02*
D03*
X508000Y647700D02*
D03*
X482600D02*
D03*
X508000Y673100D02*
D03*
X482600D02*
D03*
X508000Y698500D02*
D03*
X482600D02*
D03*
X508000Y723900D02*
D03*
X482600D02*
D03*
X508000Y749300D02*
D03*
X482600D02*
D03*
X508000Y774700D02*
D03*
X482600D02*
D03*
X508000Y800100D02*
D03*
X482600D02*
D03*
X508000Y825500D02*
D03*
X482600D02*
D03*
X508000Y850900D02*
D03*
X482600D02*
D03*
X508000Y876300D02*
D03*
X482600D02*
D03*
X508000Y901700D02*
D03*
X482600D02*
D03*
X508000Y927100D02*
D03*
X482600D02*
D03*
X508000Y952500D02*
D03*
X482600D02*
D03*
X508000Y977900D02*
D03*
X482600D02*
D03*
X508000Y1003300D02*
D03*
X482600D02*
D03*
X508000Y1028700D02*
D03*
X482600D02*
D03*
X508000Y1054100D02*
D03*
X482600D02*
D03*
X508000Y1079500D02*
D03*
X482600D02*
D03*
X508000Y1104900D02*
D03*
X482600D02*
D03*
X508000Y1130300D02*
D03*
X482600D02*
D03*
X508000Y1155700D02*
D03*
X482600D02*
D03*
X508000Y1181100D02*
D03*
X482600D02*
D03*
X508000Y1206500D02*
D03*
X482600D02*
D03*
X508000Y1231900D02*
D03*
X482600D02*
D03*
X508000Y1257300D02*
D03*
X482600D02*
D03*
X508000Y1282700D02*
D03*
X482600D02*
D03*
X508000Y1308100D02*
D03*
X482600D02*
D03*
X508000Y1333500D02*
D03*
D51*
X1540600Y1651000D02*
D03*
X1498600D02*
D03*
X1456600D02*
D03*
X1498600Y1706000D02*
D03*
X1540600D02*
D03*
X1540600Y1375800D02*
D03*
X1498600D02*
D03*
X1456600Y1320800D02*
D03*
X1498600D02*
D03*
X1540600D02*
D03*
Y1540900D02*
D03*
X1498600D02*
D03*
X1456600Y1485900D02*
D03*
X1498600D02*
D03*
X1540600D02*
D03*
D52*
X1456600Y1706000D02*
D03*
X1456600Y1375800D02*
D03*
Y1540900D02*
D03*
D53*
X1010050Y1752600D02*
D03*
X1231500Y1245100D02*
D03*
X1325500Y1350100D02*
D03*
X1231500Y1473700D02*
D03*
X1325500Y1578700D02*
D03*
X274700Y1494700D02*
D03*
X368700Y1599700D02*
D03*
X1231500Y1016500D02*
D03*
X1325500Y1121500D02*
D03*
X1231500Y787900D02*
D03*
X1325500Y892900D02*
D03*
Y605200D02*
D03*
X1231500Y542200D02*
D03*
Y364400D02*
D03*
X1325500Y427400D02*
D03*
X1477600Y398400D02*
D03*
X1540600Y304400D02*
D03*
X1477600Y563500D02*
D03*
X1540600Y469500D02*
D03*
Y634600D02*
D03*
X1477600Y728600D02*
D03*
Y893700D02*
D03*
X1540600Y799700D02*
D03*
X1477600Y1058800D02*
D03*
X1540600Y964800D02*
D03*
X1477600Y1223900D02*
D03*
X1540600Y1129900D02*
D03*
X59600Y1562500D02*
D03*
X122600Y1468500D02*
D03*
X368700Y520200D02*
D03*
X274700Y415200D02*
D03*
X59600Y673500D02*
D03*
X122600Y579500D02*
D03*
X368700Y1383800D02*
D03*
X274700Y1278800D02*
D03*
X368700Y952000D02*
D03*
X274700Y847000D02*
D03*
X59600Y1384700D02*
D03*
X122600Y1290700D02*
D03*
X59600Y851300D02*
D03*
X122600Y757300D02*
D03*
X59600Y495700D02*
D03*
X122600Y401700D02*
D03*
X59600Y1029100D02*
D03*
X122600Y935100D02*
D03*
X59600Y1740300D02*
D03*
X122600Y1646300D02*
D03*
X59600Y1206900D02*
D03*
X122600Y1112900D02*
D03*
X59600Y317900D02*
D03*
X122600Y223900D02*
D03*
X368700Y736100D02*
D03*
X274700Y631100D02*
D03*
X368700Y1167900D02*
D03*
X274700Y1062900D02*
D03*
D54*
X1060050Y1752600D02*
D03*
D55*
X101600Y1879600D02*
D03*
X1498600D02*
D03*
Y101600D02*
D03*
X101600D02*
D03*
D56*
X1316700D02*
D03*
X1066800D02*
D03*
X533400D02*
D03*
X283500D02*
D03*
X923000D02*
D03*
X673100D02*
D03*
D57*
X1247150Y115800D02*
D03*
X463850D02*
D03*
X853450D02*
D03*
D58*
X1233300Y87400D02*
D03*
X1219450Y115800D02*
D03*
X1205600Y87400D02*
D03*
X1191750Y115800D02*
D03*
X1177900Y87400D02*
D03*
X1164050Y115800D02*
D03*
X1150200Y87400D02*
D03*
X1136350Y115800D02*
D03*
X450000Y87400D02*
D03*
X436150Y115800D02*
D03*
X422300Y87400D02*
D03*
X408450Y115800D02*
D03*
X394600Y87400D02*
D03*
X380750Y115800D02*
D03*
X366900Y87400D02*
D03*
X353050Y115800D02*
D03*
X839600Y87400D02*
D03*
X825750Y115800D02*
D03*
X811900Y87400D02*
D03*
X798050Y115800D02*
D03*
X784200Y87400D02*
D03*
X770350Y115800D02*
D03*
X756500Y87400D02*
D03*
X742650Y115800D02*
D03*
D59*
X1270000Y1245100D02*
D03*
Y1287100D02*
D03*
Y1329100D02*
D03*
Y1371100D02*
D03*
Y1473700D02*
D03*
Y1515700D02*
D03*
Y1557700D02*
D03*
Y1599700D02*
D03*
X330200Y1473700D02*
D03*
Y1515700D02*
D03*
Y1557700D02*
D03*
Y1599700D02*
D03*
X1270000Y1016500D02*
D03*
Y1058500D02*
D03*
Y1100500D02*
D03*
Y1142500D02*
D03*
Y787900D02*
D03*
Y829900D02*
D03*
Y871900D02*
D03*
Y913900D02*
D03*
X330200Y520200D02*
D03*
Y478200D02*
D03*
Y436200D02*
D03*
Y394200D02*
D03*
Y1383800D02*
D03*
Y1341800D02*
D03*
Y1299800D02*
D03*
Y1257800D02*
D03*
Y952000D02*
D03*
Y910000D02*
D03*
Y868000D02*
D03*
Y826000D02*
D03*
Y736100D02*
D03*
Y694100D02*
D03*
Y652100D02*
D03*
Y610100D02*
D03*
Y1167900D02*
D03*
Y1125900D02*
D03*
Y1083900D02*
D03*
Y1041900D02*
D03*
D60*
X1270000Y626200D02*
D03*
Y448400D02*
D03*
D61*
Y584200D02*
D03*
Y542200D02*
D03*
Y364400D02*
D03*
Y406400D02*
D03*
X1498600Y342900D02*
D03*
X1540600D02*
D03*
X1498600Y508000D02*
D03*
X1540600D02*
D03*
Y673100D02*
D03*
X1498600D02*
D03*
Y838200D02*
D03*
X1540600D02*
D03*
X1498600Y1003300D02*
D03*
X1540600D02*
D03*
X1498600Y1168400D02*
D03*
X1540600D02*
D03*
X59600Y1524000D02*
D03*
X101600D02*
D03*
X59600Y635000D02*
D03*
X101600D02*
D03*
X59600Y1346200D02*
D03*
X101600D02*
D03*
X59600Y812800D02*
D03*
X101600D02*
D03*
X59600Y457200D02*
D03*
X101600D02*
D03*
X59600Y990600D02*
D03*
X101600D02*
D03*
X59600Y1701800D02*
D03*
X101600D02*
D03*
X59600Y1168400D02*
D03*
X101600D02*
D03*
X59600Y279400D02*
D03*
X101600D02*
D03*
D62*
X1456600Y342900D02*
D03*
Y508000D02*
D03*
Y673100D02*
D03*
Y838200D02*
D03*
Y1003300D02*
D03*
Y1168400D02*
D03*
X143600Y1524000D02*
D03*
Y635000D02*
D03*
Y1346200D02*
D03*
Y812800D02*
D03*
Y457200D02*
D03*
Y990600D02*
D03*
Y1701800D02*
D03*
Y1168400D02*
D03*
Y279400D02*
D03*
M02*
