G04*
G04 #@! TF.GenerationSoftware,Altium Limited,Altium Designer,21.9.2 (33)*
G04*
G04 Layer_Color=2752767*
%FSLAX44Y44*%
%MOMM*%
G71*
G04*
G04 #@! TF.SameCoordinates,D0450A9E-FE46-4EA2-B322-C77A40C1B8EA*
G04*
G04*
G04 #@! TF.FilePolarity,Positive*
G04*
G01*
G75*
%ADD67C,0.0508*%
%ADD68C,0.0677*%
%ADD69C,0.0339*%
D67*
X1090168Y1331468D02*
Y1335532D01*
X1094232D01*
Y1331468D01*
X1090168D01*
X1115568D02*
Y1335532D01*
X1119632D01*
Y1331468D01*
X1115568D01*
X1090168Y1306068D02*
Y1310132D01*
X1094232D01*
Y1306068D01*
X1090168D01*
X1115568D02*
Y1310132D01*
X1119632D01*
Y1306068D01*
X1115568D01*
X1090168Y1280668D02*
Y1284732D01*
X1094232D01*
Y1280668D01*
X1090168D01*
X1115568D02*
Y1284732D01*
X1119632D01*
Y1280668D01*
X1115568D01*
X1090168Y1255268D02*
Y1259332D01*
X1094232D01*
Y1255268D01*
X1090168D01*
X1115568D02*
Y1259332D01*
X1119632D01*
Y1255268D01*
X1115568D01*
X1090168Y1229868D02*
Y1233932D01*
X1094232D01*
Y1229868D01*
X1090168D01*
X1115568D02*
Y1233932D01*
X1119632D01*
Y1229868D01*
X1115568D01*
X1090168Y1204468D02*
Y1208532D01*
X1094232D01*
Y1204468D01*
X1090168D01*
X1115568D02*
Y1208532D01*
X1119632D01*
Y1204468D01*
X1115568D01*
X1090168Y1179068D02*
Y1183132D01*
X1094232D01*
Y1179068D01*
X1090168D01*
X1115568D02*
Y1183132D01*
X1119632D01*
Y1179068D01*
X1115568D01*
X1090168Y1153668D02*
Y1157732D01*
X1094232D01*
Y1153668D01*
X1090168D01*
X1115568D02*
Y1157732D01*
X1119632D01*
Y1153668D01*
X1115568D01*
X1090168Y1128268D02*
Y1132332D01*
X1094232D01*
Y1128268D01*
X1090168D01*
X1115568D02*
Y1132332D01*
X1119632D01*
Y1128268D01*
X1115568D01*
X1090168Y1102868D02*
Y1106932D01*
X1094232D01*
Y1102868D01*
X1090168D01*
X1115568D02*
Y1106932D01*
X1119632D01*
Y1102868D01*
X1115568D01*
X1090168Y1077468D02*
Y1081532D01*
X1094232D01*
Y1077468D01*
X1090168D01*
X1115568D02*
Y1081532D01*
X1119632D01*
Y1077468D01*
X1115568D01*
X1090168Y1052068D02*
Y1056132D01*
X1094232D01*
Y1052068D01*
X1090168D01*
X1115568D02*
Y1056132D01*
X1119632D01*
Y1052068D01*
X1115568D01*
X1090168Y1026668D02*
Y1030732D01*
X1094232D01*
Y1026668D01*
X1090168D01*
X1115568D02*
Y1030732D01*
X1119632D01*
Y1026668D01*
X1115568D01*
X1090168Y1001268D02*
Y1005332D01*
X1094232D01*
Y1001268D01*
X1090168D01*
X1115568D02*
Y1005332D01*
X1119632D01*
Y1001268D01*
X1115568D01*
X1090168Y975868D02*
Y979932D01*
X1094232D01*
Y975868D01*
X1090168D01*
X1115568D02*
Y979932D01*
X1119632D01*
Y975868D01*
X1115568D01*
X1090168Y950468D02*
Y954532D01*
X1094232D01*
Y950468D01*
X1090168D01*
X1115568D02*
Y954532D01*
X1119632D01*
Y950468D01*
X1115568D01*
X1090168Y925068D02*
Y929132D01*
X1094232D01*
Y925068D01*
X1090168D01*
X1115568D02*
Y929132D01*
X1119632D01*
Y925068D01*
X1115568D01*
X1090168Y899668D02*
Y903732D01*
X1094232D01*
Y899668D01*
X1090168D01*
X1115568D02*
Y903732D01*
X1119632D01*
Y899668D01*
X1115568D01*
X1090168Y874268D02*
Y878332D01*
X1094232D01*
Y874268D01*
X1090168D01*
X1115568D02*
Y878332D01*
X1119632D01*
Y874268D01*
X1115568D01*
X1090168Y848868D02*
Y852932D01*
X1094232D01*
Y848868D01*
X1090168D01*
X1115568D02*
Y852932D01*
X1119632D01*
Y848868D01*
X1115568D01*
X1090168Y823468D02*
Y827532D01*
X1094232D01*
Y823468D01*
X1090168D01*
X1115568D02*
Y827532D01*
X1119632D01*
Y823468D01*
X1115568D01*
X1090168Y798068D02*
Y802132D01*
X1094232D01*
Y798068D01*
X1090168D01*
X1115568D02*
Y802132D01*
X1119632D01*
Y798068D01*
X1115568D01*
X1090168Y772668D02*
Y776732D01*
X1094232D01*
Y772668D01*
X1090168D01*
X1115568D02*
Y776732D01*
X1119632D01*
Y772668D01*
X1115568D01*
X1090168Y747268D02*
Y751332D01*
X1094232D01*
Y747268D01*
X1090168D01*
X1115568D02*
Y751332D01*
X1119632D01*
Y747268D01*
X1115568D01*
X1090168Y721868D02*
Y725932D01*
X1094232D01*
Y721868D01*
X1090168D01*
X1115568D02*
Y725932D01*
X1119632D01*
Y721868D01*
X1115568D01*
X1090168Y696468D02*
Y700532D01*
X1094232D01*
Y696468D01*
X1090168D01*
X1115568D02*
Y700532D01*
X1119632D01*
Y696468D01*
X1115568D01*
X1090168Y671068D02*
Y675132D01*
X1094232D01*
Y671068D01*
X1090168D01*
X1115568D02*
Y675132D01*
X1119632D01*
Y671068D01*
X1115568D01*
X1090168Y645668D02*
Y649732D01*
X1094232D01*
Y645668D01*
X1090168D01*
X1115568D02*
Y649732D01*
X1119632D01*
Y645668D01*
X1115568D01*
X1090168Y620268D02*
Y624332D01*
X1094232D01*
Y620268D01*
X1090168D01*
X1115568D02*
Y624332D01*
X1119632D01*
Y620268D01*
X1115568D01*
X1090168Y594868D02*
Y598932D01*
X1094232D01*
Y594868D01*
X1090168D01*
X1115568D02*
Y598932D01*
X1119632D01*
Y594868D01*
X1115568D01*
X1090168Y569468D02*
Y573532D01*
X1094232D01*
Y569468D01*
X1090168D01*
X1115568D02*
Y573532D01*
X1119632D01*
Y569468D01*
X1115568D01*
X1090168Y544068D02*
Y548132D01*
X1094232D01*
Y544068D01*
X1090168D01*
X1115568D02*
Y548132D01*
X1119632D01*
Y544068D01*
X1115568D01*
X1090168Y518668D02*
Y522732D01*
X1094232D01*
Y518668D01*
X1090168D01*
X1115568D02*
Y522732D01*
X1119632D01*
Y518668D01*
X1115568D01*
X1090168Y493268D02*
Y497332D01*
X1094232D01*
Y493268D01*
X1090168D01*
X1115568D02*
Y497332D01*
X1119632D01*
Y493268D01*
X1115568D01*
X1090168Y467868D02*
Y471932D01*
X1094232D01*
Y467868D01*
X1090168D01*
X1115568D02*
Y471932D01*
X1119632D01*
Y467868D01*
X1115568D01*
X1010050Y1750568D02*
X1008018Y1754632D01*
X1012082D01*
X1010050Y1750568D01*
X1060050D02*
X1058018Y1754632D01*
X1062082D01*
X1060050Y1750568D01*
X101600Y1877568D02*
X102616Y1878584D01*
X103632D01*
X102616Y1879600D01*
X103632Y1880616D01*
X102616D01*
X101600Y1881632D01*
X100584Y1880616D01*
X99568D01*
X100584Y1879600D01*
X99568Y1878584D01*
X100584D01*
X101600Y1877568D01*
X1498600D02*
X1499616Y1878584D01*
X1500632D01*
X1499616Y1879600D01*
X1500632Y1880616D01*
X1499616D01*
X1498600Y1881632D01*
X1497584Y1880616D01*
X1496568D01*
X1497584Y1879600D01*
X1496568Y1878584D01*
X1497584D01*
X1498600Y1877568D01*
X1314668Y99568D02*
X1315684Y101600D01*
X1314668Y103632D01*
X1316700Y102616D01*
X1318732Y103632D01*
X1317716Y101600D01*
X1318732Y99568D01*
X1316700Y100584D01*
X1314668Y99568D01*
X1064768D02*
X1065784Y101600D01*
X1064768Y103632D01*
X1066800Y102616D01*
X1068832Y103632D01*
X1067816Y101600D01*
X1068832Y99568D01*
X1066800Y100584D01*
X1064768Y99568D01*
X1246134Y114784D02*
Y113768D01*
X1248166D01*
Y114784D01*
X1249182D01*
Y116816D01*
X1248166D01*
Y117832D01*
X1246134D01*
Y116816D01*
X1245118D01*
Y114784D01*
X1246134D01*
X1232284Y86384D02*
Y85368D01*
X1234316D01*
Y86384D01*
X1235332D01*
Y88416D01*
X1234316D01*
Y89432D01*
X1232284D01*
Y88416D01*
X1231268D01*
Y86384D01*
X1232284D01*
X1218434Y114784D02*
Y113768D01*
X1220466D01*
Y114784D01*
X1221482D01*
Y116816D01*
X1220466D01*
Y117832D01*
X1218434D01*
Y116816D01*
X1217418D01*
Y114784D01*
X1218434D01*
X1204584Y86384D02*
Y85368D01*
X1206616D01*
Y86384D01*
X1207632D01*
Y88416D01*
X1206616D01*
Y89432D01*
X1204584D01*
Y88416D01*
X1203568D01*
Y86384D01*
X1204584D01*
X1190734Y114784D02*
Y113768D01*
X1192766D01*
Y114784D01*
X1193782D01*
Y116816D01*
X1192766D01*
Y117832D01*
X1190734D01*
Y116816D01*
X1189718D01*
Y114784D01*
X1190734D01*
X1176884Y86384D02*
Y85368D01*
X1178916D01*
Y86384D01*
X1179932D01*
Y88416D01*
X1178916D01*
Y89432D01*
X1176884D01*
Y88416D01*
X1175868D01*
Y86384D01*
X1176884D01*
X1163034Y114784D02*
Y113768D01*
X1165066D01*
Y114784D01*
X1166082D01*
Y116816D01*
X1165066D01*
Y117832D01*
X1163034D01*
Y116816D01*
X1162018D01*
Y114784D01*
X1163034D01*
X1149184Y86384D02*
Y85368D01*
X1151216D01*
Y86384D01*
X1152232D01*
Y88416D01*
X1151216D01*
Y89432D01*
X1149184D01*
Y88416D01*
X1148168D01*
Y86384D01*
X1149184D01*
X1135334Y114784D02*
Y113768D01*
X1137366D01*
Y114784D01*
X1138382D01*
Y116816D01*
X1137366D01*
Y117832D01*
X1135334D01*
Y116816D01*
X1134318D01*
Y114784D01*
X1135334D01*
X531368Y99568D02*
X532384Y101600D01*
X531368Y103632D01*
X533400Y102616D01*
X535432Y103632D01*
X534416Y101600D01*
X535432Y99568D01*
X533400Y100584D01*
X531368Y99568D01*
X281468D02*
X282484Y101600D01*
X281468Y103632D01*
X283500Y102616D01*
X285532Y103632D01*
X284516Y101600D01*
X285532Y99568D01*
X283500Y100584D01*
X281468Y99568D01*
X462834Y114784D02*
Y113768D01*
X464866D01*
Y114784D01*
X465882D01*
Y116816D01*
X464866D01*
Y117832D01*
X462834D01*
Y116816D01*
X461818D01*
Y114784D01*
X462834D01*
X448984Y86384D02*
Y85368D01*
X451016D01*
Y86384D01*
X452032D01*
Y88416D01*
X451016D01*
Y89432D01*
X448984D01*
Y88416D01*
X447968D01*
Y86384D01*
X448984D01*
X435134Y114784D02*
Y113768D01*
X437166D01*
Y114784D01*
X438182D01*
Y116816D01*
X437166D01*
Y117832D01*
X435134D01*
Y116816D01*
X434118D01*
Y114784D01*
X435134D01*
X421284Y86384D02*
Y85368D01*
X423316D01*
Y86384D01*
X424332D01*
Y88416D01*
X423316D01*
Y89432D01*
X421284D01*
Y88416D01*
X420268D01*
Y86384D01*
X421284D01*
X407434Y114784D02*
Y113768D01*
X409466D01*
Y114784D01*
X410482D01*
Y116816D01*
X409466D01*
Y117832D01*
X407434D01*
Y116816D01*
X406418D01*
Y114784D01*
X407434D01*
X393584Y86384D02*
Y85368D01*
X395616D01*
Y86384D01*
X396632D01*
Y88416D01*
X395616D01*
Y89432D01*
X393584D01*
Y88416D01*
X392568D01*
Y86384D01*
X393584D01*
X379734Y114784D02*
Y113768D01*
X381766D01*
Y114784D01*
X382782D01*
Y116816D01*
X381766D01*
Y117832D01*
X379734D01*
Y116816D01*
X378718D01*
Y114784D01*
X379734D01*
X365885Y86384D02*
Y85368D01*
X367916D01*
Y86384D01*
X368932D01*
Y88416D01*
X367916D01*
Y89432D01*
X365885D01*
Y88416D01*
X364869D01*
Y86384D01*
X365885D01*
X352034Y114784D02*
Y113768D01*
X354066D01*
Y114784D01*
X355082D01*
Y116816D01*
X354066D01*
Y117832D01*
X352034D01*
Y116816D01*
X351018D01*
Y114784D01*
X352034D01*
X920968Y99568D02*
X921984Y101600D01*
X920968Y103632D01*
X923000Y102616D01*
X925032Y103632D01*
X924016Y101600D01*
X925032Y99568D01*
X923000Y100584D01*
X920968Y99568D01*
X671068D02*
X672084Y101600D01*
X671068Y103632D01*
X673100Y102616D01*
X675132Y103632D01*
X674116Y101600D01*
X675132Y99568D01*
X673100Y100584D01*
X671068Y99568D01*
X852434Y114784D02*
Y113768D01*
X854466D01*
Y114784D01*
X855482D01*
Y116816D01*
X854466D01*
Y117832D01*
X852434D01*
Y116816D01*
X851418D01*
Y114784D01*
X852434D01*
X838584Y86384D02*
Y85368D01*
X840616D01*
Y86384D01*
X841632D01*
Y88416D01*
X840616D01*
Y89432D01*
X838584D01*
Y88416D01*
X837568D01*
Y86384D01*
X838584D01*
X824734Y114784D02*
Y113768D01*
X826766D01*
Y114784D01*
X827782D01*
Y116816D01*
X826766D01*
Y117832D01*
X824734D01*
Y116816D01*
X823718D01*
Y114784D01*
X824734D01*
X810884Y86384D02*
Y85368D01*
X812916D01*
Y86384D01*
X813932D01*
Y88416D01*
X812916D01*
Y89432D01*
X810884D01*
Y88416D01*
X809868D01*
Y86384D01*
X810884D01*
X797034Y114784D02*
Y113768D01*
X799066D01*
Y114784D01*
X800082D01*
Y116816D01*
X799066D01*
Y117832D01*
X797034D01*
Y116816D01*
X796018D01*
Y114784D01*
X797034D01*
X783184Y86384D02*
Y85368D01*
X785216D01*
Y86384D01*
X786232D01*
Y88416D01*
X785216D01*
Y89432D01*
X783184D01*
Y88416D01*
X782168D01*
Y86384D01*
X783184D01*
X769334Y114784D02*
Y113768D01*
X771366D01*
Y114784D01*
X772382D01*
Y116816D01*
X771366D01*
Y117832D01*
X769334D01*
Y116816D01*
X768318D01*
Y114784D01*
X769334D01*
X755484Y86384D02*
Y85368D01*
X757516D01*
Y86384D01*
X758532D01*
Y88416D01*
X757516D01*
Y89432D01*
X755484D01*
Y88416D01*
X754468D01*
Y86384D01*
X755484D01*
X741634Y114784D02*
Y113768D01*
X743666D01*
Y114784D01*
X744682D01*
Y116816D01*
X743666D01*
Y117832D01*
X741634D01*
Y116816D01*
X740618D01*
Y114784D01*
X741634D01*
X1267968Y1243068D02*
X1268984D01*
X1270000Y1244084D01*
X1271016Y1243068D01*
X1272032D01*
Y1244084D01*
X1271016Y1245100D01*
X1272032Y1246116D01*
Y1247132D01*
X1271016D01*
X1270000Y1246116D01*
X1268984Y1247132D01*
X1267968D01*
Y1246116D01*
X1268984Y1245100D01*
X1267968Y1244084D01*
Y1243068D01*
Y1285068D02*
X1268984D01*
X1270000Y1286084D01*
X1271016Y1285068D01*
X1272032D01*
Y1286084D01*
X1271016Y1287100D01*
X1272032Y1288116D01*
Y1289132D01*
X1271016D01*
X1270000Y1288116D01*
X1268984Y1289132D01*
X1267968D01*
Y1288116D01*
X1268984Y1287100D01*
X1267968Y1286084D01*
Y1285068D01*
Y1327068D02*
X1268984D01*
X1270000Y1328084D01*
X1271016Y1327068D01*
X1272032D01*
Y1328084D01*
X1271016Y1329100D01*
X1272032Y1330116D01*
Y1331132D01*
X1271016D01*
X1270000Y1330116D01*
X1268984Y1331132D01*
X1267968D01*
Y1330116D01*
X1268984Y1329100D01*
X1267968Y1328084D01*
Y1327068D01*
Y1369068D02*
X1268984D01*
X1270000Y1370084D01*
X1271016Y1369068D01*
X1272032D01*
Y1370084D01*
X1271016Y1371100D01*
X1272032Y1372116D01*
Y1373132D01*
X1271016D01*
X1270000Y1372116D01*
X1268984Y1373132D01*
X1267968D01*
Y1372116D01*
X1268984Y1371100D01*
X1267968Y1370084D01*
Y1369068D01*
X1229468Y1245100D02*
X1231500Y1247132D01*
X1233532Y1245100D01*
X1231500Y1243068D01*
X1229468Y1245100D01*
X1323468Y1350100D02*
X1325500Y1352132D01*
X1327532Y1350100D01*
X1325500Y1348068D01*
X1323468Y1350100D01*
X1267968Y1471668D02*
X1268984D01*
X1270000Y1472684D01*
X1271016Y1471668D01*
X1272032D01*
Y1472684D01*
X1271016Y1473700D01*
X1272032Y1474716D01*
Y1475732D01*
X1271016D01*
X1270000Y1474716D01*
X1268984Y1475732D01*
X1267968D01*
Y1474716D01*
X1268984Y1473700D01*
X1267968Y1472684D01*
Y1471668D01*
Y1513668D02*
X1268984D01*
X1270000Y1514684D01*
X1271016Y1513668D01*
X1272032D01*
Y1514684D01*
X1271016Y1515700D01*
X1272032Y1516716D01*
Y1517732D01*
X1271016D01*
X1270000Y1516716D01*
X1268984Y1517732D01*
X1267968D01*
Y1516716D01*
X1268984Y1515700D01*
X1267968Y1514684D01*
Y1513668D01*
Y1555668D02*
X1268984D01*
X1270000Y1556684D01*
X1271016Y1555668D01*
X1272032D01*
Y1556684D01*
X1271016Y1557700D01*
X1272032Y1558716D01*
Y1559732D01*
X1271016D01*
X1270000Y1558716D01*
X1268984Y1559732D01*
X1267968D01*
Y1558716D01*
X1268984Y1557700D01*
X1267968Y1556684D01*
Y1555668D01*
Y1597668D02*
X1268984D01*
X1270000Y1598684D01*
X1271016Y1597668D01*
X1272032D01*
Y1598684D01*
X1271016Y1599700D01*
X1272032Y1600716D01*
Y1601732D01*
X1271016D01*
X1270000Y1600716D01*
X1268984Y1601732D01*
X1267968D01*
Y1600716D01*
X1268984Y1599700D01*
X1267968Y1598684D01*
Y1597668D01*
X1229468Y1473700D02*
X1231500Y1475732D01*
X1233532Y1473700D01*
X1231500Y1471668D01*
X1229468Y1473700D01*
X1323468Y1578700D02*
X1325500Y1580732D01*
X1327532Y1578700D01*
X1325500Y1576668D01*
X1323468Y1578700D01*
X272668Y1494700D02*
X274700Y1496732D01*
X276732Y1494700D01*
X274700Y1492668D01*
X272668Y1494700D01*
X366668Y1599700D02*
X368700Y1601732D01*
X370732Y1599700D01*
X368700Y1597668D01*
X366668Y1599700D01*
X328168Y1471668D02*
X329184D01*
X330200Y1472684D01*
X331216Y1471668D01*
X332232D01*
Y1472684D01*
X331216Y1473700D01*
X332232Y1474716D01*
Y1475732D01*
X331216D01*
X330200Y1474716D01*
X329184Y1475732D01*
X328168D01*
Y1474716D01*
X329184Y1473700D01*
X328168Y1472684D01*
Y1471668D01*
Y1513668D02*
X329184D01*
X330200Y1514684D01*
X331216Y1513668D01*
X332232D01*
Y1514684D01*
X331216Y1515700D01*
X332232Y1516716D01*
Y1517732D01*
X331216D01*
X330200Y1516716D01*
X329184Y1517732D01*
X328168D01*
Y1516716D01*
X329184Y1515700D01*
X328168Y1514684D01*
Y1513668D01*
Y1555668D02*
X329184D01*
X330200Y1556684D01*
X331216Y1555668D01*
X332232D01*
Y1556684D01*
X331216Y1557700D01*
X332232Y1558716D01*
Y1559732D01*
X331216D01*
X330200Y1558716D01*
X329184Y1559732D01*
X328168D01*
Y1558716D01*
X329184Y1557700D01*
X328168Y1556684D01*
Y1555668D01*
Y1597668D02*
X329184D01*
X330200Y1598684D01*
X331216Y1597668D01*
X332232D01*
Y1598684D01*
X331216Y1599700D01*
X332232Y1600716D01*
Y1601732D01*
X331216D01*
X330200Y1600716D01*
X329184Y1601732D01*
X328168D01*
Y1600716D01*
X329184Y1599700D01*
X328168Y1598684D01*
Y1597668D01*
X1267968Y1014468D02*
X1268984D01*
X1270000Y1015484D01*
X1271016Y1014468D01*
X1272032D01*
Y1015484D01*
X1271016Y1016500D01*
X1272032Y1017516D01*
Y1018532D01*
X1271016D01*
X1270000Y1017516D01*
X1268984Y1018532D01*
X1267968D01*
Y1017516D01*
X1268984Y1016500D01*
X1267968Y1015484D01*
Y1014468D01*
Y1056468D02*
X1268984D01*
X1270000Y1057484D01*
X1271016Y1056468D01*
X1272032D01*
Y1057484D01*
X1271016Y1058500D01*
X1272032Y1059516D01*
Y1060532D01*
X1271016D01*
X1270000Y1059516D01*
X1268984Y1060532D01*
X1267968D01*
Y1059516D01*
X1268984Y1058500D01*
X1267968Y1057484D01*
Y1056468D01*
Y1098468D02*
X1268984D01*
X1270000Y1099484D01*
X1271016Y1098468D01*
X1272032D01*
Y1099484D01*
X1271016Y1100500D01*
X1272032Y1101516D01*
Y1102532D01*
X1271016D01*
X1270000Y1101516D01*
X1268984Y1102532D01*
X1267968D01*
Y1101516D01*
X1268984Y1100500D01*
X1267968Y1099484D01*
Y1098468D01*
Y1140468D02*
X1268984D01*
X1270000Y1141484D01*
X1271016Y1140468D01*
X1272032D01*
Y1141484D01*
X1271016Y1142500D01*
X1272032Y1143516D01*
Y1144532D01*
X1271016D01*
X1270000Y1143516D01*
X1268984Y1144532D01*
X1267968D01*
Y1143516D01*
X1268984Y1142500D01*
X1267968Y1141484D01*
Y1140468D01*
X1229468Y1016500D02*
X1231500Y1018532D01*
X1233532Y1016500D01*
X1231500Y1014468D01*
X1229468Y1016500D01*
X1323468Y1121500D02*
X1325500Y1123532D01*
X1327532Y1121500D01*
X1325500Y1119468D01*
X1323468Y1121500D01*
X1267968Y785868D02*
X1268984D01*
X1270000Y786884D01*
X1271016Y785868D01*
X1272032D01*
Y786884D01*
X1271016Y787900D01*
X1272032Y788916D01*
Y789932D01*
X1271016D01*
X1270000Y788916D01*
X1268984Y789932D01*
X1267968D01*
Y788916D01*
X1268984Y787900D01*
X1267968Y786884D01*
Y785868D01*
Y827868D02*
X1268984D01*
X1270000Y828884D01*
X1271016Y827868D01*
X1272032D01*
Y828884D01*
X1271016Y829900D01*
X1272032Y830916D01*
Y831932D01*
X1271016D01*
X1270000Y830916D01*
X1268984Y831932D01*
X1267968D01*
Y830916D01*
X1268984Y829900D01*
X1267968Y828884D01*
Y827868D01*
Y869868D02*
X1268984D01*
X1270000Y870884D01*
X1271016Y869868D01*
X1272032D01*
Y870884D01*
X1271016Y871900D01*
X1272032Y872916D01*
Y873932D01*
X1271016D01*
X1270000Y872916D01*
X1268984Y873932D01*
X1267968D01*
Y872916D01*
X1268984Y871900D01*
X1267968Y870884D01*
Y869868D01*
Y911868D02*
X1268984D01*
X1270000Y912884D01*
X1271016Y911868D01*
X1272032D01*
Y912884D01*
X1271016Y913900D01*
X1272032Y914916D01*
Y915932D01*
X1271016D01*
X1270000Y914916D01*
X1268984Y915932D01*
X1267968D01*
Y914916D01*
X1268984Y913900D01*
X1267968Y912884D01*
Y911868D01*
X1229468Y787900D02*
X1231500Y789932D01*
X1233532Y787900D01*
X1231500Y785868D01*
X1229468Y787900D01*
X1323468Y892900D02*
X1325500Y894932D01*
X1327532Y892900D01*
X1325500Y890868D01*
X1323468Y892900D01*
X1267968Y624168D02*
Y628232D01*
X1272032D01*
Y624168D01*
X1267968D01*
X1268984Y625184D02*
Y627216D01*
X1271016D01*
Y625184D01*
X1268984D01*
X1267968Y582168D02*
Y586232D01*
X1272032D01*
Y582168D01*
X1267968D01*
X1268984Y583184D02*
Y585216D01*
X1271016D01*
Y583184D01*
X1268984D01*
X1267968Y540168D02*
Y544232D01*
X1272032D01*
Y540168D01*
X1267968D01*
X1268984Y541184D02*
Y543216D01*
X1271016D01*
Y541184D01*
X1268984D01*
X1323468Y605200D02*
X1325500Y607232D01*
X1327532Y605200D01*
X1325500Y603168D01*
X1323468Y605200D01*
X1229468Y542200D02*
X1231500Y544232D01*
X1233532Y542200D01*
X1231500Y540168D01*
X1229468Y542200D01*
Y364400D02*
X1231500Y366432D01*
X1233532Y364400D01*
X1231500Y362368D01*
X1229468Y364400D01*
X1323468Y427400D02*
X1325500Y429432D01*
X1327532Y427400D01*
X1325500Y425368D01*
X1323468Y427400D01*
X1267968Y362368D02*
Y366432D01*
X1272032D01*
Y362368D01*
X1267968D01*
X1268984Y363384D02*
Y365416D01*
X1271016D01*
Y363384D01*
X1268984D01*
X1267968Y404368D02*
Y408432D01*
X1272032D01*
Y404368D01*
X1267968D01*
X1268984Y405384D02*
Y407416D01*
X1271016D01*
Y405384D01*
X1268984D01*
X1267968Y446368D02*
Y450432D01*
X1272032D01*
Y446368D01*
X1267968D01*
X1268984Y447384D02*
Y449416D01*
X1271016D01*
Y447384D01*
X1268984D01*
X505968Y467868D02*
Y471932D01*
X510032D01*
Y467868D01*
X505968D01*
X480568D02*
Y471932D01*
X484632D01*
Y467868D01*
X480568D01*
X505968Y493268D02*
Y497332D01*
X510032D01*
Y493268D01*
X505968D01*
X480568D02*
Y497332D01*
X484632D01*
Y493268D01*
X480568D01*
X505968Y518668D02*
Y522732D01*
X510032D01*
Y518668D01*
X505968D01*
X480568D02*
Y522732D01*
X484632D01*
Y518668D01*
X480568D01*
X505968Y544068D02*
Y548132D01*
X510032D01*
Y544068D01*
X505968D01*
X480568D02*
Y548132D01*
X484632D01*
Y544068D01*
X480568D01*
X505968Y569468D02*
Y573532D01*
X510032D01*
Y569468D01*
X505968D01*
X480568D02*
Y573532D01*
X484632D01*
Y569468D01*
X480568D01*
X505968Y594868D02*
Y598932D01*
X510032D01*
Y594868D01*
X505968D01*
X480568D02*
Y598932D01*
X484632D01*
Y594868D01*
X480568D01*
X505968Y620268D02*
Y624332D01*
X510032D01*
Y620268D01*
X505968D01*
X480568D02*
Y624332D01*
X484632D01*
Y620268D01*
X480568D01*
X505968Y645668D02*
Y649732D01*
X510032D01*
Y645668D01*
X505968D01*
X480568D02*
Y649732D01*
X484632D01*
Y645668D01*
X480568D01*
X505968Y671068D02*
Y675132D01*
X510032D01*
Y671068D01*
X505968D01*
X480568D02*
Y675132D01*
X484632D01*
Y671068D01*
X480568D01*
X505968Y696468D02*
Y700532D01*
X510032D01*
Y696468D01*
X505968D01*
X480568D02*
Y700532D01*
X484632D01*
Y696468D01*
X480568D01*
X505968Y721868D02*
Y725932D01*
X510032D01*
Y721868D01*
X505968D01*
X480568D02*
Y725932D01*
X484632D01*
Y721868D01*
X480568D01*
X505968Y747268D02*
Y751332D01*
X510032D01*
Y747268D01*
X505968D01*
X480568D02*
Y751332D01*
X484632D01*
Y747268D01*
X480568D01*
X505968Y772668D02*
Y776732D01*
X510032D01*
Y772668D01*
X505968D01*
X480568D02*
Y776732D01*
X484632D01*
Y772668D01*
X480568D01*
X505968Y798068D02*
Y802132D01*
X510032D01*
Y798068D01*
X505968D01*
X480568D02*
Y802132D01*
X484632D01*
Y798068D01*
X480568D01*
X505968Y823468D02*
Y827532D01*
X510032D01*
Y823468D01*
X505968D01*
X480568D02*
Y827532D01*
X484632D01*
Y823468D01*
X480568D01*
X505968Y848868D02*
Y852932D01*
X510032D01*
Y848868D01*
X505968D01*
X480568D02*
Y852932D01*
X484632D01*
Y848868D01*
X480568D01*
X505968Y874268D02*
Y878332D01*
X510032D01*
Y874268D01*
X505968D01*
X480568D02*
Y878332D01*
X484632D01*
Y874268D01*
X480568D01*
X505968Y899668D02*
Y903732D01*
X510032D01*
Y899668D01*
X505968D01*
X480568D02*
Y903732D01*
X484632D01*
Y899668D01*
X480568D01*
X505968Y925068D02*
Y929132D01*
X510032D01*
Y925068D01*
X505968D01*
X480568D02*
Y929132D01*
X484632D01*
Y925068D01*
X480568D01*
X505968Y950468D02*
Y954532D01*
X510032D01*
Y950468D01*
X505968D01*
X480568D02*
Y954532D01*
X484632D01*
Y950468D01*
X480568D01*
X505968Y975868D02*
Y979932D01*
X510032D01*
Y975868D01*
X505968D01*
X480568D02*
Y979932D01*
X484632D01*
Y975868D01*
X480568D01*
X505968Y1001268D02*
Y1005332D01*
X510032D01*
Y1001268D01*
X505968D01*
X480568D02*
Y1005332D01*
X484632D01*
Y1001268D01*
X480568D01*
X505968Y1026668D02*
Y1030732D01*
X510032D01*
Y1026668D01*
X505968D01*
X480568D02*
Y1030732D01*
X484632D01*
Y1026668D01*
X480568D01*
X505968Y1052068D02*
Y1056132D01*
X510032D01*
Y1052068D01*
X505968D01*
X480568D02*
Y1056132D01*
X484632D01*
Y1052068D01*
X480568D01*
X505968Y1077468D02*
Y1081532D01*
X510032D01*
Y1077468D01*
X505968D01*
X480568D02*
Y1081532D01*
X484632D01*
Y1077468D01*
X480568D01*
X505968Y1102868D02*
Y1106932D01*
X510032D01*
Y1102868D01*
X505968D01*
X480568D02*
Y1106932D01*
X484632D01*
Y1102868D01*
X480568D01*
X505968Y1128268D02*
Y1132332D01*
X510032D01*
Y1128268D01*
X505968D01*
X480568D02*
Y1132332D01*
X484632D01*
Y1128268D01*
X480568D01*
X505968Y1153668D02*
Y1157732D01*
X510032D01*
Y1153668D01*
X505968D01*
X480568D02*
Y1157732D01*
X484632D01*
Y1153668D01*
X480568D01*
X505968Y1179068D02*
Y1183132D01*
X510032D01*
Y1179068D01*
X505968D01*
X480568D02*
Y1183132D01*
X484632D01*
Y1179068D01*
X480568D01*
X505968Y1204468D02*
Y1208532D01*
X510032D01*
Y1204468D01*
X505968D01*
X480568D02*
Y1208532D01*
X484632D01*
Y1204468D01*
X480568D01*
X505968Y1229868D02*
Y1233932D01*
X510032D01*
Y1229868D01*
X505968D01*
X480568D02*
Y1233932D01*
X484632D01*
Y1229868D01*
X480568D01*
X505968Y1255268D02*
Y1259332D01*
X510032D01*
Y1255268D01*
X505968D01*
X480568D02*
Y1259332D01*
X484632D01*
Y1255268D01*
X480568D01*
X505968Y1280668D02*
Y1284732D01*
X510032D01*
Y1280668D01*
X505968D01*
X480568D02*
Y1284732D01*
X484632D01*
Y1280668D01*
X480568D01*
X505968Y1306068D02*
Y1310132D01*
X510032D01*
Y1306068D01*
X505968D01*
X480568D02*
Y1310132D01*
X484632D01*
Y1306068D01*
X480568D01*
X505968Y1331468D02*
Y1335532D01*
X510032D01*
Y1331468D01*
X505968D01*
X480568D02*
Y1335532D01*
X484632D01*
Y1331468D01*
X480568D01*
X1454568Y340868D02*
Y344932D01*
X1458632D01*
Y340868D01*
X1454568D01*
X1455584Y341884D02*
Y343916D01*
X1457616D01*
Y341884D01*
X1455584D01*
X1496568Y340868D02*
Y344932D01*
X1500632D01*
Y340868D01*
X1496568D01*
X1497584Y341884D02*
Y343916D01*
X1499616D01*
Y341884D01*
X1497584D01*
X1538568Y340868D02*
Y344932D01*
X1542632D01*
Y340868D01*
X1538568D01*
X1539584Y341884D02*
Y343916D01*
X1541616D01*
Y341884D01*
X1539584D01*
X1475568Y398400D02*
X1477600Y400432D01*
X1479632Y398400D01*
X1477600Y396368D01*
X1475568Y398400D01*
X1538568Y304400D02*
X1540600Y306432D01*
X1542632Y304400D01*
X1540600Y302368D01*
X1538568Y304400D01*
X1454568Y505968D02*
Y510032D01*
X1458632D01*
Y505968D01*
X1454568D01*
X1455584Y506984D02*
Y509016D01*
X1457616D01*
Y506984D01*
X1455584D01*
X1496568Y505968D02*
Y510032D01*
X1500632D01*
Y505968D01*
X1496568D01*
X1497584Y506984D02*
Y509016D01*
X1499616D01*
Y506984D01*
X1497584D01*
X1538568Y505968D02*
Y510032D01*
X1542632D01*
Y505968D01*
X1538568D01*
X1539584Y506984D02*
Y509016D01*
X1541616D01*
Y506984D01*
X1539584D01*
X1475568Y563500D02*
X1477600Y565532D01*
X1479632Y563500D01*
X1477600Y561468D01*
X1475568Y563500D01*
X1538568Y469500D02*
X1540600Y471532D01*
X1542632Y469500D01*
X1540600Y467468D01*
X1538568Y469500D01*
Y634600D02*
X1540600Y636632D01*
X1542632Y634600D01*
X1540600Y632568D01*
X1538568Y634600D01*
X1475568Y728600D02*
X1477600Y730632D01*
X1479632Y728600D01*
X1477600Y726568D01*
X1475568Y728600D01*
X1538568Y671068D02*
Y675132D01*
X1542632D01*
Y671068D01*
X1538568D01*
X1539584Y672084D02*
Y674116D01*
X1541616D01*
Y672084D01*
X1539584D01*
X1496568Y671068D02*
Y675132D01*
X1500632D01*
Y671068D01*
X1496568D01*
X1497584Y672084D02*
Y674116D01*
X1499616D01*
Y672084D01*
X1497584D01*
X1454568Y671068D02*
Y675132D01*
X1458632D01*
Y671068D01*
X1454568D01*
X1455584Y672084D02*
Y674116D01*
X1457616D01*
Y672084D01*
X1455584D01*
X1454568Y836168D02*
Y840232D01*
X1458632D01*
Y836168D01*
X1454568D01*
X1455584Y837184D02*
Y839216D01*
X1457616D01*
Y837184D01*
X1455584D01*
X1496568Y836168D02*
Y840232D01*
X1500632D01*
Y836168D01*
X1496568D01*
X1497584Y837184D02*
Y839216D01*
X1499616D01*
Y837184D01*
X1497584D01*
X1538568Y836168D02*
Y840232D01*
X1542632D01*
Y836168D01*
X1538568D01*
X1539584Y837184D02*
Y839216D01*
X1541616D01*
Y837184D01*
X1539584D01*
X1475568Y893700D02*
X1477600Y895732D01*
X1479632Y893700D01*
X1477600Y891668D01*
X1475568Y893700D01*
X1538568Y799700D02*
X1540600Y801732D01*
X1542632Y799700D01*
X1540600Y797668D01*
X1538568Y799700D01*
X1454568Y1001268D02*
Y1005332D01*
X1458632D01*
Y1001268D01*
X1454568D01*
X1455584Y1002284D02*
Y1004316D01*
X1457616D01*
Y1002284D01*
X1455584D01*
X1496568Y1001268D02*
Y1005332D01*
X1500632D01*
Y1001268D01*
X1496568D01*
X1497584Y1002284D02*
Y1004316D01*
X1499616D01*
Y1002284D01*
X1497584D01*
X1538568Y1001268D02*
Y1005332D01*
X1542632D01*
Y1001268D01*
X1538568D01*
X1539584Y1002284D02*
Y1004316D01*
X1541616D01*
Y1002284D01*
X1539584D01*
X1475568Y1058800D02*
X1477600Y1060832D01*
X1479632Y1058800D01*
X1477600Y1056768D01*
X1475568Y1058800D01*
X1538568Y964800D02*
X1540600Y966832D01*
X1542632Y964800D01*
X1540600Y962768D01*
X1538568Y964800D01*
X1454568Y1166368D02*
Y1170432D01*
X1458632D01*
Y1166368D01*
X1454568D01*
X1455584Y1167384D02*
Y1169416D01*
X1457616D01*
Y1167384D01*
X1455584D01*
X1496568Y1166368D02*
Y1170432D01*
X1500632D01*
Y1166368D01*
X1496568D01*
X1497584Y1167384D02*
Y1169416D01*
X1499616D01*
Y1167384D01*
X1497584D01*
X1538568Y1166368D02*
Y1170432D01*
X1542632D01*
Y1166368D01*
X1538568D01*
X1539584Y1167384D02*
Y1169416D01*
X1541616D01*
Y1167384D01*
X1539584D01*
X1475568Y1223900D02*
X1477600Y1225932D01*
X1479632Y1223900D01*
X1477600Y1221868D01*
X1475568Y1223900D01*
X1538568Y1129900D02*
X1540600Y1131932D01*
X1542632Y1129900D01*
X1540600Y1127868D01*
X1538568Y1129900D01*
X1498600Y99568D02*
X1499616Y100584D01*
X1500632D01*
X1499616Y101600D01*
X1500632Y102616D01*
X1499616D01*
X1498600Y103632D01*
X1497584Y102616D01*
X1496568D01*
X1497584Y101600D01*
X1496568Y100584D01*
X1497584D01*
X1498600Y99568D01*
X101600D02*
X102616Y100584D01*
X103632D01*
X102616Y101600D01*
X103632Y102616D01*
X102616D01*
X101600Y103632D01*
X100584Y102616D01*
X99568D01*
X100584Y101600D01*
X99568Y100584D01*
X100584D01*
X101600Y99568D01*
X57568Y1562500D02*
X59600Y1564532D01*
X61632Y1562500D01*
X59600Y1560468D01*
X57568Y1562500D01*
X120568Y1468500D02*
X122600Y1470532D01*
X124632Y1468500D01*
X122600Y1466468D01*
X120568Y1468500D01*
X57568Y1521968D02*
Y1526032D01*
X61632D01*
Y1521968D01*
X57568D01*
X58584Y1522984D02*
Y1525016D01*
X60616D01*
Y1522984D01*
X58584D01*
X99568Y1521968D02*
Y1526032D01*
X103632D01*
Y1521968D01*
X99568D01*
X100584Y1522984D02*
Y1525016D01*
X102616D01*
Y1522984D01*
X100584D01*
X141568Y1521968D02*
Y1526032D01*
X145632D01*
Y1521968D01*
X141568D01*
X142584Y1522984D02*
Y1525016D01*
X144616D01*
Y1522984D01*
X142584D01*
X328168Y518168D02*
X329184D01*
X330200Y519184D01*
X331216Y518168D01*
X332232D01*
Y519184D01*
X331216Y520200D01*
X332232Y521216D01*
Y522232D01*
X331216D01*
X330200Y521216D01*
X329184Y522232D01*
X328168D01*
Y521216D01*
X329184Y520200D01*
X328168Y519184D01*
Y518168D01*
Y476168D02*
X329184D01*
X330200Y477184D01*
X331216Y476168D01*
X332232D01*
Y477184D01*
X331216Y478200D01*
X332232Y479216D01*
Y480232D01*
X331216D01*
X330200Y479216D01*
X329184Y480232D01*
X328168D01*
Y479216D01*
X329184Y478200D01*
X328168Y477184D01*
Y476168D01*
Y434168D02*
X329184D01*
X330200Y435184D01*
X331216Y434168D01*
X332232D01*
Y435184D01*
X331216Y436200D01*
X332232Y437216D01*
Y438232D01*
X331216D01*
X330200Y437216D01*
X329184Y438232D01*
X328168D01*
Y437216D01*
X329184Y436200D01*
X328168Y435184D01*
Y434168D01*
Y392168D02*
X329184D01*
X330200Y393184D01*
X331216Y392168D01*
X332232D01*
Y393184D01*
X331216Y394200D01*
X332232Y395216D01*
Y396232D01*
X331216D01*
X330200Y395216D01*
X329184Y396232D01*
X328168D01*
Y395216D01*
X329184Y394200D01*
X328168Y393184D01*
Y392168D01*
X366668Y520200D02*
X368700Y522232D01*
X370732Y520200D01*
X368700Y518168D01*
X366668Y520200D01*
X272668Y415200D02*
X274700Y417232D01*
X276732Y415200D01*
X274700Y413168D01*
X272668Y415200D01*
X57568Y673500D02*
X59600Y675532D01*
X61632Y673500D01*
X59600Y671468D01*
X57568Y673500D01*
X120568Y579500D02*
X122600Y581532D01*
X124632Y579500D01*
X122600Y577468D01*
X120568Y579500D01*
X57568Y632968D02*
Y637032D01*
X61632D01*
Y632968D01*
X57568D01*
X58584Y633984D02*
Y636016D01*
X60616D01*
Y633984D01*
X58584D01*
X99568Y632968D02*
Y637032D01*
X103632D01*
Y632968D01*
X99568D01*
X100584Y633984D02*
Y636016D01*
X102616D01*
Y633984D01*
X100584D01*
X141568Y632968D02*
Y637032D01*
X145632D01*
Y632968D01*
X141568D01*
X142584Y633984D02*
Y636016D01*
X144616D01*
Y633984D01*
X142584D01*
X328168Y1381768D02*
X329184D01*
X330200Y1382784D01*
X331216Y1381768D01*
X332232D01*
Y1382784D01*
X331216Y1383800D01*
X332232Y1384816D01*
Y1385832D01*
X331216D01*
X330200Y1384816D01*
X329184Y1385832D01*
X328168D01*
Y1384816D01*
X329184Y1383800D01*
X328168Y1382784D01*
Y1381768D01*
Y1339768D02*
X329184D01*
X330200Y1340784D01*
X331216Y1339768D01*
X332232D01*
Y1340784D01*
X331216Y1341800D01*
X332232Y1342816D01*
Y1343832D01*
X331216D01*
X330200Y1342816D01*
X329184Y1343832D01*
X328168D01*
Y1342816D01*
X329184Y1341800D01*
X328168Y1340784D01*
Y1339768D01*
Y1297768D02*
X329184D01*
X330200Y1298784D01*
X331216Y1297768D01*
X332232D01*
Y1298784D01*
X331216Y1299800D01*
X332232Y1300816D01*
Y1301832D01*
X331216D01*
X330200Y1300816D01*
X329184Y1301832D01*
X328168D01*
Y1300816D01*
X329184Y1299800D01*
X328168Y1298784D01*
Y1297768D01*
Y1255768D02*
X329184D01*
X330200Y1256784D01*
X331216Y1255768D01*
X332232D01*
Y1256784D01*
X331216Y1257800D01*
X332232Y1258816D01*
Y1259832D01*
X331216D01*
X330200Y1258816D01*
X329184Y1259832D01*
X328168D01*
Y1258816D01*
X329184Y1257800D01*
X328168Y1256784D01*
Y1255768D01*
X366668Y1383800D02*
X368700Y1385832D01*
X370732Y1383800D01*
X368700Y1381768D01*
X366668Y1383800D01*
X272668Y1278800D02*
X274700Y1280832D01*
X276732Y1278800D01*
X274700Y1276768D01*
X272668Y1278800D01*
X328168Y949968D02*
X329184D01*
X330200Y950984D01*
X331216Y949968D01*
X332232D01*
Y950984D01*
X331216Y952000D01*
X332232Y953016D01*
Y954032D01*
X331216D01*
X330200Y953016D01*
X329184Y954032D01*
X328168D01*
Y953016D01*
X329184Y952000D01*
X328168Y950984D01*
Y949968D01*
Y907968D02*
X329184D01*
X330200Y908984D01*
X331216Y907968D01*
X332232D01*
Y908984D01*
X331216Y910000D01*
X332232Y911016D01*
Y912032D01*
X331216D01*
X330200Y911016D01*
X329184Y912032D01*
X328168D01*
Y911016D01*
X329184Y910000D01*
X328168Y908984D01*
Y907968D01*
Y865968D02*
X329184D01*
X330200Y866984D01*
X331216Y865968D01*
X332232D01*
Y866984D01*
X331216Y868000D01*
X332232Y869016D01*
Y870032D01*
X331216D01*
X330200Y869016D01*
X329184Y870032D01*
X328168D01*
Y869016D01*
X329184Y868000D01*
X328168Y866984D01*
Y865968D01*
Y823968D02*
X329184D01*
X330200Y824984D01*
X331216Y823968D01*
X332232D01*
Y824984D01*
X331216Y826000D01*
X332232Y827016D01*
Y828032D01*
X331216D01*
X330200Y827016D01*
X329184Y828032D01*
X328168D01*
Y827016D01*
X329184Y826000D01*
X328168Y824984D01*
Y823968D01*
X366668Y952000D02*
X368700Y954032D01*
X370732Y952000D01*
X368700Y949968D01*
X366668Y952000D01*
X272668Y847000D02*
X274700Y849032D01*
X276732Y847000D01*
X274700Y844968D01*
X272668Y847000D01*
X57568Y1384700D02*
X59600Y1386732D01*
X61632Y1384700D01*
X59600Y1382668D01*
X57568Y1384700D01*
X120568Y1290700D02*
X122600Y1292732D01*
X124632Y1290700D01*
X122600Y1288668D01*
X120568Y1290700D01*
X57568Y1344168D02*
Y1348232D01*
X61632D01*
Y1344168D01*
X57568D01*
X58584Y1345184D02*
Y1347216D01*
X60616D01*
Y1345184D01*
X58584D01*
X99568Y1344168D02*
Y1348232D01*
X103632D01*
Y1344168D01*
X99568D01*
X100584Y1345184D02*
Y1347216D01*
X102616D01*
Y1345184D01*
X100584D01*
X141568Y1344168D02*
Y1348232D01*
X145632D01*
Y1344168D01*
X141568D01*
X142584Y1345184D02*
Y1347216D01*
X144616D01*
Y1345184D01*
X142584D01*
X57568Y851300D02*
X59600Y853332D01*
X61632Y851300D01*
X59600Y849268D01*
X57568Y851300D01*
X120568Y757300D02*
X122600Y759332D01*
X124632Y757300D01*
X122600Y755268D01*
X120568Y757300D01*
X57568Y810768D02*
Y814832D01*
X61632D01*
Y810768D01*
X57568D01*
X58584Y811784D02*
Y813816D01*
X60616D01*
Y811784D01*
X58584D01*
X99568Y810768D02*
Y814832D01*
X103632D01*
Y810768D01*
X99568D01*
X100584Y811784D02*
Y813816D01*
X102616D01*
Y811784D01*
X100584D01*
X141568Y810768D02*
Y814832D01*
X145632D01*
Y810768D01*
X141568D01*
X142584Y811784D02*
Y813816D01*
X144616D01*
Y811784D01*
X142584D01*
X57568Y495700D02*
X59600Y497732D01*
X61632Y495700D01*
X59600Y493668D01*
X57568Y495700D01*
X120568Y401700D02*
X122600Y403732D01*
X124632Y401700D01*
X122600Y399668D01*
X120568Y401700D01*
X57568Y455168D02*
Y459232D01*
X61632D01*
Y455168D01*
X57568D01*
X58584Y456184D02*
Y458216D01*
X60616D01*
Y456184D01*
X58584D01*
X99568Y455168D02*
Y459232D01*
X103632D01*
Y455168D01*
X99568D01*
X100584Y456184D02*
Y458216D01*
X102616D01*
Y456184D01*
X100584D01*
X141568Y455168D02*
Y459232D01*
X145632D01*
Y455168D01*
X141568D01*
X142584Y456184D02*
Y458216D01*
X144616D01*
Y456184D01*
X142584D01*
X57568Y1029100D02*
X59600Y1031132D01*
X61632Y1029100D01*
X59600Y1027068D01*
X57568Y1029100D01*
X120568Y935100D02*
X122600Y937132D01*
X124632Y935100D01*
X122600Y933068D01*
X120568Y935100D01*
X57568Y988568D02*
Y992632D01*
X61632D01*
Y988568D01*
X57568D01*
X58584Y989584D02*
Y991616D01*
X60616D01*
Y989584D01*
X58584D01*
X99568Y988568D02*
Y992632D01*
X103632D01*
Y988568D01*
X99568D01*
X100584Y989584D02*
Y991616D01*
X102616D01*
Y989584D01*
X100584D01*
X141568Y988568D02*
Y992632D01*
X145632D01*
Y988568D01*
X141568D01*
X142584Y989584D02*
Y991616D01*
X144616D01*
Y989584D01*
X142584D01*
X57568Y1740300D02*
X59600Y1742332D01*
X61632Y1740300D01*
X59600Y1738268D01*
X57568Y1740300D01*
X120568Y1646300D02*
X122600Y1648332D01*
X124632Y1646300D01*
X122600Y1644268D01*
X120568Y1646300D01*
X57568Y1699768D02*
Y1703832D01*
X61632D01*
Y1699768D01*
X57568D01*
X58584Y1700784D02*
Y1702816D01*
X60616D01*
Y1700784D01*
X58584D01*
X99568Y1699768D02*
Y1703832D01*
X103632D01*
Y1699768D01*
X99568D01*
X100584Y1700784D02*
Y1702816D01*
X102616D01*
Y1700784D01*
X100584D01*
X141568Y1699768D02*
Y1703832D01*
X145632D01*
Y1699768D01*
X141568D01*
X142584Y1700784D02*
Y1702816D01*
X144616D01*
Y1700784D01*
X142584D01*
X57568Y1206900D02*
X59600Y1208932D01*
X61632Y1206900D01*
X59600Y1204868D01*
X57568Y1206900D01*
X120568Y1112900D02*
X122600Y1114932D01*
X124632Y1112900D01*
X122600Y1110868D01*
X120568Y1112900D01*
X57568Y1166368D02*
Y1170432D01*
X61632D01*
Y1166368D01*
X57568D01*
X58584Y1167384D02*
Y1169416D01*
X60616D01*
Y1167384D01*
X58584D01*
X99568Y1166368D02*
Y1170432D01*
X103632D01*
Y1166368D01*
X99568D01*
X100584Y1167384D02*
Y1169416D01*
X102616D01*
Y1167384D01*
X100584D01*
X141568Y1166368D02*
Y1170432D01*
X145632D01*
Y1166368D01*
X141568D01*
X142584Y1167384D02*
Y1169416D01*
X144616D01*
Y1167384D01*
X142584D01*
X57568Y317900D02*
X59600Y319932D01*
X61632Y317900D01*
X59600Y315868D01*
X57568Y317900D01*
X120568Y223900D02*
X122600Y225932D01*
X124632Y223900D01*
X122600Y221868D01*
X120568Y223900D01*
X57568Y277368D02*
Y281432D01*
X61632D01*
Y277368D01*
X57568D01*
X58584Y278384D02*
Y280416D01*
X60616D01*
Y278384D01*
X58584D01*
X99568Y277368D02*
Y281432D01*
X103632D01*
Y277368D01*
X99568D01*
X100584Y278384D02*
Y280416D01*
X102616D01*
Y278384D01*
X100584D01*
X141568Y277368D02*
Y281432D01*
X145632D01*
Y277368D01*
X141568D01*
X142584Y278384D02*
Y280416D01*
X144616D01*
Y278384D01*
X142584D01*
X328168Y734068D02*
X329184D01*
X330200Y735084D01*
X331216Y734068D01*
X332232D01*
Y735084D01*
X331216Y736100D01*
X332232Y737116D01*
Y738132D01*
X331216D01*
X330200Y737116D01*
X329184Y738132D01*
X328168D01*
Y737116D01*
X329184Y736100D01*
X328168Y735084D01*
Y734068D01*
Y692068D02*
X329184D01*
X330200Y693084D01*
X331216Y692068D01*
X332232D01*
Y693084D01*
X331216Y694100D01*
X332232Y695116D01*
Y696132D01*
X331216D01*
X330200Y695116D01*
X329184Y696132D01*
X328168D01*
Y695116D01*
X329184Y694100D01*
X328168Y693084D01*
Y692068D01*
Y650068D02*
X329184D01*
X330200Y651084D01*
X331216Y650068D01*
X332232D01*
Y651084D01*
X331216Y652100D01*
X332232Y653116D01*
Y654132D01*
X331216D01*
X330200Y653116D01*
X329184Y654132D01*
X328168D01*
Y653116D01*
X329184Y652100D01*
X328168Y651084D01*
Y650068D01*
Y608068D02*
X329184D01*
X330200Y609084D01*
X331216Y608068D01*
X332232D01*
Y609084D01*
X331216Y610100D01*
X332232Y611116D01*
Y612132D01*
X331216D01*
X330200Y611116D01*
X329184Y612132D01*
X328168D01*
Y611116D01*
X329184Y610100D01*
X328168Y609084D01*
Y608068D01*
X366668Y736100D02*
X368700Y738132D01*
X370732Y736100D01*
X368700Y734068D01*
X366668Y736100D01*
X272668Y631100D02*
X274700Y633132D01*
X276732Y631100D01*
X274700Y629068D01*
X272668Y631100D01*
X328168Y1165868D02*
X329184D01*
X330200Y1166884D01*
X331216Y1165868D01*
X332232D01*
Y1166884D01*
X331216Y1167900D01*
X332232Y1168916D01*
Y1169932D01*
X331216D01*
X330200Y1168916D01*
X329184Y1169932D01*
X328168D01*
Y1168916D01*
X329184Y1167900D01*
X328168Y1166884D01*
Y1165868D01*
Y1123868D02*
X329184D01*
X330200Y1124884D01*
X331216Y1123868D01*
X332232D01*
Y1124884D01*
X331216Y1125900D01*
X332232Y1126916D01*
Y1127932D01*
X331216D01*
X330200Y1126916D01*
X329184Y1127932D01*
X328168D01*
Y1126916D01*
X329184Y1125900D01*
X328168Y1124884D01*
Y1123868D01*
Y1081868D02*
X329184D01*
X330200Y1082884D01*
X331216Y1081868D01*
X332232D01*
Y1082884D01*
X331216Y1083900D01*
X332232Y1084916D01*
Y1085932D01*
X331216D01*
X330200Y1084916D01*
X329184Y1085932D01*
X328168D01*
Y1084916D01*
X329184Y1083900D01*
X328168Y1082884D01*
Y1081868D01*
Y1039868D02*
X329184D01*
X330200Y1040884D01*
X331216Y1039868D01*
X332232D01*
Y1040884D01*
X331216Y1041900D01*
X332232Y1042916D01*
Y1043932D01*
X331216D01*
X330200Y1042916D01*
X329184Y1043932D01*
X328168D01*
Y1042916D01*
X329184Y1041900D01*
X328168Y1040884D01*
Y1039868D01*
X366668Y1167900D02*
X368700Y1169932D01*
X370732Y1167900D01*
X368700Y1165868D01*
X366668Y1167900D01*
X272668Y1062900D02*
X274700Y1064932D01*
X276732Y1062900D01*
X274700Y1060868D01*
X272668Y1062900D01*
D68*
X1542632Y1651000D02*
G03*
X1542632Y1651000I-2032J0D01*
G01*
X1500632D02*
G03*
X1500632Y1651000I-2032J0D01*
G01*
X1458632D02*
G03*
X1458632Y1651000I-2032J0D01*
G01*
Y1706000D02*
G03*
X1458632Y1706000I-2032J0D01*
G01*
X1500632D02*
G03*
X1500632Y1706000I-2032J0D01*
G01*
X1542632D02*
G03*
X1542632Y1706000I-2032J0D01*
G01*
X1542632Y1375800D02*
G03*
X1542632Y1375800I-2032J0D01*
G01*
X1500632D02*
G03*
X1500632Y1375800I-2032J0D01*
G01*
X1458632D02*
G03*
X1458632Y1375800I-2032J0D01*
G01*
Y1320800D02*
G03*
X1458632Y1320800I-2032J0D01*
G01*
X1500632D02*
G03*
X1500632Y1320800I-2032J0D01*
G01*
X1542632D02*
G03*
X1542632Y1320800I-2032J0D01*
G01*
Y1540900D02*
G03*
X1542632Y1540900I-2032J0D01*
G01*
X1500632D02*
G03*
X1500632Y1540900I-2032J0D01*
G01*
X1458632D02*
G03*
X1458632Y1540900I-2032J0D01*
G01*
Y1485900D02*
G03*
X1458632Y1485900I-2032J0D01*
G01*
X1500632D02*
G03*
X1500632Y1485900I-2032J0D01*
G01*
X1542632D02*
G03*
X1542632Y1485900I-2032J0D01*
G01*
X192532Y1104900D02*
G03*
X192532Y1104900I-2032J0D01*
G01*
X395224Y672338D02*
G03*
X395224Y672338I-2032J0D01*
G01*
X1109980Y508000D02*
G03*
X1109980Y508000I-2032J0D01*
G01*
X391160Y309880D02*
G03*
X391160Y309880I-2032J0D01*
G01*
X308610Y1276178D02*
G03*
X308610Y1276178I-2032J0D01*
G01*
X609092Y756920D02*
G03*
X609092Y756920I-2032J0D01*
G01*
X1020572Y345440D02*
G03*
X1020572Y345440I-2032J0D01*
G01*
X1134110Y581152D02*
G03*
X1134110Y581152I-2032J0D01*
G01*
X243840Y956818D02*
G03*
X243840Y956818I-2032J0D01*
G01*
X651002Y1065530D02*
G03*
X651002Y1065530I-2032J0D01*
G01*
X321818Y149606D02*
G03*
X321818Y149606I-2032J0D01*
G01*
X746252Y345440D02*
G03*
X746252Y345440I-2032J0D01*
G01*
X780288Y387350D02*
G03*
X780288Y387350I-2032J0D01*
G01*
X1020572Y369062D02*
G03*
X1020572Y369062I-2032J0D01*
G01*
X1246632Y1784350D02*
G03*
X1246632Y1784350I-2032J0D01*
G01*
X1221232D02*
G03*
X1221232Y1784350I-2032J0D01*
G01*
X344932D02*
G03*
X344932Y1784350I-2032J0D01*
G01*
X1335615Y1783388D02*
G03*
X1335615Y1783388I-2032J0D01*
G01*
X1360932Y1784350D02*
G03*
X1360932Y1784350I-2032J0D01*
G01*
X1386332D02*
G03*
X1386332Y1784350I-2032J0D01*
G01*
Y1822450D02*
G03*
X1386332Y1822450I-2032J0D01*
G01*
X1272032Y1784350D02*
G03*
X1272032Y1784350I-2032J0D01*
G01*
Y1822450D02*
G03*
X1272032Y1822450I-2032J0D01*
G01*
X294132D02*
G03*
X294132Y1822450I-2032J0D01*
G01*
Y1784350D02*
G03*
X294132Y1784350I-2032J0D01*
G01*
X319532D02*
G03*
X319532Y1784350I-2032J0D01*
G01*
X706882Y279400D02*
G03*
X706882Y279400I-2032J0D01*
G01*
Y254000D02*
G03*
X706882Y254000I-2032J0D01*
G01*
X687832Y165100D02*
G03*
X687832Y165100I-2032J0D01*
G01*
X319532Y247650D02*
G03*
X319532Y247650I-2032J0D01*
G01*
Y273050D02*
G03*
X319532Y273050I-2032J0D01*
G01*
X294132Y158750D02*
G03*
X294132Y158750I-2032J0D01*
G01*
X276352Y190500D02*
G03*
X276352Y190500I-2032J0D01*
G01*
X668002Y194540D02*
G03*
X668002Y194540I-2032J0D01*
G01*
X463804Y183896D02*
G03*
X463804Y183896I-2032J0D01*
G01*
X855962Y187936D02*
G03*
X855962Y187936I-2032J0D01*
G01*
X1141712Y259080D02*
G03*
X1141712Y259080I-2032J0D01*
G01*
X1233152Y142240D02*
G03*
X1233152Y142240I-2032J0D01*
G01*
X1263632Y185420D02*
G03*
X1263632Y185420I-2032J0D01*
G01*
D69*
X191516Y1104900D02*
G03*
X191516Y1104900I-1016J0D01*
G01*
X394208Y672338D02*
G03*
X394208Y672338I-1016J0D01*
G01*
X1108964Y508000D02*
G03*
X1108964Y508000I-1016J0D01*
G01*
X390144Y309880D02*
G03*
X390144Y309880I-1016J0D01*
G01*
X307594Y1276178D02*
G03*
X307594Y1276178I-1016J0D01*
G01*
X608076Y756920D02*
G03*
X608076Y756920I-1016J0D01*
G01*
X1019556Y345440D02*
G03*
X1019556Y345440I-1016J0D01*
G01*
X1133094Y581152D02*
G03*
X1133094Y581152I-1016J0D01*
G01*
X242824Y956818D02*
G03*
X242824Y956818I-1016J0D01*
G01*
X649986Y1065530D02*
G03*
X649986Y1065530I-1016J0D01*
G01*
X320802Y149606D02*
G03*
X320802Y149606I-1016J0D01*
G01*
X745236Y345440D02*
G03*
X745236Y345440I-1016J0D01*
G01*
X779272Y387350D02*
G03*
X779272Y387350I-1016J0D01*
G01*
X1019556Y369062D02*
G03*
X1019556Y369062I-1016J0D01*
G01*
X1245616Y1784350D02*
G03*
X1245616Y1784350I-1016J0D01*
G01*
X1220216D02*
G03*
X1220216Y1784350I-1016J0D01*
G01*
X343916D02*
G03*
X343916Y1784350I-1016J0D01*
G01*
X1334599Y1783388D02*
G03*
X1334599Y1783388I-1016J0D01*
G01*
X1359916Y1784350D02*
G03*
X1359916Y1784350I-1016J0D01*
G01*
X1385316D02*
G03*
X1385316Y1784350I-1016J0D01*
G01*
Y1822450D02*
G03*
X1385316Y1822450I-1016J0D01*
G01*
X1271016Y1784350D02*
G03*
X1271016Y1784350I-1016J0D01*
G01*
Y1822450D02*
G03*
X1271016Y1822450I-1016J0D01*
G01*
X293116D02*
G03*
X293116Y1822450I-1016J0D01*
G01*
Y1784350D02*
G03*
X293116Y1784350I-1016J0D01*
G01*
X318516D02*
G03*
X318516Y1784350I-1016J0D01*
G01*
X705866Y279400D02*
G03*
X705866Y279400I-1016J0D01*
G01*
Y254000D02*
G03*
X705866Y254000I-1016J0D01*
G01*
X686816Y165100D02*
G03*
X686816Y165100I-1016J0D01*
G01*
X318516Y247650D02*
G03*
X318516Y247650I-1016J0D01*
G01*
Y273050D02*
G03*
X318516Y273050I-1016J0D01*
G01*
X293116Y158750D02*
G03*
X293116Y158750I-1016J0D01*
G01*
X275336Y190500D02*
G03*
X275336Y190500I-1016J0D01*
G01*
X666986Y194540D02*
G03*
X666986Y194540I-1016J0D01*
G01*
X462788Y183896D02*
G03*
X462788Y183896I-1016J0D01*
G01*
X854946Y187936D02*
G03*
X854946Y187936I-1016J0D01*
G01*
X1140696Y259080D02*
G03*
X1140696Y259080I-1016J0D01*
G01*
X1232136Y142240D02*
G03*
X1232136Y142240I-1016J0D01*
G01*
X1262616Y185420D02*
G03*
X1262616Y185420I-1016J0D01*
G01*
M02*
