G04*
G04 #@! TF.GenerationSoftware,Altium Limited,Altium Designer,21.9.2 (33)*
G04*
G04 Layer_Color=16711935*
%FSLAX44Y44*%
%MOMM*%
G71*
G04*
G04 #@! TF.SameCoordinates,D0450A9E-FE46-4EA2-B322-C77A40C1B8EA*
G04*
G04*
G04 #@! TF.FilePolarity,Positive*
G04*
G01*
G75*
%ADD10C,0.2000*%
%ADD13C,0.1270*%
%ADD65C,0.1000*%
D10*
X1093200Y1355250D02*
G03*
X1093200Y1355250I-1000J0D01*
G01*
X1417600Y1706000D02*
G03*
X1417600Y1706000I-1000J0D01*
G01*
Y1375800D02*
G03*
X1417600Y1375800I-1000J0D01*
G01*
Y1540900D02*
G03*
X1417600Y1540900I-1000J0D01*
G01*
X1248550Y249730D02*
G03*
X1248550Y249730I-1000J0D01*
G01*
X1251950Y143600D02*
G03*
X1251950Y143600I-1000J0D01*
G01*
X468650Y143600D02*
G03*
X468650Y143600I-1000J0D01*
G01*
X858250D02*
G03*
X858250Y143600I-1000J0D01*
G01*
X303500Y207200D02*
G03*
X303500Y207200I-1000J0D01*
G01*
X695150Y211240D02*
G03*
X695150Y211240I-1000J0D01*
G01*
X483600Y1355250D02*
G03*
X483600Y1355250I-1000J0D01*
G01*
D13*
X1423600Y1617000D02*
X1573600D01*
X1423600D02*
Y1731000D01*
X1573600D01*
Y1617000D02*
Y1731000D01*
X1573600Y1286800D02*
Y1400800D01*
X1423600D02*
X1573600D01*
X1423600Y1286800D02*
Y1400800D01*
Y1286800D02*
X1573600D01*
Y1451900D02*
Y1565900D01*
X1423600D02*
X1573600D01*
X1423600Y1451900D02*
Y1565900D01*
Y1451900D02*
X1573600D01*
X983050Y1725600D02*
X1070050D01*
X983050Y1779600D02*
X1070050D01*
X983050Y1725600D02*
Y1779600D01*
X1070050Y1725600D02*
X1088050Y1743600D01*
Y1761600D01*
X1070050Y1779600D02*
X1088050Y1761600D01*
X1247600Y188780D02*
Y227780D01*
X1148600Y188780D02*
Y227780D01*
X1247600D01*
X1148600Y188780D02*
X1247600D01*
X1037700Y6600D02*
X1345800D01*
X1037700Y131600D02*
X1345800D01*
Y-54400D02*
Y131600D01*
X1037700Y-54400D02*
X1345800D01*
X1037700D02*
Y131600D01*
X254400Y6600D02*
X562500D01*
X254400Y131600D02*
X562500D01*
Y-54400D02*
Y131600D01*
X254400Y-54400D02*
X562500D01*
X254400D02*
Y131600D01*
X644000Y6600D02*
X952100D01*
X644000Y131600D02*
X952100D01*
Y-54400D02*
Y131600D01*
X644000Y-54400D02*
X952100D01*
X644000D02*
Y131600D01*
X323400Y208675D02*
X362400D01*
X323400Y159625D02*
X362400D01*
X323400D02*
Y208675D01*
X362400Y159625D02*
Y208675D01*
X715050Y212715D02*
X754050D01*
X715050Y163665D02*
X754050D01*
X715050D02*
Y212715D01*
X754050Y163665D02*
Y212715D01*
X1243000Y515200D02*
Y653200D01*
X1297000D01*
Y515200D02*
Y653200D01*
X1243000Y515200D02*
X1297000D01*
X1243000Y337400D02*
X1297000D01*
Y475400D01*
X1243000D02*
X1297000D01*
X1243000Y337400D02*
Y475400D01*
X1429600Y315900D02*
X1567600D01*
X1429600D02*
Y369900D01*
X1567600D01*
Y315900D02*
Y369900D01*
X1429600Y481000D02*
X1567600D01*
X1429600D02*
Y535000D01*
X1567600D01*
Y481000D02*
Y535000D01*
Y646100D02*
Y700100D01*
X1429600D02*
X1567600D01*
X1429600Y646100D02*
Y700100D01*
Y646100D02*
X1567600D01*
X1429600Y811200D02*
X1567600D01*
X1429600D02*
Y865200D01*
X1567600D01*
Y811200D02*
Y865200D01*
X1429600Y976300D02*
X1567600D01*
X1429600D02*
Y1030300D01*
X1567600D01*
Y976300D02*
Y1030300D01*
X1429600Y1141400D02*
X1567600D01*
X1429600D02*
Y1195400D01*
X1567600D01*
Y1141400D02*
Y1195400D01*
X32600Y1497000D02*
Y1551000D01*
Y1497000D02*
X170600D01*
Y1551000D01*
X32600D02*
X170600D01*
X32600Y608000D02*
Y662000D01*
Y608000D02*
X170600D01*
Y662000D01*
X32600D02*
X170600D01*
X32600Y1319200D02*
Y1373200D01*
Y1319200D02*
X170600D01*
Y1373200D01*
X32600D02*
X170600D01*
X32600Y785800D02*
Y839800D01*
Y785800D02*
X170600D01*
Y839800D01*
X32600D02*
X170600D01*
X32600Y430200D02*
Y484200D01*
Y430200D02*
X170600D01*
Y484200D01*
X32600D02*
X170600D01*
X32600Y963600D02*
Y1017600D01*
Y963600D02*
X170600D01*
Y1017600D01*
X32600D02*
X170600D01*
X32600Y1674800D02*
Y1728800D01*
Y1674800D02*
X170600D01*
Y1728800D01*
X32600D02*
X170600D01*
X32600Y1141400D02*
Y1195400D01*
Y1141400D02*
X170600D01*
Y1195400D01*
X32600D02*
X170600D01*
X32600Y252400D02*
Y306400D01*
Y252400D02*
X170600D01*
Y306400D01*
X32600D02*
X170600D01*
D65*
X1080135Y454650D02*
X1129665D01*
Y1348750D01*
X1080135D02*
X1129665D01*
X1080135Y454650D02*
Y1348750D01*
Y454650D02*
X1129665D01*
Y1348750D01*
X1080135D02*
X1129665D01*
X1043100Y1822050D02*
Y1835550D01*
X1065100Y1822050D02*
Y1835550D01*
X1043100D02*
X1065100D01*
X1043100Y1822050D02*
X1065100D01*
X1007250Y1824050D02*
X1024750D01*
X1007250Y1833550D02*
X1024750D01*
Y1824050D02*
Y1833550D01*
X1007250Y1824050D02*
Y1833550D01*
X1366850Y1812150D02*
X1376350D01*
X1366850Y1794650D02*
X1376350D01*
Y1812150D01*
X1366850Y1794650D02*
Y1812150D01*
X1316050D02*
X1325550D01*
X1316050Y1794650D02*
X1325550D01*
Y1812150D01*
X1316050Y1794650D02*
Y1812150D01*
X1341450D02*
X1350950D01*
X1341450Y1794650D02*
X1350950D01*
Y1812150D01*
X1341450Y1794650D02*
Y1812150D01*
X1252550D02*
X1262050D01*
X1252550Y1794650D02*
X1262050D01*
Y1812150D01*
X1252550Y1794650D02*
Y1812150D01*
X1227150D02*
X1236650D01*
X1227150Y1794650D02*
X1236650D01*
Y1812150D01*
X1227150Y1794650D02*
Y1812150D01*
X1201750D02*
X1211250D01*
X1201750Y1794650D02*
X1211250D01*
Y1812150D01*
X1201750Y1794650D02*
Y1812150D01*
X350850D02*
X360350D01*
X350850Y1794650D02*
X360350D01*
Y1812150D01*
X350850Y1794650D02*
Y1812150D01*
X325450D02*
X334950D01*
X325450Y1794650D02*
X334950D01*
Y1812150D01*
X325450Y1794650D02*
Y1812150D01*
X300050D02*
X309550D01*
X300050Y1794650D02*
X309550D01*
Y1812150D01*
X300050Y1794650D02*
Y1812150D01*
X408800Y166700D02*
Y176200D01*
X391300Y166700D02*
Y176200D01*
Y166700D02*
X408800D01*
X391300Y176200D02*
X408800D01*
X391300Y192100D02*
Y201600D01*
X408800Y192100D02*
Y201600D01*
X391300D02*
X408800D01*
X391300Y192100D02*
X408800D01*
X429000Y179400D02*
Y188900D01*
X446500Y179400D02*
Y188900D01*
X429000D02*
X446500D01*
X429000Y179400D02*
X446500D01*
X287350Y192900D02*
X296850D01*
X287350Y175400D02*
X296850D01*
Y192900D01*
X287350Y175400D02*
Y192900D01*
X353900Y240900D02*
Y254400D01*
X331900Y240900D02*
Y254400D01*
Y240900D02*
X353900D01*
X331900Y254400D02*
X353900D01*
X331900Y266300D02*
Y279800D01*
X353900Y266300D02*
Y279800D01*
X331900D02*
X353900D01*
X331900Y266300D02*
X353900D01*
X679000Y196940D02*
X688500D01*
X679000Y179440D02*
X688500D01*
Y196940D01*
X679000Y179440D02*
Y196940D01*
X821050Y183440D02*
Y192940D01*
X838550Y183440D02*
Y192940D01*
X821050D02*
X838550D01*
X821050Y183440D02*
X838550D01*
X782950Y196140D02*
Y205640D01*
X800450Y196140D02*
Y205640D01*
X782950D02*
X800450D01*
X782950Y196140D02*
X800450D01*
Y170740D02*
Y180240D01*
X782950Y170740D02*
Y180240D01*
Y170740D02*
X800450D01*
X782950Y180240D02*
X800450D01*
X723550Y270340D02*
Y283840D01*
X745551Y270340D02*
Y283840D01*
X723550D02*
X745551D01*
X723550Y270340D02*
X745551D01*
Y244940D02*
Y258440D01*
X723550Y244940D02*
Y258440D01*
Y244940D02*
X745551D01*
X723550Y258440D02*
X745551D01*
X470535Y1348750D02*
X520065D01*
Y454650D02*
Y1348750D01*
X470535Y454650D02*
X520065D01*
X470535D02*
Y1348750D01*
X520065D01*
Y454650D02*
Y1348750D01*
X470535Y454650D02*
X520065D01*
X1221100Y255600D02*
X1238600D01*
X1221100Y265100D02*
X1238600D01*
Y255600D02*
Y265100D01*
X1221100Y255600D02*
Y265100D01*
X1188950Y255600D02*
X1206450D01*
X1188950Y265100D02*
X1206450D01*
Y255600D02*
Y265100D01*
X1188950Y255600D02*
Y265100D01*
X1157600Y255600D02*
X1175100D01*
X1157600Y265100D02*
X1175100D01*
Y255600D02*
Y265100D01*
X1157600Y255600D02*
Y265100D01*
X1266350Y200800D02*
Y218300D01*
X1256850Y200800D02*
Y218300D01*
X1266350D01*
X1256850Y200800D02*
X1266350D01*
X1227450Y154000D02*
X1244950D01*
X1227450Y163500D02*
X1244950D01*
Y154000D02*
Y163500D01*
X1227450Y154000D02*
Y163500D01*
M02*
