M48
;Layer_Color=9474304
;FILE_FORMAT=4:4
METRIC,LZ
;TYPE=PLATED
T01F00S00C0.3810
T02F00S00C1.0000
T03F00S00C1.0400
T04F00S00C1.8000
T05F00S00C3.0500
T06F00S00C3.5000
T07F00S00C3.7000
%
T01
X0109474Y0003302
X0116713Y0016764
X0123317Y0018415
X01074588Y00220426
Y00240426
Y00360126
Y00380126
X012065Y0035433
X00907316Y00306706
X00915069Y00289293
X00892209Y002878
X00870099Y0027378
Y0022933
X00892959Y0023822
X00915069Y0023195
X0085725Y0030988
X0081915Y0031115
X0080645
X0073279Y00301277
X0070993Y0028475
X0066941Y00265464
X0066929Y0022352
X00610731Y00208573
X0057277Y001905
X00728725Y00209106
X0075438Y0025146
X0080772Y0019431
X0080423Y0013208
X008244Y0013191
X0091313Y0003556
X0071755Y0003429
X0073279Y00361921
X00760133Y00372573
X0070993Y0038327
X0069342Y0039497
X00663061Y00375209
X0059436Y0038862
X00612512Y00339146
X0053975Y0034671
Y00305562
X0048514Y00301306
X0045974Y0028475
X004191Y00264905
Y0022225
X00478414Y00208547
X0046863Y0013208
X00447961Y00131911
X00359786Y00208013
X00309266Y00188407
X0031115Y0027305
X00195781Y0022844
Y0020844
X00195292Y00349151
Y00369151
X0041275Y0037465
X00434892Y0038331
X0045974Y0038327
X0048514Y0036195
X00520371Y00401394
X00536954Y003983
X0052959Y0024638
X00425349Y00336054
X00342881Y00034274
X0055372Y0003302
X0016383Y0003429
X0011303Y00132715
X00092531Y00133351
X0003048Y0014351
X0012446Y001778
X0013208Y0045339
X0002413Y0047117
X00065255Y00601842
X0003937Y0066802
X0010922Y0070358
X00065255Y00797676
X00195781Y00791281
Y00771281
X00195292Y00650571
Y00630571
X00193544Y00511121
X00194804Y00489861
X0028321Y0047117
X0041275Y0041783
X00434892Y0042903
X00537312Y00439263
X0053814Y00483065
X0050971Y00483364
X0053814Y00523461
X0053594Y0056642
X00519601Y00571403
X0053933Y006096
X0045847Y0056134
X0047117Y0075438
X0038862Y0079756
X006604Y0079121
X005951Y0060005
X0059563Y0055753
X0059391Y00513911
Y00473515
X00593082Y00429713
X0064189Y0041529
X0069523
X0074676Y0049149
X0076327Y0057912
X0083566Y0042799
X01074588Y00499826
Y00519826
X01144Y0050165
X0115062Y0045085
X012334Y0050165
X0123571Y0069342
X01144002Y00692912
X01074588Y00659526
Y00639526
Y00779226
Y00799226
Y00938926
Y01058626
Y01078626
X0114554Y0107442
X0100838Y0101981
X0082042Y0089027
X0080645Y0116332
X0075565Y0116459
X0069977Y0117348
X00671556Y01175741
X0057486Y01164402
X0062357Y0107696
X00521153Y01174297
X0049276Y0117348
X0028575Y0112268
X00198713Y01072702
Y01052702
X00196759Y00931992
Y00911992
X00198713Y01193412
X00065255Y01189343
Y01169343
X00075936Y01084921
X00096436Y0108492
X0006477Y0100711
Y0098711
X00059282Y00910141
X00112332
X00096699Y01276349
X000762Y0127635
X00065255Y01365177
Y01385177
X00198713Y01354122
Y01334122
Y01213412
X0032512Y0134239
X00394044Y0152752
X00197247Y01494833
Y01474833
X005207Y0121412
X0057486Y01204712
X0060706Y0126619
X00699513Y01214231
X0075565Y0120523
X0079248Y0126111
X0093758Y0139258
X008255Y0153543
X0058166Y0141224
X01074588Y01358026
X0112649Y0137922
X01143Y0128778
Y0126619
X01074588Y01218326
Y01198326
Y01477726
Y01497726
T02
X0097675Y0008105
X0100445
X0103215
X01046Y0010945
X010183
X009906
X009629
X009352
X0094905Y0008105
X0067655
X0064885
X0062115
X0059345
X005796Y0010945
X006073
X00635
X006627
X006904
X003348
X003071
X002794
X002517
X00224
X0023785Y0008105
X0026555
X0029325
X0032095
T03
X0092706Y00370909
X0095246
Y00396309
X0092706
X0034286Y00396559
Y00371159
X0031746
Y00396559
Y00421959
X0034286
Y00447359
X0031746
Y00472759
X0034286
Y00498159
X0031746
Y00523559
X0034286
Y00548959
X0031746
Y00574359
X0034286
Y00599759
X0031746
Y00625159
X0034286
Y00650559
X0031746
Y00675959
X0034286
Y00701359
X0031746
Y00726759
X0034286
Y00752159
X0031746
Y00777559
X0034286
X0092706Y00777309
Y00751909
Y00726509
Y00701109
Y00675709
Y00650309
Y00624909
Y00599509
Y00574109
Y00548709
Y00523309
Y00497909
Y00472509
Y00447109
Y00421709
X0095246
Y00447109
Y00472509
Y00497909
Y00523309
Y00548709
Y00574109
Y00599509
Y00624909
Y00650309
Y00675709
Y00701109
Y00726509
Y00751909
Y00777309
Y00802709
X0092706
Y00828109
X0095246
Y00853509
X0092706
Y00878909
X0095246
Y00904309
X0092706
Y00929709
X0095246
Y00955109
X0092706
Y00980509
X0095246
Y01005909
X0092706
Y01031309
X0095246
Y01056709
X0092706
Y01082109
X0095246
Y01107509
X0092706
Y01132909
X0095246
Y01158309
X0092706
Y01183709
X0095246
X0034286Y01183959
Y01158559
Y01133159
Y01107759
Y01082359
Y01056959
Y01031559
Y01006159
Y00980759
Y00955359
Y00929959
Y00904559
Y00879159
Y00853759
Y00828359
Y00802959
X0031746
Y00828359
Y00853759
Y00879159
Y00904559
Y00929959
Y00955359
Y00980759
Y01006159
Y01031559
Y01056959
Y01082359
Y01107759
Y01133159
Y01158559
Y01183959
Y01209359
X0034286
Y01234759
X0031746
X0092706Y01234509
Y01209109
X0095246
Y01234509
T04
X011811Y00575943
Y00625943
Y00771776
Y00821776
Y0096761
Y0101761
Y01163444
Y01213444
Y01359278
Y01409278
T05
X0111555Y0009525
X0086565
X0075995
X0051005
X0040435
X0015445
T06
X012065Y000635
X000635
Y01524
X012065
T07
X0040636Y00510859
X0086356
X0039366Y01272859
X0087626Y01260159
M30
