M48
;Layer_Color=9474304
;FILE_FORMAT=4:4
METRIC,LZ
;TYPE=PLATED
T1F00S00C0.7112
T2F00S00C1.0000
T3F00S00C1.0400
T4F00S00C1.4000
T5F00S00C1.4500
T6F00S00C1.8500
T7F00S00C2.0000
T8F00S00C3.0500
T9F00S00C6.0000
;TYPE=NON_PLATED
T10F00S00C3.0000
%
T01
X0043942Y001905
X00626872Y00183896
X0060706Y00155194
X009144Y0015748
X0089662Y001905
X0108458Y00183896
X0093706Y00221469
X004699Y0029464
X00272632Y00226568
X0029464Y0083566
X00257556Y00891032
X01398778Y01293622
X013208Y012065
X00463804Y010414
X00302514Y01111504
X00293624Y01294892
X00193548Y01020572
X00379476Y017399
X01402207Y01455293
X0068072Y0187452
X0058928Y0199136
X005588Y0194818
T02
X0052535Y000859
X0055305
X005392Y001143
X005115
X005669
X005946
X006223
X0060845Y000859
X0058075
X009733Y0011176
X01001
X010287
X010564
X010841
X0107025Y0008336
X0104255
X0101485
X0098715
X0068405Y020178
X0065635
X0062865
X0060095
X005871Y020462
X006148
X006425
X006702
X0057325Y020178
T03
X004953Y006477
Y006731
Y006985
Y007239
Y007493
Y007747
Y008001
Y008255
Y008509
Y008763
Y009017
Y009271
Y009525
Y009779
X005207
Y009525
Y009271
Y009017
Y008763
Y008509
Y008255
Y008001
Y007747
Y007493
Y007239
Y006985
Y006731
Y006477
X011049
X011303
Y006731
X011049
Y006985
X011303
Y007239
X011049
Y007493
X011303
Y007747
X011049
Y008001
X011303
Y008255
X011049
Y008509
X011303
Y008763
X011049
Y009017
X011303
Y009271
X011049
Y009525
X011303
Y009779
X011049
Y010033
X011303
Y010287
X011049
Y010541
X011303
Y010795
X011049
Y011049
X011303
Y011303
X011049
Y011557
X011303
Y011811
X011049
Y012065
X011303
Y012319
X011049
Y012573
X011303
Y012827
X011049
Y013081
X011303
Y013335
X011049
Y013589
X011303
X005207
X004953
Y013335
X005207
Y013081
X004953
Y012827
X005207
Y012573
X004953
Y012319
X005207
Y012065
X004953
Y011811
X005207
Y011557
X004953
Y011303
X005207
Y011049
X004953
Y010795
X005207
Y010541
X004953
Y010287
X005207
Y010033
X004953
Y013843
Y014097
Y014351
Y014605
Y014859
Y015113
X005207
Y014859
Y014605
Y014351
Y014097
Y013843
X011049
X011303
Y014097
X011049
Y014351
X011303
Y014605
X011049
Y014859
X011303
Y015113
X011049
T04
X014566Y003683
X014986
X015406
Y005334
X014986
X014566
X001436Y004953
X001016
X000596
Y003175
X001016
X001436
Y006731
X001016
X000596
Y008509
X001016
X001436
X014566Y008636
X014986
X015406
Y006985
X014986
X014566
Y010287
X014986
X015406
Y011938
X014986
X014566
Y013589
X014986
X015406
X001436Y012065
X001016
X000596
Y010287
X001016
X001436
Y013843
X001016
X000596
Y015621
X001016
X001436
Y017399
X001016
X000596
X014566Y01524
X014986
X015406
X011049Y019773
Y020193
Y020613
X009271
Y020193
Y019773
T05
X002804Y004318
X003224
X003644
X004064
X003175Y005593
Y006013
Y006433
Y006853
Y007879
Y008299
Y008719
Y009139
X012954Y009149
Y009569
Y008123
Y007703
Y007283
Y006863
Y009989
Y010409
Y011435
Y011855
Y012275
Y012695
Y013721
X003175Y013584
Y013164
Y012744
Y012324
Y011342
Y010922
Y010502
Y010082
Y014483
Y014903
Y015323
Y015743
X012954Y014981
Y014561
Y014141
T06
X014566Y016764
X014986
X015406
Y017314
X014986
X014566
T07
X003175Y019816
Y020316
T08
X0044195Y001001
X0069185
X0090375Y0009756
X0115365
X007536Y02032
X005037
T09
X001016Y001016
X014986
Y02032
X001016
T10
X015406Y003298
X014776Y004238
X015406Y004949
X014776Y005889
X00262Y005803
X002804Y004703
X003854Y003763
X001226Y004398
X000596Y00356
X001226Y00262
X000596Y005338
X001226Y006176
X000596Y007116
X001226Y007954
X000596Y008894
X001226Y009732
X00356Y009139
X00262Y008089
X00356Y006853
X012569Y006863
X013509Y007913
X012569Y009149
X014776Y009191
X015406Y008251
X014776Y00754
X015406Y0066
Y009902
X014776Y010842
X015406Y011553
X014776Y012493
X015406Y013204
X013509Y012485
X012569Y011435
X013509Y010199
X012569Y013721
X00356Y013584
X00262Y012534
X00356Y011342
X00262Y010292
X000596Y010672
X001226Y01151
X000596Y01245
X001226Y013288
X000596Y014228
X001226Y015066
X000596Y016006
X001226Y016844
X000596Y017784
X00356Y015743
X00262Y014693
X013509Y014771
X014776Y014144
X015406Y014855
X014776Y015795
X011434Y020613
X010494Y019983
X009656Y020613
X008716Y019983
M30
