G04*
G04 #@! TF.GenerationSoftware,Altium Limited,Altium Designer,21.8.1 (53)*
G04*
G04 Layer_Physical_Order=3*
G04 Layer_Color=16440176*
%FSLAX44Y44*%
%MOMM*%
G71*
G04*
G04 #@! TF.SameCoordinates,803AB11E-904C-4F7A-9A81-77FAE9A3CB3A*
G04*
G04*
G04 #@! TF.FilePolarity,Positive*
G04*
G01*
G75*
%ADD12C,0.2540*%
%ADD47R,2.1000X2.1000*%
%ADD48C,2.1000*%
%ADD50C,2.1750*%
%ADD57R,2.1000X2.1000*%
%ADD59R,1.3900X1.3900*%
%ADD60C,1.3900*%
%ADD61C,1.2700*%
D12*
X234532Y226568D02*
X272632D01*
X143600Y317500D02*
X234532Y226568D01*
X607060Y155194D02*
Y713740D01*
X520700Y800100D02*
X607060Y713740D01*
X444500Y1447300D02*
X482600D01*
X457200Y825500D02*
X495300D01*
X457200Y698500D02*
X495300D01*
X466690Y534090D02*
X504790D01*
X1130300Y1511300D02*
X1168400D01*
X1130300Y1003300D02*
X1168400D01*
X1130300Y977900D02*
X1168400D01*
X1130300Y876300D02*
X1168400D01*
X1130300Y825500D02*
X1168400D01*
X1362964Y834136D02*
X1498600Y698500D01*
X1168400Y876300D02*
X1376172Y668528D01*
X1168400Y825500D02*
X1208532Y785368D01*
X1312164Y834136D02*
X1362964D01*
X1423924Y938276D02*
X1498600Y863600D01*
X1168400Y977900D02*
X1312164Y834136D01*
X1208532Y658368D02*
X1498600Y368300D01*
X1376172Y655828D02*
X1498600Y533400D01*
X1376172Y655828D02*
Y668528D01*
X1208532Y658368D02*
Y785368D01*
X1308862Y1054362D02*
Y1256038D01*
X1212088Y1268812D02*
X1295400Y1185500D01*
X1398778Y1293622D02*
X1498600Y1193800D01*
X1295400Y1269500D02*
X1308862Y1256038D01*
X1295400Y1269500D02*
X1308862Y1282962D01*
X1212088Y1268812D02*
Y1467612D01*
X1308862Y1282962D02*
Y1484638D01*
X1402207Y1455293D02*
X1498600Y1358900D01*
X1168400Y1511300D02*
X1212088Y1467612D01*
X1295400Y1498100D02*
X1308862Y1484638D01*
X1383538Y1505966D02*
X1480566D01*
X1368552Y1520952D02*
X1383538Y1505966D01*
X1480566D02*
X1498600Y1524000D01*
X1120809Y1520952D02*
X1368552D01*
X1233424Y938276D02*
X1423924D01*
X1168400Y1003300D02*
X1233424Y938276D01*
X1295400Y1040900D02*
X1308862Y1054362D01*
X1320800Y1206500D02*
X1498600Y1028700D01*
X1118108Y1524601D02*
Y2006092D01*
X954786Y1178814D02*
Y1949614D01*
X913892Y2006092D02*
X927100Y2019300D01*
Y1977300D02*
X954786Y1949614D01*
X1104900Y2019300D02*
X1118108Y2006092D01*
X322400Y431800D02*
X347800Y406400D01*
X482600D01*
X546100Y469900D01*
Y698500D01*
X406400Y557800D02*
Y647700D01*
X280400Y431800D02*
X406400Y557800D01*
Y647700D02*
X457200Y698500D01*
X364400Y431800D02*
X466690Y534090D01*
X504790D02*
Y924611D01*
X520700Y940521D01*
Y952500D01*
Y723900D02*
X546100Y698500D01*
X519979Y787400D02*
X521421D01*
X511210Y804031D02*
X520700Y813521D01*
X511210Y796169D02*
Y804031D01*
X520700Y813521D02*
Y825500D01*
X571500Y396240D02*
Y737321D01*
X521421Y787400D02*
X571500Y737321D01*
X469900Y294640D02*
X571500Y396240D01*
X511210Y796169D02*
X519979Y787400D01*
X101600Y1028700D02*
X294640Y835660D01*
X101600Y1562100D02*
X302514Y1361186D01*
Y1111504D02*
Y1361186D01*
X482600Y1143000D02*
X495300Y1130300D01*
X482600Y1143000D02*
Y1447300D01*
X317500Y1574300D02*
X444500Y1447300D01*
X913892Y1168908D02*
Y2006092D01*
Y1168908D02*
X1104900Y977900D01*
X954786Y1178814D02*
X1104900Y1028700D01*
Y723900D02*
X1118108Y737108D01*
Y1485539D01*
X1117000Y1486647D02*
X1118108Y1485539D01*
X1117000Y1486647D02*
Y1523492D01*
X1118108Y1524601D01*
X1120809Y1498600D02*
Y1520952D01*
Y1498600D02*
X1123857Y1495552D01*
X1135380D01*
X1139952Y1490980D01*
Y1393952D02*
Y1490980D01*
X1130300Y1384300D02*
X1139952Y1393952D01*
X143600Y1739900D02*
X379476D01*
X88392Y1726692D02*
X101600Y1739900D01*
X88392Y1500124D02*
Y1726692D01*
Y1500124D02*
X293624Y1294892D01*
X178054Y970534D02*
X257556Y891032D01*
X178054Y970534D02*
Y1307846D01*
X101600Y1384300D02*
X178054Y1307846D01*
X389382Y893318D02*
X457200Y825500D01*
X389382Y893318D02*
Y1136650D01*
X330962Y1195070D02*
X389382Y1136650D01*
X330962Y1195070D02*
Y1260938D01*
X317500Y1274400D02*
X330962Y1260938D01*
X508000Y990600D02*
X520700Y977900D01*
X508000Y990600D02*
Y1087120D01*
X502920Y1092200D02*
X508000Y1087120D01*
X442468Y1092200D02*
X502920D01*
X334772Y1199896D02*
X442468Y1092200D01*
X334772Y1199896D02*
Y1473028D01*
X317500Y1490300D02*
X334772Y1473028D01*
D47*
X143600Y1739900D02*
D03*
Y317500D02*
D03*
D48*
X1498600Y368300D02*
D03*
Y533400D02*
D03*
Y698500D02*
D03*
Y863600D02*
D03*
Y1028700D02*
D03*
Y1193800D02*
D03*
Y1358900D02*
D03*
Y1524000D02*
D03*
X927100Y2019300D02*
D03*
X1104900D02*
D03*
X101600Y1562100D02*
D03*
Y1384300D02*
D03*
Y1028700D02*
D03*
Y1739900D02*
D03*
D50*
X1295400Y1040900D02*
D03*
Y1269500D02*
D03*
Y1185500D02*
D03*
Y1498100D02*
D03*
X317500Y1574300D02*
D03*
Y1490300D02*
D03*
X280400Y431800D02*
D03*
X322400D02*
D03*
X364400D02*
D03*
X317500Y1274400D02*
D03*
D57*
X927100Y1977300D02*
D03*
D59*
X1130300Y1511300D02*
D03*
D60*
X495300Y1130300D02*
D03*
X520700Y977900D02*
D03*
Y952500D02*
D03*
Y825500D02*
D03*
X495300D02*
D03*
X520700Y800100D02*
D03*
Y723900D02*
D03*
X495300Y698500D02*
D03*
X1104900Y723900D02*
D03*
X1130300Y825500D02*
D03*
Y876300D02*
D03*
X1104900Y977900D02*
D03*
X1130300D02*
D03*
Y1003300D02*
D03*
X1104900Y1028700D02*
D03*
X1130300Y1384300D02*
D03*
D61*
X257556Y891032D02*
D03*
X293624Y1294892D02*
D03*
X379476Y1739900D02*
D03*
X302514Y1111504D02*
D03*
X294640Y835660D02*
D03*
X272632Y226568D02*
D03*
X607060Y155194D02*
D03*
X469900Y294640D02*
D03*
X1402207Y1455293D02*
D03*
X1398778Y1293622D02*
D03*
X1320800Y1206500D02*
D03*
M02*
