G04*
G04 #@! TF.GenerationSoftware,Altium Limited,Altium Designer,21.8.1 (53)*
G04*
G04 Layer_Color=32768*
%FSLAX44Y44*%
%MOMM*%
G71*
G04*
G04 #@! TF.SameCoordinates,803AB11E-904C-4F7A-9A81-77FAE9A3CB3A*
G04*
G04*
G04 #@! TF.FilePolarity,Positive*
G04*
G01*
G75*
%ADD63C,0.1000*%
%ADD64C,0.0500*%
D63*
X236300Y2021840D02*
X246300D01*
X241300Y2016840D02*
Y2026840D01*
Y1968830D02*
Y1978330D01*
X236550Y1973580D02*
X246050D01*
X1314600Y1671650D02*
Y1681150D01*
X1309850Y1676400D02*
X1319350D01*
X590550Y1868500D02*
Y1878000D01*
X585800Y1873250D02*
X595300D01*
X622700Y1868500D02*
Y1878000D01*
X617950Y1873250D02*
X627450D01*
X654050Y1868500D02*
Y1878000D01*
X649300Y1873250D02*
X658800D01*
X554050Y1924050D02*
X563550D01*
X558800Y1919300D02*
Y1928800D01*
X584200Y1970100D02*
Y1979600D01*
X579450Y1974850D02*
X588950D01*
X452450Y184150D02*
X461950D01*
X457200Y179400D02*
Y188900D01*
X508000Y242650D02*
Y252650D01*
X503000Y247650D02*
X513000D01*
X508000Y268050D02*
Y278050D01*
X503000Y273050D02*
X513000D01*
X565150Y192100D02*
Y201600D01*
X560400Y196850D02*
X569900D01*
X565150Y166700D02*
Y176200D01*
X560400Y171450D02*
X569900D01*
X602850Y179400D02*
Y188900D01*
X598100Y184150D02*
X607600D01*
X909650D02*
X919150D01*
X914400Y179400D02*
Y188900D01*
X1022350Y166700D02*
Y176200D01*
X1017600Y171450D02*
X1027100D01*
X1022350Y192100D02*
Y201600D01*
X1017600Y196850D02*
X1027100D01*
X965200Y242650D02*
Y252650D01*
X960200Y247650D02*
X970200D01*
X965200Y268050D02*
Y278050D01*
X960200Y273050D02*
X970200D01*
X1060450Y179400D02*
Y188900D01*
X1055700Y184150D02*
X1065200D01*
D64*
X250800Y2002790D02*
Y2040890D01*
X231800Y2002790D02*
Y2040890D01*
X250800D01*
X231800Y2002790D02*
X250800D01*
X233800Y1960080D02*
X248800D01*
X233800Y1987080D02*
X248800D01*
X233800Y1960080D02*
Y1987080D01*
X248800Y1960080D02*
Y1987080D01*
X1426100Y310800D02*
X1571100D01*
X1426100D02*
Y443300D01*
X1571100D01*
Y310800D02*
Y443300D01*
X1426100Y475900D02*
X1571100D01*
X1426100D02*
Y608400D01*
X1571100D01*
Y475900D02*
Y608400D01*
X1426100Y641000D02*
X1571100D01*
X1426100D02*
Y773500D01*
X1571100D01*
Y641000D02*
Y773500D01*
X1426100Y806100D02*
X1571100D01*
X1426100D02*
Y938600D01*
X1571100D01*
Y806100D02*
Y938600D01*
Y971200D02*
Y1103700D01*
X1426100D02*
X1571100D01*
X1426100Y971200D02*
Y1103700D01*
Y971200D02*
X1571100D01*
X1426100Y1136300D02*
X1571100D01*
X1426100D02*
Y1268800D01*
X1571100D01*
Y1136300D02*
Y1268800D01*
X1426100Y1301400D02*
X1571100D01*
X1426100D02*
Y1433900D01*
X1571100D01*
Y1301400D02*
Y1433900D01*
X1426100Y1466500D02*
X1571100D01*
X1426100D02*
Y1599000D01*
X1571100D01*
Y1466500D02*
Y1599000D01*
X1576100Y1639900D02*
Y1758900D01*
X1421100Y1639900D02*
X1576100D01*
X1421100Y1758900D02*
X1576100D01*
X1421100Y1639900D02*
Y1758900D01*
X1301100Y1668900D02*
X1328100D01*
X1301100Y1683900D02*
X1328100D01*
Y1668900D02*
Y1683900D01*
X1301100Y1668900D02*
Y1683900D01*
X410350Y-58400D02*
Y132600D01*
Y-58400D02*
X723450D01*
Y132600D01*
X410350D02*
X723450D01*
X347000Y1952100D02*
Y2062100D01*
X288000Y1952100D02*
Y2062100D01*
Y1952100D02*
X347000D01*
X288000Y2062100D02*
X347000D01*
X785200Y1999500D02*
Y2190500D01*
X472100D02*
X785200D01*
X472100Y1999500D02*
Y2190500D01*
Y1999500D02*
X785200D01*
X852100Y2091800D02*
X984600D01*
X852100Y1946800D02*
Y2091800D01*
Y1946800D02*
X984600D01*
Y2091800D01*
X1162400Y1946800D02*
Y2091800D01*
X1029900Y1946800D02*
X1162400D01*
X1029900D02*
Y2091800D01*
X1162400D01*
X577050Y1880750D02*
X604050D01*
X577050Y1865750D02*
X604050D01*
X577050D02*
Y1880750D01*
X604050Y1865750D02*
Y1880750D01*
X609200D02*
X636200D01*
X609200Y1865750D02*
X636200D01*
X609200D02*
Y1880750D01*
X636200Y1865750D02*
Y1880750D01*
X640550D02*
X667550D01*
X640550Y1865750D02*
X667550D01*
X640550D02*
Y1880750D01*
X667550Y1865750D02*
Y1880750D01*
X570300Y1961150D02*
X674300D01*
X570300Y1886950D02*
X674300D01*
Y1961150D01*
X570300Y1886950D02*
Y1961150D01*
X551300Y1910550D02*
Y1937550D01*
X566300Y1910550D02*
Y1937550D01*
X551300Y1910550D02*
X566300D01*
X551300Y1937550D02*
X566300D01*
X570700Y1982350D02*
X597700D01*
X570700Y1967350D02*
X597700D01*
X570700D02*
Y1982350D01*
X597700Y1967350D02*
Y1982350D01*
X872150Y-60940D02*
Y130060D01*
Y-60940D02*
X1185250D01*
Y130060D01*
X872150D02*
X1185250D01*
X449700Y170650D02*
Y197650D01*
X464700Y170650D02*
Y197650D01*
X449700Y170650D02*
X464700D01*
X449700Y197650D02*
X464700D01*
X545050Y157125D02*
Y211175D01*
X470950Y157125D02*
Y211175D01*
Y157125D02*
X545050D01*
X470950Y211175D02*
X545050D01*
X491000Y257150D02*
X525000D01*
X491000Y238150D02*
X525000D01*
X491000D02*
Y257150D01*
X525000Y238150D02*
Y257150D01*
X491000Y263550D02*
X525000D01*
X491000Y282550D02*
X525000D01*
Y263550D02*
Y282550D01*
X491000Y263550D02*
Y282550D01*
X551650Y189350D02*
X578650D01*
X551650Y204350D02*
X578650D01*
Y189350D02*
Y204350D01*
X551650Y189350D02*
Y204350D01*
Y178950D02*
X578650D01*
X551650Y163950D02*
X578650D01*
X551650D02*
Y178950D01*
X578650Y163950D02*
Y178950D01*
X589350Y176650D02*
X616350D01*
X589350Y191650D02*
X616350D01*
Y176650D02*
Y191650D01*
X589350Y176650D02*
Y191650D01*
X906900Y170650D02*
Y197650D01*
X921900Y170650D02*
Y197650D01*
X906900Y170650D02*
X921900D01*
X906900Y197650D02*
X921900D01*
X1002250Y157125D02*
Y211175D01*
X928150Y157125D02*
Y211175D01*
Y157125D02*
X1002250D01*
X928150Y211175D02*
X1002250D01*
X1008850Y178950D02*
X1035850D01*
X1008850Y163950D02*
X1035850D01*
X1008850D02*
Y178950D01*
X1035850Y163950D02*
Y178950D01*
X1008850Y189350D02*
X1035850D01*
X1008850Y204350D02*
X1035850D01*
Y189350D02*
Y204350D01*
X1008850Y189350D02*
Y204350D01*
X948200Y257150D02*
X982200D01*
X948200Y238150D02*
X982200D01*
X948200D02*
Y257150D01*
X982200Y238150D02*
Y257150D01*
X948200Y263550D02*
X982200D01*
X948200Y282550D02*
X982200D01*
Y263550D02*
Y282550D01*
X948200Y263550D02*
Y282550D01*
X1046950Y176650D02*
X1073950D01*
X1046950Y191650D02*
X1073950D01*
Y176650D02*
Y191650D01*
X1046950Y176650D02*
Y191650D01*
X480735Y629950D02*
X535265D01*
X480735D02*
Y1529050D01*
X535265D01*
Y629950D02*
Y1529050D01*
X29100Y1487100D02*
Y1619600D01*
Y1487100D02*
X174100D01*
Y1619600D01*
X29100D02*
X174100D01*
X29100Y598100D02*
Y730600D01*
Y598100D02*
X174100D01*
Y730600D01*
X29100D02*
X174100D01*
X29100Y1309300D02*
Y1441800D01*
Y1309300D02*
X174100D01*
Y1441800D01*
X29100D02*
X174100D01*
X29100Y775900D02*
Y908400D01*
Y775900D02*
X174100D01*
Y908400D01*
X29100D02*
X174100D01*
X29100Y420300D02*
Y552800D01*
Y420300D02*
X174100D01*
Y552800D01*
X29100D02*
X174100D01*
X29100Y953700D02*
Y1086200D01*
Y953700D02*
X174100D01*
Y1086200D01*
X29100D02*
X174100D01*
X29100Y1664900D02*
Y1797400D01*
Y1664900D02*
X174100D01*
Y1797400D01*
X29100D02*
X174100D01*
X29100Y1131500D02*
Y1264000D01*
Y1131500D02*
X174100D01*
Y1264000D01*
X29100D02*
X174100D01*
X29100Y242500D02*
Y375000D01*
Y242500D02*
X174100D01*
Y375000D01*
X29100D02*
X174100D01*
X1144865Y629950D02*
Y1529050D01*
X1090335D02*
X1144865D01*
X1090335Y629950D02*
Y1529050D01*
Y629950D02*
X1144865D01*
M02*
