G04*
G04 #@! TF.GenerationSoftware,Altium Limited,Altium Designer,21.8.1 (53)*
G04*
G04 Layer_Color=2752767*
%FSLAX44Y44*%
%MOMM*%
G71*
G04*
G04 #@! TF.SameCoordinates,803AB11E-904C-4F7A-9A81-77FAE9A3CB3A*
G04*
G04*
G04 #@! TF.FilePolarity,Positive*
G04*
G01*
G75*
%ADD65C,0.0508*%
%ADD66C,0.0677*%
%ADD67C,0.0339*%
D65*
X1454568Y366268D02*
Y370332D01*
X1458632D01*
Y366268D01*
X1454568D01*
X1496568D02*
Y370332D01*
X1500632D01*
Y366268D01*
X1496568D01*
X1538568D02*
Y370332D01*
X1542632D01*
Y366268D01*
X1538568D01*
X1454568Y531368D02*
Y535432D01*
X1458632D01*
Y531368D01*
X1454568D01*
X1496568D02*
Y535432D01*
X1500632D01*
Y531368D01*
X1496568D01*
X1538568D02*
Y535432D01*
X1542632D01*
Y531368D01*
X1538568D01*
X1454568Y696468D02*
Y700532D01*
X1458632D01*
Y696468D01*
X1454568D01*
X1496568D02*
Y700532D01*
X1500632D01*
Y696468D01*
X1496568D01*
X1538568D02*
Y700532D01*
X1542632D01*
Y696468D01*
X1538568D01*
X1295400Y810268D02*
X1293368Y814332D01*
X1297432D01*
X1295400Y810268D01*
Y768268D02*
X1293368Y772332D01*
X1297432D01*
X1295400Y768268D01*
Y726268D02*
X1293368Y730332D01*
X1297432D01*
X1295400Y726268D01*
Y684268D02*
X1293368Y688332D01*
X1297432D01*
X1295400Y684268D01*
X1454568Y861568D02*
Y865632D01*
X1458632D01*
Y861568D01*
X1454568D01*
X1496568D02*
Y865632D01*
X1500632D01*
Y861568D01*
X1496568D01*
X1538568D02*
Y865632D01*
X1542632D01*
Y861568D01*
X1538568D01*
X1295400Y1038868D02*
X1293368Y1042932D01*
X1297432D01*
X1295400Y1038868D01*
Y996868D02*
X1293368Y1000932D01*
X1297432D01*
X1295400Y996868D01*
Y954868D02*
X1293368Y958932D01*
X1297432D01*
X1295400Y954868D01*
Y912868D02*
X1293368Y916932D01*
X1297432D01*
X1295400Y912868D01*
X1538568Y1026668D02*
Y1030732D01*
X1542632D01*
Y1026668D01*
X1538568D01*
X1496568D02*
Y1030732D01*
X1500632D01*
Y1026668D01*
X1496568D01*
X1454568D02*
Y1030732D01*
X1458632D01*
Y1026668D01*
X1454568D01*
X1295400Y1267468D02*
X1293368Y1271532D01*
X1297432D01*
X1295400Y1267468D01*
Y1225468D02*
X1293368Y1229532D01*
X1297432D01*
X1295400Y1225468D01*
Y1183468D02*
X1293368Y1187532D01*
X1297432D01*
X1295400Y1183468D01*
Y1141468D02*
X1293368Y1145532D01*
X1297432D01*
X1295400Y1141468D01*
X1454568Y1191768D02*
Y1195832D01*
X1458632D01*
Y1191768D01*
X1454568D01*
X1496568D02*
Y1195832D01*
X1500632D01*
Y1191768D01*
X1496568D01*
X1538568D02*
Y1195832D01*
X1542632D01*
Y1191768D01*
X1538568D01*
X1295400Y1496068D02*
X1293368Y1500132D01*
X1297432D01*
X1295400Y1496068D01*
Y1454068D02*
X1293368Y1458132D01*
X1297432D01*
X1295400Y1454068D01*
Y1412068D02*
X1293368Y1416132D01*
X1297432D01*
X1295400Y1412068D01*
Y1370068D02*
X1293368Y1374132D01*
X1297432D01*
X1295400Y1370068D01*
X1454568Y1356868D02*
Y1360932D01*
X1458632D01*
Y1356868D01*
X1454568D01*
X1496568D02*
Y1360932D01*
X1500632D01*
Y1356868D01*
X1496568D01*
X1538568D02*
Y1360932D01*
X1542632D01*
Y1356868D01*
X1538568D01*
X1454568Y1521968D02*
Y1526032D01*
X1458632D01*
Y1521968D01*
X1454568D01*
X1496568D02*
Y1526032D01*
X1500632D01*
Y1521968D01*
X1496568D01*
X1538568D02*
Y1526032D01*
X1542632D01*
Y1521968D01*
X1538568D01*
X1540600Y1674368D02*
X1541616Y1675384D01*
X1542632D01*
X1541616Y1676400D01*
X1542632Y1677416D01*
X1541616D01*
X1540600Y1678432D01*
X1539584Y1677416D01*
X1538568D01*
X1539584Y1676400D01*
X1538568Y1675384D01*
X1539584D01*
X1540600Y1674368D01*
X1498600D02*
X1499616Y1675384D01*
X1500632D01*
X1499616Y1676400D01*
X1500632Y1677416D01*
X1499616D01*
X1498600Y1678432D01*
X1497584Y1677416D01*
X1496568D01*
X1497584Y1676400D01*
X1496568Y1675384D01*
X1497584D01*
X1498600Y1674368D01*
X1456600D02*
X1457616Y1675384D01*
X1458632D01*
X1457616Y1676400D01*
X1458632Y1677416D01*
X1457616D01*
X1456600Y1678432D01*
X1455584Y1677416D01*
X1454568D01*
X1455584Y1676400D01*
X1454568Y1675384D01*
X1455584D01*
X1456600Y1674368D01*
Y1729368D02*
X1457616Y1730384D01*
X1458632D01*
X1457616Y1731400D01*
X1458632Y1732416D01*
X1457616D01*
X1456600Y1733432D01*
X1455584Y1732416D01*
X1454568D01*
X1455584Y1731400D01*
X1454568Y1730384D01*
X1455584D01*
X1456600Y1729368D01*
X1498600D02*
X1499616Y1730384D01*
X1500632D01*
X1499616Y1731400D01*
X1500632Y1732416D01*
X1499616D01*
X1498600Y1733432D01*
X1497584Y1732416D01*
X1496568D01*
X1497584Y1731400D01*
X1496568Y1730384D01*
X1497584D01*
X1498600Y1729368D01*
X1540600D02*
X1541616Y1730384D01*
X1542632D01*
X1541616Y1731400D01*
X1542632Y1732416D01*
X1541616D01*
X1540600Y1733432D01*
X1539584Y1732416D01*
X1538568D01*
X1539584Y1731400D01*
X1538568Y1730384D01*
X1539584D01*
X1540600Y1729368D01*
X509468Y112268D02*
X510484Y114300D01*
X509468Y116332D01*
X511500Y115316D01*
X513532Y116332D01*
X512516Y114300D01*
X513532Y112268D01*
X511500Y113284D01*
X509468Y112268D01*
X523318Y83868D02*
X524334Y85900D01*
X523318Y87932D01*
X525350Y86916D01*
X527382Y87932D01*
X526366Y85900D01*
X527382Y83868D01*
X525350Y84884D01*
X523318Y83868D01*
X537168Y112268D02*
X538184Y114300D01*
X537168Y116332D01*
X539200Y115316D01*
X541232Y116332D01*
X540216Y114300D01*
X541232Y112268D01*
X539200Y113284D01*
X537168Y112268D01*
X551018Y83868D02*
X552034Y85900D01*
X551018Y87932D01*
X553050Y86916D01*
X555082Y87932D01*
X554066Y85900D01*
X555082Y83868D01*
X553050Y84884D01*
X551018Y83868D01*
X564868Y112268D02*
X565884Y114300D01*
X564868Y116332D01*
X566900Y115316D01*
X568932Y116332D01*
X567916Y114300D01*
X568932Y112268D01*
X566900Y113284D01*
X564868Y112268D01*
X578718Y83868D02*
X579734Y85900D01*
X578718Y87932D01*
X580750Y86916D01*
X582782Y87932D01*
X581766Y85900D01*
X582782Y83868D01*
X580750Y84884D01*
X578718Y83868D01*
X592568Y112268D02*
X593584Y114300D01*
X592568Y116332D01*
X594600Y115316D01*
X596632Y116332D01*
X595616Y114300D01*
X596632Y112268D01*
X594600Y113284D01*
X592568Y112268D01*
X606418Y83868D02*
X607434Y85900D01*
X606418Y87932D01*
X608450Y86916D01*
X610482Y87932D01*
X609466Y85900D01*
X610482Y83868D01*
X608450Y84884D01*
X606418Y83868D01*
X620268Y112268D02*
X621284Y114300D01*
X620268Y116332D01*
X622300Y115316D01*
X624332Y116332D01*
X623316Y114300D01*
X624332Y112268D01*
X622300Y113284D01*
X620268Y112268D01*
X440934Y99084D02*
Y98068D01*
X442966D01*
Y99084D01*
X443982D01*
Y101116D01*
X442966D01*
Y102132D01*
X440934D01*
Y101116D01*
X439918D01*
Y99084D01*
X440934D01*
X690834D02*
Y98068D01*
X692866D01*
Y99084D01*
X693882D01*
Y101116D01*
X692866D01*
Y102132D01*
X690834D01*
Y101116D01*
X689818D01*
Y99084D01*
X690834D01*
X315468Y2029568D02*
X316484D01*
X317500Y2030584D01*
X318516Y2029568D01*
X319532D01*
Y2030584D01*
X318516Y2031600D01*
X319532Y2032616D01*
Y2033632D01*
X318516D01*
X317500Y2032616D01*
X316484Y2033632D01*
X315468D01*
Y2032616D01*
X316484Y2031600D01*
X315468Y2030584D01*
Y2029568D01*
Y1979568D02*
X316484D01*
X317500Y1980584D01*
X318516Y1979568D01*
X319532D01*
Y1980584D01*
X318516Y1981600D01*
X319532Y1982616D01*
Y1983632D01*
X318516D01*
X317500Y1982616D01*
X316484Y1983632D01*
X315468D01*
Y1982616D01*
X316484Y1981600D01*
X315468Y1980584D01*
Y1979568D01*
X682018Y2015768D02*
X683034Y2017800D01*
X682018Y2019832D01*
X684050Y2018816D01*
X686082Y2019832D01*
X685066Y2017800D01*
X686082Y2015768D01*
X684050Y2016784D01*
X682018Y2015768D01*
X668168Y2044168D02*
X669184Y2046200D01*
X668168Y2048232D01*
X670200Y2047216D01*
X672232Y2048232D01*
X671216Y2046200D01*
X672232Y2044168D01*
X670200Y2045184D01*
X668168Y2044168D01*
X654318Y2015768D02*
X655334Y2017800D01*
X654318Y2019832D01*
X656350Y2018816D01*
X658382Y2019832D01*
X657366Y2017800D01*
X658382Y2015768D01*
X656350Y2016784D01*
X654318Y2015768D01*
X640468Y2044168D02*
X641484Y2046200D01*
X640468Y2048232D01*
X642500Y2047216D01*
X644532Y2048232D01*
X643516Y2046200D01*
X644532Y2044168D01*
X642500Y2045184D01*
X640468Y2044168D01*
X626618Y2015768D02*
X627634Y2017800D01*
X626618Y2019832D01*
X628650Y2018816D01*
X630682Y2019832D01*
X629666Y2017800D01*
X630682Y2015768D01*
X628650Y2016784D01*
X626618Y2015768D01*
X612768Y2044168D02*
X613784Y2046200D01*
X612768Y2048232D01*
X614800Y2047216D01*
X616832Y2048232D01*
X615816Y2046200D01*
X616832Y2044168D01*
X614800Y2045184D01*
X612768Y2044168D01*
X598918Y2015768D02*
X599934Y2017800D01*
X598918Y2019832D01*
X600950Y2018816D01*
X602982Y2019832D01*
X601966Y2017800D01*
X602982Y2015768D01*
X600950Y2016784D01*
X598918Y2015768D01*
X585068Y2044168D02*
X586084Y2046200D01*
X585068Y2048232D01*
X587100Y2047216D01*
X589132Y2048232D01*
X588116Y2046200D01*
X589132Y2044168D01*
X587100Y2045184D01*
X585068Y2044168D01*
X571218Y2015768D02*
X572234Y2017800D01*
X571218Y2019832D01*
X573250Y2018816D01*
X575282Y2019832D01*
X574266Y2017800D01*
X575282Y2015768D01*
X573250Y2016784D01*
X571218Y2015768D01*
X752584Y2030984D02*
Y2029968D01*
X754616D01*
Y2030984D01*
X755632D01*
Y2033016D01*
X754616D01*
Y2034032D01*
X752584D01*
Y2033016D01*
X751568D01*
Y2030984D01*
X752584D01*
X502684D02*
Y2029968D01*
X504716D01*
Y2030984D01*
X505732D01*
Y2033016D01*
X504716D01*
Y2034032D01*
X502684D01*
Y2033016D01*
X501668D01*
Y2030984D01*
X502684D01*
X925068Y2059268D02*
Y2063332D01*
X929132D01*
Y2059268D01*
X925068D01*
Y2017268D02*
Y2021332D01*
X929132D01*
Y2017268D01*
X925068D01*
Y1975268D02*
Y1979332D01*
X929132D01*
Y1975268D01*
X925068D01*
X1102868D02*
Y1979332D01*
X1106932D01*
Y1975268D01*
X1102868D01*
Y2017268D02*
Y2021332D01*
X1106932D01*
Y2017268D01*
X1102868D01*
Y2059268D02*
Y2063332D01*
X1106932D01*
Y2059268D01*
X1102868D01*
X971268Y109728D02*
X972284Y111760D01*
X971268Y113792D01*
X973300Y112776D01*
X975332Y113792D01*
X974316Y111760D01*
X975332Y109728D01*
X973300Y110744D01*
X971268Y109728D01*
X985118Y81328D02*
X986134Y83360D01*
X985118Y85392D01*
X987150Y84376D01*
X989182Y85392D01*
X988166Y83360D01*
X989182Y81328D01*
X987150Y82344D01*
X985118Y81328D01*
X998968Y109728D02*
X999984Y111760D01*
X998968Y113792D01*
X1001000Y112776D01*
X1003032Y113792D01*
X1002016Y111760D01*
X1003032Y109728D01*
X1001000Y110744D01*
X998968Y109728D01*
X1012818Y81328D02*
X1013834Y83360D01*
X1012818Y85392D01*
X1014850Y84376D01*
X1016882Y85392D01*
X1015866Y83360D01*
X1016882Y81328D01*
X1014850Y82344D01*
X1012818Y81328D01*
X1026668Y109728D02*
X1027684Y111760D01*
X1026668Y113792D01*
X1028700Y112776D01*
X1030732Y113792D01*
X1029716Y111760D01*
X1030732Y109728D01*
X1028700Y110744D01*
X1026668Y109728D01*
X1040518Y81328D02*
X1041534Y83360D01*
X1040518Y85392D01*
X1042550Y84376D01*
X1044582Y85392D01*
X1043566Y83360D01*
X1044582Y81328D01*
X1042550Y82344D01*
X1040518Y81328D01*
X1054368Y109728D02*
X1055384Y111760D01*
X1054368Y113792D01*
X1056400Y112776D01*
X1058432Y113792D01*
X1057416Y111760D01*
X1058432Y109728D01*
X1056400Y110744D01*
X1054368Y109728D01*
X1068218Y81328D02*
X1069234Y83360D01*
X1068218Y85392D01*
X1070250Y84376D01*
X1072282Y85392D01*
X1071266Y83360D01*
X1072282Y81328D01*
X1070250Y82344D01*
X1068218Y81328D01*
X1082068Y109728D02*
X1083084Y111760D01*
X1082068Y113792D01*
X1084100Y112776D01*
X1086132Y113792D01*
X1085116Y111760D01*
X1086132Y109728D01*
X1084100Y110744D01*
X1082068Y109728D01*
X902734Y96544D02*
Y95528D01*
X904766D01*
Y96544D01*
X905782D01*
Y98576D01*
X904766D01*
Y99592D01*
X902734D01*
Y98576D01*
X901718D01*
Y96544D01*
X902734D01*
X1152634D02*
Y95528D01*
X1154666D01*
Y96544D01*
X1155682D01*
Y98576D01*
X1154666D01*
Y99592D01*
X1152634D01*
Y98576D01*
X1151618D01*
Y96544D01*
X1152634D01*
X99568Y2032000D02*
X101600Y2034032D01*
X103632Y2032000D01*
X101600Y2029968D01*
X99568Y2032000D01*
X1496568Y101600D02*
X1498600Y103632D01*
X1500632Y101600D01*
X1498600Y99568D01*
X1496568Y101600D01*
Y2032000D02*
X1498600Y2034032D01*
X1500632Y2032000D01*
X1498600Y2029968D01*
X1496568Y2032000D01*
X99568Y101600D02*
X101600Y103632D01*
X103632Y101600D01*
X101600Y99568D01*
X99568Y101600D01*
X518668Y1509268D02*
Y1513332D01*
X522732D01*
Y1509268D01*
X518668D01*
X519684Y1510284D02*
Y1512316D01*
X521716D01*
Y1510284D01*
X519684D01*
X493268Y1509268D02*
Y1513332D01*
X497332D01*
Y1509268D01*
X493268D01*
X494284Y1510284D02*
Y1512316D01*
X496316D01*
Y1510284D01*
X494284D01*
X518668Y1483868D02*
Y1487932D01*
X522732D01*
Y1483868D01*
X518668D01*
X519684Y1484884D02*
Y1486916D01*
X521716D01*
Y1484884D01*
X519684D01*
X493268Y1483868D02*
Y1487932D01*
X497332D01*
Y1483868D01*
X493268D01*
X494284Y1484884D02*
Y1486916D01*
X496316D01*
Y1484884D01*
X494284D01*
X518668Y1458468D02*
Y1462532D01*
X522732D01*
Y1458468D01*
X518668D01*
X519684Y1459484D02*
Y1461516D01*
X521716D01*
Y1459484D01*
X519684D01*
X493268Y1458468D02*
Y1462532D01*
X497332D01*
Y1458468D01*
X493268D01*
X494284Y1459484D02*
Y1461516D01*
X496316D01*
Y1459484D01*
X494284D01*
X518668Y1433068D02*
Y1437132D01*
X522732D01*
Y1433068D01*
X518668D01*
X519684Y1434084D02*
Y1436116D01*
X521716D01*
Y1434084D01*
X519684D01*
X493268Y1433068D02*
Y1437132D01*
X497332D01*
Y1433068D01*
X493268D01*
X494284Y1434084D02*
Y1436116D01*
X496316D01*
Y1434084D01*
X494284D01*
X518668Y1407668D02*
Y1411732D01*
X522732D01*
Y1407668D01*
X518668D01*
X519684Y1408684D02*
Y1410716D01*
X521716D01*
Y1408684D01*
X519684D01*
X493268Y1407668D02*
Y1411732D01*
X497332D01*
Y1407668D01*
X493268D01*
X494284Y1408684D02*
Y1410716D01*
X496316D01*
Y1408684D01*
X494284D01*
X518668Y1382268D02*
Y1386332D01*
X522732D01*
Y1382268D01*
X518668D01*
X519684Y1383284D02*
Y1385316D01*
X521716D01*
Y1383284D01*
X519684D01*
X493268Y1382268D02*
Y1386332D01*
X497332D01*
Y1382268D01*
X493268D01*
X494284Y1383284D02*
Y1385316D01*
X496316D01*
Y1383284D01*
X494284D01*
X518668Y1356868D02*
Y1360932D01*
X522732D01*
Y1356868D01*
X518668D01*
X519684Y1357884D02*
Y1359916D01*
X521716D01*
Y1357884D01*
X519684D01*
X493268Y1356868D02*
Y1360932D01*
X497332D01*
Y1356868D01*
X493268D01*
X494284Y1357884D02*
Y1359916D01*
X496316D01*
Y1357884D01*
X494284D01*
X518668Y1331468D02*
Y1335532D01*
X522732D01*
Y1331468D01*
X518668D01*
X519684Y1332484D02*
Y1334516D01*
X521716D01*
Y1332484D01*
X519684D01*
X493268Y1331468D02*
Y1335532D01*
X497332D01*
Y1331468D01*
X493268D01*
X494284Y1332484D02*
Y1334516D01*
X496316D01*
Y1332484D01*
X494284D01*
X518668Y1306068D02*
Y1310132D01*
X522732D01*
Y1306068D01*
X518668D01*
X519684Y1307084D02*
Y1309116D01*
X521716D01*
Y1307084D01*
X519684D01*
X493268Y1306068D02*
Y1310132D01*
X497332D01*
Y1306068D01*
X493268D01*
X494284Y1307084D02*
Y1309116D01*
X496316D01*
Y1307084D01*
X494284D01*
X518668Y1280668D02*
Y1284732D01*
X522732D01*
Y1280668D01*
X518668D01*
X519684Y1281684D02*
Y1283716D01*
X521716D01*
Y1281684D01*
X519684D01*
X493268Y1280668D02*
Y1284732D01*
X497332D01*
Y1280668D01*
X493268D01*
X494284Y1281684D02*
Y1283716D01*
X496316D01*
Y1281684D01*
X494284D01*
X518668Y1255268D02*
Y1259332D01*
X522732D01*
Y1255268D01*
X518668D01*
X519684Y1256284D02*
Y1258316D01*
X521716D01*
Y1256284D01*
X519684D01*
X493268Y1255268D02*
Y1259332D01*
X497332D01*
Y1255268D01*
X493268D01*
X494284Y1256284D02*
Y1258316D01*
X496316D01*
Y1256284D01*
X494284D01*
X518668Y1229868D02*
Y1233932D01*
X522732D01*
Y1229868D01*
X518668D01*
X519684Y1230884D02*
Y1232916D01*
X521716D01*
Y1230884D01*
X519684D01*
X493268Y1229868D02*
Y1233932D01*
X497332D01*
Y1229868D01*
X493268D01*
X494284Y1230884D02*
Y1232916D01*
X496316D01*
Y1230884D01*
X494284D01*
X518668Y1204468D02*
Y1208532D01*
X522732D01*
Y1204468D01*
X518668D01*
X519684Y1205484D02*
Y1207516D01*
X521716D01*
Y1205484D01*
X519684D01*
X493268Y1204468D02*
Y1208532D01*
X497332D01*
Y1204468D01*
X493268D01*
X494284Y1205484D02*
Y1207516D01*
X496316D01*
Y1205484D01*
X494284D01*
X518668Y1179068D02*
Y1183132D01*
X522732D01*
Y1179068D01*
X518668D01*
X519684Y1180084D02*
Y1182116D01*
X521716D01*
Y1180084D01*
X519684D01*
X493268Y1179068D02*
Y1183132D01*
X497332D01*
Y1179068D01*
X493268D01*
X494284Y1180084D02*
Y1182116D01*
X496316D01*
Y1180084D01*
X494284D01*
X518668Y1153668D02*
Y1157732D01*
X522732D01*
Y1153668D01*
X518668D01*
X519684Y1154684D02*
Y1156716D01*
X521716D01*
Y1154684D01*
X519684D01*
X493268Y1153668D02*
Y1157732D01*
X497332D01*
Y1153668D01*
X493268D01*
X494284Y1154684D02*
Y1156716D01*
X496316D01*
Y1154684D01*
X494284D01*
X518668Y1128268D02*
Y1132332D01*
X522732D01*
Y1128268D01*
X518668D01*
X519684Y1129284D02*
Y1131316D01*
X521716D01*
Y1129284D01*
X519684D01*
X493268Y1128268D02*
Y1132332D01*
X497332D01*
Y1128268D01*
X493268D01*
X494284Y1129284D02*
Y1131316D01*
X496316D01*
Y1129284D01*
X494284D01*
X518668Y1102868D02*
Y1106932D01*
X522732D01*
Y1102868D01*
X518668D01*
X519684Y1103884D02*
Y1105916D01*
X521716D01*
Y1103884D01*
X519684D01*
X493268Y1102868D02*
Y1106932D01*
X497332D01*
Y1102868D01*
X493268D01*
X494284Y1103884D02*
Y1105916D01*
X496316D01*
Y1103884D01*
X494284D01*
X518668Y1077468D02*
Y1081532D01*
X522732D01*
Y1077468D01*
X518668D01*
X519684Y1078484D02*
Y1080516D01*
X521716D01*
Y1078484D01*
X519684D01*
X493268Y1077468D02*
Y1081532D01*
X497332D01*
Y1077468D01*
X493268D01*
X494284Y1078484D02*
Y1080516D01*
X496316D01*
Y1078484D01*
X494284D01*
X518668Y1052068D02*
Y1056132D01*
X522732D01*
Y1052068D01*
X518668D01*
X519684Y1053084D02*
Y1055116D01*
X521716D01*
Y1053084D01*
X519684D01*
X493268Y1052068D02*
Y1056132D01*
X497332D01*
Y1052068D01*
X493268D01*
X494284Y1053084D02*
Y1055116D01*
X496316D01*
Y1053084D01*
X494284D01*
X518668Y1026668D02*
Y1030732D01*
X522732D01*
Y1026668D01*
X518668D01*
X519684Y1027684D02*
Y1029716D01*
X521716D01*
Y1027684D01*
X519684D01*
X493268Y1026668D02*
Y1030732D01*
X497332D01*
Y1026668D01*
X493268D01*
X494284Y1027684D02*
Y1029716D01*
X496316D01*
Y1027684D01*
X494284D01*
X518668Y1001268D02*
Y1005332D01*
X522732D01*
Y1001268D01*
X518668D01*
X519684Y1002284D02*
Y1004316D01*
X521716D01*
Y1002284D01*
X519684D01*
X493268Y1001268D02*
Y1005332D01*
X497332D01*
Y1001268D01*
X493268D01*
X494284Y1002284D02*
Y1004316D01*
X496316D01*
Y1002284D01*
X494284D01*
X518668Y975868D02*
Y979932D01*
X522732D01*
Y975868D01*
X518668D01*
X519684Y976884D02*
Y978916D01*
X521716D01*
Y976884D01*
X519684D01*
X493268Y975868D02*
Y979932D01*
X497332D01*
Y975868D01*
X493268D01*
X494284Y976884D02*
Y978916D01*
X496316D01*
Y976884D01*
X494284D01*
X518668Y950468D02*
Y954532D01*
X522732D01*
Y950468D01*
X518668D01*
X519684Y951484D02*
Y953516D01*
X521716D01*
Y951484D01*
X519684D01*
X493268Y950468D02*
Y954532D01*
X497332D01*
Y950468D01*
X493268D01*
X494284Y951484D02*
Y953516D01*
X496316D01*
Y951484D01*
X494284D01*
X518668Y925068D02*
Y929132D01*
X522732D01*
Y925068D01*
X518668D01*
X519684Y926084D02*
Y928116D01*
X521716D01*
Y926084D01*
X519684D01*
X493268Y925068D02*
Y929132D01*
X497332D01*
Y925068D01*
X493268D01*
X494284Y926084D02*
Y928116D01*
X496316D01*
Y926084D01*
X494284D01*
X518668Y899668D02*
Y903732D01*
X522732D01*
Y899668D01*
X518668D01*
X519684Y900684D02*
Y902716D01*
X521716D01*
Y900684D01*
X519684D01*
X493268Y899668D02*
Y903732D01*
X497332D01*
Y899668D01*
X493268D01*
X494284Y900684D02*
Y902716D01*
X496316D01*
Y900684D01*
X494284D01*
X518668Y874268D02*
Y878332D01*
X522732D01*
Y874268D01*
X518668D01*
X519684Y875284D02*
Y877316D01*
X521716D01*
Y875284D01*
X519684D01*
X493268Y874268D02*
Y878332D01*
X497332D01*
Y874268D01*
X493268D01*
X494284Y875284D02*
Y877316D01*
X496316D01*
Y875284D01*
X494284D01*
X518668Y848868D02*
Y852932D01*
X522732D01*
Y848868D01*
X518668D01*
X519684Y849884D02*
Y851916D01*
X521716D01*
Y849884D01*
X519684D01*
X493268Y848868D02*
Y852932D01*
X497332D01*
Y848868D01*
X493268D01*
X494284Y849884D02*
Y851916D01*
X496316D01*
Y849884D01*
X494284D01*
X518668Y823468D02*
Y827532D01*
X522732D01*
Y823468D01*
X518668D01*
X519684Y824484D02*
Y826516D01*
X521716D01*
Y824484D01*
X519684D01*
X493268Y823468D02*
Y827532D01*
X497332D01*
Y823468D01*
X493268D01*
X494284Y824484D02*
Y826516D01*
X496316D01*
Y824484D01*
X494284D01*
X518668Y798068D02*
Y802132D01*
X522732D01*
Y798068D01*
X518668D01*
X519684Y799084D02*
Y801116D01*
X521716D01*
Y799084D01*
X519684D01*
X493268Y798068D02*
Y802132D01*
X497332D01*
Y798068D01*
X493268D01*
X494284Y799084D02*
Y801116D01*
X496316D01*
Y799084D01*
X494284D01*
X518668Y772668D02*
Y776732D01*
X522732D01*
Y772668D01*
X518668D01*
X519684Y773684D02*
Y775716D01*
X521716D01*
Y773684D01*
X519684D01*
X493268Y772668D02*
Y776732D01*
X497332D01*
Y772668D01*
X493268D01*
X494284Y773684D02*
Y775716D01*
X496316D01*
Y773684D01*
X494284D01*
X518668Y747268D02*
Y751332D01*
X522732D01*
Y747268D01*
X518668D01*
X519684Y748284D02*
Y750316D01*
X521716D01*
Y748284D01*
X519684D01*
X493268Y747268D02*
Y751332D01*
X497332D01*
Y747268D01*
X493268D01*
X494284Y748284D02*
Y750316D01*
X496316D01*
Y748284D01*
X494284D01*
X518668Y721868D02*
Y725932D01*
X522732D01*
Y721868D01*
X518668D01*
X519684Y722884D02*
Y724916D01*
X521716D01*
Y722884D01*
X519684D01*
X493268Y721868D02*
Y725932D01*
X497332D01*
Y721868D01*
X493268D01*
X494284Y722884D02*
Y724916D01*
X496316D01*
Y722884D01*
X494284D01*
X518668Y696468D02*
Y700532D01*
X522732D01*
Y696468D01*
X518668D01*
X519684Y697484D02*
Y699516D01*
X521716D01*
Y697484D01*
X519684D01*
X493268Y696468D02*
Y700532D01*
X497332D01*
Y696468D01*
X493268D01*
X494284Y697484D02*
Y699516D01*
X496316D01*
Y697484D01*
X494284D01*
X518668Y671068D02*
Y675132D01*
X522732D01*
Y671068D01*
X518668D01*
X519684Y672084D02*
Y674116D01*
X521716D01*
Y672084D01*
X519684D01*
X493268Y671068D02*
Y675132D01*
X497332D01*
Y671068D01*
X493268D01*
X494284Y672084D02*
Y674116D01*
X496316D01*
Y672084D01*
X494284D01*
X518668Y645668D02*
Y649732D01*
X522732D01*
Y645668D01*
X518668D01*
X519684Y646684D02*
Y648716D01*
X521716D01*
Y646684D01*
X519684D01*
X493268Y645668D02*
Y649732D01*
X497332D01*
Y645668D01*
X493268D01*
X494284Y646684D02*
Y648716D01*
X496316D01*
Y646684D01*
X494284D01*
X317500Y1572268D02*
X315468Y1576332D01*
X319532D01*
X317500Y1572268D01*
Y1530268D02*
X315468Y1534332D01*
X319532D01*
X317500Y1530268D01*
Y1488268D02*
X315468Y1492332D01*
X319532D01*
X317500Y1488268D01*
Y1446268D02*
X315468Y1450332D01*
X319532D01*
X317500Y1446268D01*
X57568Y1560068D02*
Y1564132D01*
X61632D01*
Y1560068D01*
X57568D01*
X99568D02*
Y1564132D01*
X103632D01*
Y1560068D01*
X99568D01*
X141568D02*
Y1564132D01*
X145632D01*
Y1560068D01*
X141568D01*
X280400Y429768D02*
X278368Y433832D01*
X282432D01*
X280400Y429768D01*
X322400D02*
X320368Y433832D01*
X324432D01*
X322400Y429768D01*
X364400D02*
X362368Y433832D01*
X366432D01*
X364400Y429768D01*
X406400D02*
X404368Y433832D01*
X408432D01*
X406400Y429768D01*
X57568Y671068D02*
Y675132D01*
X61632D01*
Y671068D01*
X57568D01*
X99568D02*
Y675132D01*
X103632D01*
Y671068D01*
X99568D01*
X141568D02*
Y675132D01*
X145632D01*
Y671068D01*
X141568D01*
X317500Y1356368D02*
X315468Y1360432D01*
X319532D01*
X317500Y1356368D01*
Y1314368D02*
X315468Y1318432D01*
X319532D01*
X317500Y1314368D01*
Y1272368D02*
X315468Y1276432D01*
X319532D01*
X317500Y1272368D01*
Y1230368D02*
X315468Y1234432D01*
X319532D01*
X317500Y1230368D01*
Y911868D02*
X315468Y915932D01*
X319532D01*
X317500Y911868D01*
Y869868D02*
X315468Y873932D01*
X319532D01*
X317500Y869868D01*
Y827868D02*
X315468Y831932D01*
X319532D01*
X317500Y827868D01*
Y785868D02*
X315468Y789932D01*
X319532D01*
X317500Y785868D01*
X57568Y1382268D02*
Y1386332D01*
X61632D01*
Y1382268D01*
X57568D01*
X99568D02*
Y1386332D01*
X103632D01*
Y1382268D01*
X99568D01*
X141568D02*
Y1386332D01*
X145632D01*
Y1382268D01*
X141568D01*
X57568Y848868D02*
Y852932D01*
X61632D01*
Y848868D01*
X57568D01*
X99568D02*
Y852932D01*
X103632D01*
Y848868D01*
X99568D01*
X141568D02*
Y852932D01*
X145632D01*
Y848868D01*
X141568D01*
X57568Y493268D02*
Y497332D01*
X61632D01*
Y493268D01*
X57568D01*
X99568D02*
Y497332D01*
X103632D01*
Y493268D01*
X99568D01*
X141568D02*
Y497332D01*
X145632D01*
Y493268D01*
X141568D01*
X57568Y1026668D02*
Y1030732D01*
X61632D01*
Y1026668D01*
X57568D01*
X99568D02*
Y1030732D01*
X103632D01*
Y1026668D01*
X99568D01*
X141568D02*
Y1030732D01*
X145632D01*
Y1026668D01*
X141568D01*
X57568Y1737868D02*
Y1741932D01*
X61632D01*
Y1737868D01*
X57568D01*
X99568D02*
Y1741932D01*
X103632D01*
Y1737868D01*
X99568D01*
X141568D02*
Y1741932D01*
X145632D01*
Y1737868D01*
X141568D01*
X57568Y1204468D02*
Y1208532D01*
X61632D01*
Y1204468D01*
X57568D01*
X99568D02*
Y1208532D01*
X103632D01*
Y1204468D01*
X99568D01*
X141568D02*
Y1208532D01*
X145632D01*
Y1204468D01*
X141568D01*
X57568Y315468D02*
Y319532D01*
X61632D01*
Y315468D01*
X57568D01*
X99568D02*
Y319532D01*
X103632D01*
Y315468D01*
X99568D01*
X141568D02*
Y319532D01*
X145632D01*
Y315468D01*
X141568D01*
X317500Y683268D02*
X315468Y687332D01*
X319532D01*
X317500Y683268D01*
Y641268D02*
X315468Y645332D01*
X319532D01*
X317500Y641268D01*
Y599268D02*
X315468Y603332D01*
X319532D01*
X317500Y599268D01*
Y557268D02*
X315468Y561332D01*
X319532D01*
X317500Y557268D01*
Y1132168D02*
X315468Y1136232D01*
X319532D01*
X317500Y1132168D01*
Y1090168D02*
X315468Y1094232D01*
X319532D01*
X317500Y1090168D01*
Y1048168D02*
X315468Y1052232D01*
X319532D01*
X317500Y1048168D01*
Y1006168D02*
X315468Y1010232D01*
X319532D01*
X317500Y1006168D01*
X1102868Y645668D02*
Y649732D01*
X1106932D01*
Y645668D01*
X1102868D01*
X1103884Y646684D02*
Y648716D01*
X1105916D01*
Y646684D01*
X1103884D01*
X1128268Y645668D02*
Y649732D01*
X1132332D01*
Y645668D01*
X1128268D01*
X1129284Y646684D02*
Y648716D01*
X1131316D01*
Y646684D01*
X1129284D01*
X1102868Y671068D02*
Y675132D01*
X1106932D01*
Y671068D01*
X1102868D01*
X1103884Y672084D02*
Y674116D01*
X1105916D01*
Y672084D01*
X1103884D01*
X1128268Y671068D02*
Y675132D01*
X1132332D01*
Y671068D01*
X1128268D01*
X1129284Y672084D02*
Y674116D01*
X1131316D01*
Y672084D01*
X1129284D01*
X1102868Y696468D02*
Y700532D01*
X1106932D01*
Y696468D01*
X1102868D01*
X1103884Y697484D02*
Y699516D01*
X1105916D01*
Y697484D01*
X1103884D01*
X1128268Y696468D02*
Y700532D01*
X1132332D01*
Y696468D01*
X1128268D01*
X1129284Y697484D02*
Y699516D01*
X1131316D01*
Y697484D01*
X1129284D01*
X1102868Y721868D02*
Y725932D01*
X1106932D01*
Y721868D01*
X1102868D01*
X1103884Y722884D02*
Y724916D01*
X1105916D01*
Y722884D01*
X1103884D01*
X1128268Y721868D02*
Y725932D01*
X1132332D01*
Y721868D01*
X1128268D01*
X1129284Y722884D02*
Y724916D01*
X1131316D01*
Y722884D01*
X1129284D01*
X1102868Y747268D02*
Y751332D01*
X1106932D01*
Y747268D01*
X1102868D01*
X1103884Y748284D02*
Y750316D01*
X1105916D01*
Y748284D01*
X1103884D01*
X1128268Y747268D02*
Y751332D01*
X1132332D01*
Y747268D01*
X1128268D01*
X1129284Y748284D02*
Y750316D01*
X1131316D01*
Y748284D01*
X1129284D01*
X1102868Y772668D02*
Y776732D01*
X1106932D01*
Y772668D01*
X1102868D01*
X1103884Y773684D02*
Y775716D01*
X1105916D01*
Y773684D01*
X1103884D01*
X1128268Y772668D02*
Y776732D01*
X1132332D01*
Y772668D01*
X1128268D01*
X1129284Y773684D02*
Y775716D01*
X1131316D01*
Y773684D01*
X1129284D01*
X1102868Y798068D02*
Y802132D01*
X1106932D01*
Y798068D01*
X1102868D01*
X1103884Y799084D02*
Y801116D01*
X1105916D01*
Y799084D01*
X1103884D01*
X1128268Y798068D02*
Y802132D01*
X1132332D01*
Y798068D01*
X1128268D01*
X1129284Y799084D02*
Y801116D01*
X1131316D01*
Y799084D01*
X1129284D01*
X1102868Y823468D02*
Y827532D01*
X1106932D01*
Y823468D01*
X1102868D01*
X1103884Y824484D02*
Y826516D01*
X1105916D01*
Y824484D01*
X1103884D01*
X1128268Y823468D02*
Y827532D01*
X1132332D01*
Y823468D01*
X1128268D01*
X1129284Y824484D02*
Y826516D01*
X1131316D01*
Y824484D01*
X1129284D01*
X1102868Y848868D02*
Y852932D01*
X1106932D01*
Y848868D01*
X1102868D01*
X1103884Y849884D02*
Y851916D01*
X1105916D01*
Y849884D01*
X1103884D01*
X1128268Y848868D02*
Y852932D01*
X1132332D01*
Y848868D01*
X1128268D01*
X1129284Y849884D02*
Y851916D01*
X1131316D01*
Y849884D01*
X1129284D01*
X1102868Y874268D02*
Y878332D01*
X1106932D01*
Y874268D01*
X1102868D01*
X1103884Y875284D02*
Y877316D01*
X1105916D01*
Y875284D01*
X1103884D01*
X1128268Y874268D02*
Y878332D01*
X1132332D01*
Y874268D01*
X1128268D01*
X1129284Y875284D02*
Y877316D01*
X1131316D01*
Y875284D01*
X1129284D01*
X1102868Y899668D02*
Y903732D01*
X1106932D01*
Y899668D01*
X1102868D01*
X1103884Y900684D02*
Y902716D01*
X1105916D01*
Y900684D01*
X1103884D01*
X1128268Y899668D02*
Y903732D01*
X1132332D01*
Y899668D01*
X1128268D01*
X1129284Y900684D02*
Y902716D01*
X1131316D01*
Y900684D01*
X1129284D01*
X1102868Y925068D02*
Y929132D01*
X1106932D01*
Y925068D01*
X1102868D01*
X1103884Y926084D02*
Y928116D01*
X1105916D01*
Y926084D01*
X1103884D01*
X1128268Y925068D02*
Y929132D01*
X1132332D01*
Y925068D01*
X1128268D01*
X1129284Y926084D02*
Y928116D01*
X1131316D01*
Y926084D01*
X1129284D01*
X1102868Y950468D02*
Y954532D01*
X1106932D01*
Y950468D01*
X1102868D01*
X1103884Y951484D02*
Y953516D01*
X1105916D01*
Y951484D01*
X1103884D01*
X1128268Y950468D02*
Y954532D01*
X1132332D01*
Y950468D01*
X1128268D01*
X1129284Y951484D02*
Y953516D01*
X1131316D01*
Y951484D01*
X1129284D01*
X1102868Y975868D02*
Y979932D01*
X1106932D01*
Y975868D01*
X1102868D01*
X1103884Y976884D02*
Y978916D01*
X1105916D01*
Y976884D01*
X1103884D01*
X1128268Y975868D02*
Y979932D01*
X1132332D01*
Y975868D01*
X1128268D01*
X1129284Y976884D02*
Y978916D01*
X1131316D01*
Y976884D01*
X1129284D01*
X1102868Y1001268D02*
Y1005332D01*
X1106932D01*
Y1001268D01*
X1102868D01*
X1103884Y1002284D02*
Y1004316D01*
X1105916D01*
Y1002284D01*
X1103884D01*
X1128268Y1001268D02*
Y1005332D01*
X1132332D01*
Y1001268D01*
X1128268D01*
X1129284Y1002284D02*
Y1004316D01*
X1131316D01*
Y1002284D01*
X1129284D01*
X1102868Y1026668D02*
Y1030732D01*
X1106932D01*
Y1026668D01*
X1102868D01*
X1103884Y1027684D02*
Y1029716D01*
X1105916D01*
Y1027684D01*
X1103884D01*
X1128268Y1026668D02*
Y1030732D01*
X1132332D01*
Y1026668D01*
X1128268D01*
X1129284Y1027684D02*
Y1029716D01*
X1131316D01*
Y1027684D01*
X1129284D01*
X1102868Y1052068D02*
Y1056132D01*
X1106932D01*
Y1052068D01*
X1102868D01*
X1103884Y1053084D02*
Y1055116D01*
X1105916D01*
Y1053084D01*
X1103884D01*
X1128268Y1052068D02*
Y1056132D01*
X1132332D01*
Y1052068D01*
X1128268D01*
X1129284Y1053084D02*
Y1055116D01*
X1131316D01*
Y1053084D01*
X1129284D01*
X1102868Y1077468D02*
Y1081532D01*
X1106932D01*
Y1077468D01*
X1102868D01*
X1103884Y1078484D02*
Y1080516D01*
X1105916D01*
Y1078484D01*
X1103884D01*
X1128268Y1077468D02*
Y1081532D01*
X1132332D01*
Y1077468D01*
X1128268D01*
X1129284Y1078484D02*
Y1080516D01*
X1131316D01*
Y1078484D01*
X1129284D01*
X1102868Y1102868D02*
Y1106932D01*
X1106932D01*
Y1102868D01*
X1102868D01*
X1103884Y1103884D02*
Y1105916D01*
X1105916D01*
Y1103884D01*
X1103884D01*
X1128268Y1102868D02*
Y1106932D01*
X1132332D01*
Y1102868D01*
X1128268D01*
X1129284Y1103884D02*
Y1105916D01*
X1131316D01*
Y1103884D01*
X1129284D01*
X1102868Y1128268D02*
Y1132332D01*
X1106932D01*
Y1128268D01*
X1102868D01*
X1103884Y1129284D02*
Y1131316D01*
X1105916D01*
Y1129284D01*
X1103884D01*
X1128268Y1128268D02*
Y1132332D01*
X1132332D01*
Y1128268D01*
X1128268D01*
X1129284Y1129284D02*
Y1131316D01*
X1131316D01*
Y1129284D01*
X1129284D01*
X1102868Y1153668D02*
Y1157732D01*
X1106932D01*
Y1153668D01*
X1102868D01*
X1103884Y1154684D02*
Y1156716D01*
X1105916D01*
Y1154684D01*
X1103884D01*
X1128268Y1153668D02*
Y1157732D01*
X1132332D01*
Y1153668D01*
X1128268D01*
X1129284Y1154684D02*
Y1156716D01*
X1131316D01*
Y1154684D01*
X1129284D01*
X1102868Y1179068D02*
Y1183132D01*
X1106932D01*
Y1179068D01*
X1102868D01*
X1103884Y1180084D02*
Y1182116D01*
X1105916D01*
Y1180084D01*
X1103884D01*
X1128268Y1179068D02*
Y1183132D01*
X1132332D01*
Y1179068D01*
X1128268D01*
X1129284Y1180084D02*
Y1182116D01*
X1131316D01*
Y1180084D01*
X1129284D01*
X1102868Y1204468D02*
Y1208532D01*
X1106932D01*
Y1204468D01*
X1102868D01*
X1103884Y1205484D02*
Y1207516D01*
X1105916D01*
Y1205484D01*
X1103884D01*
X1128268Y1204468D02*
Y1208532D01*
X1132332D01*
Y1204468D01*
X1128268D01*
X1129284Y1205484D02*
Y1207516D01*
X1131316D01*
Y1205484D01*
X1129284D01*
X1102868Y1229868D02*
Y1233932D01*
X1106932D01*
Y1229868D01*
X1102868D01*
X1103884Y1230884D02*
Y1232916D01*
X1105916D01*
Y1230884D01*
X1103884D01*
X1128268Y1229868D02*
Y1233932D01*
X1132332D01*
Y1229868D01*
X1128268D01*
X1129284Y1230884D02*
Y1232916D01*
X1131316D01*
Y1230884D01*
X1129284D01*
X1102868Y1255268D02*
Y1259332D01*
X1106932D01*
Y1255268D01*
X1102868D01*
X1103884Y1256284D02*
Y1258316D01*
X1105916D01*
Y1256284D01*
X1103884D01*
X1128268Y1255268D02*
Y1259332D01*
X1132332D01*
Y1255268D01*
X1128268D01*
X1129284Y1256284D02*
Y1258316D01*
X1131316D01*
Y1256284D01*
X1129284D01*
X1102868Y1280668D02*
Y1284732D01*
X1106932D01*
Y1280668D01*
X1102868D01*
X1103884Y1281684D02*
Y1283716D01*
X1105916D01*
Y1281684D01*
X1103884D01*
X1128268Y1280668D02*
Y1284732D01*
X1132332D01*
Y1280668D01*
X1128268D01*
X1129284Y1281684D02*
Y1283716D01*
X1131316D01*
Y1281684D01*
X1129284D01*
X1102868Y1306068D02*
Y1310132D01*
X1106932D01*
Y1306068D01*
X1102868D01*
X1103884Y1307084D02*
Y1309116D01*
X1105916D01*
Y1307084D01*
X1103884D01*
X1128268Y1306068D02*
Y1310132D01*
X1132332D01*
Y1306068D01*
X1128268D01*
X1129284Y1307084D02*
Y1309116D01*
X1131316D01*
Y1307084D01*
X1129284D01*
X1102868Y1331468D02*
Y1335532D01*
X1106932D01*
Y1331468D01*
X1102868D01*
X1103884Y1332484D02*
Y1334516D01*
X1105916D01*
Y1332484D01*
X1103884D01*
X1128268Y1331468D02*
Y1335532D01*
X1132332D01*
Y1331468D01*
X1128268D01*
X1129284Y1332484D02*
Y1334516D01*
X1131316D01*
Y1332484D01*
X1129284D01*
X1102868Y1356868D02*
Y1360932D01*
X1106932D01*
Y1356868D01*
X1102868D01*
X1103884Y1357884D02*
Y1359916D01*
X1105916D01*
Y1357884D01*
X1103884D01*
X1128268Y1356868D02*
Y1360932D01*
X1132332D01*
Y1356868D01*
X1128268D01*
X1129284Y1357884D02*
Y1359916D01*
X1131316D01*
Y1357884D01*
X1129284D01*
X1102868Y1382268D02*
Y1386332D01*
X1106932D01*
Y1382268D01*
X1102868D01*
X1103884Y1383284D02*
Y1385316D01*
X1105916D01*
Y1383284D01*
X1103884D01*
X1128268Y1382268D02*
Y1386332D01*
X1132332D01*
Y1382268D01*
X1128268D01*
X1129284Y1383284D02*
Y1385316D01*
X1131316D01*
Y1383284D01*
X1129284D01*
X1102868Y1407668D02*
Y1411732D01*
X1106932D01*
Y1407668D01*
X1102868D01*
X1103884Y1408684D02*
Y1410716D01*
X1105916D01*
Y1408684D01*
X1103884D01*
X1128268Y1407668D02*
Y1411732D01*
X1132332D01*
Y1407668D01*
X1128268D01*
X1129284Y1408684D02*
Y1410716D01*
X1131316D01*
Y1408684D01*
X1129284D01*
X1102868Y1433068D02*
Y1437132D01*
X1106932D01*
Y1433068D01*
X1102868D01*
X1103884Y1434084D02*
Y1436116D01*
X1105916D01*
Y1434084D01*
X1103884D01*
X1128268Y1433068D02*
Y1437132D01*
X1132332D01*
Y1433068D01*
X1128268D01*
X1129284Y1434084D02*
Y1436116D01*
X1131316D01*
Y1434084D01*
X1129284D01*
X1102868Y1458468D02*
Y1462532D01*
X1106932D01*
Y1458468D01*
X1102868D01*
X1103884Y1459484D02*
Y1461516D01*
X1105916D01*
Y1459484D01*
X1103884D01*
X1128268Y1458468D02*
Y1462532D01*
X1132332D01*
Y1458468D01*
X1128268D01*
X1129284Y1459484D02*
Y1461516D01*
X1131316D01*
Y1459484D01*
X1129284D01*
X1102868Y1483868D02*
Y1487932D01*
X1106932D01*
Y1483868D01*
X1102868D01*
X1103884Y1484884D02*
Y1486916D01*
X1105916D01*
Y1484884D01*
X1103884D01*
X1128268Y1483868D02*
Y1487932D01*
X1132332D01*
Y1483868D01*
X1128268D01*
X1129284Y1484884D02*
Y1486916D01*
X1131316D01*
Y1484884D01*
X1129284D01*
X1102868Y1509268D02*
Y1513332D01*
X1106932D01*
Y1509268D01*
X1102868D01*
X1103884Y1510284D02*
Y1512316D01*
X1105916D01*
Y1510284D01*
X1103884D01*
X1128268Y1509268D02*
Y1513332D01*
X1132332D01*
Y1509268D01*
X1128268D01*
X1129284Y1510284D02*
Y1512316D01*
X1131316D01*
Y1510284D01*
X1129284D01*
D66*
X1479632Y423800D02*
G03*
X1479632Y423800I-2032J0D01*
G01*
X1542632Y329800D02*
G03*
X1542632Y329800I-2032J0D01*
G01*
X1479632Y588900D02*
G03*
X1479632Y588900I-2032J0D01*
G01*
X1542632Y494900D02*
G03*
X1542632Y494900I-2032J0D01*
G01*
X1479632Y754000D02*
G03*
X1479632Y754000I-2032J0D01*
G01*
X1542632Y660000D02*
G03*
X1542632Y660000I-2032J0D01*
G01*
X1352932Y791300D02*
G03*
X1352932Y791300I-2032J0D01*
G01*
X1258932Y686300D02*
G03*
X1258932Y686300I-2032J0D01*
G01*
X1479632Y919100D02*
G03*
X1479632Y919100I-2032J0D01*
G01*
X1542632Y825100D02*
G03*
X1542632Y825100I-2032J0D01*
G01*
X1352932Y1019900D02*
G03*
X1352932Y1019900I-2032J0D01*
G01*
X1258932Y914900D02*
G03*
X1258932Y914900I-2032J0D01*
G01*
X1542632Y990200D02*
G03*
X1542632Y990200I-2032J0D01*
G01*
X1479632Y1084200D02*
G03*
X1479632Y1084200I-2032J0D01*
G01*
X1352932Y1248500D02*
G03*
X1352932Y1248500I-2032J0D01*
G01*
X1258932Y1143500D02*
G03*
X1258932Y1143500I-2032J0D01*
G01*
X1479632Y1249300D02*
G03*
X1479632Y1249300I-2032J0D01*
G01*
X1542632Y1155300D02*
G03*
X1542632Y1155300I-2032J0D01*
G01*
X1352932Y1477100D02*
G03*
X1352932Y1477100I-2032J0D01*
G01*
X1258932Y1372100D02*
G03*
X1258932Y1372100I-2032J0D01*
G01*
X1479632Y1414400D02*
G03*
X1479632Y1414400I-2032J0D01*
G01*
X1542632Y1320400D02*
G03*
X1542632Y1320400I-2032J0D01*
G01*
X1479632Y1579500D02*
G03*
X1479632Y1579500I-2032J0D01*
G01*
X1542632Y1485500D02*
G03*
X1542632Y1485500I-2032J0D01*
G01*
X967632Y2061300D02*
G03*
X967632Y2061300I-2032J0D01*
G01*
X873632Y1998300D02*
G03*
X873632Y1998300I-2032J0D01*
G01*
X1051432D02*
G03*
X1051432Y1998300I-2032J0D01*
G01*
X1145432Y2061300D02*
G03*
X1145432Y2061300I-2032J0D01*
G01*
X358032Y1574300D02*
G03*
X358032Y1574300I-2032J0D01*
G01*
X264032Y1469300D02*
G03*
X264032Y1469300I-2032J0D01*
G01*
X61632Y1600600D02*
G03*
X61632Y1600600I-2032J0D01*
G01*
X124632Y1506600D02*
G03*
X124632Y1506600I-2032J0D01*
G01*
X282432Y470300D02*
G03*
X282432Y470300I-2032J0D01*
G01*
X387432Y376300D02*
G03*
X387432Y376300I-2032J0D01*
G01*
X61632Y711600D02*
G03*
X61632Y711600I-2032J0D01*
G01*
X124632Y617600D02*
G03*
X124632Y617600I-2032J0D01*
G01*
X358032Y1358400D02*
G03*
X358032Y1358400I-2032J0D01*
G01*
X264032Y1253400D02*
G03*
X264032Y1253400I-2032J0D01*
G01*
X358032Y913900D02*
G03*
X358032Y913900I-2032J0D01*
G01*
X264032Y808900D02*
G03*
X264032Y808900I-2032J0D01*
G01*
X61632Y1422800D02*
G03*
X61632Y1422800I-2032J0D01*
G01*
X124632Y1328800D02*
G03*
X124632Y1328800I-2032J0D01*
G01*
X61632Y889400D02*
G03*
X61632Y889400I-2032J0D01*
G01*
X124632Y795400D02*
G03*
X124632Y795400I-2032J0D01*
G01*
X61632Y533800D02*
G03*
X61632Y533800I-2032J0D01*
G01*
X124632Y439800D02*
G03*
X124632Y439800I-2032J0D01*
G01*
X61632Y1067200D02*
G03*
X61632Y1067200I-2032J0D01*
G01*
X124632Y973200D02*
G03*
X124632Y973200I-2032J0D01*
G01*
X61632Y1778400D02*
G03*
X61632Y1778400I-2032J0D01*
G01*
X124632Y1684400D02*
G03*
X124632Y1684400I-2032J0D01*
G01*
X61632Y1245000D02*
G03*
X61632Y1245000I-2032J0D01*
G01*
X124632Y1151000D02*
G03*
X124632Y1151000I-2032J0D01*
G01*
X61632Y356000D02*
G03*
X61632Y356000I-2032J0D01*
G01*
X124632Y262000D02*
G03*
X124632Y262000I-2032J0D01*
G01*
X358032Y685300D02*
G03*
X358032Y685300I-2032J0D01*
G01*
X264032Y580300D02*
G03*
X264032Y580300I-2032J0D01*
G01*
X358032Y1134200D02*
G03*
X358032Y1134200I-2032J0D01*
G01*
X264032Y1029200D02*
G03*
X264032Y1029200I-2032J0D01*
G01*
X259588Y891032D02*
G03*
X259588Y891032I-2032J0D01*
G01*
X295656Y1294892D02*
G03*
X295656Y1294892I-2032J0D01*
G01*
X381508Y1739900D02*
G03*
X381508Y1739900I-2032J0D01*
G01*
X195580Y1020572D02*
G03*
X195580Y1020572I-2032J0D01*
G01*
X304546Y1111504D02*
G03*
X304546Y1111504I-2032J0D01*
G01*
X465836Y1041400D02*
G03*
X465836Y1041400I-2032J0D01*
G01*
X296672Y835660D02*
G03*
X296672Y835660I-2032J0D01*
G01*
X274664Y226568D02*
G03*
X274664Y226568I-2032J0D01*
G01*
X939092Y221469D02*
G03*
X939092Y221469I-2032J0D01*
G01*
X898652Y190500D02*
G03*
X898652Y190500I-2032J0D01*
G01*
X1086612Y183896D02*
G03*
X1086612Y183896I-2032J0D01*
G01*
X628904D02*
G03*
X628904Y183896I-2032J0D01*
G01*
X916432Y157480D02*
G03*
X916432Y157480I-2032J0D01*
G01*
X441452Y190500D02*
G03*
X441452Y190500I-2032J0D01*
G01*
X609092Y155194D02*
G03*
X609092Y155194I-2032J0D01*
G01*
X471932Y294640D02*
G03*
X471932Y294640I-2032J0D01*
G01*
X682752Y1874520D02*
G03*
X682752Y1874520I-2032J0D01*
G01*
X591312Y1991360D02*
G03*
X591312Y1991360I-2032J0D01*
G01*
X560832Y1948180D02*
G03*
X560832Y1948180I-2032J0D01*
G01*
X1404239Y1455293D02*
G03*
X1404239Y1455293I-2032J0D01*
G01*
X1400810Y1293622D02*
G03*
X1400810Y1293622I-2032J0D01*
G01*
X1322832Y1206500D02*
G03*
X1322832Y1206500I-2032J0D01*
G01*
D67*
X258572Y891032D02*
G03*
X258572Y891032I-1016J0D01*
G01*
X294640Y1294892D02*
G03*
X294640Y1294892I-1016J0D01*
G01*
X380492Y1739900D02*
G03*
X380492Y1739900I-1016J0D01*
G01*
X194564Y1020572D02*
G03*
X194564Y1020572I-1016J0D01*
G01*
X303530Y1111504D02*
G03*
X303530Y1111504I-1016J0D01*
G01*
X464820Y1041400D02*
G03*
X464820Y1041400I-1016J0D01*
G01*
X295656Y835660D02*
G03*
X295656Y835660I-1016J0D01*
G01*
X273648Y226568D02*
G03*
X273648Y226568I-1016J0D01*
G01*
X938076Y221469D02*
G03*
X938076Y221469I-1016J0D01*
G01*
X897636Y190500D02*
G03*
X897636Y190500I-1016J0D01*
G01*
X1085596Y183896D02*
G03*
X1085596Y183896I-1016J0D01*
G01*
X627888D02*
G03*
X627888Y183896I-1016J0D01*
G01*
X915416Y157480D02*
G03*
X915416Y157480I-1016J0D01*
G01*
X440436Y190500D02*
G03*
X440436Y190500I-1016J0D01*
G01*
X608076Y155194D02*
G03*
X608076Y155194I-1016J0D01*
G01*
X470916Y294640D02*
G03*
X470916Y294640I-1016J0D01*
G01*
X681736Y1874520D02*
G03*
X681736Y1874520I-1016J0D01*
G01*
X590296Y1991360D02*
G03*
X590296Y1991360I-1016J0D01*
G01*
X559816Y1948180D02*
G03*
X559816Y1948180I-1016J0D01*
G01*
X1403223Y1455293D02*
G03*
X1403223Y1455293I-1016J0D01*
G01*
X1399794Y1293622D02*
G03*
X1399794Y1293622I-1016J0D01*
G01*
X1321816Y1206500D02*
G03*
X1321816Y1206500I-1016J0D01*
G01*
M02*
