G04*
G04 #@! TF.GenerationSoftware,Altium Limited,Altium Designer,21.8.1 (53)*
G04*
G04 Layer_Color=16711935*
%FSLAX44Y44*%
%MOMM*%
G71*
G04*
G04 #@! TF.SameCoordinates,803AB11E-904C-4F7A-9A81-77FAE9A3CB3A*
G04*
G04*
G04 #@! TF.FilePolarity,Positive*
G04*
G01*
G75*
%ADD11C,0.2000*%
%ADD14C,0.1270*%
%ADD63C,0.1000*%
D11*
X1417600Y1731400D02*
G03*
X1417600Y1731400I-1000J0D01*
G01*
X627100Y142100D02*
G03*
X627100Y142100I-1000J0D01*
G01*
X570450Y1990000D02*
G03*
X570450Y1990000I-1000J0D01*
G01*
X573850Y1882600D02*
G03*
X573850Y1882600I-1000J0D01*
G01*
X1088900Y139560D02*
G03*
X1088900Y139560I-1000J0D01*
G01*
X468600Y207200D02*
G03*
X468600Y207200I-1000J0D01*
G01*
X925800D02*
G03*
X925800Y207200I-1000J0D01*
G01*
X521700Y1533050D02*
G03*
X521700Y1533050I-1000J0D01*
G01*
X1131300D02*
G03*
X1131300Y1533050I-1000J0D01*
G01*
D14*
X1429600Y341300D02*
X1567600D01*
X1429600D02*
Y395300D01*
X1567600D01*
Y341300D02*
Y395300D01*
X1429600Y506400D02*
X1567600D01*
X1429600D02*
Y560400D01*
X1567600D01*
Y506400D02*
Y560400D01*
X1429600Y671500D02*
X1567600D01*
X1429600D02*
Y725500D01*
X1567600D01*
Y671500D02*
Y725500D01*
X1429600Y836600D02*
X1567600D01*
X1429600D02*
Y890600D01*
X1567600D01*
Y836600D02*
Y890600D01*
Y1001700D02*
Y1055700D01*
X1429600D02*
X1567600D01*
X1429600Y1001700D02*
Y1055700D01*
Y1001700D02*
X1567600D01*
X1429600Y1166800D02*
X1567600D01*
X1429600D02*
Y1220800D01*
X1567600D01*
Y1166800D02*
Y1220800D01*
X1429600Y1331900D02*
X1567600D01*
X1429600D02*
Y1385900D01*
X1567600D01*
Y1331900D02*
Y1385900D01*
X1429600Y1497000D02*
X1567600D01*
X1429600D02*
Y1551000D01*
X1567600D01*
Y1497000D02*
Y1551000D01*
X1423600Y1642400D02*
X1573600D01*
X1423600D02*
Y1756400D01*
X1573600D01*
Y1642400D02*
Y1756400D01*
X412850Y-55900D02*
Y130100D01*
Y-55900D02*
X720950D01*
Y130100D01*
X412850D02*
X720950D01*
X412850Y5100D02*
X720950D01*
X290500Y2041600D02*
X308500Y2059600D01*
X326500D01*
X344500Y2041600D01*
X290500Y1954600D02*
X344500D01*
X290500D02*
Y2041600D01*
X344500Y1954600D02*
Y2041600D01*
X782700Y2002000D02*
Y2188000D01*
X474600D02*
X782700D01*
X474600Y2002000D02*
Y2188000D01*
Y2002000D02*
X782700D01*
X474600Y2127000D02*
X782700D01*
X900100Y2088300D02*
X954100D01*
X900100Y1950300D02*
Y2088300D01*
Y1950300D02*
X954100D01*
Y2088300D01*
X1131900Y1950300D02*
Y2088300D01*
X1077900Y1950300D02*
X1131900D01*
X1077900D02*
Y2088300D01*
X1131900D01*
X572800Y1943550D02*
X671800D01*
X572800Y1904550D02*
X671800D01*
Y1943550D01*
X572800Y1904550D02*
Y1943550D01*
X874650Y-58440D02*
Y127560D01*
Y-58440D02*
X1182750D01*
Y127560D01*
X874650D02*
X1182750D01*
X874650Y2560D02*
X1182750D01*
X527500Y159625D02*
Y208675D01*
X488500Y159625D02*
Y208675D01*
Y159625D02*
X527500D01*
X488500Y208675D02*
X527500D01*
X984700Y159625D02*
Y208675D01*
X945700Y159625D02*
Y208675D01*
Y159625D02*
X984700D01*
X945700Y208675D02*
X984700D01*
X32600Y1535100D02*
Y1589100D01*
Y1535100D02*
X170600D01*
Y1589100D01*
X32600D02*
X170600D01*
X32600Y646100D02*
Y700100D01*
Y646100D02*
X170600D01*
Y700100D01*
X32600D02*
X170600D01*
X32600Y1357300D02*
Y1411300D01*
Y1357300D02*
X170600D01*
Y1411300D01*
X32600D02*
X170600D01*
X32600Y823900D02*
Y877900D01*
Y823900D02*
X170600D01*
Y877900D01*
X32600D02*
X170600D01*
X32600Y468300D02*
Y522300D01*
Y468300D02*
X170600D01*
Y522300D01*
X32600D02*
X170600D01*
X32600Y1001700D02*
Y1055700D01*
Y1001700D02*
X170600D01*
Y1055700D01*
X32600D02*
X170600D01*
X32600Y1712900D02*
Y1766900D01*
Y1712900D02*
X170600D01*
Y1766900D01*
X32600D02*
X170600D01*
X32600Y1179500D02*
Y1233500D01*
Y1179500D02*
X170600D01*
Y1233500D01*
X32600D02*
X170600D01*
X32600Y290500D02*
Y344500D01*
Y290500D02*
X170600D01*
Y344500D01*
X32600D02*
X170600D01*
D63*
X248050Y2010840D02*
Y2032840D01*
X234550Y2010840D02*
Y2032840D01*
X248050D01*
X234550Y2010840D02*
X248050D01*
X236550Y1964830D02*
X246050D01*
X236550Y1982330D02*
X246050D01*
X236550Y1964830D02*
Y1982330D01*
X246050Y1964830D02*
Y1982330D01*
X1305850Y1671650D02*
X1323350D01*
X1305850Y1681150D02*
X1323350D01*
Y1671650D02*
Y1681150D01*
X1305850Y1671650D02*
Y1681150D01*
X581800Y1878000D02*
X599300D01*
X581800Y1868500D02*
X599300D01*
X581800D02*
Y1878000D01*
X599300Y1868500D02*
Y1878000D01*
X613950D02*
X631450D01*
X613950Y1868500D02*
X631450D01*
X613950D02*
Y1878000D01*
X631450Y1868500D02*
Y1878000D01*
X645300D02*
X662800D01*
X645300Y1868500D02*
X662800D01*
X645300D02*
Y1878000D01*
X662800Y1868500D02*
Y1878000D01*
X554050Y1915300D02*
Y1932800D01*
X563550Y1915300D02*
Y1932800D01*
X554050Y1915300D02*
X563550D01*
X554050Y1932800D02*
X563550D01*
X575450Y1979600D02*
X592950D01*
X575450Y1970100D02*
X592950D01*
X575450D02*
Y1979600D01*
X592950Y1970100D02*
Y1979600D01*
X452450Y175400D02*
Y192900D01*
X461950Y175400D02*
Y192900D01*
X452450Y175400D02*
X461950D01*
X452450Y192900D02*
X461950D01*
X497000Y254400D02*
X519000D01*
X497000Y240900D02*
X519000D01*
X497000D02*
Y254400D01*
X519000Y240900D02*
Y254400D01*
X497000Y266300D02*
X519000D01*
X497000Y279800D02*
X519000D01*
Y266300D02*
Y279800D01*
X497000Y266300D02*
Y279800D01*
X556400Y192100D02*
X573900D01*
X556400Y201600D02*
X573900D01*
Y192100D02*
Y201600D01*
X556400Y192100D02*
Y201600D01*
Y176200D02*
X573900D01*
X556400Y166700D02*
X573900D01*
X556400D02*
Y176200D01*
X573900Y166700D02*
Y176200D01*
X594100Y179400D02*
X611600D01*
X594100Y188900D02*
X611600D01*
Y179400D02*
Y188900D01*
X594100Y179400D02*
Y188900D01*
X909650Y175400D02*
Y192900D01*
X919150Y175400D02*
Y192900D01*
X909650Y175400D02*
X919150D01*
X909650Y192900D02*
X919150D01*
X1013600Y176200D02*
X1031100D01*
X1013600Y166700D02*
X1031100D01*
X1013600D02*
Y176200D01*
X1031100Y166700D02*
Y176200D01*
X1013600Y192100D02*
X1031100D01*
X1013600Y201600D02*
X1031100D01*
Y192100D02*
Y201600D01*
X1013600Y192100D02*
Y201600D01*
X954200Y254400D02*
X976200D01*
X954200Y240900D02*
X976200D01*
X954200D02*
Y254400D01*
X976200Y240900D02*
Y254400D01*
X954200Y266300D02*
X976200D01*
X954200Y279800D02*
X976200D01*
Y266300D02*
Y279800D01*
X954200Y266300D02*
Y279800D01*
X1051700Y179400D02*
X1069200D01*
X1051700Y188900D02*
X1069200D01*
Y179400D02*
Y188900D01*
X1051700Y179400D02*
Y188900D01*
X483235Y632450D02*
X532765D01*
X483235D02*
Y1526550D01*
X532765D01*
Y632450D02*
Y1526550D01*
X483235Y632450D02*
X532765D01*
X483235D02*
Y1526550D01*
X532765D01*
X1092835D02*
X1142365D01*
X1092835Y632450D02*
Y1526550D01*
Y632450D02*
X1142365D01*
Y1526550D01*
X1092835D02*
X1142365D01*
X1092835Y632450D02*
Y1526550D01*
Y632450D02*
X1142365D01*
M02*
