G04*
G04 #@! TF.GenerationSoftware,Altium Limited,Altium Designer,21.8.1 (53)*
G04*
G04 Layer_Color=8421504*
%FSLAX44Y44*%
%MOMM*%
G71*
G04*
G04 #@! TF.SameCoordinates,803AB11E-904C-4F7A-9A81-77FAE9A3CB3A*
G04*
G04*
G04 #@! TF.FilePolarity,Positive*
G04*
G01*
G75*
G04:AMPARAMS|DCode=15|XSize=2.159mm|YSize=0.6858mm|CornerRadius=0.0857mm|HoleSize=0mm|Usage=FLASHONLY|Rotation=0.000|XOffset=0mm|YOffset=0mm|HoleType=Round|Shape=RoundedRectangle|*
%AMROUNDEDRECTD15*
21,1,2.1590,0.5143,0,0,0.0*
21,1,1.9876,0.6858,0,0,0.0*
1,1,0.1715,0.9938,-0.2572*
1,1,0.1715,-0.9938,-0.2572*
1,1,0.1715,-0.9938,0.2572*
1,1,0.1715,0.9938,0.2572*
%
%ADD15ROUNDEDRECTD15*%
%ADD16R,1.2000X1.2000*%
%ADD17R,0.9500X0.8500*%
%ADD18R,0.8500X0.9500*%
%ADD19R,0.9000X1.0000*%
G04:AMPARAMS|DCode=20|XSize=2.159mm|YSize=0.6858mm|CornerRadius=0.0857mm|HoleSize=0mm|Usage=FLASHONLY|Rotation=90.000|XOffset=0mm|YOffset=0mm|HoleType=Round|Shape=RoundedRectangle|*
%AMROUNDEDRECTD20*
21,1,2.1590,0.5143,0,0,90.0*
21,1,1.9876,0.6858,0,0,90.0*
1,1,0.1715,0.2572,0.9938*
1,1,0.1715,0.2572,-0.9938*
1,1,0.1715,-0.2572,-0.9938*
1,1,0.1715,-0.2572,0.9938*
%
%ADD20ROUNDEDRECTD20*%
%ADD21R,1.0000X0.9000*%
%ADD22R,1.1500X1.3500*%
D15*
X989900Y165100D02*
D03*
Y177800D02*
D03*
Y190500D02*
D03*
Y203200D02*
D03*
X940500D02*
D03*
Y190500D02*
D03*
Y177800D02*
D03*
Y165100D02*
D03*
X532700D02*
D03*
Y177800D02*
D03*
Y190500D02*
D03*
Y203200D02*
D03*
X483300D02*
D03*
Y190500D02*
D03*
Y177800D02*
D03*
Y165100D02*
D03*
D16*
X241300Y2032340D02*
D03*
Y2011340D02*
D03*
D17*
Y1967080D02*
D03*
Y1980080D02*
D03*
D18*
X1321100Y1676400D02*
D03*
X1308100D02*
D03*
X571650Y196850D02*
D03*
X558650D02*
D03*
Y171450D02*
D03*
X571650D02*
D03*
X1015850D02*
D03*
X1028850D02*
D03*
Y196850D02*
D03*
X1015850D02*
D03*
D19*
X583800Y1873250D02*
D03*
X597300D02*
D03*
X615950D02*
D03*
X629450D02*
D03*
X647300D02*
D03*
X660800D02*
D03*
X577450Y1974850D02*
D03*
X590950D02*
D03*
X609600Y184150D02*
D03*
X596100D02*
D03*
X1067200D02*
D03*
X1053700D02*
D03*
D20*
X577850Y1948800D02*
D03*
X590550D02*
D03*
X603250D02*
D03*
X615950D02*
D03*
X628650D02*
D03*
X641350D02*
D03*
X654050D02*
D03*
X666750D02*
D03*
Y1899300D02*
D03*
X654050D02*
D03*
X641350D02*
D03*
X628650D02*
D03*
X615950D02*
D03*
X603250D02*
D03*
X590550D02*
D03*
X577850D02*
D03*
D21*
X558800Y1917300D02*
D03*
Y1930800D02*
D03*
X457200Y177400D02*
D03*
Y190900D02*
D03*
X914400Y177400D02*
D03*
Y190900D02*
D03*
D22*
X499250Y247650D02*
D03*
X516750D02*
D03*
Y273050D02*
D03*
X499250D02*
D03*
X956450Y247650D02*
D03*
X973950D02*
D03*
Y273050D02*
D03*
X956450D02*
D03*
M02*
